<svg width="656" height="384" viewBox="0 0 656 384" fill="none" xmlns="http://www.w3.org/2000/svg">
<rect width="656" height="384" rx="5" fill="white"/>
<path d="M279.106 345.241H281.193L284.284 354.337L287.353 345.241H289.418V356H288.034V349.65C288.034 349.43 288.039 349.066 288.049 348.559C288.059 348.051 288.063 347.506 288.063 346.925L284.995 356H283.552L280.461 346.925V347.255C280.461 347.519 280.466 347.921 280.476 348.463C280.49 349 280.498 349.396 280.498 349.65V356H279.106V345.241ZM291.462 348.192H292.802V356H291.462V348.192ZM291.462 345.241H292.802V346.735H291.462V345.241ZM294.838 345.241H296.157V356H294.838V345.241ZM298.178 345.241H299.497V356H298.178V345.241ZM301.481 348.192H302.822V356H301.481V348.192ZM301.481 345.241H302.822V346.735H301.481V345.241ZM307.934 355.15C308.808 355.15 309.406 354.821 309.729 354.162C310.056 353.498 310.219 352.76 310.219 351.95C310.219 351.217 310.102 350.622 309.868 350.163C309.497 349.44 308.857 349.079 307.949 349.079C307.143 349.079 306.557 349.386 306.191 350.001C305.825 350.617 305.642 351.359 305.642 352.228C305.642 353.063 305.825 353.759 306.191 354.315C306.557 354.872 307.138 355.15 307.934 355.15ZM307.985 347.929C308.996 347.929 309.851 348.266 310.549 348.939C311.247 349.613 311.596 350.604 311.596 351.913C311.596 353.178 311.289 354.223 310.673 355.048C310.058 355.873 309.104 356.286 307.81 356.286C306.73 356.286 305.874 355.922 305.239 355.194C304.604 354.462 304.287 353.48 304.287 352.25C304.287 350.932 304.621 349.882 305.29 349.101C305.959 348.319 306.857 347.929 307.985 347.929ZM313.171 348.156H314.423V349.269C314.794 348.81 315.188 348.48 315.603 348.28C316.018 348.08 316.479 347.98 316.987 347.98C318.1 347.98 318.852 348.368 319.243 349.145C319.458 349.569 319.565 350.177 319.565 350.968V356H318.225V351.056C318.225 350.578 318.154 350.192 318.012 349.899C317.778 349.411 317.353 349.167 316.738 349.167C316.425 349.167 316.169 349.198 315.969 349.262C315.607 349.369 315.29 349.584 315.017 349.906C314.797 350.165 314.653 350.434 314.584 350.712C314.521 350.985 314.489 351.378 314.489 351.891V356H313.171V348.156ZM322.304 353.539C322.343 353.979 322.453 354.315 322.634 354.55C322.966 354.975 323.542 355.187 324.362 355.187C324.851 355.187 325.28 355.082 325.651 354.872C326.022 354.657 326.208 354.328 326.208 353.883C326.208 353.546 326.059 353.29 325.761 353.114C325.571 353.007 325.195 352.882 324.633 352.741L323.586 352.477C322.917 352.311 322.424 352.125 322.106 351.92C321.54 351.564 321.257 351.071 321.257 350.441C321.257 349.699 321.523 349.098 322.055 348.639C322.592 348.18 323.312 347.951 324.216 347.951C325.397 347.951 326.25 348.297 326.772 348.991C327.099 349.43 327.258 349.904 327.248 350.412H326.003C325.979 350.114 325.874 349.843 325.688 349.599C325.385 349.252 324.86 349.079 324.113 349.079C323.615 349.079 323.237 349.174 322.978 349.364C322.724 349.555 322.597 349.806 322.597 350.119C322.597 350.46 322.766 350.734 323.103 350.939C323.298 351.061 323.586 351.168 323.967 351.261L324.838 351.474C325.786 351.703 326.42 351.925 326.743 352.14C327.255 352.477 327.512 353.007 327.512 353.729C327.512 354.428 327.246 355.031 326.713 355.539C326.186 356.046 325.38 356.3 324.296 356.3C323.129 356.3 322.302 356.037 321.813 355.509C321.33 354.977 321.071 354.32 321.037 353.539H322.304ZM336.308 355.15C337.182 355.15 337.78 354.821 338.103 354.162C338.43 353.498 338.593 352.76 338.593 351.95C338.593 351.217 338.476 350.622 338.242 350.163C337.871 349.44 337.231 349.079 336.323 349.079C335.517 349.079 334.931 349.386 334.565 350.001C334.199 350.617 334.016 351.359 334.016 352.228C334.016 353.063 334.199 353.759 334.565 354.315C334.931 354.872 335.512 355.15 336.308 355.15ZM336.359 347.929C337.37 347.929 338.225 348.266 338.923 348.939C339.621 349.613 339.97 350.604 339.97 351.913C339.97 353.178 339.663 354.223 339.047 355.048C338.432 355.873 337.478 356.286 336.184 356.286C335.104 356.286 334.248 355.922 333.613 355.194C332.978 354.462 332.661 353.48 332.661 352.25C332.661 350.932 332.995 349.882 333.664 349.101C334.333 348.319 335.231 347.929 336.359 347.929ZM341.875 346.962C341.894 346.415 341.989 346.015 342.16 345.761C342.468 345.312 343.061 345.087 343.94 345.087C344.023 345.087 344.108 345.089 344.196 345.094C344.284 345.099 344.384 345.106 344.497 345.116V346.317C344.36 346.308 344.26 346.303 344.196 346.303C344.138 346.298 344.082 346.295 344.028 346.295C343.627 346.295 343.388 346.4 343.31 346.61C343.232 346.815 343.193 347.343 343.193 348.192H344.497V349.232H343.178V356H341.875V349.232H340.783V348.192H341.875V346.962ZM353.007 355.15C353.881 355.15 354.479 354.821 354.802 354.162C355.129 353.498 355.292 352.76 355.292 351.95C355.292 351.217 355.175 350.622 354.941 350.163C354.57 349.44 353.93 349.079 353.022 349.079C352.216 349.079 351.63 349.386 351.264 350.001C350.898 350.617 350.715 351.359 350.715 352.228C350.715 353.063 350.898 353.759 351.264 354.315C351.63 354.872 352.211 355.15 353.007 355.15ZM353.059 347.929C354.069 347.929 354.924 348.266 355.622 348.939C356.32 349.613 356.669 350.604 356.669 351.913C356.669 353.178 356.362 354.223 355.747 355.048C355.131 355.873 354.177 356.286 352.883 356.286C351.804 356.286 350.947 355.922 350.312 355.194C349.677 354.462 349.36 353.48 349.36 352.25C349.36 350.932 349.694 349.882 350.363 349.101C351.032 348.319 351.931 347.929 353.059 347.929ZM361.555 355.114C362.17 355.114 362.68 354.857 363.085 354.345C363.496 353.827 363.701 353.056 363.701 352.03C363.701 351.405 363.61 350.868 363.43 350.419C363.088 349.555 362.463 349.123 361.555 349.123C360.642 349.123 360.017 349.579 359.68 350.492C359.499 350.98 359.409 351.601 359.409 352.353C359.409 352.958 359.499 353.473 359.68 353.898C360.021 354.708 360.646 355.114 361.555 355.114ZM358.142 348.192H359.423V349.232C359.687 348.876 359.975 348.6 360.288 348.405C360.732 348.112 361.254 347.965 361.855 347.965C362.744 347.965 363.498 348.307 364.118 348.991C364.738 349.669 365.048 350.641 365.048 351.906C365.048 353.615 364.602 354.835 363.708 355.568C363.142 356.032 362.482 356.264 361.73 356.264C361.14 356.264 360.644 356.134 360.244 355.875C360.009 355.729 359.748 355.478 359.46 355.121V359.127H358.142V348.192ZM369.86 347.98C370.417 347.98 370.957 348.112 371.479 348.375C372.001 348.634 372.399 348.971 372.673 349.386C372.937 349.782 373.112 350.243 373.2 350.771C373.278 351.132 373.317 351.708 373.317 352.499H367.568C367.592 353.295 367.78 353.935 368.132 354.418C368.483 354.896 369.028 355.136 369.765 355.136C370.454 355.136 371.003 354.909 371.413 354.455C371.647 354.191 371.813 353.886 371.911 353.539H373.208C373.173 353.827 373.059 354.149 372.863 354.506C372.673 354.857 372.458 355.146 372.219 355.37C371.818 355.761 371.323 356.024 370.732 356.161C370.415 356.239 370.056 356.278 369.655 356.278C368.679 356.278 367.851 355.924 367.172 355.216C366.494 354.503 366.154 353.507 366.154 352.228C366.154 350.968 366.496 349.945 367.18 349.159C367.863 348.373 368.757 347.98 369.86 347.98ZM371.962 351.452C371.909 350.88 371.784 350.424 371.589 350.082C371.228 349.447 370.625 349.13 369.78 349.13C369.174 349.13 368.667 349.35 368.256 349.789C367.846 350.224 367.629 350.778 367.604 351.452H371.962ZM374.98 348.156H376.232V349.511C376.335 349.247 376.586 348.927 376.987 348.551C377.387 348.17 377.849 347.98 378.371 347.98C378.396 347.98 378.437 347.982 378.496 347.987C378.554 347.992 378.654 348.002 378.796 348.017V349.408C378.718 349.394 378.645 349.384 378.576 349.379C378.513 349.374 378.442 349.372 378.364 349.372C377.7 349.372 377.189 349.586 376.833 350.016C376.477 350.441 376.298 350.932 376.298 351.488V356H374.98V348.156ZM380.949 353.913C380.949 354.293 381.088 354.594 381.367 354.813C381.645 355.033 381.975 355.143 382.355 355.143C382.819 355.143 383.269 355.036 383.703 354.821C384.436 354.464 384.802 353.881 384.802 353.07V352.008C384.641 352.111 384.433 352.196 384.179 352.265C383.925 352.333 383.676 352.382 383.432 352.411L382.634 352.514C382.155 352.577 381.796 352.677 381.557 352.814C381.152 353.043 380.949 353.41 380.949 353.913ZM384.143 351.247C384.445 351.208 384.648 351.081 384.75 350.866C384.809 350.749 384.838 350.58 384.838 350.36C384.838 349.911 384.677 349.586 384.355 349.386C384.038 349.181 383.581 349.079 382.985 349.079C382.297 349.079 381.809 349.264 381.521 349.635C381.359 349.84 381.254 350.146 381.206 350.551H379.975C380 349.584 380.312 348.913 380.913 348.537C381.518 348.156 382.219 347.965 383.015 347.965C383.938 347.965 384.687 348.141 385.263 348.493C385.834 348.844 386.12 349.391 386.12 350.133V354.652C386.12 354.789 386.147 354.899 386.201 354.982C386.259 355.065 386.379 355.106 386.56 355.106C386.618 355.106 386.684 355.104 386.757 355.099C386.831 355.089 386.909 355.077 386.992 355.062V356.037C386.787 356.095 386.63 356.132 386.523 356.146C386.416 356.161 386.269 356.168 386.083 356.168C385.629 356.168 385.3 356.007 385.095 355.685C384.987 355.514 384.912 355.272 384.868 354.96C384.599 355.312 384.213 355.617 383.71 355.875C383.208 356.134 382.653 356.264 382.048 356.264C381.32 356.264 380.725 356.044 380.261 355.604C379.802 355.16 379.572 354.606 379.572 353.942C379.572 353.214 379.799 352.65 380.253 352.25C380.708 351.85 381.303 351.603 382.041 351.51L384.143 351.247ZM388.552 345.966H389.885V348.156H391.137V349.232H389.885V354.352C389.885 354.625 389.978 354.809 390.163 354.901C390.266 354.955 390.437 354.982 390.676 354.982C390.739 354.982 390.808 354.982 390.881 354.982C390.954 354.977 391.04 354.97 391.137 354.96V356C390.986 356.044 390.827 356.076 390.661 356.095C390.5 356.115 390.324 356.125 390.134 356.125C389.519 356.125 389.101 355.968 388.881 355.656C388.662 355.338 388.552 354.928 388.552 354.425V349.232H387.49V348.156H388.552V345.966ZM392.463 348.192H393.803V356H392.463V348.192ZM392.463 345.241H393.803V346.735H392.463V345.241ZM398.916 355.15C399.79 355.15 400.388 354.821 400.71 354.162C401.037 353.498 401.201 352.76 401.201 351.95C401.201 351.217 401.083 350.622 400.849 350.163C400.478 349.44 399.838 349.079 398.93 349.079C398.125 349.079 397.539 349.386 397.172 350.001C396.806 350.617 396.623 351.359 396.623 352.228C396.623 353.063 396.806 353.759 397.172 354.315C397.539 354.872 398.12 355.15 398.916 355.15ZM398.967 347.929C399.978 347.929 400.832 348.266 401.53 348.939C402.229 349.613 402.578 350.604 402.578 351.913C402.578 353.178 402.27 354.223 401.655 355.048C401.04 355.873 400.085 356.286 398.791 356.286C397.712 356.286 396.855 355.922 396.22 355.194C395.585 354.462 395.268 353.48 395.268 352.25C395.268 350.932 395.603 349.882 396.271 349.101C396.94 348.319 397.839 347.929 398.967 347.929ZM404.152 348.156H405.405V349.269C405.776 348.81 406.169 348.48 406.584 348.28C406.999 348.08 407.46 347.98 407.968 347.98C409.082 347.98 409.833 348.368 410.224 349.145C410.439 349.569 410.546 350.177 410.546 350.968V356H409.206V351.056C409.206 350.578 409.135 350.192 408.994 349.899C408.759 349.411 408.334 349.167 407.719 349.167C407.407 349.167 407.15 349.198 406.95 349.262C406.589 349.369 406.271 349.584 405.998 349.906C405.778 350.165 405.634 350.434 405.566 350.712C405.502 350.985 405.471 351.378 405.471 351.891V356H404.152V348.156ZM413.286 353.539C413.325 353.979 413.435 354.315 413.615 354.55C413.947 354.975 414.523 355.187 415.344 355.187C415.832 355.187 416.262 355.082 416.633 354.872C417.004 354.657 417.189 354.328 417.189 353.883C417.189 353.546 417.041 353.29 416.743 353.114C416.552 353.007 416.176 352.882 415.615 352.741L414.567 352.477C413.898 352.311 413.405 352.125 413.088 351.92C412.521 351.564 412.238 351.071 412.238 350.441C412.238 349.699 412.504 349.098 413.037 348.639C413.574 348.18 414.294 347.951 415.197 347.951C416.379 347.951 417.231 348.297 417.753 348.991C418.081 349.43 418.239 349.904 418.229 350.412H416.984C416.96 350.114 416.855 349.843 416.669 349.599C416.367 349.252 415.842 349.079 415.095 349.079C414.597 349.079 414.218 349.174 413.959 349.364C413.706 349.555 413.579 349.806 413.579 350.119C413.579 350.46 413.747 350.734 414.084 350.939C414.279 351.061 414.567 351.168 414.948 351.261L415.82 351.474C416.767 351.703 417.402 351.925 417.724 352.14C418.237 352.477 418.493 353.007 418.493 353.729C418.493 354.428 418.227 355.031 417.695 355.539C417.167 356.046 416.362 356.3 415.278 356.3C414.111 356.3 413.283 356.037 412.795 355.509C412.312 354.977 412.053 354.32 412.019 353.539H413.286ZM427.487 355.114C428.103 355.114 428.613 354.857 429.018 354.345C429.428 353.827 429.633 353.056 429.633 352.03C429.633 351.405 429.543 350.868 429.362 350.419C429.021 349.555 428.396 349.123 427.487 349.123C426.574 349.123 425.949 349.579 425.612 350.492C425.432 350.98 425.341 351.601 425.341 352.353C425.341 352.958 425.432 353.473 425.612 353.898C425.954 354.708 426.579 355.114 427.487 355.114ZM424.074 348.192H425.356V349.232C425.62 348.876 425.908 348.6 426.22 348.405C426.665 348.112 427.187 347.965 427.788 347.965C428.676 347.965 429.431 348.307 430.051 348.991C430.671 349.669 430.981 350.641 430.981 351.906C430.981 353.615 430.534 354.835 429.641 355.568C429.074 356.032 428.415 356.264 427.663 356.264C427.072 356.264 426.577 356.134 426.176 355.875C425.942 355.729 425.681 355.478 425.393 355.121V359.127H424.074V348.192ZM435.793 347.98C436.35 347.98 436.889 348.112 437.412 348.375C437.934 348.634 438.332 348.971 438.605 349.386C438.869 349.782 439.045 350.243 439.133 350.771C439.211 351.132 439.25 351.708 439.25 352.499H433.5C433.525 353.295 433.713 353.935 434.064 354.418C434.416 354.896 434.96 355.136 435.698 355.136C436.386 355.136 436.936 354.909 437.346 354.455C437.58 354.191 437.746 353.886 437.844 353.539H439.14C439.106 353.827 438.991 354.149 438.796 354.506C438.605 354.857 438.391 355.146 438.151 355.37C437.751 355.761 437.255 356.024 436.665 356.161C436.347 356.239 435.988 356.278 435.588 356.278C434.611 356.278 433.784 355.924 433.105 355.216C432.426 354.503 432.087 353.507 432.087 352.228C432.087 350.968 432.429 349.945 433.112 349.159C433.796 348.373 434.689 347.98 435.793 347.98ZM437.895 351.452C437.841 350.88 437.717 350.424 437.521 350.082C437.16 349.447 436.557 349.13 435.712 349.13C435.107 349.13 434.599 349.35 434.189 349.789C433.779 350.224 433.562 350.778 433.537 351.452H437.895ZM440.913 348.156H442.165V349.511C442.268 349.247 442.519 348.927 442.919 348.551C443.32 348.17 443.781 347.98 444.304 347.98C444.328 347.98 444.37 347.982 444.428 347.987C444.487 347.992 444.587 348.002 444.729 348.017V349.408C444.65 349.394 444.577 349.384 444.509 349.379C444.445 349.374 444.375 349.372 444.296 349.372C443.632 349.372 443.122 349.586 442.766 350.016C442.409 350.441 442.231 350.932 442.231 351.488V356H440.913V348.156ZM450.83 353.539C450.869 353.979 450.979 354.315 451.159 354.55C451.491 354.975 452.067 355.187 452.888 355.187C453.376 355.187 453.806 355.082 454.177 354.872C454.548 354.657 454.733 354.328 454.733 353.883C454.733 353.546 454.584 353.29 454.287 353.114C454.096 353.007 453.72 352.882 453.159 352.741L452.111 352.477C451.442 352.311 450.949 352.125 450.632 351.92C450.065 351.564 449.782 351.071 449.782 350.441C449.782 349.699 450.048 349.098 450.581 348.639C451.118 348.18 451.838 347.951 452.741 347.951C453.923 347.951 454.775 348.297 455.297 348.991C455.625 349.43 455.783 349.904 455.773 350.412H454.528C454.504 350.114 454.399 349.843 454.213 349.599C453.911 349.252 453.386 349.079 452.639 349.079C452.141 349.079 451.762 349.174 451.503 349.364C451.25 349.555 451.123 349.806 451.123 350.119C451.123 350.46 451.291 350.734 451.628 350.939C451.823 351.061 452.111 351.168 452.492 351.261L453.364 351.474C454.311 351.703 454.946 351.925 455.268 352.14C455.781 352.477 456.037 353.007 456.037 353.729C456.037 354.428 455.771 355.031 455.239 355.539C454.711 356.046 453.906 356.3 452.822 356.3C451.655 356.3 450.827 356.037 450.339 355.509C449.855 354.977 449.597 354.32 449.562 353.539H450.83ZM460.812 347.98C461.369 347.98 461.909 348.112 462.431 348.375C462.954 348.634 463.352 348.971 463.625 349.386C463.889 349.782 464.064 350.243 464.152 350.771C464.23 351.132 464.27 351.708 464.27 352.499H458.52C458.544 353.295 458.732 353.935 459.084 354.418C459.436 354.896 459.98 355.136 460.717 355.136C461.406 355.136 461.955 354.909 462.365 354.455C462.6 354.191 462.766 353.886 462.863 353.539H464.16C464.125 353.827 464.011 354.149 463.815 354.506C463.625 354.857 463.41 355.146 463.171 355.37C462.771 355.761 462.275 356.024 461.684 356.161C461.367 356.239 461.008 356.278 460.607 356.278C459.631 356.278 458.803 355.924 458.125 355.216C457.446 354.503 457.106 353.507 457.106 352.228C457.106 350.968 457.448 349.945 458.132 349.159C458.815 348.373 459.709 347.98 460.812 347.98ZM462.915 351.452C462.861 350.88 462.736 350.424 462.541 350.082C462.18 349.447 461.577 349.13 460.732 349.13C460.126 349.13 459.619 349.35 459.208 349.789C458.798 350.224 458.581 350.778 458.557 351.452H462.915ZM468.92 347.929C469.804 347.929 470.522 348.144 471.074 348.573C471.63 349.003 471.965 349.743 472.077 350.792H470.795C470.717 350.309 470.539 349.909 470.261 349.591C469.982 349.269 469.536 349.108 468.92 349.108C468.081 349.108 467.48 349.518 467.119 350.338C466.884 350.871 466.767 351.527 466.767 352.309C466.767 353.095 466.933 353.756 467.265 354.293C467.597 354.831 468.12 355.099 468.833 355.099C469.379 355.099 469.812 354.933 470.129 354.601C470.451 354.264 470.673 353.805 470.795 353.224H472.077C471.931 354.264 471.564 355.026 470.979 355.509C470.393 355.988 469.643 356.227 468.73 356.227C467.705 356.227 466.887 355.854 466.276 355.106C465.666 354.354 465.361 353.417 465.361 352.294C465.361 350.917 465.695 349.845 466.364 349.079C467.033 348.312 467.885 347.929 468.92 347.929ZM476.508 355.15C477.382 355.15 477.98 354.821 478.303 354.162C478.63 353.498 478.793 352.76 478.793 351.95C478.793 351.217 478.676 350.622 478.442 350.163C478.071 349.44 477.431 349.079 476.523 349.079C475.717 349.079 475.131 349.386 474.765 350.001C474.399 350.617 474.216 351.359 474.216 352.228C474.216 353.063 474.399 353.759 474.765 354.315C475.131 354.872 475.712 355.15 476.508 355.15ZM476.56 347.929C477.57 347.929 478.425 348.266 479.123 348.939C479.821 349.613 480.17 350.604 480.17 351.913C480.17 353.178 479.863 354.223 479.248 355.048C478.632 355.873 477.678 356.286 476.384 356.286C475.305 356.286 474.448 355.922 473.813 355.194C473.178 354.462 472.861 353.48 472.861 352.25C472.861 350.932 473.195 349.882 473.864 349.101C474.533 348.319 475.432 347.929 476.56 347.929ZM481.745 348.156H482.998V349.269C483.369 348.81 483.762 348.48 484.177 348.28C484.592 348.08 485.053 347.98 485.561 347.98C486.674 347.98 487.426 348.368 487.817 349.145C488.032 349.569 488.139 350.177 488.139 350.968V356H486.799V351.056C486.799 350.578 486.728 350.192 486.586 349.899C486.352 349.411 485.927 349.167 485.312 349.167C485 349.167 484.743 349.198 484.543 349.262C484.182 349.369 483.864 349.584 483.591 349.906C483.371 350.165 483.227 350.434 483.159 350.712C483.095 350.985 483.063 351.378 483.063 351.891V356H481.745V348.156ZM490.93 352.169C490.93 353.009 491.108 353.712 491.464 354.279C491.821 354.845 492.392 355.128 493.178 355.128C493.789 355.128 494.289 354.867 494.68 354.345C495.075 353.817 495.273 353.063 495.273 352.082C495.273 351.09 495.07 350.358 494.665 349.884C494.26 349.406 493.759 349.167 493.164 349.167C492.5 349.167 491.96 349.42 491.545 349.928C491.135 350.436 490.93 351.183 490.93 352.169ZM492.915 348.017C493.515 348.017 494.018 348.144 494.423 348.397C494.658 348.544 494.924 348.8 495.222 349.167V345.204H496.489V356H495.302V354.909C494.995 355.392 494.631 355.741 494.211 355.956C493.791 356.171 493.31 356.278 492.768 356.278C491.894 356.278 491.137 355.912 490.498 355.18C489.858 354.442 489.538 353.463 489.538 352.243C489.538 351.1 489.829 350.111 490.41 349.276C490.996 348.437 491.831 348.017 492.915 348.017Z" fill="black"/>
<path d="M245 28C245 27.4477 245.448 27 246 27H256C256.552 27 257 27.4477 257 28V38C257 38.5523 256.552 39 256 39H246C245.448 39 245 38.5523 245 38V28Z" fill="#4285F4"/>
<path d="M408 28C408 27.4477 408.448 27 409 27H419C419.552 27 420 27.4477 420 28V38C420 38.5523 419.552 39 419 39H409C408.448 39 408 38.5523 408 38V28Z" fill="#EA4335"/>
<path d="M266.143 27.2407H267.6V36.7183H273.049V38H266.143V27.2407ZM277.429 37.1504C278.303 37.1504 278.901 36.8208 279.224 36.1616C279.551 35.4976 279.714 34.7603 279.714 33.9497C279.714 33.2173 279.597 32.6216 279.363 32.1626C278.992 31.4399 278.352 31.0786 277.444 31.0786C276.638 31.0786 276.052 31.3862 275.686 32.0015C275.32 32.6167 275.137 33.3589 275.137 34.228C275.137 35.063 275.32 35.7588 275.686 36.3154C276.052 36.8721 276.633 37.1504 277.429 37.1504ZM277.48 29.9287C278.491 29.9287 279.346 30.2656 280.044 30.9395C280.742 31.6133 281.091 32.6045 281.091 33.9131C281.091 35.1777 280.784 36.2227 280.168 37.0479C279.553 37.873 278.599 38.2856 277.305 38.2856C276.226 38.2856 275.369 37.9219 274.734 37.1943C274.099 36.4619 273.782 35.4805 273.782 34.25C273.782 32.9316 274.116 31.8818 274.785 31.1006C275.454 30.3193 276.353 29.9287 277.48 29.9287ZM285.779 37.1504C286.653 37.1504 287.251 36.8208 287.573 36.1616C287.9 35.4976 288.064 34.7603 288.064 33.9497C288.064 33.2173 287.947 32.6216 287.712 32.1626C287.341 31.4399 286.702 31.0786 285.793 31.0786C284.988 31.0786 284.402 31.3862 284.036 32.0015C283.669 32.6167 283.486 33.3589 283.486 34.228C283.486 35.063 283.669 35.7588 284.036 36.3154C284.402 36.8721 284.983 37.1504 285.779 37.1504ZM285.83 29.9287C286.841 29.9287 287.695 30.2656 288.394 30.9395C289.092 31.6133 289.441 32.6045 289.441 33.9131C289.441 35.1777 289.133 36.2227 288.518 37.0479C287.903 37.873 286.948 38.2856 285.654 38.2856C284.575 38.2856 283.718 37.9219 283.083 37.1943C282.449 36.4619 282.131 35.4805 282.131 34.25C282.131 32.9316 282.466 31.8818 283.135 31.1006C283.804 30.3193 284.702 29.9287 285.83 29.9287ZM291.799 35.5391C291.838 35.9785 291.948 36.3154 292.129 36.5498C292.461 36.9746 293.037 37.187 293.857 37.187C294.346 37.187 294.775 37.082 295.146 36.8721C295.518 36.6572 295.703 36.3276 295.703 35.8833C295.703 35.5464 295.554 35.29 295.256 35.1143C295.066 35.0068 294.69 34.8823 294.128 34.7407L293.081 34.4771C292.412 34.311 291.919 34.1255 291.602 33.9204C291.035 33.564 290.752 33.0708 290.752 32.4409C290.752 31.6987 291.018 31.0981 291.55 30.6392C292.087 30.1802 292.808 29.9507 293.711 29.9507C294.893 29.9507 295.745 30.2974 296.267 30.9907C296.594 31.4302 296.753 31.9038 296.743 32.4116H295.498C295.474 32.1138 295.369 31.8428 295.183 31.5986C294.88 31.252 294.355 31.0786 293.608 31.0786C293.11 31.0786 292.732 31.1738 292.473 31.3643C292.219 31.5547 292.092 31.8062 292.092 32.1187C292.092 32.4604 292.261 32.7339 292.598 32.939C292.793 33.061 293.081 33.1685 293.462 33.2612L294.333 33.4736C295.281 33.7031 295.916 33.9253 296.238 34.1401C296.75 34.4771 297.007 35.0068 297.007 35.7295C297.007 36.4277 296.741 37.0308 296.208 37.5386C295.681 38.0464 294.875 38.3003 293.792 38.3003C292.625 38.3003 291.797 38.0366 291.309 37.5093C290.825 36.9771 290.566 36.3203 290.532 35.5391H291.799ZM301.782 29.98C302.339 29.98 302.878 30.1118 303.401 30.3755C303.923 30.6343 304.321 30.9712 304.595 31.3862C304.858 31.7817 305.034 32.2432 305.122 32.7705C305.2 33.1318 305.239 33.708 305.239 34.499H299.49C299.514 35.2949 299.702 35.9346 300.054 36.418C300.405 36.8965 300.95 37.1357 301.687 37.1357C302.375 37.1357 302.925 36.9087 303.335 36.4546C303.569 36.1909 303.735 35.8857 303.833 35.5391H305.129C305.095 35.8271 304.98 36.1494 304.785 36.5059C304.595 36.8574 304.38 37.1455 304.141 37.3701C303.74 37.7607 303.245 38.0244 302.654 38.1611C302.336 38.2393 301.978 38.2783 301.577 38.2783C300.601 38.2783 299.773 37.9243 299.094 37.2163C298.416 36.5034 298.076 35.5073 298.076 34.228C298.076 32.9683 298.418 31.9453 299.102 31.1592C299.785 30.373 300.679 29.98 301.782 29.98ZM303.884 33.4517C303.831 32.8804 303.706 32.4238 303.511 32.082C303.149 31.4473 302.546 31.1299 301.702 31.1299C301.096 31.1299 300.588 31.3496 300.178 31.7891C299.768 32.2236 299.551 32.7778 299.526 33.4517H303.884ZM311.685 30.1558L313.779 36.5425L315.969 30.1558H317.412L314.453 38H313.047L310.154 30.1558H311.685ZM319.551 35.9126C319.551 36.2935 319.69 36.5938 319.968 36.8135C320.247 37.0332 320.576 37.1431 320.957 37.1431C321.421 37.1431 321.87 37.0356 322.305 36.8208C323.037 36.4644 323.403 35.8809 323.403 35.0703V34.0083C323.242 34.1108 323.035 34.1963 322.781 34.2646C322.527 34.333 322.278 34.3818 322.034 34.4111L321.235 34.5137C320.757 34.5771 320.398 34.6772 320.159 34.814C319.753 35.0435 319.551 35.4097 319.551 35.9126ZM322.744 33.2466C323.047 33.2075 323.25 33.0806 323.352 32.8657C323.411 32.7485 323.44 32.5801 323.44 32.3604C323.44 31.9111 323.279 31.5864 322.957 31.3862C322.639 31.1812 322.183 31.0786 321.587 31.0786C320.898 31.0786 320.41 31.2642 320.122 31.6353C319.961 31.8403 319.856 32.1455 319.807 32.5508H318.577C318.601 31.584 318.914 30.9126 319.514 30.5366C320.12 30.1558 320.82 29.9653 321.616 29.9653C322.539 29.9653 323.289 30.1411 323.865 30.4927C324.436 30.8442 324.722 31.3911 324.722 32.1333V36.6523C324.722 36.7891 324.749 36.8989 324.802 36.9819C324.861 37.0649 324.98 37.1064 325.161 37.1064C325.22 37.1064 325.286 37.104 325.359 37.0991C325.432 37.0894 325.51 37.0771 325.593 37.0625V38.0366C325.388 38.0952 325.232 38.1318 325.125 38.1465C325.017 38.1611 324.871 38.1685 324.685 38.1685C324.231 38.1685 323.901 38.0073 323.696 37.6851C323.589 37.5142 323.513 37.2725 323.469 36.96C323.201 37.3115 322.815 37.6167 322.312 37.8755C321.809 38.1343 321.255 38.2637 320.649 38.2637C319.922 38.2637 319.326 38.0439 318.862 37.6045C318.403 37.1602 318.174 36.606 318.174 35.9419C318.174 35.2144 318.401 34.6504 318.855 34.25C319.309 33.8496 319.905 33.603 320.642 33.5103L322.744 33.2466ZM326.926 27.2407H328.245V38H326.926V27.2407ZM330.229 30.1924H331.57V38H330.229V30.1924ZM330.229 27.2407H331.57V28.7349H330.229V27.2407ZM334.404 34.1694C334.404 35.0093 334.583 35.7124 334.939 36.2788C335.295 36.8452 335.867 37.1284 336.653 37.1284C337.263 37.1284 337.764 36.8672 338.154 36.3447C338.55 35.8174 338.748 35.063 338.748 34.0815C338.748 33.0903 338.545 32.3579 338.14 31.8843C337.734 31.4058 337.234 31.1665 336.638 31.1665C335.974 31.1665 335.435 31.4204 335.02 31.9282C334.609 32.436 334.404 33.1831 334.404 34.1694ZM336.389 30.0166C336.99 30.0166 337.493 30.1436 337.898 30.3975C338.132 30.5439 338.398 30.8003 338.696 31.1665V27.2041H339.963V38H338.777V36.9087C338.469 37.3921 338.105 37.7412 337.686 37.9561C337.266 38.1709 336.785 38.2783 336.243 38.2783C335.369 38.2783 334.612 37.9121 333.972 37.1797C333.333 36.4424 333.013 35.4634 333.013 34.2427C333.013 33.1001 333.303 32.1113 333.884 31.2764C334.47 30.4365 335.305 30.0166 336.389 30.0166ZM342.93 35.9126C342.93 36.2935 343.069 36.5938 343.347 36.8135C343.625 37.0332 343.955 37.1431 344.336 37.1431C344.8 37.1431 345.249 37.0356 345.684 36.8208C346.416 36.4644 346.782 35.8809 346.782 35.0703V34.0083C346.621 34.1108 346.414 34.1963 346.16 34.2646C345.906 34.333 345.657 34.3818 345.413 34.4111L344.614 34.5137C344.136 34.5771 343.777 34.6772 343.538 34.814C343.132 35.0435 342.93 35.4097 342.93 35.9126ZM346.123 33.2466C346.426 33.2075 346.628 33.0806 346.731 32.8657C346.79 32.7485 346.819 32.5801 346.819 32.3604C346.819 31.9111 346.658 31.5864 346.335 31.3862C346.018 31.1812 345.562 31.0786 344.966 31.0786C344.277 31.0786 343.789 31.2642 343.501 31.6353C343.34 31.8403 343.235 32.1455 343.186 32.5508H341.956C341.98 31.584 342.292 30.9126 342.893 30.5366C343.499 30.1558 344.199 29.9653 344.995 29.9653C345.918 29.9653 346.667 30.1411 347.244 30.4927C347.815 30.8442 348.101 31.3911 348.101 32.1333V36.6523C348.101 36.7891 348.127 36.8989 348.181 36.9819C348.24 37.0649 348.359 37.1064 348.54 37.1064C348.599 37.1064 348.665 37.104 348.738 37.0991C348.811 37.0894 348.889 37.0771 348.972 37.0625V38.0366C348.767 38.0952 348.611 38.1318 348.503 38.1465C348.396 38.1611 348.25 38.1685 348.064 38.1685C347.61 38.1685 347.28 38.0073 347.075 37.6851C346.968 37.5142 346.892 37.2725 346.848 36.96C346.58 37.3115 346.194 37.6167 345.691 37.8755C345.188 38.1343 344.634 38.2637 344.028 38.2637C343.301 38.2637 342.705 38.0439 342.241 37.6045C341.782 37.1602 341.553 36.606 341.553 35.9419C341.553 35.2144 341.78 34.6504 342.234 34.25C342.688 33.8496 343.284 33.603 344.021 33.5103L346.123 33.2466ZM350.532 27.9658H351.865V30.1558H353.118V31.2324H351.865V36.3521C351.865 36.6255 351.958 36.8086 352.144 36.9014C352.246 36.9551 352.417 36.9819 352.656 36.9819C352.72 36.9819 352.788 36.9819 352.861 36.9819C352.935 36.9771 353.02 36.9697 353.118 36.96V38C352.966 38.0439 352.808 38.0757 352.642 38.0952C352.48 38.1147 352.305 38.1245 352.114 38.1245C351.499 38.1245 351.082 37.9683 350.862 37.6558C350.642 37.3384 350.532 36.9282 350.532 36.4253V31.2324H349.47V30.1558H350.532V27.9658ZM354.443 30.1924H355.784V38H354.443V30.1924ZM354.443 27.2407H355.784V28.7349H354.443V27.2407ZM360.896 37.1504C361.77 37.1504 362.368 36.8208 362.69 36.1616C363.018 35.4976 363.181 34.7603 363.181 33.9497C363.181 33.2173 363.064 32.6216 362.83 32.1626C362.458 31.4399 361.819 31.0786 360.911 31.0786C360.105 31.0786 359.519 31.3862 359.153 32.0015C358.787 32.6167 358.604 33.3589 358.604 34.228C358.604 35.063 358.787 35.7588 359.153 36.3154C359.519 36.8721 360.1 37.1504 360.896 37.1504ZM360.947 29.9287C361.958 29.9287 362.812 30.2656 363.511 30.9395C364.209 31.6133 364.558 32.6045 364.558 33.9131C364.558 35.1777 364.25 36.2227 363.635 37.0479C363.02 37.873 362.065 38.2856 360.771 38.2856C359.692 38.2856 358.835 37.9219 358.201 37.1943C357.566 36.4619 357.249 35.4805 357.249 34.25C357.249 32.9316 357.583 31.8818 358.252 31.1006C358.921 30.3193 359.819 29.9287 360.947 29.9287ZM366.133 30.1558H367.385V31.269C367.756 30.8101 368.149 30.4805 368.564 30.2803C368.979 30.0801 369.441 29.98 369.949 29.98C371.062 29.98 371.814 30.3682 372.205 31.1445C372.419 31.5693 372.527 32.1772 372.527 32.9683V38H371.187V33.0562C371.187 32.5776 371.116 32.1919 370.974 31.8989C370.74 31.4106 370.315 31.1665 369.7 31.1665C369.387 31.1665 369.131 31.1982 368.931 31.2617C368.569 31.3691 368.252 31.584 367.979 31.9062C367.759 32.165 367.615 32.4336 367.546 32.7119C367.483 32.9854 367.451 33.3784 367.451 33.8911V38H366.133V30.1558Z" fill="black"/>
<path d="M430.095 34.5283C430.129 35.1387 430.273 35.6343 430.527 36.0151C431.01 36.728 431.862 37.0845 433.083 37.0845C433.63 37.0845 434.128 37.0063 434.577 36.8501C435.446 36.5474 435.881 36.0054 435.881 35.2241C435.881 34.6382 435.698 34.2207 435.332 33.9717C434.96 33.7275 434.379 33.5151 433.588 33.3345L432.131 33.0049C431.179 32.79 430.505 32.5532 430.109 32.2944C429.426 31.8452 429.084 31.1738 429.084 30.2803C429.084 29.3135 429.418 28.52 430.087 27.8999C430.756 27.2798 431.704 26.9697 432.929 26.9697C434.057 26.9697 435.014 27.2432 435.8 27.79C436.591 28.332 436.987 29.2012 436.987 30.3975H435.617C435.544 29.8213 435.388 29.3794 435.148 29.0718C434.704 28.5103 433.95 28.2295 432.885 28.2295C432.026 28.2295 431.408 28.4102 431.032 28.7715C430.656 29.1328 430.468 29.5527 430.468 30.0312C430.468 30.5586 430.688 30.9443 431.127 31.1885C431.416 31.3447 432.067 31.54 433.083 31.7744L434.592 32.1187C435.319 32.2847 435.881 32.5117 436.276 32.7998C436.96 33.3027 437.302 34.0327 437.302 34.9897C437.302 36.1812 436.867 37.0332 435.998 37.5459C435.134 38.0586 434.128 38.3149 432.98 38.3149C431.643 38.3149 430.595 37.9731 429.838 37.2896C429.082 36.6108 428.71 35.6904 428.725 34.5283H430.095ZM439.235 27.9658H440.568V30.1558H441.821V31.2324H440.568V36.3521C440.568 36.6255 440.661 36.8086 440.847 36.9014C440.949 36.9551 441.12 36.9819 441.359 36.9819C441.423 36.9819 441.491 36.9819 441.564 36.9819C441.638 36.9771 441.723 36.9697 441.821 36.96V38C441.669 38.0439 441.511 38.0757 441.345 38.0952C441.184 38.1147 441.008 38.1245 440.817 38.1245C440.202 38.1245 439.785 37.9683 439.565 37.6558C439.345 37.3384 439.235 36.9282 439.235 36.4253V31.2324H438.173V30.1558H439.235V27.9658ZM443.183 30.1558H444.436V31.5107C444.538 31.2471 444.79 30.9272 445.19 30.5513C445.59 30.1704 446.052 29.98 446.574 29.98C446.599 29.98 446.64 29.9824 446.699 29.9873C446.757 29.9922 446.857 30.002 446.999 30.0166V31.4082C446.921 31.3936 446.848 31.3838 446.779 31.3789C446.716 31.374 446.645 31.3716 446.567 31.3716C445.903 31.3716 445.393 31.5864 445.036 32.0161C444.68 32.4409 444.501 32.9316 444.501 33.4883V38H443.183V30.1558ZM448.142 30.1924H449.482V38H448.142V30.1924ZM448.142 27.2407H449.482V28.7349H448.142V27.2407ZM454.506 29.9287C455.39 29.9287 456.108 30.1436 456.66 30.5732C457.216 31.0029 457.551 31.7427 457.663 32.7925H456.381C456.303 32.3091 456.125 31.9087 455.847 31.5913C455.568 31.269 455.122 31.1079 454.506 31.1079C453.667 31.1079 453.066 31.5181 452.705 32.3384C452.47 32.8706 452.353 33.5273 452.353 34.3086C452.353 35.0947 452.519 35.7563 452.851 36.2935C453.183 36.8306 453.706 37.0991 454.418 37.0991C454.965 37.0991 455.397 36.9331 455.715 36.6011C456.037 36.2642 456.259 35.8052 456.381 35.2241H457.663C457.517 36.2642 457.15 37.0259 456.564 37.5093C455.979 37.9878 455.229 38.2271 454.316 38.2271C453.291 38.2271 452.473 37.8535 451.862 37.1064C451.252 36.3545 450.947 35.417 450.947 34.2939C450.947 32.917 451.281 31.8452 451.95 31.0786C452.619 30.312 453.471 29.9287 454.506 29.9287ZM459.245 27.9658H460.578V30.1558H461.831V31.2324H460.578V36.3521C460.578 36.6255 460.671 36.8086 460.856 36.9014C460.959 36.9551 461.13 36.9819 461.369 36.9819C461.433 36.9819 461.501 36.9819 461.574 36.9819C461.647 36.9771 461.733 36.9697 461.831 36.96V38C461.679 38.0439 461.521 38.0757 461.354 38.0952C461.193 38.1147 461.018 38.1245 460.827 38.1245C460.212 38.1245 459.794 37.9683 459.575 37.6558C459.355 37.3384 459.245 36.9282 459.245 36.4253V31.2324H458.183V30.1558H459.245V27.9658ZM467.976 30.1558L470.07 36.5425L472.26 30.1558H473.703L470.744 38H469.338L466.445 30.1558H467.976ZM475.842 35.9126C475.842 36.2935 475.981 36.5938 476.259 36.8135C476.538 37.0332 476.867 37.1431 477.248 37.1431C477.712 37.1431 478.161 37.0356 478.596 36.8208C479.328 36.4644 479.694 35.8809 479.694 35.0703V34.0083C479.533 34.1108 479.326 34.1963 479.072 34.2646C478.818 34.333 478.569 34.3818 478.325 34.4111L477.526 34.5137C477.048 34.5771 476.689 34.6772 476.45 34.814C476.044 35.0435 475.842 35.4097 475.842 35.9126ZM479.035 33.2466C479.338 33.2075 479.541 33.0806 479.643 32.8657C479.702 32.7485 479.731 32.5801 479.731 32.3604C479.731 31.9111 479.57 31.5864 479.248 31.3862C478.93 31.1812 478.474 31.0786 477.878 31.0786C477.189 31.0786 476.701 31.2642 476.413 31.6353C476.252 31.8403 476.147 32.1455 476.098 32.5508H474.868C474.892 31.584 475.205 30.9126 475.805 30.5366C476.411 30.1558 477.111 29.9653 477.907 29.9653C478.83 29.9653 479.58 30.1411 480.156 30.4927C480.727 30.8442 481.013 31.3911 481.013 32.1333V36.6523C481.013 36.7891 481.04 36.8989 481.093 36.9819C481.152 37.0649 481.271 37.1064 481.452 37.1064C481.511 37.1064 481.577 37.104 481.65 37.0991C481.723 37.0894 481.801 37.0771 481.884 37.0625V38.0366C481.679 38.0952 481.523 38.1318 481.416 38.1465C481.308 38.1611 481.162 38.1685 480.976 38.1685C480.522 38.1685 480.192 38.0073 479.987 37.6851C479.88 37.5142 479.804 37.2725 479.76 36.96C479.492 37.3115 479.106 37.6167 478.603 37.8755C478.1 38.1343 477.546 38.2637 476.94 38.2637C476.213 38.2637 475.617 38.0439 475.153 37.6045C474.694 37.1602 474.465 36.606 474.465 35.9419C474.465 35.2144 474.692 34.6504 475.146 34.25C475.6 33.8496 476.196 33.603 476.933 33.5103L479.035 33.2466ZM483.217 27.2407H484.536V38H483.217V27.2407ZM486.521 30.1924H487.861V38H486.521V30.1924ZM486.521 27.2407H487.861V28.7349H486.521V27.2407ZM490.695 34.1694C490.695 35.0093 490.874 35.7124 491.23 36.2788C491.586 36.8452 492.158 37.1284 492.944 37.1284C493.554 37.1284 494.055 36.8672 494.445 36.3447C494.841 35.8174 495.039 35.063 495.039 34.0815C495.039 33.0903 494.836 32.3579 494.431 31.8843C494.025 31.4058 493.525 31.1665 492.929 31.1665C492.265 31.1665 491.726 31.4204 491.311 31.9282C490.9 32.436 490.695 33.1831 490.695 34.1694ZM492.68 30.0166C493.281 30.0166 493.784 30.1436 494.189 30.3975C494.423 30.5439 494.689 30.8003 494.987 31.1665V27.2041H496.254V38H495.068V36.9087C494.76 37.3921 494.396 37.7412 493.977 37.9561C493.557 38.1709 493.076 38.2783 492.534 38.2783C491.66 38.2783 490.903 37.9121 490.263 37.1797C489.624 36.4424 489.304 35.4634 489.304 34.2427C489.304 33.1001 489.594 32.1113 490.175 31.2764C490.761 30.4365 491.596 30.0166 492.68 30.0166ZM499.221 35.9126C499.221 36.2935 499.36 36.5938 499.638 36.8135C499.917 37.0332 500.246 37.1431 500.627 37.1431C501.091 37.1431 501.54 37.0356 501.975 36.8208C502.707 36.4644 503.073 35.8809 503.073 35.0703V34.0083C502.912 34.1108 502.705 34.1963 502.451 34.2646C502.197 34.333 501.948 34.3818 501.704 34.4111L500.905 34.5137C500.427 34.5771 500.068 34.6772 499.829 34.814C499.423 35.0435 499.221 35.4097 499.221 35.9126ZM502.414 33.2466C502.717 33.2075 502.919 33.0806 503.022 32.8657C503.081 32.7485 503.11 32.5801 503.11 32.3604C503.11 31.9111 502.949 31.5864 502.626 31.3862C502.309 31.1812 501.853 31.0786 501.257 31.0786C500.568 31.0786 500.08 31.2642 499.792 31.6353C499.631 31.8403 499.526 32.1455 499.477 32.5508H498.247C498.271 31.584 498.583 30.9126 499.184 30.5366C499.79 30.1558 500.49 29.9653 501.286 29.9653C502.209 29.9653 502.958 30.1411 503.535 30.4927C504.106 30.8442 504.392 31.3911 504.392 32.1333V36.6523C504.392 36.7891 504.418 36.8989 504.472 36.9819C504.531 37.0649 504.65 37.1064 504.831 37.1064C504.89 37.1064 504.956 37.104 505.029 37.0991C505.102 37.0894 505.18 37.0771 505.263 37.0625V38.0366C505.058 38.0952 504.902 38.1318 504.794 38.1465C504.687 38.1611 504.541 38.1685 504.355 38.1685C503.901 38.1685 503.571 38.0073 503.366 37.6851C503.259 37.5142 503.183 37.2725 503.139 36.96C502.871 37.3115 502.485 37.6167 501.982 37.8755C501.479 38.1343 500.925 38.2637 500.319 38.2637C499.592 38.2637 498.996 38.0439 498.532 37.6045C498.073 37.1602 497.844 36.606 497.844 35.9419C497.844 35.2144 498.071 34.6504 498.525 34.25C498.979 33.8496 499.575 33.603 500.312 33.5103L502.414 33.2466ZM506.823 27.9658H508.156V30.1558H509.409V31.2324H508.156V36.3521C508.156 36.6255 508.249 36.8086 508.435 36.9014C508.537 36.9551 508.708 36.9819 508.947 36.9819C509.011 36.9819 509.079 36.9819 509.152 36.9819C509.226 36.9771 509.311 36.9697 509.409 36.96V38C509.257 38.0439 509.099 38.0757 508.933 38.0952C508.771 38.1147 508.596 38.1245 508.405 38.1245C507.79 38.1245 507.373 37.9683 507.153 37.6558C506.933 37.3384 506.823 36.9282 506.823 36.4253V31.2324H505.761V30.1558H506.823V27.9658ZM510.734 30.1924H512.075V38H510.734V30.1924ZM510.734 27.2407H512.075V28.7349H510.734V27.2407ZM517.187 37.1504C518.061 37.1504 518.659 36.8208 518.981 36.1616C519.309 35.4976 519.472 34.7603 519.472 33.9497C519.472 33.2173 519.355 32.6216 519.121 32.1626C518.75 31.4399 518.11 31.0786 517.202 31.0786C516.396 31.0786 515.81 31.3862 515.444 32.0015C515.078 32.6167 514.895 33.3589 514.895 34.228C514.895 35.063 515.078 35.7588 515.444 36.3154C515.81 36.8721 516.391 37.1504 517.187 37.1504ZM517.238 29.9287C518.249 29.9287 519.104 30.2656 519.802 30.9395C520.5 31.6133 520.849 32.6045 520.849 33.9131C520.849 35.1777 520.542 36.2227 519.926 37.0479C519.311 37.873 518.356 38.2856 517.062 38.2856C515.983 38.2856 515.126 37.9219 514.492 37.1943C513.857 36.4619 513.54 35.4805 513.54 34.25C513.54 32.9316 513.874 31.8818 514.543 31.1006C515.212 30.3193 516.11 29.9287 517.238 29.9287ZM522.424 30.1558H523.676V31.269C524.047 30.8101 524.44 30.4805 524.855 30.2803C525.271 30.0801 525.732 29.98 526.24 29.98C527.353 29.98 528.105 30.3682 528.496 31.1445C528.71 31.5693 528.818 32.1772 528.818 32.9683V38H527.478V33.0562C527.478 32.5776 527.407 32.1919 527.265 31.8989C527.031 31.4106 526.606 31.1665 525.991 31.1665C525.678 31.1665 525.422 31.1982 525.222 31.2617C524.86 31.3691 524.543 31.584 524.27 31.9062C524.05 32.165 523.906 32.4336 523.837 32.7119C523.774 32.9854 523.742 33.3784 523.742 33.8911V38H522.424V30.1558Z" fill="black"/>
<path d="M38.2397 89.2188V100H36.2109V98.894C35.9131 99.3677 35.5737 99.7119 35.1929 99.9268C34.812 100.142 34.3384 100.249 33.772 100.249C32.8394 100.249 32.0532 99.873 31.4136 99.1211C30.7788 98.3643 30.4614 97.395 30.4614 96.2134C30.4614 94.8511 30.7739 93.7793 31.3989 92.998C32.0288 92.2168 32.8687 91.8262 33.9185 91.8262C34.4019 91.8262 34.8315 91.9336 35.2075 92.1484C35.5835 92.3584 35.8887 92.6514 36.123 93.0273V89.2188H38.2397ZM32.6147 96.0596C32.6147 96.7969 32.7612 97.3853 33.0542 97.8247C33.3423 98.269 33.7817 98.4912 34.3726 98.4912C34.9634 98.4912 35.4126 98.2715 35.7202 97.832C36.0278 97.3926 36.1816 96.8237 36.1816 96.1255C36.1816 95.1489 35.9351 94.4507 35.4419 94.0308C35.1392 93.7769 34.7876 93.6499 34.3872 93.6499C33.7769 93.6499 33.3276 93.8818 33.0396 94.3457C32.7563 94.8047 32.6147 95.376 32.6147 96.0596ZM46.8018 93.0273C47.4756 93.8721 47.8125 94.8706 47.8125 96.0229C47.8125 97.1948 47.4756 98.1982 46.8018 99.0332C46.1279 99.8633 45.105 100.278 43.7329 100.278C42.3608 100.278 41.3379 99.8633 40.6641 99.0332C39.9902 98.1982 39.6533 97.1948 39.6533 96.0229C39.6533 94.8706 39.9902 93.8721 40.6641 93.0273C41.3379 92.1826 42.3608 91.7603 43.7329 91.7603C45.105 91.7603 46.1279 92.1826 46.8018 93.0273ZM43.7256 93.5254C43.1152 93.5254 42.644 93.7427 42.312 94.1772C41.9849 94.6069 41.8213 95.2222 41.8213 96.0229C41.8213 96.8237 41.9849 97.4414 42.312 97.876C42.644 98.3105 43.1152 98.5278 43.7256 98.5278C44.3359 98.5278 44.8047 98.3105 45.1318 97.876C45.459 97.4414 45.6226 96.8237 45.6226 96.0229C45.6226 95.2222 45.459 94.6069 45.1318 94.1772C44.8047 93.7427 44.3359 93.5254 43.7256 93.5254ZM54.4336 98.8721C54.4141 98.8965 54.3652 98.9697 54.2871 99.0918C54.209 99.2139 54.1162 99.3213 54.0088 99.4141C53.6816 99.707 53.3643 99.9072 53.0566 100.015C52.7539 100.122 52.3975 100.176 51.9873 100.176C50.8057 100.176 50.0098 99.751 49.5996 98.9014C49.3701 98.4326 49.2554 97.7417 49.2554 96.8286V92.0166H51.394V96.8286C51.394 97.2827 51.4478 97.6245 51.5552 97.854C51.7456 98.2593 52.1191 98.4619 52.6758 98.4619C53.3887 98.4619 53.877 98.1738 54.1406 97.5977C54.2773 97.2852 54.3457 96.8726 54.3457 96.3599V92.0166H56.4624V100H54.4336V98.8721ZM62.8198 100.212C62.1606 100.212 61.6309 100.081 61.2305 99.8169C60.9912 99.6606 60.7324 99.3872 60.4541 98.9966V100H58.4106V89.2188H60.4907V93.0566C60.7544 92.6855 61.0449 92.4023 61.3623 92.207C61.7383 91.9629 62.2168 91.8408 62.7979 91.8408C63.8477 91.8408 64.668 92.2192 65.2588 92.9761C65.8545 93.7329 66.1523 94.7095 66.1523 95.9058C66.1523 97.146 65.8594 98.1738 65.2734 98.9893C64.6875 99.8047 63.8696 100.212 62.8198 100.212ZM63.9624 96.1255C63.9624 95.5591 63.8892 95.0903 63.7427 94.7192C63.4644 94.0161 62.9517 93.6646 62.2046 93.6646C61.4478 93.6646 60.9277 94.0088 60.6445 94.6973C60.498 95.0635 60.4248 95.5371 60.4248 96.1182C60.4248 96.8018 60.5762 97.3682 60.8789 97.8174C61.1816 98.2666 61.6431 98.4912 62.2632 98.4912C62.8003 98.4912 63.2178 98.2739 63.5156 97.8394C63.8135 97.4048 63.9624 96.8335 63.9624 96.1255ZM71.3086 98.5132V100.073L70.3198 100.11C69.3335 100.144 68.6597 99.9731 68.2983 99.5972C68.064 99.3579 67.9468 98.9893 67.9468 98.4912V93.5767H66.8335V92.0898H67.9468V89.8633H70.0122V92.0898H71.3086V93.5767H70.0122V97.7954C70.0122 98.1226 70.0537 98.3276 70.1367 98.4106C70.2197 98.4888 70.4736 98.5278 70.8984 98.5278C70.9619 98.5278 71.0278 98.5278 71.0962 98.5278C71.1694 98.5229 71.2402 98.5181 71.3086 98.5132ZM79.4824 97.6562C79.4287 98.1299 79.1821 98.6108 78.7427 99.0991C78.0591 99.8755 77.1021 100.264 75.8716 100.264C74.856 100.264 73.96 99.9365 73.1836 99.2822C72.4072 98.6279 72.019 97.5635 72.019 96.0889C72.019 94.707 72.3682 93.6475 73.0664 92.9102C73.7695 92.1729 74.6802 91.8042 75.7983 91.8042C76.4624 91.8042 77.0605 91.9287 77.5928 92.1777C78.125 92.4268 78.5645 92.8198 78.9111 93.3569C79.2236 93.8306 79.4263 94.3799 79.519 95.0049C79.5728 95.3711 79.5947 95.8984 79.585 96.5869H74.1211C74.1504 97.3877 74.4019 97.9492 74.8755 98.2715C75.1636 98.4717 75.5103 98.5718 75.9155 98.5718C76.3452 98.5718 76.6943 98.4497 76.9629 98.2056C77.1094 98.0737 77.2388 97.8906 77.3511 97.6562H79.4824ZM77.417 95.21C77.3828 94.6582 77.2144 94.2407 76.9116 93.9575C76.6138 93.6694 76.2427 93.5254 75.7983 93.5254C75.3149 93.5254 74.939 93.6768 74.6704 93.9795C74.4067 94.2822 74.2407 94.6924 74.1724 95.21H77.417ZM85.0122 93.9429C84.1724 93.9429 83.6084 94.2163 83.3203 94.7632C83.1592 95.0708 83.0786 95.5444 83.0786 96.1841V100H80.9766V92.0166H82.9688V93.4082C83.291 92.876 83.5718 92.5122 83.811 92.3169C84.2017 91.9897 84.7095 91.8262 85.3345 91.8262C85.3735 91.8262 85.4053 91.8286 85.4297 91.8335C85.459 91.8335 85.52 91.8359 85.6128 91.8408V93.9795C85.481 93.9648 85.3638 93.9551 85.2612 93.9502C85.1587 93.9453 85.0757 93.9429 85.0122 93.9429ZM95.0171 93.4595C95.0171 93.1567 94.9146 92.8857 94.7095 92.6465C94.5093 92.4023 94.231 92.2803 93.8745 92.2803C93.3179 92.2803 92.8345 92.6099 92.4243 93.269C92.019 93.9233 91.8164 94.5752 91.8164 95.2246C91.8164 95.7031 91.9214 96.0693 92.1313 96.3232C92.3413 96.5723 92.605 96.6968 92.9224 96.6968C93.5815 96.6968 94.0942 96.3135 94.4604 95.5469C94.8315 94.7754 95.0171 94.0796 95.0171 93.4595ZM93.5596 100.315C91.5186 100.315 89.9463 99.6777 88.8428 98.4033C87.959 97.3828 87.5171 96.2036 87.5171 94.8657C87.5171 93.2739 88.0542 91.9214 89.1284 90.8081C90.3198 89.5679 91.9189 88.9478 93.9258 88.9478C95.6641 88.9478 97.0312 89.3872 98.0273 90.2661C98.96 91.0962 99.4263 92.1729 99.4263 93.4961C99.4263 94.6094 99.0918 95.5615 98.4229 96.3525C97.7588 97.1387 97.0142 97.5317 96.189 97.5317C95.7056 97.5317 95.3491 97.417 95.1196 97.1875C94.8901 96.9531 94.7754 96.6724 94.7754 96.3452C94.7754 96.2915 94.7803 96.2354 94.79 96.1768C94.7998 96.1182 94.812 96.0571 94.8267 95.9937C94.5679 96.5552 94.2407 96.9531 93.8452 97.1875C93.4497 97.417 93.042 97.5317 92.6221 97.5317C92.0215 97.5317 91.5332 97.3145 91.1572 96.8799C90.7861 96.4453 90.6006 95.8862 90.6006 95.2026C90.6006 94.231 90.918 93.374 91.5527 92.6318C92.1924 91.8896 92.8784 91.5186 93.6108 91.5186C94.1089 91.5186 94.519 91.6626 94.8413 91.9507C95.1685 92.2388 95.3418 92.5854 95.3613 92.9907L95.7275 91.7603H96.8042L95.8301 94.9683C95.7568 95.2173 95.7031 95.4175 95.6689 95.5688C95.6348 95.7202 95.6177 95.8545 95.6177 95.9717C95.6177 96.1914 95.6836 96.3525 95.8154 96.4551C95.9521 96.5527 96.106 96.6016 96.2769 96.6016C96.8335 96.6016 97.3315 96.311 97.771 95.73C98.2153 95.1489 98.4375 94.3896 98.4375 93.4521C98.4375 92.3193 98.042 91.4307 97.251 90.7861C96.46 90.1367 95.3955 89.812 94.0576 89.812C92.2021 89.812 90.7837 90.354 89.8022 91.438C88.9624 92.3608 88.5425 93.5205 88.5425 94.917C88.5425 96.1377 88.9429 97.1631 89.7437 97.9932C90.6812 98.9746 92.0166 99.4653 93.75 99.4653C94.5605 99.4653 95.3149 99.3384 96.0132 99.0845C96.7114 98.8257 97.3511 98.479 97.9321 98.0444L98.4155 98.7036C97.9761 99.0942 97.3193 99.4604 96.4453 99.8022C95.5713 100.144 94.6094 100.315 93.5596 100.315ZM105 100.286C103.76 100.286 102.859 99.9463 102.297 99.2676C101.741 98.584 101.462 97.7539 101.462 96.7773H102.839C102.898 97.4561 103.025 97.9492 103.22 98.2568C103.562 98.8086 104.18 99.0845 105.073 99.0845C105.767 99.0845 106.323 98.8989 106.743 98.5278C107.163 98.1567 107.373 97.6782 107.373 97.0923C107.373 96.3696 107.151 95.8643 106.707 95.5762C106.267 95.2881 105.654 95.144 104.868 95.144C104.78 95.144 104.69 95.1465 104.597 95.1514C104.509 95.1514 104.419 95.1538 104.326 95.1587V93.9941C104.463 94.0088 104.578 94.0186 104.67 94.0234C104.763 94.0283 104.863 94.0308 104.971 94.0308C105.464 94.0308 105.869 93.9526 106.187 93.7964C106.743 93.5229 107.021 93.0347 107.021 92.3315C107.021 91.8091 106.836 91.4062 106.465 91.123C106.094 90.8398 105.662 90.6982 105.168 90.6982C104.29 90.6982 103.682 90.9912 103.345 91.5771C103.159 91.8994 103.054 92.3584 103.03 92.9541H101.726C101.726 92.1729 101.882 91.5088 102.195 90.9619C102.732 89.9854 103.677 89.4971 105.029 89.4971C106.099 89.4971 106.926 89.7363 107.512 90.2148C108.098 90.6885 108.391 91.377 108.391 92.2803C108.391 92.9248 108.218 93.4473 107.871 93.8477C107.656 94.0967 107.378 94.292 107.036 94.4336C107.588 94.585 108.018 94.8779 108.325 95.3125C108.638 95.7422 108.794 96.2695 108.794 96.8945C108.794 97.8955 108.464 98.7109 107.805 99.3408C107.146 99.9707 106.211 100.286 105 100.286ZM110.735 98.4033H112.266V100H110.735V98.4033ZM117.686 89.5117C119.043 89.5117 120.024 90.0708 120.63 91.189C121.099 92.0532 121.333 93.2373 121.333 94.7412C121.333 96.167 121.121 97.3462 120.696 98.2788C120.081 99.6167 119.075 100.286 117.678 100.286C116.418 100.286 115.481 99.7388 114.866 98.645C114.353 97.7319 114.097 96.5063 114.097 94.9683C114.097 93.7769 114.25 92.7539 114.558 91.8994C115.134 90.3076 116.177 89.5117 117.686 89.5117ZM117.671 99.0845C118.354 99.0845 118.899 98.7817 119.304 98.1763C119.709 97.5708 119.912 96.4429 119.912 94.7925C119.912 93.6011 119.766 92.6221 119.473 91.8555C119.18 91.084 118.611 90.6982 117.766 90.6982C116.99 90.6982 116.421 91.0645 116.06 91.7969C115.703 92.5244 115.525 93.5986 115.525 95.0195C115.525 96.0889 115.64 96.9482 115.869 97.5977C116.221 98.5889 116.821 99.0845 117.671 99.0845ZM123.259 98.4033H124.79V100H123.259V98.4033ZM130.21 89.5117C131.567 89.5117 132.549 90.0708 133.154 91.189C133.623 92.0532 133.857 93.2373 133.857 94.7412C133.857 96.167 133.645 97.3462 133.22 98.2788C132.605 99.6167 131.599 100.286 130.203 100.286C128.943 100.286 128.005 99.7388 127.39 98.645C126.877 97.7319 126.621 96.5063 126.621 94.9683C126.621 93.7769 126.775 92.7539 127.083 91.8994C127.659 90.3076 128.701 89.5117 130.21 89.5117ZM130.195 99.0845C130.879 99.0845 131.423 98.7817 131.829 98.1763C132.234 97.5708 132.437 96.4429 132.437 94.7925C132.437 93.6011 132.29 92.6221 131.997 91.8555C131.704 91.084 131.135 90.6982 130.291 90.6982C129.514 90.6982 128.945 91.0645 128.584 91.7969C128.228 92.5244 128.049 93.5986 128.049 95.0195C128.049 96.0889 128.164 96.9482 128.394 97.5977C128.745 98.5889 129.346 99.0845 130.195 99.0845Z" fill="black"/>
<rect fill="black" fill-opacity="0" y="-0.124268" width="104.495" height="17.2485"/>
<path d="M47.1904 149.017H49.5342L51.1968 154.905L52.896 149.017H55.1372L52.2588 157H50.0542L47.1904 149.017ZM56.624 149.881C57.1758 149.178 58.123 148.826 59.4658 148.826C60.3398 148.826 61.1162 149 61.7949 149.346C62.4736 149.693 62.813 150.347 62.813 151.309V154.971C62.813 155.225 62.8179 155.533 62.8276 155.894C62.8423 156.167 62.8838 156.353 62.9521 156.451C63.0205 156.548 63.123 156.629 63.2598 156.692V157H60.9893C60.9258 156.839 60.8818 156.688 60.8574 156.546C60.833 156.404 60.8135 156.243 60.7988 156.062C60.5107 156.375 60.1787 156.641 59.8027 156.861C59.3535 157.12 58.8457 157.249 58.2793 157.249C57.5566 157.249 56.9585 157.044 56.4849 156.634C56.0161 156.219 55.7817 155.633 55.7817 154.876C55.7817 153.895 56.1602 153.184 56.917 152.745C57.332 152.505 57.9424 152.334 58.748 152.232L59.4585 152.144C59.8442 152.095 60.1201 152.034 60.2861 151.961C60.584 151.834 60.7329 151.636 60.7329 151.368C60.7329 151.041 60.6182 150.816 60.3887 150.694C60.1641 150.567 59.832 150.503 59.3926 150.503C58.8994 150.503 58.5503 150.625 58.3452 150.87C58.1987 151.05 58.1011 151.294 58.0522 151.602H56.0381C56.082 150.904 56.2773 150.33 56.624 149.881ZM58.1768 155.491C58.3721 155.652 58.6113 155.733 58.8945 155.733C59.3438 155.733 59.7563 155.601 60.1323 155.337C60.5132 155.074 60.7109 154.593 60.7256 153.895V153.118C60.5938 153.201 60.4595 153.27 60.3228 153.323C60.1909 153.372 60.0078 153.418 59.7734 153.462L59.3047 153.55C58.8652 153.628 58.5503 153.724 58.3599 153.836C58.0376 154.026 57.8765 154.322 57.8765 154.722C57.8765 155.079 57.9766 155.335 58.1768 155.491ZM64.7173 146.204H66.8047V157H64.7173V146.204ZM70.9941 149.017V157H68.8774V149.017H70.9941ZM70.9941 146.138V148.064H68.8774V146.138H70.9941ZM76.6777 155.513V157.073L75.689 157.11C74.7026 157.144 74.0288 156.973 73.6675 156.597C73.4331 156.358 73.3159 155.989 73.3159 155.491V150.577H72.2026V149.09H73.3159V146.863H75.3813V149.09H76.6777V150.577H75.3813V154.795C75.3813 155.123 75.4229 155.328 75.5059 155.411C75.5889 155.489 75.8428 155.528 76.2676 155.528C76.3311 155.528 76.397 155.528 76.4653 155.528C76.5386 155.523 76.6094 155.518 76.6777 155.513ZM78.3184 149.881C78.8701 149.178 79.8174 148.826 81.1602 148.826C82.0342 148.826 82.8105 149 83.4893 149.346C84.168 149.693 84.5073 150.347 84.5073 151.309V154.971C84.5073 155.225 84.5122 155.533 84.522 155.894C84.5366 156.167 84.5781 156.353 84.6465 156.451C84.7148 156.548 84.8174 156.629 84.9541 156.692V157H82.6836C82.6201 156.839 82.5762 156.688 82.5518 156.546C82.5273 156.404 82.5078 156.243 82.4932 156.062C82.2051 156.375 81.873 156.641 81.4971 156.861C81.0479 157.12 80.54 157.249 79.9736 157.249C79.251 157.249 78.6528 157.044 78.1792 156.634C77.7104 156.219 77.4761 155.633 77.4761 154.876C77.4761 153.895 77.8545 153.184 78.6113 152.745C79.0264 152.505 79.6367 152.334 80.4424 152.232L81.1528 152.144C81.5386 152.095 81.8145 152.034 81.9805 151.961C82.2783 151.834 82.4272 151.636 82.4272 151.368C82.4272 151.041 82.3125 150.816 82.083 150.694C81.8584 150.567 81.5264 150.503 81.0869 150.503C80.5938 150.503 80.2446 150.625 80.0396 150.87C79.8931 151.05 79.7954 151.294 79.7466 151.602H77.7324C77.7764 150.904 77.9717 150.33 78.3184 149.881ZM79.8711 155.491C80.0664 155.652 80.3057 155.733 80.5889 155.733C81.0381 155.733 81.4507 155.601 81.8267 155.337C82.2075 155.074 82.4053 154.593 82.4199 153.895V153.118C82.2881 153.201 82.1538 153.27 82.0171 153.323C81.8853 153.372 81.7021 153.418 81.4678 153.462L80.999 153.55C80.5596 153.628 80.2446 153.724 80.0542 153.836C79.7319 154.026 79.5708 154.322 79.5708 154.722C79.5708 155.079 79.6709 155.335 79.8711 155.491ZM94.5415 150.459C94.5415 150.157 94.439 149.886 94.2339 149.646C94.0337 149.402 93.7554 149.28 93.3989 149.28C92.8423 149.28 92.3589 149.61 91.9487 150.269C91.5435 150.923 91.3408 151.575 91.3408 152.225C91.3408 152.703 91.4458 153.069 91.6558 153.323C91.8657 153.572 92.1294 153.697 92.4468 153.697C93.106 153.697 93.6187 153.313 93.9849 152.547C94.356 151.775 94.5415 151.08 94.5415 150.459ZM93.084 157.315C91.043 157.315 89.4707 156.678 88.3672 155.403C87.4834 154.383 87.0415 153.204 87.0415 151.866C87.0415 150.274 87.5786 148.921 88.6528 147.808C89.8442 146.568 91.4434 145.948 93.4502 145.948C95.1885 145.948 96.5557 146.387 97.5518 147.266C98.4844 148.096 98.9507 149.173 98.9507 150.496C98.9507 151.609 98.6162 152.562 97.9473 153.353C97.2832 154.139 96.5386 154.532 95.7134 154.532C95.23 154.532 94.8735 154.417 94.644 154.188C94.4146 153.953 94.2998 153.672 94.2998 153.345C94.2998 153.292 94.3047 153.235 94.3145 153.177C94.3242 153.118 94.3364 153.057 94.3511 152.994C94.0923 153.555 93.7651 153.953 93.3696 154.188C92.9741 154.417 92.5664 154.532 92.1465 154.532C91.5459 154.532 91.0576 154.314 90.6816 153.88C90.3105 153.445 90.125 152.886 90.125 152.203C90.125 151.231 90.4424 150.374 91.0771 149.632C91.7168 148.89 92.4028 148.519 93.1353 148.519C93.6333 148.519 94.0435 148.663 94.3657 148.951C94.6929 149.239 94.8662 149.585 94.8857 149.991L95.252 148.76H96.3286L95.3545 151.968C95.2812 152.217 95.2275 152.417 95.1934 152.569C95.1592 152.72 95.1421 152.854 95.1421 152.972C95.1421 153.191 95.208 153.353 95.3398 153.455C95.4766 153.553 95.6304 153.602 95.8013 153.602C96.3579 153.602 96.856 153.311 97.2954 152.73C97.7397 152.149 97.9619 151.39 97.9619 150.452C97.9619 149.319 97.5664 148.431 96.7754 147.786C95.9844 147.137 94.9199 146.812 93.582 146.812C91.7266 146.812 90.3081 147.354 89.3267 148.438C88.4868 149.361 88.0669 150.521 88.0669 151.917C88.0669 153.138 88.4673 154.163 89.2681 154.993C90.2056 155.975 91.541 156.465 93.2744 156.465C94.085 156.465 94.8394 156.338 95.5376 156.084C96.2358 155.826 96.8755 155.479 97.4565 155.044L97.9399 155.704C97.5005 156.094 96.8438 156.46 95.9697 156.802C95.0957 157.144 94.1338 157.315 93.084 157.315ZM104.686 146.512C106.043 146.512 107.024 147.071 107.63 148.189C108.099 149.053 108.333 150.237 108.333 151.741C108.333 153.167 108.121 154.346 107.696 155.279C107.081 156.617 106.075 157.286 104.678 157.286C103.418 157.286 102.481 156.739 101.866 155.645C101.353 154.732 101.097 153.506 101.097 151.968C101.097 150.777 101.25 149.754 101.558 148.899C102.134 147.308 103.177 146.512 104.686 146.512ZM104.671 156.084C105.354 156.084 105.899 155.782 106.304 155.176C106.709 154.571 106.912 153.443 106.912 151.792C106.912 150.601 106.766 149.622 106.473 148.855C106.18 148.084 105.611 147.698 104.766 147.698C103.99 147.698 103.421 148.064 103.06 148.797C102.703 149.524 102.525 150.599 102.525 152.02C102.525 153.089 102.64 153.948 102.869 154.598C103.221 155.589 103.821 156.084 104.671 156.084ZM110.259 155.403H111.79V157H110.259V155.403ZM113.621 157C113.67 156.097 113.855 155.311 114.178 154.642C114.505 153.973 115.14 153.365 116.082 152.818L117.488 152.005C118.118 151.639 118.56 151.326 118.814 151.067C119.214 150.662 119.415 150.198 119.415 149.676C119.415 149.065 119.231 148.582 118.865 148.226C118.499 147.864 118.011 147.684 117.4 147.684C116.497 147.684 115.872 148.025 115.525 148.709C115.34 149.075 115.237 149.583 115.218 150.232H113.877C113.892 149.319 114.061 148.575 114.383 147.999C114.954 146.983 115.962 146.475 117.408 146.475C118.609 146.475 119.485 146.8 120.037 147.449C120.594 148.099 120.872 148.821 120.872 149.617C120.872 150.457 120.577 151.175 119.986 151.771C119.644 152.117 119.031 152.537 118.147 153.03L117.144 153.587C116.666 153.851 116.29 154.102 116.016 154.341C115.528 154.766 115.22 155.237 115.093 155.755H120.821V157H113.621ZM122.784 155.403H124.314V157H122.784V155.403ZM127.112 149.573V148.562C128.064 148.47 128.729 148.316 129.104 148.101C129.48 147.881 129.761 147.366 129.947 146.556H130.987V157H129.581V149.573H127.112Z" fill="black"/>
<path d="M35.4565 208.214C35.2808 207.828 34.9365 207.635 34.4238 207.635C33.8281 207.635 33.4277 207.828 33.2227 208.214C33.1104 208.434 33.0542 208.761 33.0542 209.195V214H30.9375V206.031H32.9663V207.196C33.2251 206.781 33.4692 206.485 33.6987 206.31C34.104 205.997 34.6289 205.841 35.2734 205.841C35.8838 205.841 36.377 205.975 36.7529 206.244C37.0557 206.493 37.2852 206.812 37.4414 207.203C37.7148 206.734 38.0542 206.39 38.4595 206.17C38.8892 205.951 39.3677 205.841 39.895 205.841C40.2466 205.841 40.5933 205.909 40.9351 206.046C41.2769 206.183 41.5869 206.422 41.8652 206.764C42.0898 207.042 42.2412 207.384 42.3193 207.789C42.3682 208.058 42.3926 208.451 42.3926 208.968L42.3779 214H40.2393V208.917C40.2393 208.614 40.1904 208.365 40.0928 208.17C39.9072 207.799 39.5654 207.613 39.0674 207.613C38.4912 207.613 38.0933 207.853 37.8735 208.331C37.7612 208.585 37.7051 208.89 37.7051 209.247V214H35.603V209.247C35.603 208.773 35.5542 208.429 35.4565 208.214ZM47.5635 211.905L49.2114 206.017H51.4307L48.6914 213.868C48.1641 215.382 47.7466 216.319 47.439 216.681C47.1313 217.047 46.5161 217.23 45.5933 217.23C45.4077 217.23 45.2588 217.228 45.1465 217.223C45.0342 217.223 44.8657 217.215 44.6411 217.201V215.531L44.9048 215.545C45.1099 215.555 45.3052 215.548 45.4907 215.523C45.6763 215.499 45.8325 215.443 45.9595 215.355C46.0815 215.272 46.1938 215.099 46.2964 214.835C46.4038 214.571 46.4478 214.41 46.4282 214.352L43.4985 206.017H45.8203L47.5635 211.905ZM58.8281 214H51.936V212.374L56.0303 207.716H52.2144V206.017H58.689V207.752L54.6387 212.286H58.8281V214ZM66.8262 207.027C67.5 207.872 67.8369 208.871 67.8369 210.023C67.8369 211.195 67.5 212.198 66.8262 213.033C66.1523 213.863 65.1294 214.278 63.7573 214.278C62.3853 214.278 61.3623 213.863 60.6885 213.033C60.0146 212.198 59.6777 211.195 59.6777 210.023C59.6777 208.871 60.0146 207.872 60.6885 207.027C61.3623 206.183 62.3853 205.76 63.7573 205.76C65.1294 205.76 66.1523 206.183 66.8262 207.027ZM63.75 207.525C63.1396 207.525 62.6685 207.743 62.3364 208.177C62.0093 208.607 61.8457 209.222 61.8457 210.023C61.8457 210.824 62.0093 211.441 62.3364 211.876C62.6685 212.311 63.1396 212.528 63.75 212.528C64.3604 212.528 64.8291 212.311 65.1562 211.876C65.4834 211.441 65.647 210.824 65.647 210.023C65.647 209.222 65.4834 208.607 65.1562 208.177C64.8291 207.743 64.3604 207.525 63.75 207.525ZM76.604 203.219V214H74.5752V212.894C74.2773 213.368 73.938 213.712 73.5571 213.927C73.1763 214.142 72.7026 214.249 72.1362 214.249C71.2036 214.249 70.4175 213.873 69.7778 213.121C69.1431 212.364 68.8257 211.395 68.8257 210.213C68.8257 208.851 69.1382 207.779 69.7632 206.998C70.3931 206.217 71.2329 205.826 72.2827 205.826C72.7661 205.826 73.1958 205.934 73.5718 206.148C73.9478 206.358 74.2529 206.651 74.4873 207.027V203.219H76.604ZM70.979 210.06C70.979 210.797 71.1255 211.385 71.4185 211.825C71.7065 212.269 72.146 212.491 72.7368 212.491C73.3276 212.491 73.7769 212.271 74.0845 211.832C74.3921 211.393 74.5459 210.824 74.5459 210.125C74.5459 209.149 74.2993 208.451 73.8062 208.031C73.5034 207.777 73.1519 207.65 72.7515 207.65C72.1411 207.65 71.6919 207.882 71.4038 208.346C71.1206 208.805 70.979 209.376 70.979 210.06ZM86.6821 207.459C86.6821 207.157 86.5796 206.886 86.3745 206.646C86.1743 206.402 85.896 206.28 85.5396 206.28C84.9829 206.28 84.4995 206.61 84.0894 207.269C83.6841 207.923 83.4814 208.575 83.4814 209.225C83.4814 209.703 83.5864 210.069 83.7964 210.323C84.0063 210.572 84.27 210.697 84.5874 210.697C85.2466 210.697 85.7593 210.313 86.1255 209.547C86.4966 208.775 86.6821 208.08 86.6821 207.459ZM85.2246 214.315C83.1836 214.315 81.6113 213.678 80.5078 212.403C79.624 211.383 79.1821 210.204 79.1821 208.866C79.1821 207.274 79.7192 205.921 80.7935 204.808C81.9849 203.568 83.584 202.948 85.5908 202.948C87.3291 202.948 88.6963 203.387 89.6924 204.266C90.625 205.096 91.0913 206.173 91.0913 207.496C91.0913 208.609 90.7568 209.562 90.0879 210.353C89.4238 211.139 88.6792 211.532 87.854 211.532C87.3706 211.532 87.0142 211.417 86.7847 211.188C86.5552 210.953 86.4404 210.672 86.4404 210.345C86.4404 210.292 86.4453 210.235 86.4551 210.177C86.4648 210.118 86.4771 210.057 86.4917 209.994C86.2329 210.555 85.9058 210.953 85.5103 211.188C85.1147 211.417 84.707 211.532 84.2871 211.532C83.6865 211.532 83.1982 211.314 82.8223 210.88C82.4512 210.445 82.2656 209.886 82.2656 209.203C82.2656 208.231 82.583 207.374 83.2178 206.632C83.8574 205.89 84.5435 205.519 85.2759 205.519C85.7739 205.519 86.1841 205.663 86.5063 205.951C86.8335 206.239 87.0068 206.585 87.0264 206.991L87.3926 205.76H88.4692L87.4951 208.968C87.4219 209.217 87.3682 209.417 87.334 209.569C87.2998 209.72 87.2827 209.854 87.2827 209.972C87.2827 210.191 87.3486 210.353 87.4805 210.455C87.6172 210.553 87.771 210.602 87.9419 210.602C88.4985 210.602 88.9966 210.311 89.436 209.73C89.8804 209.149 90.1025 208.39 90.1025 207.452C90.1025 206.319 89.707 205.431 88.916 204.786C88.125 204.137 87.0605 203.812 85.7227 203.812C83.8672 203.812 82.4487 204.354 81.4673 205.438C80.6274 206.361 80.2075 207.521 80.2075 208.917C80.2075 210.138 80.6079 211.163 81.4087 211.993C82.3462 212.975 83.6816 213.465 85.415 213.465C86.2256 213.465 86.98 213.338 87.6782 213.084C88.3765 212.826 89.0161 212.479 89.5972 212.044L90.0806 212.704C89.6411 213.094 88.9844 213.46 88.1104 213.802C87.2363 214.144 86.2744 214.315 85.2246 214.315ZM94.2041 206.573V205.562C95.1562 205.47 95.8203 205.316 96.1963 205.101C96.5723 204.881 96.853 204.366 97.0386 203.556H98.0786V214H96.6724V206.573H94.2041ZM102.4 212.403H103.931V214H102.4V212.403ZM106.729 206.573V205.562C107.681 205.47 108.345 205.316 108.721 205.101C109.097 204.881 109.377 204.366 109.563 203.556H110.603V214H109.197V206.573H106.729ZM117.7 203.512C119.058 203.512 120.039 204.071 120.645 205.189C121.113 206.053 121.348 207.237 121.348 208.741C121.348 210.167 121.135 211.346 120.71 212.279C120.095 213.617 119.089 214.286 117.693 214.286C116.433 214.286 115.496 213.739 114.88 212.645C114.368 211.732 114.111 210.506 114.111 208.968C114.111 207.777 114.265 206.754 114.573 205.899C115.149 204.308 116.191 203.512 117.7 203.512ZM117.686 213.084C118.369 213.084 118.914 212.782 119.319 212.176C119.724 211.571 119.927 210.443 119.927 208.792C119.927 207.601 119.78 206.622 119.487 205.855C119.194 205.084 118.625 204.698 117.781 204.698C117.004 204.698 116.436 205.064 116.074 205.797C115.718 206.524 115.54 207.599 115.54 209.02C115.54 210.089 115.654 210.948 115.884 211.598C116.235 212.589 116.836 213.084 117.686 213.084ZM123.274 212.403H124.805V214H123.274V212.403ZM130.225 203.512C131.582 203.512 132.563 204.071 133.169 205.189C133.638 206.053 133.872 207.237 133.872 208.741C133.872 210.167 133.66 211.346 133.235 212.279C132.62 213.617 131.614 214.286 130.217 214.286C128.958 214.286 128.02 213.739 127.405 212.645C126.892 211.732 126.636 210.506 126.636 208.968C126.636 207.777 126.79 206.754 127.097 205.899C127.673 204.308 128.716 203.512 130.225 203.512ZM130.21 213.084C130.894 213.084 131.438 212.782 131.843 212.176C132.249 211.571 132.451 210.443 132.451 208.792C132.451 207.601 132.305 206.622 132.012 205.855C131.719 205.084 131.15 204.698 130.305 204.698C129.529 204.698 128.96 205.064 128.599 205.797C128.242 206.524 128.064 207.599 128.064 209.02C128.064 210.089 128.179 210.948 128.408 211.598C128.76 212.589 129.36 213.084 130.21 213.084Z" fill="black"/>
<rect fill="black" fill-opacity="0" y="-0.124268" width="104.509" height="17.2485"/>
<path d="M59.1338 271H52.2417V269.374L56.3359 264.716H52.52V263.017H58.9946V264.752L54.9443 269.286H59.1338V271ZM67.1318 264.027C67.8057 264.872 68.1426 265.871 68.1426 267.023C68.1426 268.195 67.8057 269.198 67.1318 270.033C66.458 270.863 65.4351 271.278 64.063 271.278C62.6909 271.278 61.668 270.863 60.9941 270.033C60.3203 269.198 59.9834 268.195 59.9834 267.023C59.9834 265.871 60.3203 264.872 60.9941 264.027C61.668 263.183 62.6909 262.76 64.063 262.76C65.4351 262.76 66.458 263.183 67.1318 264.027ZM64.0557 264.525C63.4453 264.525 62.9741 264.743 62.6421 265.177C62.3149 265.607 62.1514 266.222 62.1514 267.023C62.1514 267.824 62.3149 268.441 62.6421 268.876C62.9741 269.311 63.4453 269.528 64.0557 269.528C64.666 269.528 65.1348 269.311 65.4619 268.876C65.7891 268.441 65.9526 267.824 65.9526 267.023C65.9526 266.222 65.7891 265.607 65.4619 265.177C65.1348 264.743 64.666 264.525 64.0557 264.525ZM76.9097 260.219V271H74.8809V269.894C74.583 270.368 74.2437 270.712 73.8628 270.927C73.4819 271.142 73.0083 271.249 72.4419 271.249C71.5093 271.249 70.7231 270.873 70.0835 270.121C69.4487 269.364 69.1313 268.395 69.1313 267.213C69.1313 265.851 69.4438 264.779 70.0688 263.998C70.6987 263.217 71.5386 262.826 72.5884 262.826C73.0718 262.826 73.5015 262.934 73.8774 263.148C74.2534 263.358 74.5586 263.651 74.793 264.027V260.219H76.9097ZM71.2847 267.06C71.2847 267.797 71.4312 268.385 71.7241 268.825C72.0122 269.269 72.4517 269.491 73.0425 269.491C73.6333 269.491 74.0825 269.271 74.3901 268.832C74.6978 268.393 74.8516 267.824 74.8516 267.125C74.8516 266.149 74.605 265.451 74.1118 265.031C73.8091 264.777 73.4575 264.65 73.0571 264.65C72.4468 264.65 71.9976 264.882 71.7095 265.346C71.4263 265.805 71.2847 266.376 71.2847 267.06ZM86.9878 264.459C86.9878 264.157 86.8853 263.886 86.6802 263.646C86.48 263.402 86.2017 263.28 85.8452 263.28C85.2886 263.28 84.8052 263.61 84.395 264.269C83.9897 264.923 83.7871 265.575 83.7871 266.225C83.7871 266.703 83.8921 267.069 84.1021 267.323C84.312 267.572 84.5757 267.697 84.8931 267.697C85.5522 267.697 86.0649 267.313 86.4312 266.547C86.8022 265.775 86.9878 265.08 86.9878 264.459ZM85.5303 271.315C83.4893 271.315 81.917 270.678 80.8135 269.403C79.9297 268.383 79.4878 267.204 79.4878 265.866C79.4878 264.274 80.0249 262.921 81.0991 261.808C82.2905 260.568 83.8896 259.948 85.8965 259.948C87.6348 259.948 89.002 260.387 89.998 261.266C90.9307 262.096 91.397 263.173 91.397 264.496C91.397 265.609 91.0625 266.562 90.3936 267.353C89.7295 268.139 88.9849 268.532 88.1597 268.532C87.6763 268.532 87.3198 268.417 87.0903 268.188C86.8608 267.953 86.7461 267.672 86.7461 267.345C86.7461 267.292 86.751 267.235 86.7607 267.177C86.7705 267.118 86.7827 267.057 86.7974 266.994C86.5386 267.555 86.2114 267.953 85.8159 268.188C85.4204 268.417 85.0127 268.532 84.5928 268.532C83.9922 268.532 83.5039 268.314 83.1279 267.88C82.7568 267.445 82.5713 266.886 82.5713 266.203C82.5713 265.231 82.8887 264.374 83.5234 263.632C84.1631 262.89 84.8491 262.519 85.5815 262.519C86.0796 262.519 86.4897 262.663 86.812 262.951C87.1392 263.239 87.3125 263.585 87.332 263.991L87.6982 262.76H88.7749L87.8008 265.968C87.7275 266.217 87.6738 266.417 87.6396 266.569C87.6055 266.72 87.5884 266.854 87.5884 266.972C87.5884 267.191 87.6543 267.353 87.7861 267.455C87.9229 267.553 88.0767 267.602 88.2476 267.602C88.8042 267.602 89.3022 267.311 89.7417 266.73C90.186 266.149 90.4082 265.39 90.4082 264.452C90.4082 263.319 90.0127 262.431 89.2217 261.786C88.4307 261.137 87.3662 260.812 86.0283 260.812C84.1729 260.812 82.7544 261.354 81.7729 262.438C80.9331 263.361 80.5132 264.521 80.5132 265.917C80.5132 267.138 80.9136 268.163 81.7144 268.993C82.6519 269.975 83.9873 270.465 85.7207 270.465C86.5312 270.465 87.2856 270.338 87.9839 270.084C88.6821 269.826 89.3218 269.479 89.9028 269.044L90.3862 269.704C89.9468 270.094 89.29 270.46 88.416 270.802C87.542 271.144 86.5801 271.315 85.5303 271.315ZM96.9707 271.286C95.7305 271.286 94.8296 270.946 94.2681 270.268C93.7114 269.584 93.4331 268.754 93.4331 267.777H94.8101C94.8687 268.456 94.9956 268.949 95.1909 269.257C95.5327 269.809 96.1504 270.084 97.0439 270.084C97.7373 270.084 98.2939 269.899 98.7139 269.528C99.1338 269.157 99.3438 268.678 99.3438 268.092C99.3438 267.37 99.1216 266.864 98.6772 266.576C98.2378 266.288 97.625 266.144 96.8389 266.144C96.751 266.144 96.6606 266.146 96.5679 266.151C96.48 266.151 96.3896 266.154 96.2969 266.159V264.994C96.4336 265.009 96.5483 265.019 96.6411 265.023C96.7339 265.028 96.834 265.031 96.9414 265.031C97.4346 265.031 97.8398 264.953 98.1572 264.796C98.7139 264.523 98.9922 264.035 98.9922 263.332C98.9922 262.809 98.8066 262.406 98.4355 262.123C98.0645 261.84 97.6323 261.698 97.1392 261.698C96.2603 261.698 95.6523 261.991 95.3154 262.577C95.1299 262.899 95.0249 263.358 95.0005 263.954H93.6968C93.6968 263.173 93.853 262.509 94.1655 261.962C94.7026 260.985 95.6475 260.497 97 260.497C98.0693 260.497 98.897 260.736 99.4829 261.215C100.069 261.688 100.362 262.377 100.362 263.28C100.362 263.925 100.188 264.447 99.8418 264.848C99.627 265.097 99.3486 265.292 99.0068 265.434C99.5586 265.585 99.9883 265.878 100.296 266.312C100.608 266.742 100.765 267.27 100.765 267.895C100.765 268.896 100.435 269.711 99.7759 270.341C99.1167 270.971 98.1816 271.286 96.9707 271.286ZM102.706 269.403H104.236V271H102.706V269.403ZM106.067 271C106.116 270.097 106.302 269.311 106.624 268.642C106.951 267.973 107.586 267.365 108.528 266.818L109.935 266.005C110.564 265.639 111.006 265.326 111.26 265.067C111.661 264.662 111.861 264.198 111.861 263.676C111.861 263.065 111.678 262.582 111.312 262.226C110.945 261.864 110.457 261.684 109.847 261.684C108.943 261.684 108.318 262.025 107.972 262.709C107.786 263.075 107.684 263.583 107.664 264.232H106.324C106.338 263.319 106.507 262.575 106.829 261.999C107.4 260.983 108.409 260.475 109.854 260.475C111.055 260.475 111.932 260.8 112.483 261.449C113.04 262.099 113.318 262.821 113.318 263.617C113.318 264.457 113.023 265.175 112.432 265.771C112.09 266.117 111.478 266.537 110.594 267.03L109.59 267.587C109.112 267.851 108.736 268.102 108.462 268.341C107.974 268.766 107.667 269.237 107.54 269.755H113.267V271H106.067ZM115.384 263.573V262.562C116.336 262.47 117 262.316 117.376 262.101C117.752 261.881 118.033 261.366 118.218 260.556H119.258V271H117.852V263.573H115.384ZM123.58 269.403H125.11V271H123.58V269.403ZM131.431 267.287V262.533L128.069 267.287H131.431ZM131.453 271V268.437H126.854V267.147L131.658 260.482H132.771V267.287H134.317V268.437H132.771V271H131.453Z" fill="black"/>
<path d="M149.95 56V306" stroke="#333333" stroke-miterlimit="10"/>
<path d="M149.95 312V300" stroke="black" stroke-miterlimit="10"/>
<path d="M268.95 56V306" stroke="#CCCCCC" stroke-miterlimit="10"/>
<path d="M387.95 56V306" stroke="#CCCCCC" stroke-miterlimit="10"/>
<path d="M506.95 56V306" stroke="#CCCCCC" stroke-miterlimit="10"/>
<path d="M625.95 56V306" stroke="#CCCCCC" stroke-miterlimit="10"/>
<path d="M179.95 56V306" stroke="#E6E6E6" stroke-miterlimit="10"/>
<path d="M209.95 56V306" stroke="#E6E6E6" stroke-miterlimit="10"/>
<path d="M238.95 56V306" stroke="#E6E6E6" stroke-miterlimit="10"/>
<path d="M298.95 56V306" stroke="#E6E6E6" stroke-miterlimit="10"/>
<path d="M328.95 56V306" stroke="#E6E6E6" stroke-miterlimit="10"/>
<path d="M357.95 56V306" stroke="#E6E6E6" stroke-miterlimit="10"/>
<path d="M417.95 56V306" stroke="#E6E6E6" stroke-miterlimit="10"/>
<path d="M446.95 56V306" stroke="#E6E6E6" stroke-miterlimit="10"/>
<path d="M476.95 56V306" stroke="#E6E6E6" stroke-miterlimit="10"/>
<path d="M536.95 56V306" stroke="#E6E6E6" stroke-miterlimit="10"/>
<path d="M565.95 56V306" stroke="#E6E6E6" stroke-miterlimit="10"/>
<path d="M595.95 56V306" stroke="#E6E6E6" stroke-miterlimit="10"/>
<path d="M625.95 306H149.95" stroke="black" stroke-miterlimit="10"/>
<path d="M150.45 94.5V77.5H612.153C613.422 77.5 614.45 78.3954 614.45 79.5V92.5C614.45 93.6046 613.422 94.5 612.153 94.5H150.45Z" fill="#4285F4"/>
<path d="M150.45 151.5V134.5H527.398C529.084 134.5 530.45 135.395 530.45 136.5V149.5C530.45 150.605 529.084 151.5 527.398 151.5H150.45Z" fill="#4285F4"/>
<path d="M150.45 208.5V191.5H302.72C303.675 191.5 304.45 192.395 304.45 193.5V206.5C304.45 207.605 303.675 208.5 302.72 208.5H150.45Z" fill="#4285F4"/>
<path d="M150.45 266.5V249.5H185.325C185.946 249.5 186.45 250.395 186.45 251.5V264.5C186.45 265.605 185.946 266.5 185.325 266.5H150.45Z" fill="#4285F4"/>
<path d="M150.45 113.5V96.5H566.317C567.495 96.5 568.45 97.3954 568.45 98.5V111.5C568.45 112.605 567.495 113.5 566.317 113.5H150.45Z" fill="#EA4335"/>
<path d="M150.45 170.5V153.5H527.243C529.014 153.5 530.45 154.395 530.45 155.5V168.5C530.45 169.605 529.014 170.5 527.243 170.5H150.45Z" fill="#EA4335"/>
<path d="M150.45 227.5V210.5H307.534C308.592 210.5 309.45 211.395 309.45 212.5V225.5C309.45 226.605 308.592 227.5 307.534 227.5H150.45Z" fill="#EA4335"/>
<path d="M150.45 285.5V268.5H188.212C188.896 268.5 189.45 269.395 189.45 270.5V283.5C189.45 284.605 188.896 285.5 188.212 285.5H150.45Z" fill="#EA4335"/>
<path d="M268.95 312V300" stroke="black" stroke-miterlimit="10"/>
<path d="M387.95 312V300" stroke="black" stroke-miterlimit="10"/>
<path d="M506.95 312V300" stroke="black" stroke-miterlimit="10"/>
<path d="M625.95 312V300" stroke="black" stroke-miterlimit="10"/>
<path d="M147 324.716C147 323.695 147.104 322.877 147.312 322.262C147.521 321.637 147.828 321.158 148.234 320.825C148.651 320.492 149.172 320.325 149.797 320.325C150.255 320.325 150.656 320.419 151 320.606C151.354 320.794 151.646 321.065 151.875 321.419C152.104 321.762 152.281 322.184 152.406 322.684C152.531 323.184 152.594 323.861 152.594 324.716C152.594 325.726 152.49 326.538 152.281 327.153C152.083 327.768 151.776 328.247 151.359 328.591C150.953 328.924 150.432 329.091 149.797 329.091C148.974 329.091 148.323 328.794 147.844 328.2C147.281 327.492 147 326.33 147 324.716ZM148.078 324.716C148.078 326.122 148.245 327.059 148.578 327.528C148.911 327.997 149.318 328.231 149.797 328.231C150.286 328.231 150.693 327.997 151.016 327.528C151.349 327.059 151.516 326.122 151.516 324.716C151.516 323.299 151.349 322.361 151.016 321.903C150.693 321.434 150.281 321.2 149.781 321.2C149.302 321.2 148.917 321.403 148.625 321.809C148.26 322.33 148.078 323.299 148.078 324.716Z" fill="black"/>
<path d="M269.944 328.95H268.897V322.231C268.636 322.471 268.298 322.716 267.881 322.966C267.475 323.205 267.11 323.382 266.788 323.497V322.481C267.371 322.2 267.881 321.867 268.319 321.481C268.767 321.085 269.084 320.7 269.272 320.325H269.944V328.95Z" fill="black"/>
<path d="M390.497 327.934V328.95H384.809C384.809 328.7 384.851 328.455 384.934 328.216C385.08 327.83 385.309 327.45 385.622 327.075C385.945 326.7 386.408 326.268 387.013 325.778C387.95 325.007 388.58 324.398 388.903 323.95C389.236 323.502 389.403 323.08 389.403 322.684C389.403 322.268 389.252 321.919 388.95 321.637C388.648 321.346 388.257 321.2 387.778 321.2C387.268 321.2 386.861 321.351 386.559 321.653C386.257 321.955 386.101 322.377 386.091 322.919L385.013 322.809C385.085 321.997 385.361 321.382 385.841 320.966C386.33 320.538 386.986 320.325 387.809 320.325C388.632 320.325 389.283 320.554 389.763 321.012C390.242 321.471 390.481 322.038 390.481 322.716C390.481 323.059 390.408 323.398 390.263 323.731C390.127 324.054 389.893 324.403 389.559 324.778C389.236 325.143 388.7 325.643 387.95 326.278C387.315 326.809 386.903 327.174 386.716 327.372C386.539 327.559 386.393 327.747 386.278 327.934H390.497Z" fill="black"/>
<path d="M503.925 326.684L504.988 326.544C505.102 327.137 505.305 327.57 505.597 327.841C505.889 328.101 506.243 328.231 506.659 328.231C507.159 328.231 507.581 328.059 507.925 327.716C508.269 327.372 508.441 326.945 508.441 326.434C508.441 325.955 508.279 325.559 507.956 325.247C507.644 324.924 507.243 324.762 506.753 324.762C506.555 324.762 506.305 324.804 506.003 324.887L506.128 323.95C506.201 323.96 506.258 323.966 506.3 323.966C506.748 323.966 507.149 323.851 507.503 323.622C507.868 323.382 508.05 323.018 508.05 322.528C508.05 322.143 507.92 321.825 507.659 321.575C507.399 321.315 507.06 321.184 506.644 321.184C506.238 321.184 505.894 321.315 505.613 321.575C505.342 321.835 505.17 322.221 505.097 322.731L504.034 322.544C504.159 321.846 504.451 321.304 504.909 320.919C505.368 320.523 505.935 320.325 506.613 320.325C507.081 320.325 507.514 320.429 507.909 320.637C508.305 320.835 508.607 321.106 508.816 321.45C509.024 321.794 509.128 322.163 509.128 322.559C509.128 322.924 509.029 323.262 508.831 323.575C508.633 323.877 508.342 324.117 507.956 324.294C508.456 324.408 508.847 324.653 509.128 325.028C509.409 325.393 509.55 325.856 509.55 326.419C509.55 327.169 509.274 327.804 508.722 328.325C508.18 328.846 507.493 329.106 506.659 329.106C505.909 329.106 505.284 328.882 504.784 328.434C504.284 327.976 503.998 327.393 503.925 326.684Z" fill="black"/>
<path d="M626.275 328.95V326.887H622.556V325.919L626.478 320.356H627.337V325.919H628.494V326.887H627.337V328.95H626.275ZM626.275 325.919V322.059L623.587 325.919H626.275Z" fill="black"/>
<path d="M605.248 88.5583C606.66 88.9739 608.143 88.1654 608.558 86.7524C608.974 85.3395 608.165 83.8573 606.752 83.4417C605.34 83.0261 603.857 83.8346 603.442 85.2476C603.026 86.6605 603.835 88.1427 605.248 88.5583ZM581.48 171.141L606.48 86.1411L605.52 85.8589L580.52 170.859L581.48 171.141Z" fill="black"/>
<path d="M556.896 189.286C555.656 189.286 554.755 188.946 554.194 188.268C553.637 187.584 553.359 186.754 553.359 185.777H554.736C554.794 186.456 554.921 186.949 555.117 187.257C555.458 187.809 556.076 188.084 556.97 188.084C557.663 188.084 558.22 187.899 558.64 187.528C559.06 187.157 559.27 186.678 559.27 186.092C559.27 185.37 559.047 184.864 558.603 184.576C558.164 184.288 557.551 184.144 556.765 184.144C556.677 184.144 556.586 184.146 556.494 184.151C556.406 184.151 556.315 184.154 556.223 184.159V182.994C556.359 183.009 556.474 183.019 556.567 183.023C556.66 183.028 556.76 183.031 556.867 183.031C557.36 183.031 557.766 182.953 558.083 182.796C558.64 182.523 558.918 182.035 558.918 181.332C558.918 180.809 558.732 180.406 558.361 180.123C557.99 179.84 557.558 179.698 557.065 179.698C556.186 179.698 555.578 179.991 555.241 180.577C555.056 180.899 554.951 181.358 554.926 181.954H553.623C553.623 181.173 553.779 180.509 554.091 179.962C554.628 178.985 555.573 178.497 556.926 178.497C557.995 178.497 558.823 178.736 559.409 179.215C559.995 179.688 560.288 180.377 560.288 181.28C560.288 181.925 560.114 182.447 559.768 182.848C559.553 183.097 559.274 183.292 558.933 183.434C559.484 183.585 559.914 183.878 560.222 184.312C560.534 184.742 560.69 185.27 560.69 185.895C560.69 186.896 560.361 187.711 559.702 188.341C559.042 188.971 558.107 189.286 556.896 189.286ZM562.631 187.403H564.162V189H562.631V187.403ZM567.517 186.466C567.556 187.193 567.836 187.696 568.359 187.975C568.627 188.121 568.93 188.194 569.267 188.194C569.897 188.194 570.434 187.933 570.878 187.411C571.323 186.883 571.638 185.816 571.823 184.21C571.53 184.674 571.167 185.001 570.732 185.191C570.302 185.377 569.838 185.47 569.34 185.47C568.33 185.47 567.529 185.155 566.938 184.525C566.352 183.895 566.059 183.084 566.059 182.093C566.059 181.141 566.35 180.304 566.931 179.581C567.512 178.858 568.369 178.497 569.501 178.497C571.03 178.497 572.084 179.186 572.666 180.562C572.988 181.319 573.149 182.267 573.149 183.404C573.149 184.688 572.956 185.826 572.57 186.817C571.931 188.468 570.847 189.293 569.318 189.293C568.293 189.293 567.514 189.024 566.982 188.487C566.45 187.95 566.184 187.276 566.184 186.466H567.517ZM569.516 184.312C570.039 184.312 570.515 184.142 570.944 183.8C571.379 183.453 571.596 182.85 571.596 181.991C571.596 181.219 571.401 180.646 571.01 180.27C570.625 179.889 570.131 179.698 569.531 179.698C568.886 179.698 568.374 179.916 567.993 180.35C567.617 180.78 567.429 181.356 567.429 182.079C567.429 182.762 567.595 183.307 567.927 183.712C568.259 184.112 568.789 184.312 569.516 184.312ZM579.155 178.241H581.242L584.333 187.337L587.402 178.241H589.467V189H588.083V182.65C588.083 182.43 588.088 182.066 588.098 181.559C588.107 181.051 588.112 180.506 588.112 179.925L585.043 189H583.601L580.51 179.925V180.255C580.51 180.519 580.515 180.921 580.524 181.463C580.539 182 580.546 182.396 580.546 182.65V189H579.155V178.241ZM591.723 178.241H593.195V182.687H598.791V178.241H600.263V189H598.791V183.968H593.195V189H591.723V178.241ZM601.765 187.96L606.416 182.335H602.109V181.156H608.188V182.232L603.566 187.821H608.327V189H601.765V187.96Z" fill="black"/>
<path d="M519.707 145.332C520.995 146.046 522.618 145.581 523.332 144.293C524.046 143.005 523.581 141.382 522.293 140.668C521.005 139.954 519.382 140.419 518.668 141.707C517.954 142.995 518.419 144.618 519.707 145.332ZM475.437 226.242L521.437 143.242L520.563 142.758L474.563 225.758L475.437 226.242Z" fill="black"/>
<path d="M450.896 243.286C449.656 243.286 448.755 242.946 448.194 242.268C447.637 241.584 447.359 240.754 447.359 239.777H448.736C448.794 240.456 448.921 240.949 449.117 241.257C449.458 241.809 450.076 242.084 450.97 242.084C451.663 242.084 452.22 241.899 452.64 241.528C453.06 241.157 453.27 240.678 453.27 240.092C453.27 239.37 453.047 238.864 452.603 238.576C452.164 238.288 451.551 238.144 450.765 238.144C450.677 238.144 450.586 238.146 450.494 238.151C450.406 238.151 450.315 238.154 450.223 238.159V236.994C450.359 237.009 450.474 237.019 450.567 237.023C450.66 237.028 450.76 237.031 450.867 237.031C451.36 237.031 451.766 236.953 452.083 236.796C452.64 236.523 452.918 236.035 452.918 235.332C452.918 234.809 452.732 234.406 452.361 234.123C451.99 233.84 451.558 233.698 451.065 233.698C450.186 233.698 449.578 233.991 449.241 234.577C449.056 234.899 448.951 235.358 448.926 235.954H447.623C447.623 235.173 447.779 234.509 448.091 233.962C448.628 232.985 449.573 232.497 450.926 232.497C451.995 232.497 452.823 232.736 453.409 233.215C453.995 233.688 454.288 234.377 454.288 235.28C454.288 235.925 454.114 236.447 453.768 236.848C453.553 237.097 453.274 237.292 452.933 237.434C453.484 237.585 453.914 237.878 454.222 238.312C454.534 238.742 454.69 239.27 454.69 239.895C454.69 240.896 454.361 241.711 453.702 242.341C453.042 242.971 452.107 243.286 450.896 243.286ZM456.631 241.403H458.162V243H456.631V241.403ZM459.993 243C460.042 242.097 460.228 241.311 460.55 240.642C460.877 239.973 461.512 239.365 462.454 238.818L463.86 238.005C464.49 237.639 464.932 237.326 465.186 237.067C465.586 236.662 465.787 236.198 465.787 235.676C465.787 235.065 465.604 234.582 465.237 234.226C464.871 233.864 464.383 233.684 463.772 233.684C462.869 233.684 462.244 234.025 461.897 234.709C461.712 235.075 461.609 235.583 461.59 236.232H460.25C460.264 235.319 460.433 234.575 460.755 233.999C461.326 232.983 462.334 232.475 463.78 232.475C464.981 232.475 465.857 232.8 466.409 233.449C466.966 234.099 467.244 234.821 467.244 235.617C467.244 236.457 466.949 237.175 466.358 237.771C466.016 238.117 465.403 238.537 464.52 239.03L463.516 239.587C463.038 239.851 462.662 240.102 462.388 240.341C461.9 240.766 461.592 241.237 461.465 241.755H467.193V243H459.993ZM473.155 232.241H475.242L478.333 241.337L481.402 232.241H483.467V243H482.083V236.65C482.083 236.43 482.088 236.066 482.098 235.559C482.107 235.051 482.112 234.506 482.112 233.925L479.043 243H477.601L474.51 233.925V234.255C474.51 234.519 474.515 234.921 474.524 235.463C474.539 236 474.546 236.396 474.546 236.65V243H473.155V232.241ZM485.723 232.241H487.195V236.687H492.791V232.241H494.263V243H492.791V237.968H487.195V243H485.723V232.241ZM495.765 241.96L500.416 236.335H496.109V235.156H502.188V236.232L497.566 241.821H502.327V243H495.765V241.96Z" fill="black"/>
<path d="M296.457 202.234C297.69 201.429 298.038 199.777 297.234 198.543C296.429 197.31 294.777 196.962 293.543 197.766C292.31 198.571 291.962 200.223 292.766 201.457C293.571 202.69 295.223 203.038 296.457 202.234ZM337.419 264.118L295.419 199.727L294.581 200.273L336.581 264.665L337.419 264.118Z" fill="black"/>
<path d="M310.436 273.573V272.562C311.388 272.47 312.052 272.316 312.428 272.101C312.804 271.881 313.084 271.366 313.27 270.556H314.31V281H312.904V273.573H310.436ZM318.631 279.403H320.162V281H318.631V279.403ZM325.421 281.286C324.181 281.286 323.28 280.946 322.718 280.268C322.162 279.584 321.883 278.754 321.883 277.777H323.26C323.319 278.456 323.446 278.949 323.641 279.257C323.983 279.809 324.601 280.084 325.494 280.084C326.188 280.084 326.744 279.899 327.164 279.528C327.584 279.157 327.794 278.678 327.794 278.092C327.794 277.37 327.572 276.864 327.127 276.576C326.688 276.288 326.075 276.144 325.289 276.144C325.201 276.144 325.111 276.146 325.018 276.151C324.93 276.151 324.84 276.154 324.747 276.159V274.994C324.884 275.009 324.999 275.019 325.091 275.023C325.184 275.028 325.284 275.031 325.392 275.031C325.885 275.031 326.29 274.953 326.607 274.796C327.164 274.523 327.442 274.035 327.442 273.332C327.442 272.809 327.257 272.406 326.886 272.123C326.515 271.84 326.083 271.698 325.589 271.698C324.71 271.698 324.103 271.991 323.766 272.577C323.58 272.899 323.475 273.358 323.451 273.954H322.147C322.147 273.173 322.303 272.509 322.616 271.962C323.153 270.985 324.098 270.497 325.45 270.497C326.52 270.497 327.347 270.736 327.933 271.215C328.519 271.688 328.812 272.377 328.812 273.28C328.812 273.925 328.639 274.447 328.292 274.848C328.077 275.097 327.799 275.292 327.457 275.434C328.009 275.585 328.438 275.878 328.746 276.312C329.059 276.742 329.215 277.27 329.215 277.895C329.215 278.896 328.885 279.711 328.226 280.341C327.567 280.971 326.632 281.286 325.421 281.286ZM335.155 270.241H337.242L340.333 279.337L343.402 270.241H345.467V281H344.083V274.65C344.083 274.43 344.088 274.066 344.098 273.559C344.107 273.051 344.112 272.506 344.112 271.925L341.043 281H339.601L336.51 271.925V272.255C336.51 272.519 336.515 272.921 336.524 273.463C336.539 274 336.546 274.396 336.546 274.65V281H335.155V270.241ZM347.723 270.241H349.195V274.687H354.791V270.241H356.263V281H354.791V275.968H349.195V281H347.723V270.241ZM357.765 279.96L362.416 274.335H358.109V273.156H364.188V274.232L359.566 279.821H364.327V281H357.765V279.96Z" fill="black"/>
<path d="M180.287 259.372C181.044 258.109 180.635 256.471 179.372 255.713C178.109 254.956 176.471 255.365 175.713 256.628C174.956 257.891 175.365 259.529 176.628 260.287C177.891 261.044 179.529 260.635 180.287 259.372ZM213.257 278.571L178.257 257.571L177.743 258.429L212.743 279.429L213.257 278.571Z" fill="black"/>
<path d="M219.896 286.286C218.656 286.286 217.755 285.946 217.194 285.268C216.637 284.584 216.359 283.754 216.359 282.777H217.736C217.794 283.456 217.921 283.949 218.117 284.257C218.458 284.809 219.076 285.084 219.97 285.084C220.663 285.084 221.22 284.899 221.64 284.528C222.06 284.157 222.27 283.678 222.27 283.092C222.27 282.37 222.047 281.864 221.603 281.576C221.164 281.288 220.551 281.144 219.765 281.144C219.677 281.144 219.586 281.146 219.494 281.151C219.406 281.151 219.315 281.154 219.223 281.159V279.994C219.359 280.009 219.474 280.019 219.567 280.023C219.66 280.028 219.76 280.031 219.867 280.031C220.36 280.031 220.766 279.953 221.083 279.796C221.64 279.523 221.918 279.035 221.918 278.332C221.918 277.809 221.732 277.406 221.361 277.123C220.99 276.84 220.558 276.698 220.065 276.698C219.186 276.698 218.578 276.991 218.241 277.577C218.056 277.899 217.951 278.358 217.926 278.954H216.623C216.623 278.173 216.779 277.509 217.091 276.962C217.628 275.985 218.573 275.497 219.926 275.497C220.995 275.497 221.823 275.736 222.409 276.215C222.995 276.688 223.288 277.377 223.288 278.28C223.288 278.925 223.114 279.447 222.768 279.848C222.553 280.097 222.274 280.292 221.933 280.434C222.484 280.585 222.914 280.878 223.222 281.312C223.534 281.742 223.69 282.27 223.69 282.895C223.69 283.896 223.361 284.711 222.702 285.341C222.042 285.971 221.107 286.286 219.896 286.286ZM228.407 275.512C229.765 275.512 230.746 276.071 231.352 277.189C231.82 278.053 232.055 279.237 232.055 280.741C232.055 282.167 231.842 283.346 231.417 284.279C230.802 285.617 229.796 286.286 228.4 286.286C227.14 286.286 226.203 285.739 225.587 284.645C225.075 283.732 224.818 282.506 224.818 280.968C224.818 279.777 224.972 278.754 225.28 277.899C225.856 276.308 226.898 275.512 228.407 275.512ZM228.393 285.084C229.076 285.084 229.621 284.782 230.026 284.176C230.431 283.571 230.634 282.443 230.634 280.792C230.634 279.601 230.487 278.622 230.194 277.855C229.901 277.084 229.333 276.698 228.488 276.698C227.711 276.698 227.143 277.064 226.781 277.797C226.425 278.524 226.247 279.599 226.247 281.02C226.247 282.089 226.361 282.948 226.591 283.598C226.942 284.589 227.543 285.084 228.393 285.084ZM236.596 286.286C235.355 286.286 234.455 285.946 233.893 285.268C233.336 284.584 233.058 283.754 233.058 282.777H234.435C234.494 283.456 234.621 283.949 234.816 284.257C235.158 284.809 235.775 285.084 236.669 285.084C237.362 285.084 237.919 284.899 238.339 284.528C238.759 284.157 238.969 283.678 238.969 283.092C238.969 282.37 238.747 281.864 238.302 281.576C237.863 281.288 237.25 281.144 236.464 281.144C236.376 281.144 236.286 281.146 236.193 281.151C236.105 281.151 236.015 281.154 235.922 281.159V279.994C236.059 280.009 236.173 280.019 236.266 280.023C236.359 280.028 236.459 280.031 236.566 280.031C237.06 280.031 237.465 279.953 237.782 279.796C238.339 279.523 238.617 279.035 238.617 278.332C238.617 277.809 238.432 277.406 238.061 277.123C237.689 276.84 237.257 276.698 236.764 276.698C235.885 276.698 235.277 276.991 234.94 277.577C234.755 277.899 234.65 278.358 234.625 278.954H233.322C233.322 278.173 233.478 277.509 233.791 276.962C234.328 275.985 235.272 275.497 236.625 275.497C237.694 275.497 238.522 275.736 239.108 276.215C239.694 276.688 239.987 277.377 239.987 278.28C239.987 278.925 239.813 279.447 239.467 279.848C239.252 280.097 238.974 280.292 238.632 280.434C239.184 280.585 239.613 280.878 239.921 281.312C240.233 281.742 240.39 282.27 240.39 282.895C240.39 283.896 240.06 284.711 239.401 285.341C238.742 285.971 237.807 286.286 236.596 286.286ZM246.161 275.241H247.428V281.488L250.812 278.156H252.497L249.494 281.093L252.665 286H250.98L248.534 282.045L247.428 283.056V286H246.161V275.241ZM253.903 275.241H255.375V279.687H260.971V275.241H262.443V286H260.971V280.968H255.375V286H253.903V275.241ZM263.944 284.96L268.595 279.335H264.289V278.156H270.368V279.232L265.746 284.821H270.507V286H263.944V284.96Z" fill="black"/>
</svg>
