<svg width="656" height="384" viewBox="0 0 656 384" fill="none" xmlns="http://www.w3.org/2000/svg">
<line x1="180.5" y1="56" x2="180.5" y2="306" stroke="white" stroke-opacity="0.2"/>
<line x1="150.5" y1="56" x2="150.5" y2="306" stroke="#E6E6E6"/>
<line x1="210.5" y1="56" x2="210.5" y2="306" stroke="white" stroke-opacity="0.2"/>
<line x1="239.5" y1="56" x2="239.5" y2="306" stroke="white" stroke-opacity="0.2"/>
<line x1="269.5" y1="56" x2="269.5" y2="306" stroke="white" stroke-opacity="0.4"/>
<line x1="299.5" y1="56" x2="299.5" y2="306" stroke="white" stroke-opacity="0.2"/>
<line x1="329.501" y1="56" x2="329.5" y2="306" stroke="white" stroke-opacity="0.2"/>
<line x1="358.501" y1="56" x2="358.5" y2="306" stroke="white" stroke-opacity="0.2"/>
<line x1="388.501" y1="56" x2="388.5" y2="306" stroke="white" stroke-opacity="0.4"/>
<line x1="418.5" y1="56" x2="418.5" y2="306" stroke="white" stroke-opacity="0.2"/>
<line x1="448.5" y1="56" x2="448.5" y2="306" stroke="white" stroke-opacity="0.2"/>
<line x1="477.5" y1="56" x2="477.5" y2="306" stroke="white" stroke-opacity="0.2"/>
<line x1="507.5" y1="56" x2="507.5" y2="306" stroke="white" stroke-opacity="0.4"/>
<line x1="537.5" y1="56" x2="537.5" y2="306" stroke="white" stroke-opacity="0.2"/>
<line x1="567.5" y1="56" x2="567.5" y2="306" stroke="white" stroke-opacity="0.2"/>
<line x1="596.5" y1="56" x2="596.5" y2="306" stroke="white" stroke-opacity="0.2"/>
<line x1="626.5" y1="56" x2="626.5" y2="306" stroke="white" stroke-opacity="0.4"/>
<path d="M150 135H515C516.657 135 518 136.343 518 138V149C518 150.657 516.657 152 515 152H150V135Z" fill="#4285F4"/>
<path d="M150 269H189C190.657 269 192 270.343 192 272V283C192 284.657 190.657 286 189 286H150V269Z" fill="#EA4335"/>
<path d="M150 250H183C184.657 250 186 251.343 186 253V264C186 265.657 184.657 267 183 267H150V250Z" fill="#4285F4"/>
<path d="M150 211H268C269.657 211 271 212.343 271 214V225C271 226.657 269.657 228 268 228H150V211Z" fill="#EA4335"/>
<path d="M150 192H337C338.657 192 340 193.343 340 195V206C340 207.657 338.657 209 337 209H150V192Z" fill="#4285F4"/>
<path d="M150 154H492C493.657 154 495 155.343 495 157V168C495 169.657 493.657 171 492 171H150V154Z" fill="#EA4335"/>
<path d="M150 97H551C552.657 97 554 98.3431 554 100V111C554 112.657 552.657 114 551 114H150V97Z" fill="#EA4335"/>
<path d="M150 78H564C565.657 78 567 79.3431 567 81V92C567 93.6569 565.657 95 564 95H150V78Z" fill="#4285F4"/>
<path d="M271.18 349.523H273.406L276.703 359.227L279.977 349.523H282.18V361H280.703V354.227C280.703 353.992 280.708 353.604 280.719 353.062C280.729 352.521 280.734 351.94 280.734 351.32L277.461 361H275.922L272.625 351.32V351.672C272.625 351.953 272.63 352.383 272.641 352.961C272.656 353.534 272.664 353.956 272.664 354.227V361H271.18V349.523ZM284.359 352.672H285.789V361H284.359V352.672ZM284.359 349.523H285.789V351.117H284.359V349.523ZM287.961 349.523H289.367V361H287.961V349.523ZM291.523 349.523H292.93V361H291.523V349.523ZM295.047 352.672H296.477V361H295.047V352.672ZM295.047 349.523H296.477V351.117H295.047V349.523ZM301.93 360.094C302.862 360.094 303.5 359.742 303.844 359.039C304.193 358.331 304.367 357.544 304.367 356.68C304.367 355.898 304.242 355.263 303.992 354.773C303.596 354.003 302.914 353.617 301.945 353.617C301.086 353.617 300.461 353.945 300.07 354.602C299.68 355.258 299.484 356.049 299.484 356.977C299.484 357.867 299.68 358.609 300.07 359.203C300.461 359.797 301.081 360.094 301.93 360.094ZM301.984 352.391C303.062 352.391 303.974 352.75 304.719 353.469C305.464 354.188 305.836 355.245 305.836 356.641C305.836 357.99 305.508 359.104 304.852 359.984C304.195 360.865 303.177 361.305 301.797 361.305C300.646 361.305 299.732 360.917 299.055 360.141C298.378 359.359 298.039 358.312 298.039 357C298.039 355.594 298.396 354.474 299.109 353.641C299.823 352.807 300.781 352.391 301.984 352.391ZM307.516 352.633H308.852V353.82C309.247 353.331 309.667 352.979 310.109 352.766C310.552 352.552 311.044 352.445 311.586 352.445C312.773 352.445 313.576 352.859 313.992 353.688C314.221 354.141 314.336 354.789 314.336 355.633V361H312.906V355.727C312.906 355.216 312.831 354.805 312.68 354.492C312.43 353.971 311.977 353.711 311.32 353.711C310.987 353.711 310.714 353.745 310.5 353.812C310.115 353.927 309.776 354.156 309.484 354.5C309.25 354.776 309.096 355.062 309.023 355.359C308.956 355.651 308.922 356.07 308.922 356.617V361H307.516V352.633ZM317.258 358.375C317.299 358.844 317.417 359.203 317.609 359.453C317.964 359.906 318.578 360.133 319.453 360.133C319.974 360.133 320.432 360.021 320.828 359.797C321.224 359.568 321.422 359.216 321.422 358.742C321.422 358.383 321.263 358.109 320.945 357.922C320.742 357.807 320.341 357.674 319.742 357.523L318.625 357.242C317.911 357.065 317.385 356.867 317.047 356.648C316.443 356.268 316.141 355.742 316.141 355.07C316.141 354.279 316.424 353.638 316.992 353.148C317.565 352.659 318.333 352.414 319.297 352.414C320.557 352.414 321.466 352.784 322.023 353.523C322.372 353.992 322.542 354.497 322.531 355.039H321.203C321.177 354.721 321.065 354.432 320.867 354.172C320.544 353.802 319.984 353.617 319.188 353.617C318.656 353.617 318.253 353.719 317.977 353.922C317.706 354.125 317.57 354.393 317.57 354.727C317.57 355.091 317.75 355.383 318.109 355.602C318.318 355.732 318.625 355.846 319.031 355.945L319.961 356.172C320.971 356.417 321.648 356.654 321.992 356.883C322.539 357.242 322.812 357.807 322.812 358.578C322.812 359.323 322.529 359.966 321.961 360.508C321.398 361.049 320.539 361.32 319.383 361.32C318.138 361.32 317.255 361.039 316.734 360.477C316.219 359.909 315.943 359.208 315.906 358.375H317.258ZM332.195 360.094C333.128 360.094 333.766 359.742 334.109 359.039C334.458 358.331 334.633 357.544 334.633 356.68C334.633 355.898 334.508 355.263 334.258 354.773C333.862 354.003 333.18 353.617 332.211 353.617C331.352 353.617 330.727 353.945 330.336 354.602C329.945 355.258 329.75 356.049 329.75 356.977C329.75 357.867 329.945 358.609 330.336 359.203C330.727 359.797 331.346 360.094 332.195 360.094ZM332.25 352.391C333.328 352.391 334.24 352.75 334.984 353.469C335.729 354.188 336.102 355.245 336.102 356.641C336.102 357.99 335.773 359.104 335.117 359.984C334.461 360.865 333.443 361.305 332.062 361.305C330.911 361.305 329.997 360.917 329.32 360.141C328.643 359.359 328.305 358.312 328.305 357C328.305 355.594 328.661 354.474 329.375 353.641C330.089 352.807 331.047 352.391 332.25 352.391ZM338.133 351.359C338.154 350.776 338.255 350.349 338.438 350.078C338.766 349.599 339.398 349.359 340.336 349.359C340.424 349.359 340.516 349.362 340.609 349.367C340.703 349.372 340.81 349.38 340.93 349.391V350.672C340.784 350.661 340.677 350.656 340.609 350.656C340.547 350.651 340.487 350.648 340.43 350.648C340.003 350.648 339.747 350.76 339.664 350.984C339.581 351.203 339.539 351.766 339.539 352.672H340.93V353.781H339.523V361H338.133V353.781H336.969V352.672H338.133V351.359ZM350.008 360.094C350.94 360.094 351.578 359.742 351.922 359.039C352.271 358.331 352.445 357.544 352.445 356.68C352.445 355.898 352.32 355.263 352.07 354.773C351.674 354.003 350.992 353.617 350.023 353.617C349.164 353.617 348.539 353.945 348.148 354.602C347.758 355.258 347.562 356.049 347.562 356.977C347.562 357.867 347.758 358.609 348.148 359.203C348.539 359.797 349.159 360.094 350.008 360.094ZM350.062 352.391C351.141 352.391 352.052 352.75 352.797 353.469C353.542 354.188 353.914 355.245 353.914 356.641C353.914 357.99 353.586 359.104 352.93 359.984C352.273 360.865 351.255 361.305 349.875 361.305C348.724 361.305 347.81 360.917 347.133 360.141C346.456 359.359 346.117 358.312 346.117 357C346.117 355.594 346.474 354.474 347.188 353.641C347.901 352.807 348.859 352.391 350.062 352.391ZM359.125 360.055C359.781 360.055 360.326 359.781 360.758 359.234C361.195 358.682 361.414 357.859 361.414 356.766C361.414 356.099 361.318 355.526 361.125 355.047C360.76 354.125 360.094 353.664 359.125 353.664C358.151 353.664 357.484 354.151 357.125 355.125C356.932 355.646 356.836 356.307 356.836 357.109C356.836 357.755 356.932 358.305 357.125 358.758C357.49 359.622 358.156 360.055 359.125 360.055ZM355.484 352.672H356.852V353.781C357.133 353.401 357.44 353.107 357.773 352.898C358.247 352.586 358.805 352.43 359.445 352.43C360.393 352.43 361.198 352.794 361.859 353.523C362.521 354.247 362.852 355.284 362.852 356.633C362.852 358.456 362.375 359.758 361.422 360.539C360.818 361.034 360.115 361.281 359.312 361.281C358.682 361.281 358.154 361.143 357.727 360.867C357.477 360.711 357.198 360.443 356.891 360.062V364.336H355.484V352.672ZM367.984 352.445C368.578 352.445 369.154 352.586 369.711 352.867C370.268 353.143 370.693 353.503 370.984 353.945C371.266 354.367 371.453 354.859 371.547 355.422C371.63 355.807 371.672 356.422 371.672 357.266H365.539C365.565 358.115 365.766 358.797 366.141 359.312C366.516 359.823 367.096 360.078 367.883 360.078C368.617 360.078 369.203 359.836 369.641 359.352C369.891 359.07 370.068 358.745 370.172 358.375H371.555C371.518 358.682 371.396 359.026 371.188 359.406C370.984 359.781 370.755 360.089 370.5 360.328C370.073 360.745 369.544 361.026 368.914 361.172C368.576 361.255 368.193 361.297 367.766 361.297C366.724 361.297 365.841 360.919 365.117 360.164C364.393 359.404 364.031 358.341 364.031 356.977C364.031 355.633 364.396 354.542 365.125 353.703C365.854 352.865 366.807 352.445 367.984 352.445ZM370.227 356.148C370.169 355.539 370.036 355.052 369.828 354.688C369.443 354.01 368.799 353.672 367.898 353.672C367.253 353.672 366.711 353.906 366.273 354.375C365.836 354.839 365.604 355.43 365.578 356.148H370.227ZM373.445 352.633H374.781V354.078C374.891 353.797 375.159 353.456 375.586 353.055C376.013 352.648 376.505 352.445 377.062 352.445C377.089 352.445 377.133 352.448 377.195 352.453C377.258 352.458 377.365 352.469 377.516 352.484V353.969C377.432 353.953 377.354 353.943 377.281 353.938C377.214 353.932 377.138 353.93 377.055 353.93C376.346 353.93 375.802 354.159 375.422 354.617C375.042 355.07 374.852 355.594 374.852 356.188V361H373.445V352.633ZM379.812 358.773C379.812 359.18 379.961 359.5 380.258 359.734C380.555 359.969 380.906 360.086 381.312 360.086C381.807 360.086 382.286 359.971 382.75 359.742C383.531 359.362 383.922 358.74 383.922 357.875V356.742C383.75 356.852 383.529 356.943 383.258 357.016C382.987 357.089 382.721 357.141 382.461 357.172L381.609 357.281C381.099 357.349 380.716 357.456 380.461 357.602C380.029 357.846 379.812 358.237 379.812 358.773ZM383.219 355.93C383.542 355.888 383.758 355.753 383.867 355.523C383.93 355.398 383.961 355.219 383.961 354.984C383.961 354.505 383.789 354.159 383.445 353.945C383.107 353.727 382.62 353.617 381.984 353.617C381.25 353.617 380.729 353.815 380.422 354.211C380.25 354.43 380.138 354.755 380.086 355.188H378.773C378.799 354.156 379.133 353.44 379.773 353.039C380.419 352.633 381.167 352.43 382.016 352.43C383 352.43 383.799 352.617 384.414 352.992C385.023 353.367 385.328 353.951 385.328 354.742V359.562C385.328 359.708 385.357 359.826 385.414 359.914C385.477 360.003 385.604 360.047 385.797 360.047C385.859 360.047 385.93 360.044 386.008 360.039C386.086 360.029 386.169 360.016 386.258 360V361.039C386.039 361.102 385.872 361.141 385.758 361.156C385.643 361.172 385.487 361.18 385.289 361.18C384.805 361.18 384.453 361.008 384.234 360.664C384.12 360.482 384.039 360.224 383.992 359.891C383.706 360.266 383.294 360.591 382.758 360.867C382.221 361.143 381.63 361.281 380.984 361.281C380.208 361.281 379.573 361.047 379.078 360.578C378.589 360.104 378.344 359.513 378.344 358.805C378.344 358.029 378.586 357.427 379.07 357C379.555 356.573 380.19 356.31 380.977 356.211L383.219 355.93ZM387.922 350.297H389.344V352.633H390.68V353.781H389.344V359.242C389.344 359.534 389.443 359.729 389.641 359.828C389.75 359.885 389.932 359.914 390.188 359.914C390.255 359.914 390.328 359.914 390.406 359.914C390.484 359.909 390.576 359.901 390.68 359.891V361C390.518 361.047 390.349 361.081 390.172 361.102C390 361.122 389.812 361.133 389.609 361.133C388.953 361.133 388.508 360.966 388.273 360.633C388.039 360.294 387.922 359.857 387.922 359.32V353.781H386.789V352.633H387.922V350.297ZM392.094 352.672H393.523V361H392.094V352.672ZM392.094 349.523H393.523V351.117H392.094V349.523ZM398.977 360.094C399.909 360.094 400.547 359.742 400.891 359.039C401.24 358.331 401.414 357.544 401.414 356.68C401.414 355.898 401.289 355.263 401.039 354.773C400.643 354.003 399.961 353.617 398.992 353.617C398.133 353.617 397.508 353.945 397.117 354.602C396.727 355.258 396.531 356.049 396.531 356.977C396.531 357.867 396.727 358.609 397.117 359.203C397.508 359.797 398.128 360.094 398.977 360.094ZM399.031 352.391C400.109 352.391 401.021 352.75 401.766 353.469C402.51 354.188 402.883 355.245 402.883 356.641C402.883 357.99 402.555 359.104 401.898 359.984C401.242 360.865 400.224 361.305 398.844 361.305C397.693 361.305 396.779 360.917 396.102 360.141C395.424 359.359 395.086 358.312 395.086 357C395.086 355.594 395.443 354.474 396.156 353.641C396.87 352.807 397.828 352.391 399.031 352.391ZM404.562 352.633H405.898V353.82C406.294 353.331 406.714 352.979 407.156 352.766C407.599 352.552 408.091 352.445 408.633 352.445C409.82 352.445 410.622 352.859 411.039 353.688C411.268 354.141 411.383 354.789 411.383 355.633V361H409.953V355.727C409.953 355.216 409.878 354.805 409.727 354.492C409.477 353.971 409.023 353.711 408.367 353.711C408.034 353.711 407.76 353.745 407.547 353.812C407.161 353.927 406.823 354.156 406.531 354.5C406.297 354.776 406.143 355.062 406.07 355.359C406.003 355.651 405.969 356.07 405.969 356.617V361H404.562V352.633ZM414.305 358.375C414.346 358.844 414.464 359.203 414.656 359.453C415.01 359.906 415.625 360.133 416.5 360.133C417.021 360.133 417.479 360.021 417.875 359.797C418.271 359.568 418.469 359.216 418.469 358.742C418.469 358.383 418.31 358.109 417.992 357.922C417.789 357.807 417.388 357.674 416.789 357.523L415.672 357.242C414.958 357.065 414.432 356.867 414.094 356.648C413.49 356.268 413.188 355.742 413.188 355.07C413.188 354.279 413.471 353.638 414.039 353.148C414.612 352.659 415.38 352.414 416.344 352.414C417.604 352.414 418.513 352.784 419.07 353.523C419.419 353.992 419.589 354.497 419.578 355.039H418.25C418.224 354.721 418.112 354.432 417.914 354.172C417.591 353.802 417.031 353.617 416.234 353.617C415.703 353.617 415.299 353.719 415.023 353.922C414.753 354.125 414.617 354.393 414.617 354.727C414.617 355.091 414.797 355.383 415.156 355.602C415.365 355.732 415.672 355.846 416.078 355.945L417.008 356.172C418.018 356.417 418.695 356.654 419.039 356.883C419.586 357.242 419.859 357.807 419.859 358.578C419.859 359.323 419.576 359.966 419.008 360.508C418.445 361.049 417.586 361.32 416.43 361.32C415.185 361.32 414.302 361.039 413.781 360.477C413.266 359.909 412.99 359.208 412.953 358.375H414.305ZM429.453 360.055C430.109 360.055 430.654 359.781 431.086 359.234C431.523 358.682 431.742 357.859 431.742 356.766C431.742 356.099 431.646 355.526 431.453 355.047C431.089 354.125 430.422 353.664 429.453 353.664C428.479 353.664 427.812 354.151 427.453 355.125C427.26 355.646 427.164 356.307 427.164 357.109C427.164 357.755 427.26 358.305 427.453 358.758C427.818 359.622 428.484 360.055 429.453 360.055ZM425.812 352.672H427.18V353.781C427.461 353.401 427.768 353.107 428.102 352.898C428.576 352.586 429.133 352.43 429.773 352.43C430.721 352.43 431.526 352.794 432.188 353.523C432.849 354.247 433.18 355.284 433.18 356.633C433.18 358.456 432.703 359.758 431.75 360.539C431.146 361.034 430.443 361.281 429.641 361.281C429.01 361.281 428.482 361.143 428.055 360.867C427.805 360.711 427.526 360.443 427.219 360.062V364.336H425.812V352.672ZM438.312 352.445C438.906 352.445 439.482 352.586 440.039 352.867C440.596 353.143 441.021 353.503 441.312 353.945C441.594 354.367 441.781 354.859 441.875 355.422C441.958 355.807 442 356.422 442 357.266H435.867C435.893 358.115 436.094 358.797 436.469 359.312C436.844 359.823 437.424 360.078 438.211 360.078C438.945 360.078 439.531 359.836 439.969 359.352C440.219 359.07 440.396 358.745 440.5 358.375H441.883C441.846 358.682 441.724 359.026 441.516 359.406C441.312 359.781 441.083 360.089 440.828 360.328C440.401 360.745 439.872 361.026 439.242 361.172C438.904 361.255 438.521 361.297 438.094 361.297C437.052 361.297 436.169 360.919 435.445 360.164C434.721 359.404 434.359 358.341 434.359 356.977C434.359 355.633 434.724 354.542 435.453 353.703C436.182 352.865 437.135 352.445 438.312 352.445ZM440.555 356.148C440.497 355.539 440.365 355.052 440.156 354.688C439.771 354.01 439.128 353.672 438.227 353.672C437.581 353.672 437.039 353.906 436.602 354.375C436.164 354.839 435.932 355.43 435.906 356.148H440.555ZM443.773 352.633H445.109V354.078C445.219 353.797 445.487 353.456 445.914 353.055C446.341 352.648 446.833 352.445 447.391 352.445C447.417 352.445 447.461 352.448 447.523 352.453C447.586 352.458 447.693 352.469 447.844 352.484V353.969C447.76 353.953 447.682 353.943 447.609 353.938C447.542 353.932 447.466 353.93 447.383 353.93C446.674 353.93 446.13 354.159 445.75 354.617C445.37 355.07 445.18 355.594 445.18 356.188V361H443.773V352.633ZM454.352 358.375C454.393 358.844 454.51 359.203 454.703 359.453C455.057 359.906 455.672 360.133 456.547 360.133C457.068 360.133 457.526 360.021 457.922 359.797C458.318 359.568 458.516 359.216 458.516 358.742C458.516 358.383 458.357 358.109 458.039 357.922C457.836 357.807 457.435 357.674 456.836 357.523L455.719 357.242C455.005 357.065 454.479 356.867 454.141 356.648C453.536 356.268 453.234 355.742 453.234 355.07C453.234 354.279 453.518 353.638 454.086 353.148C454.659 352.659 455.427 352.414 456.391 352.414C457.651 352.414 458.56 352.784 459.117 353.523C459.466 353.992 459.635 354.497 459.625 355.039H458.297C458.271 354.721 458.159 354.432 457.961 354.172C457.638 353.802 457.078 353.617 456.281 353.617C455.75 353.617 455.346 353.719 455.07 353.922C454.799 354.125 454.664 354.393 454.664 354.727C454.664 355.091 454.844 355.383 455.203 355.602C455.411 355.732 455.719 355.846 456.125 355.945L457.055 356.172C458.065 356.417 458.742 356.654 459.086 356.883C459.633 357.242 459.906 357.807 459.906 358.578C459.906 359.323 459.622 359.966 459.055 360.508C458.492 361.049 457.633 361.32 456.477 361.32C455.232 361.32 454.349 361.039 453.828 360.477C453.312 359.909 453.036 359.208 453 358.375H454.352ZM465 352.445C465.594 352.445 466.169 352.586 466.727 352.867C467.284 353.143 467.708 353.503 468 353.945C468.281 354.367 468.469 354.859 468.562 355.422C468.646 355.807 468.688 356.422 468.688 357.266H462.555C462.581 358.115 462.781 358.797 463.156 359.312C463.531 359.823 464.112 360.078 464.898 360.078C465.633 360.078 466.219 359.836 466.656 359.352C466.906 359.07 467.083 358.745 467.188 358.375H468.57C468.534 358.682 468.411 359.026 468.203 359.406C468 359.781 467.771 360.089 467.516 360.328C467.089 360.745 466.56 361.026 465.93 361.172C465.591 361.255 465.208 361.297 464.781 361.297C463.74 361.297 462.857 360.919 462.133 360.164C461.409 359.404 461.047 358.341 461.047 356.977C461.047 355.633 461.411 354.542 462.141 353.703C462.87 352.865 463.823 352.445 465 352.445ZM467.242 356.148C467.185 355.539 467.052 355.052 466.844 354.688C466.458 354.01 465.815 353.672 464.914 353.672C464.268 353.672 463.727 353.906 463.289 354.375C462.852 354.839 462.62 355.43 462.594 356.148H467.242ZM473.648 352.391C474.591 352.391 475.357 352.62 475.945 353.078C476.539 353.536 476.896 354.326 477.016 355.445H475.648C475.565 354.93 475.375 354.503 475.078 354.164C474.781 353.82 474.305 353.648 473.648 353.648C472.753 353.648 472.112 354.086 471.727 354.961C471.477 355.529 471.352 356.229 471.352 357.062C471.352 357.901 471.529 358.607 471.883 359.18C472.237 359.753 472.794 360.039 473.555 360.039C474.138 360.039 474.599 359.862 474.938 359.508C475.281 359.148 475.518 358.659 475.648 358.039H477.016C476.859 359.148 476.469 359.961 475.844 360.477C475.219 360.987 474.419 361.242 473.445 361.242C472.352 361.242 471.479 360.844 470.828 360.047C470.177 359.245 469.852 358.245 469.852 357.047C469.852 355.578 470.208 354.435 470.922 353.617C471.635 352.799 472.544 352.391 473.648 352.391ZM481.742 360.094C482.674 360.094 483.312 359.742 483.656 359.039C484.005 358.331 484.18 357.544 484.18 356.68C484.18 355.898 484.055 355.263 483.805 354.773C483.409 354.003 482.727 353.617 481.758 353.617C480.898 353.617 480.273 353.945 479.883 354.602C479.492 355.258 479.297 356.049 479.297 356.977C479.297 357.867 479.492 358.609 479.883 359.203C480.273 359.797 480.893 360.094 481.742 360.094ZM481.797 352.391C482.875 352.391 483.786 352.75 484.531 353.469C485.276 354.188 485.648 355.245 485.648 356.641C485.648 357.99 485.32 359.104 484.664 359.984C484.008 360.865 482.99 361.305 481.609 361.305C480.458 361.305 479.544 360.917 478.867 360.141C478.19 359.359 477.852 358.312 477.852 357C477.852 355.594 478.208 354.474 478.922 353.641C479.635 352.807 480.594 352.391 481.797 352.391ZM487.328 352.633H488.664V353.82C489.06 353.331 489.479 352.979 489.922 352.766C490.365 352.552 490.857 352.445 491.398 352.445C492.586 352.445 493.388 352.859 493.805 353.688C494.034 354.141 494.148 354.789 494.148 355.633V361H492.719V355.727C492.719 355.216 492.643 354.805 492.492 354.492C492.242 353.971 491.789 353.711 491.133 353.711C490.799 353.711 490.526 353.745 490.312 353.812C489.927 353.927 489.589 354.156 489.297 354.5C489.062 354.776 488.909 355.062 488.836 355.359C488.768 355.651 488.734 356.07 488.734 356.617V361H487.328V352.633ZM497.125 356.914C497.125 357.81 497.315 358.56 497.695 359.164C498.076 359.768 498.685 360.07 499.523 360.07C500.174 360.07 500.708 359.792 501.125 359.234C501.547 358.672 501.758 357.867 501.758 356.82C501.758 355.763 501.542 354.982 501.109 354.477C500.677 353.966 500.143 353.711 499.508 353.711C498.799 353.711 498.224 353.982 497.781 354.523C497.344 355.065 497.125 355.862 497.125 356.914ZM499.242 352.484C499.883 352.484 500.419 352.62 500.852 352.891C501.102 353.047 501.385 353.32 501.703 353.711V349.484H503.055V361H501.789V359.836C501.461 360.352 501.073 360.724 500.625 360.953C500.177 361.182 499.664 361.297 499.086 361.297C498.154 361.297 497.346 360.906 496.664 360.125C495.982 359.339 495.641 358.294 495.641 356.992C495.641 355.773 495.951 354.719 496.57 353.828C497.195 352.932 498.086 352.484 499.242 352.484Z" fill="white"/>
<path d="M150.058 317.512C151.415 317.512 152.396 318.071 153.002 319.189C153.471 320.053 153.705 321.237 153.705 322.741C153.705 324.167 153.493 325.346 153.068 326.279C152.453 327.617 151.447 328.286 150.05 328.286C148.791 328.286 147.853 327.739 147.238 326.645C146.725 325.732 146.469 324.506 146.469 322.968C146.469 321.777 146.623 320.754 146.93 319.899C147.506 318.308 148.549 317.512 150.058 317.512ZM150.043 327.084C150.727 327.084 151.271 326.782 151.676 326.176C152.082 325.571 152.284 324.443 152.284 322.792C152.284 321.601 152.138 320.622 151.845 319.855C151.552 319.084 150.983 318.698 150.138 318.698C149.362 318.698 148.793 319.064 148.432 319.797C148.075 320.524 147.897 321.599 147.897 323.02C147.897 324.089 148.012 324.948 148.241 325.598C148.593 326.589 149.193 327.084 150.043 327.084Z" fill="white"/>
<path d="M266.436 320.573V319.562C267.388 319.47 268.052 319.316 268.428 319.101C268.804 318.881 269.084 318.366 269.27 317.556H270.31V328H268.904V320.573H266.436Z" fill="white"/>
<path d="M385.469 328C385.518 327.097 385.703 326.311 386.025 325.642C386.353 324.973 386.987 324.365 387.93 323.818L389.336 323.005C389.966 322.639 390.408 322.326 390.662 322.067C391.062 321.662 391.262 321.198 391.262 320.676C391.262 320.065 391.079 319.582 390.713 319.226C390.347 318.864 389.858 318.684 389.248 318.684C388.345 318.684 387.72 319.025 387.373 319.709C387.188 320.075 387.085 320.583 387.065 321.232H385.725C385.74 320.319 385.908 319.575 386.23 318.999C386.802 317.983 387.81 317.475 389.255 317.475C390.457 317.475 391.333 317.8 391.885 318.449C392.441 319.099 392.72 319.821 392.72 320.617C392.72 321.457 392.424 322.175 391.833 322.771C391.492 323.117 390.879 323.537 389.995 324.03L388.992 324.587C388.513 324.851 388.137 325.102 387.864 325.341C387.375 325.766 387.068 326.237 386.941 326.755H392.668V328H385.469Z" fill="white"/>
<path d="M507.896 328.286C506.656 328.286 505.755 327.946 505.194 327.268C504.637 326.584 504.359 325.754 504.359 324.777H505.736C505.794 325.456 505.921 325.949 506.117 326.257C506.458 326.809 507.076 327.084 507.97 327.084C508.663 327.084 509.22 326.899 509.64 326.528C510.06 326.157 510.27 325.678 510.27 325.092C510.27 324.37 510.047 323.864 509.603 323.576C509.164 323.288 508.551 323.144 507.765 323.144C507.677 323.144 507.586 323.146 507.494 323.151C507.406 323.151 507.315 323.154 507.223 323.159V321.994C507.359 322.009 507.474 322.019 507.567 322.023C507.66 322.028 507.76 322.031 507.867 322.031C508.36 322.031 508.766 321.953 509.083 321.796C509.64 321.523 509.918 321.035 509.918 320.332C509.918 319.809 509.732 319.406 509.361 319.123C508.99 318.84 508.558 318.698 508.065 318.698C507.186 318.698 506.578 318.991 506.241 319.577C506.056 319.899 505.951 320.358 505.926 320.954H504.623C504.623 320.173 504.779 319.509 505.091 318.962C505.628 317.985 506.573 317.497 507.926 317.497C508.995 317.497 509.823 317.736 510.409 318.215C510.995 318.688 511.288 319.377 511.288 320.28C511.288 320.925 511.114 321.447 510.768 321.848C510.553 322.097 510.274 322.292 509.933 322.434C510.484 322.585 510.914 322.878 511.222 323.312C511.534 323.742 511.69 324.27 511.69 324.895C511.69 325.896 511.361 326.711 510.702 327.341C510.042 327.971 509.107 328.286 507.896 328.286Z" fill="white"/>
<path d="M626.958 324.287V319.533L623.597 324.287H626.958ZM626.98 328V325.437H622.381V324.147L627.186 317.482H628.299V324.287H629.844V325.437H628.299V328H626.98Z" fill="white"/>
<path d="M332.367 19.5234H337.531C338.552 19.5234 339.375 19.8125 340 20.3906C340.625 20.9635 340.938 21.7708 340.938 22.8125C340.938 23.7083 340.659 24.4896 340.102 25.1562C339.544 25.8177 338.688 26.1484 337.531 26.1484H333.922V31H332.367V19.5234ZM339.367 22.8203C339.367 21.9766 339.055 21.4036 338.43 21.1016C338.086 20.9401 337.615 20.8594 337.016 20.8594H333.922V24.8359H337.016C337.714 24.8359 338.279 24.6875 338.711 24.3906C339.148 24.0938 339.367 23.5703 339.367 22.8203ZM342.742 22.6328H344.078V24.0781C344.188 23.7969 344.456 23.4557 344.883 23.0547C345.31 22.6484 345.802 22.4453 346.359 22.4453C346.385 22.4453 346.43 22.4479 346.492 22.4531C346.555 22.4583 346.661 22.4688 346.812 22.4844V23.9688C346.729 23.9531 346.651 23.9427 346.578 23.9375C346.51 23.9323 346.435 23.9297 346.352 23.9297C345.643 23.9297 345.099 24.1589 344.719 24.6172C344.339 25.0703 344.148 25.5938 344.148 26.1875V31H342.742V22.6328ZM351.516 22.4453C352.109 22.4453 352.685 22.5859 353.242 22.8672C353.799 23.1432 354.224 23.5026 354.516 23.9453C354.797 24.3672 354.984 24.8594 355.078 25.4219C355.161 25.8073 355.203 26.4219 355.203 27.2656H349.07C349.096 28.1146 349.297 28.7969 349.672 29.3125C350.047 29.8229 350.628 30.0781 351.414 30.0781C352.148 30.0781 352.734 29.8359 353.172 29.3516C353.422 29.0703 353.599 28.7448 353.703 28.375H355.086C355.049 28.6823 354.927 29.026 354.719 29.4062C354.516 29.7812 354.286 30.0885 354.031 30.3281C353.604 30.7448 353.076 31.026 352.445 31.1719C352.107 31.2552 351.724 31.2969 351.297 31.2969C350.255 31.2969 349.372 30.9193 348.648 30.1641C347.924 29.4036 347.562 28.3411 347.562 26.9766C347.562 25.6328 347.927 24.5417 348.656 23.7031C349.385 22.8646 350.339 22.4453 351.516 22.4453ZM353.758 26.1484C353.701 25.5391 353.568 25.0521 353.359 24.6875C352.974 24.0104 352.331 23.6719 351.43 23.6719C350.784 23.6719 350.242 23.9062 349.805 24.375C349.367 24.8385 349.135 25.4297 349.109 26.1484H353.758ZM357.773 28.375C357.815 28.8438 357.932 29.2031 358.125 29.4531C358.479 29.9062 359.094 30.1328 359.969 30.1328C360.49 30.1328 360.948 30.0208 361.344 29.7969C361.74 29.5677 361.938 29.2161 361.938 28.7422C361.938 28.3828 361.779 28.1094 361.461 27.9219C361.258 27.8073 360.857 27.6745 360.258 27.5234L359.141 27.2422C358.427 27.0651 357.901 26.8672 357.562 26.6484C356.958 26.2682 356.656 25.7422 356.656 25.0703C356.656 24.2786 356.94 23.638 357.508 23.1484C358.081 22.6589 358.849 22.4141 359.812 22.4141C361.073 22.4141 361.982 22.7839 362.539 23.5234C362.888 23.9922 363.057 24.4974 363.047 25.0391H361.719C361.693 24.7214 361.581 24.4323 361.383 24.1719C361.06 23.8021 360.5 23.6172 359.703 23.6172C359.172 23.6172 358.768 23.7188 358.492 23.9219C358.221 24.125 358.086 24.3932 358.086 24.7266C358.086 25.0911 358.266 25.3828 358.625 25.6016C358.833 25.7318 359.141 25.8464 359.547 25.9453L360.477 26.1719C361.487 26.4167 362.164 26.6536 362.508 26.8828C363.055 27.2422 363.328 27.8073 363.328 28.5781C363.328 29.3229 363.044 29.9661 362.477 30.5078C361.914 31.0495 361.055 31.3203 359.898 31.3203C358.654 31.3203 357.771 31.0391 357.25 30.4766C356.734 29.9089 356.458 29.2083 356.422 28.375H357.773ZM368.422 22.4453C369.016 22.4453 369.591 22.5859 370.148 22.8672C370.706 23.1432 371.13 23.5026 371.422 23.9453C371.703 24.3672 371.891 24.8594 371.984 25.4219C372.068 25.8073 372.109 26.4219 372.109 27.2656H365.977C366.003 28.1146 366.203 28.7969 366.578 29.3125C366.953 29.8229 367.534 30.0781 368.32 30.0781C369.055 30.0781 369.641 29.8359 370.078 29.3516C370.328 29.0703 370.505 28.7448 370.609 28.375H371.992C371.956 28.6823 371.833 29.026 371.625 29.4062C371.422 29.7812 371.193 30.0885 370.938 30.3281C370.51 30.7448 369.982 31.026 369.352 31.1719C369.013 31.2552 368.63 31.2969 368.203 31.2969C367.161 31.2969 366.279 30.9193 365.555 30.1641C364.831 29.4036 364.469 28.3411 364.469 26.9766C364.469 25.6328 364.833 24.5417 365.562 23.7031C366.292 22.8646 367.245 22.4453 368.422 22.4453ZM370.664 26.1484C370.607 25.5391 370.474 25.0521 370.266 24.6875C369.88 24.0104 369.237 23.6719 368.336 23.6719C367.69 23.6719 367.148 23.9062 366.711 24.375C366.273 24.8385 366.042 25.4297 366.016 26.1484H370.664ZM373.883 22.6328H375.219V24.0781C375.328 23.7969 375.596 23.4557 376.023 23.0547C376.451 22.6484 376.943 22.4453 377.5 22.4453C377.526 22.4453 377.57 22.4479 377.633 22.4531C377.695 22.4583 377.802 22.4688 377.953 22.4844V23.9688C377.87 23.9531 377.792 23.9427 377.719 23.9375C377.651 23.9323 377.576 23.9297 377.492 23.9297C376.784 23.9297 376.24 24.1589 375.859 24.6172C375.479 25.0703 375.289 25.5938 375.289 26.1875V31H373.883V22.6328ZM379.859 22.6328L382.094 29.4453L384.43 22.6328H385.969L382.812 31H381.312L378.227 22.6328H379.859ZM390.656 22.4453C391.25 22.4453 391.826 22.5859 392.383 22.8672C392.94 23.1432 393.365 23.5026 393.656 23.9453C393.938 24.3672 394.125 24.8594 394.219 25.4219C394.302 25.8073 394.344 26.4219 394.344 27.2656H388.211C388.237 28.1146 388.438 28.7969 388.812 29.3125C389.188 29.8229 389.768 30.0781 390.555 30.0781C391.289 30.0781 391.875 29.8359 392.312 29.3516C392.562 29.0703 392.74 28.7448 392.844 28.375H394.227C394.19 28.6823 394.068 29.026 393.859 29.4062C393.656 29.7812 393.427 30.0885 393.172 30.3281C392.745 30.7448 392.216 31.026 391.586 31.1719C391.247 31.2552 390.865 31.2969 390.438 31.2969C389.396 31.2969 388.513 30.9193 387.789 30.1641C387.065 29.4036 386.703 28.3411 386.703 26.9766C386.703 25.6328 387.068 24.5417 387.797 23.7031C388.526 22.8646 389.479 22.4453 390.656 22.4453ZM392.898 26.1484C392.841 25.5391 392.708 25.0521 392.5 24.6875C392.115 24.0104 391.471 23.6719 390.57 23.6719C389.924 23.6719 389.383 23.9062 388.945 24.375C388.508 24.8385 388.276 25.4297 388.25 26.1484H392.898ZM396.969 26.9141C396.969 27.8099 397.159 28.5599 397.539 29.1641C397.919 29.7682 398.529 30.0703 399.367 30.0703C400.018 30.0703 400.552 29.7917 400.969 29.2344C401.391 28.6719 401.602 27.8672 401.602 26.8203C401.602 25.763 401.385 24.9818 400.953 24.4766C400.521 23.9661 399.987 23.7109 399.352 23.7109C398.643 23.7109 398.068 23.9818 397.625 24.5234C397.188 25.0651 396.969 25.862 396.969 26.9141ZM399.086 22.4844C399.727 22.4844 400.263 22.6198 400.695 22.8906C400.945 23.0469 401.229 23.3203 401.547 23.7109V19.4844H402.898V31H401.633V29.8359C401.305 30.3516 400.917 30.724 400.469 30.9531C400.021 31.1823 399.508 31.2969 398.93 31.2969C397.997 31.2969 397.19 30.9062 396.508 30.125C395.826 29.3385 395.484 28.2943 395.484 26.9922C395.484 25.7734 395.794 24.7188 396.414 23.8281C397.039 22.9323 397.93 22.4844 399.086 22.4844Z" fill="#4285F4"/>
<path d="M445.367 19.5234H450.531C451.552 19.5234 452.375 19.8125 453 20.3906C453.625 20.9635 453.938 21.7708 453.938 22.8125C453.938 23.7083 453.659 24.4896 453.102 25.1562C452.544 25.8177 451.688 26.1484 450.531 26.1484H446.922V31H445.367V19.5234ZM452.367 22.8203C452.367 21.9766 452.055 21.4036 451.43 21.1016C451.086 20.9401 450.615 20.8594 450.016 20.8594H446.922V24.8359H450.016C450.714 24.8359 451.279 24.6875 451.711 24.3906C452.148 24.0938 452.367 23.5703 452.367 22.8203ZM455.742 22.6328H457.078V24.0781C457.188 23.7969 457.456 23.4557 457.883 23.0547C458.31 22.6484 458.802 22.4453 459.359 22.4453C459.385 22.4453 459.43 22.4479 459.492 22.4531C459.555 22.4583 459.661 22.4688 459.812 22.4844V23.9688C459.729 23.9531 459.651 23.9427 459.578 23.9375C459.51 23.9323 459.435 23.9297 459.352 23.9297C458.643 23.9297 458.099 24.1589 457.719 24.6172C457.339 25.0703 457.148 25.5938 457.148 26.1875V31H455.742V22.6328ZM464.352 30.0938C465.284 30.0938 465.922 29.7422 466.266 29.0391C466.615 28.3307 466.789 27.5443 466.789 26.6797C466.789 25.8984 466.664 25.263 466.414 24.7734C466.018 24.0026 465.336 23.6172 464.367 23.6172C463.508 23.6172 462.883 23.9453 462.492 24.6016C462.102 25.2578 461.906 26.0495 461.906 26.9766C461.906 27.8672 462.102 28.6094 462.492 29.2031C462.883 29.7969 463.503 30.0938 464.352 30.0938ZM464.406 22.3906C465.484 22.3906 466.396 22.75 467.141 23.4688C467.885 24.1875 468.258 25.2448 468.258 26.6406C468.258 27.9896 467.93 29.1042 467.273 29.9844C466.617 30.8646 465.599 31.3047 464.219 31.3047C463.068 31.3047 462.154 30.9167 461.477 30.1406C460.799 29.3594 460.461 28.3125 460.461 27C460.461 25.5938 460.818 24.474 461.531 23.6406C462.245 22.8073 463.203 22.3906 464.406 22.3906ZM469.938 19.4844H471.344V23.7656C471.677 23.3438 471.977 23.0469 472.242 22.875C472.695 22.5781 473.26 22.4297 473.938 22.4297C475.151 22.4297 475.974 22.8542 476.406 23.7031C476.641 24.1667 476.758 24.8099 476.758 25.6328V31H475.312V25.7266C475.312 25.112 475.234 24.6615 475.078 24.375C474.823 23.9167 474.344 23.6875 473.641 23.6875C473.057 23.6875 472.529 23.888 472.055 24.2891C471.581 24.6901 471.344 25.4479 471.344 26.5625V31H469.938V19.4844ZM478.844 22.6719H480.273V31H478.844V22.6719ZM478.844 19.5234H480.273V21.1172H478.844V19.5234ZM482.297 19.4844H483.664V23.6484C483.971 23.2474 484.339 22.9427 484.766 22.7344C485.193 22.5208 485.656 22.4141 486.156 22.4141C487.198 22.4141 488.042 22.7734 488.688 23.4922C489.339 24.2057 489.664 25.2604 489.664 26.6562C489.664 27.9792 489.344 29.0781 488.703 29.9531C488.062 30.8281 487.174 31.2656 486.039 31.2656C485.404 31.2656 484.867 31.112 484.43 30.8047C484.169 30.6224 483.891 30.3307 483.594 29.9297V31H482.297V19.4844ZM485.953 30.0234C486.714 30.0234 487.281 29.7214 487.656 29.1172C488.036 28.513 488.227 27.7161 488.227 26.7266C488.227 25.8464 488.036 25.1172 487.656 24.5391C487.281 23.9609 486.727 23.6719 485.992 23.6719C485.352 23.6719 484.789 23.9089 484.305 24.3828C483.826 24.8568 483.586 25.638 483.586 26.7266C483.586 27.513 483.685 28.151 483.883 28.6406C484.253 29.5625 484.943 30.0234 485.953 30.0234ZM491.312 22.6719H492.742V31H491.312V22.6719ZM491.312 19.5234H492.742V21.1172H491.312V19.5234ZM495.156 20.2969H496.578V22.6328H497.914V23.7812H496.578V29.2422C496.578 29.5339 496.677 29.7292 496.875 29.8281C496.984 29.8854 497.167 29.9141 497.422 29.9141C497.49 29.9141 497.562 29.9141 497.641 29.9141C497.719 29.9089 497.81 29.901 497.914 29.8906V31C497.753 31.0469 497.583 31.0807 497.406 31.1016C497.234 31.1224 497.047 31.1328 496.844 31.1328C496.188 31.1328 495.742 30.9661 495.508 30.6328C495.273 30.2943 495.156 29.8568 495.156 29.3203V23.7812H494.023V22.6328H495.156V20.2969ZM502.812 22.4453C503.406 22.4453 503.982 22.5859 504.539 22.8672C505.096 23.1432 505.521 23.5026 505.812 23.9453C506.094 24.3672 506.281 24.8594 506.375 25.4219C506.458 25.8073 506.5 26.4219 506.5 27.2656H500.367C500.393 28.1146 500.594 28.7969 500.969 29.3125C501.344 29.8229 501.924 30.0781 502.711 30.0781C503.445 30.0781 504.031 29.8359 504.469 29.3516C504.719 29.0703 504.896 28.7448 505 28.375H506.383C506.346 28.6823 506.224 29.026 506.016 29.4062C505.812 29.7812 505.583 30.0885 505.328 30.3281C504.901 30.7448 504.372 31.026 503.742 31.1719C503.404 31.2552 503.021 31.2969 502.594 31.2969C501.552 31.2969 500.669 30.9193 499.945 30.1641C499.221 29.4036 498.859 28.3411 498.859 26.9766C498.859 25.6328 499.224 24.5417 499.953 23.7031C500.682 22.8646 501.635 22.4453 502.812 22.4453ZM505.055 26.1484C504.997 25.5391 504.865 25.0521 504.656 24.6875C504.271 24.0104 503.628 23.6719 502.727 23.6719C502.081 23.6719 501.539 23.9062 501.102 24.375C500.664 24.8385 500.432 25.4297 500.406 26.1484H505.055ZM509.125 26.9141C509.125 27.8099 509.315 28.5599 509.695 29.1641C510.076 29.7682 510.685 30.0703 511.523 30.0703C512.174 30.0703 512.708 29.7917 513.125 29.2344C513.547 28.6719 513.758 27.8672 513.758 26.8203C513.758 25.763 513.542 24.9818 513.109 24.4766C512.677 23.9661 512.143 23.7109 511.508 23.7109C510.799 23.7109 510.224 23.9818 509.781 24.5234C509.344 25.0651 509.125 25.862 509.125 26.9141ZM511.242 22.4844C511.883 22.4844 512.419 22.6198 512.852 22.8906C513.102 23.0469 513.385 23.3203 513.703 23.7109V19.4844H515.055V31H513.789V29.8359C513.461 30.3516 513.073 30.724 512.625 30.9531C512.177 31.1823 511.664 31.2969 511.086 31.2969C510.154 31.2969 509.346 30.9062 508.664 30.125C507.982 29.3385 507.641 28.2943 507.641 26.9922C507.641 25.7734 507.951 24.7188 508.57 23.8281C509.195 22.9323 510.086 22.4844 511.242 22.4844Z" fill="#EA4335"/>
<path d="M141.906 19.5234V26.6172C141.906 27.4505 142.062 28.1432 142.375 28.6953C142.839 29.5286 143.62 29.9453 144.719 29.9453C146.036 29.9453 146.932 29.4948 147.406 28.5938C147.661 28.1042 147.789 27.4453 147.789 26.6172V19.5234H149.367V25.9688C149.367 27.3802 149.177 28.4661 148.797 29.2266C148.099 30.612 146.781 31.3047 144.844 31.3047C142.906 31.3047 141.591 30.612 140.898 29.2266C140.518 28.4661 140.328 27.3802 140.328 25.9688V19.5234H141.906ZM151.594 22.6328H152.93V23.8203C153.326 23.3307 153.745 22.9792 154.188 22.7656C154.63 22.5521 155.122 22.4453 155.664 22.4453C156.852 22.4453 157.654 22.8594 158.07 23.6875C158.299 24.1406 158.414 24.7891 158.414 25.6328V31H156.984V25.7266C156.984 25.2161 156.909 24.8047 156.758 24.4922C156.508 23.9714 156.055 23.7109 155.398 23.7109C155.065 23.7109 154.792 23.7448 154.578 23.8125C154.193 23.9271 153.854 24.1562 153.562 24.5C153.328 24.776 153.174 25.0625 153.102 25.3594C153.034 25.651 153 26.0703 153 26.6172V31H151.594V22.6328ZM160.469 19.5234H161.82V26.1875L165.43 22.6328H167.227L164.023 25.7656L167.406 31H165.609L163 26.7812L161.82 27.8594V31H160.469V19.5234ZM168.5 22.6328H169.836V23.8203C170.232 23.3307 170.651 22.9792 171.094 22.7656C171.536 22.5521 172.029 22.4453 172.57 22.4453C173.758 22.4453 174.56 22.8594 174.977 23.6875C175.206 24.1406 175.32 24.7891 175.32 25.6328V31H173.891V25.7266C173.891 25.2161 173.815 24.8047 173.664 24.4922C173.414 23.9714 172.961 23.7109 172.305 23.7109C171.971 23.7109 171.698 23.7448 171.484 23.8125C171.099 23.9271 170.76 24.1562 170.469 24.5C170.234 24.776 170.081 25.0625 170.008 25.3594C169.94 25.651 169.906 26.0703 169.906 26.6172V31H168.5V22.6328ZM180.727 30.0938C181.659 30.0938 182.297 29.7422 182.641 29.0391C182.99 28.3307 183.164 27.5443 183.164 26.6797C183.164 25.8984 183.039 25.263 182.789 24.7734C182.393 24.0026 181.711 23.6172 180.742 23.6172C179.883 23.6172 179.258 23.9453 178.867 24.6016C178.477 25.2578 178.281 26.0495 178.281 26.9766C178.281 27.8672 178.477 28.6094 178.867 29.2031C179.258 29.7969 179.878 30.0938 180.727 30.0938ZM180.781 22.3906C181.859 22.3906 182.771 22.75 183.516 23.4688C184.26 24.1875 184.633 25.2448 184.633 26.6406C184.633 27.9896 184.305 29.1042 183.648 29.9844C182.992 30.8646 181.974 31.3047 180.594 31.3047C179.443 31.3047 178.529 30.9167 177.852 30.1406C177.174 29.3594 176.836 28.3125 176.836 27C176.836 25.5938 177.193 24.474 177.906 23.6406C178.62 22.8073 179.578 22.3906 180.781 22.3906ZM186.961 22.6328L188.57 29.2266L190.203 22.6328H191.781L193.422 29.1875L195.133 22.6328H196.539L194.109 31H192.648L190.945 24.5234L189.297 31H187.836L185.422 22.6328H186.961ZM197.875 22.6328H199.211V23.8203C199.607 23.3307 200.026 22.9792 200.469 22.7656C200.911 22.5521 201.404 22.4453 201.945 22.4453C203.133 22.4453 203.935 22.8594 204.352 23.6875C204.581 24.1406 204.695 24.7891 204.695 25.6328V31H203.266V25.7266C203.266 25.2161 203.19 24.8047 203.039 24.4922C202.789 23.9714 202.336 23.7109 201.68 23.7109C201.346 23.7109 201.073 23.7448 200.859 23.8125C200.474 23.9271 200.135 24.1562 199.844 24.5C199.609 24.776 199.456 25.0625 199.383 25.3594C199.315 25.651 199.281 26.0703 199.281 26.6172V31H197.875V22.6328ZM214.555 30.0938C215.487 30.0938 216.125 29.7422 216.469 29.0391C216.818 28.3307 216.992 27.5443 216.992 26.6797C216.992 25.8984 216.867 25.263 216.617 24.7734C216.221 24.0026 215.539 23.6172 214.57 23.6172C213.711 23.6172 213.086 23.9453 212.695 24.6016C212.305 25.2578 212.109 26.0495 212.109 26.9766C212.109 27.8672 212.305 28.6094 212.695 29.2031C213.086 29.7969 213.706 30.0938 214.555 30.0938ZM214.609 22.3906C215.688 22.3906 216.599 22.75 217.344 23.4688C218.089 24.1875 218.461 25.2448 218.461 26.6406C218.461 27.9896 218.133 29.1042 217.477 29.9844C216.82 30.8646 215.802 31.3047 214.422 31.3047C213.271 31.3047 212.357 30.9167 211.68 30.1406C211.003 29.3594 210.664 28.3125 210.664 27C210.664 25.5938 211.021 24.474 211.734 23.6406C212.448 22.8073 213.406 22.3906 214.609 22.3906ZM220.031 19.4844H221.398V23.6484C221.706 23.2474 222.073 22.9427 222.5 22.7344C222.927 22.5208 223.391 22.4141 223.891 22.4141C224.932 22.4141 225.776 22.7734 226.422 23.4922C227.073 24.2057 227.398 25.2604 227.398 26.6562C227.398 27.9792 227.078 29.0781 226.438 29.9531C225.797 30.8281 224.909 31.2656 223.773 31.2656C223.138 31.2656 222.602 31.112 222.164 30.8047C221.904 30.6224 221.625 30.3307 221.328 29.9297V31H220.031V19.4844ZM223.688 30.0234C224.448 30.0234 225.016 29.7214 225.391 29.1172C225.771 28.513 225.961 27.7161 225.961 26.7266C225.961 25.8464 225.771 25.1172 225.391 24.5391C225.016 23.9609 224.461 23.6719 223.727 23.6719C223.086 23.6719 222.523 23.9089 222.039 24.3828C221.56 24.8568 221.32 25.638 221.32 26.7266C221.32 27.513 221.419 28.151 221.617 28.6406C221.987 29.5625 222.677 30.0234 223.688 30.0234ZM230.453 21.1484H229.047V19.5234H230.453V21.1484ZM227.719 33.1172C228.349 33.0964 228.727 33.0391 228.852 32.9453C228.982 32.8568 229.047 32.5729 229.047 32.0938V22.6719H230.453V32.2422C230.453 32.8516 230.354 33.3073 230.156 33.6094C229.828 34.1198 229.206 34.375 228.289 34.375C228.221 34.375 228.148 34.3724 228.07 34.3672C227.997 34.362 227.88 34.3516 227.719 34.3359V33.1172ZM236.094 22.4453C236.688 22.4453 237.263 22.5859 237.82 22.8672C238.378 23.1432 238.802 23.5026 239.094 23.9453C239.375 24.3672 239.562 24.8594 239.656 25.4219C239.74 25.8073 239.781 26.4219 239.781 27.2656H233.648C233.674 28.1146 233.875 28.7969 234.25 29.3125C234.625 29.8229 235.206 30.0781 235.992 30.0781C236.727 30.0781 237.312 29.8359 237.75 29.3516C238 29.0703 238.177 28.7448 238.281 28.375H239.664C239.628 28.6823 239.505 29.026 239.297 29.4062C239.094 29.7812 238.865 30.0885 238.609 30.3281C238.182 30.7448 237.654 31.026 237.023 31.1719C236.685 31.2552 236.302 31.2969 235.875 31.2969C234.833 31.2969 233.951 30.9193 233.227 30.1641C232.503 29.4036 232.141 28.3411 232.141 26.9766C232.141 25.6328 232.505 24.5417 233.234 23.7031C233.964 22.8646 234.917 22.4453 236.094 22.4453ZM238.336 26.1484C238.279 25.5391 238.146 25.0521 237.938 24.6875C237.552 24.0104 236.909 23.6719 236.008 23.6719C235.362 23.6719 234.82 23.9062 234.383 24.375C233.945 24.8385 233.714 25.4297 233.688 26.1484H238.336ZM244.742 22.3906C245.685 22.3906 246.451 22.6198 247.039 23.0781C247.633 23.5365 247.99 24.3255 248.109 25.4453H246.742C246.659 24.9297 246.469 24.5026 246.172 24.1641C245.875 23.8203 245.398 23.6484 244.742 23.6484C243.846 23.6484 243.206 24.0859 242.82 24.9609C242.57 25.5286 242.445 26.2292 242.445 27.0625C242.445 27.901 242.622 28.6068 242.977 29.1797C243.331 29.7526 243.888 30.0391 244.648 30.0391C245.232 30.0391 245.693 29.862 246.031 29.5078C246.375 29.1484 246.612 28.6589 246.742 28.0391H248.109C247.953 29.1484 247.562 29.9609 246.938 30.4766C246.312 30.987 245.513 31.2422 244.539 31.2422C243.445 31.2422 242.573 30.8438 241.922 30.0469C241.271 29.2448 240.945 28.2448 240.945 27.0469C240.945 25.5781 241.302 24.4349 242.016 23.6172C242.729 22.7995 243.638 22.3906 244.742 22.3906ZM249.797 20.2969H251.219V22.6328H252.555V23.7812H251.219V29.2422C251.219 29.5339 251.318 29.7292 251.516 29.8281C251.625 29.8854 251.807 29.9141 252.062 29.9141C252.13 29.9141 252.203 29.9141 252.281 29.9141C252.359 29.9089 252.451 29.901 252.555 29.8906V31C252.393 31.0469 252.224 31.0807 252.047 31.1016C251.875 31.1224 251.688 31.1328 251.484 31.1328C250.828 31.1328 250.383 30.9661 250.148 30.6328C249.914 30.2943 249.797 29.8568 249.797 29.3203V23.7812H248.664V22.6328H249.797V20.2969ZM258.391 19.5234H259.742V26.1875L263.352 22.6328H265.148L261.945 25.7656L265.328 31H263.531L260.922 26.7812L259.742 27.8594V31H258.391V19.5234ZM269.906 22.4453C270.5 22.4453 271.076 22.5859 271.633 22.8672C272.19 23.1432 272.615 23.5026 272.906 23.9453C273.188 24.3672 273.375 24.8594 273.469 25.4219C273.552 25.8073 273.594 26.4219 273.594 27.2656H267.461C267.487 28.1146 267.688 28.7969 268.062 29.3125C268.438 29.8229 269.018 30.0781 269.805 30.0781C270.539 30.0781 271.125 29.8359 271.562 29.3516C271.812 29.0703 271.99 28.7448 272.094 28.375H273.477C273.44 28.6823 273.318 29.026 273.109 29.4062C272.906 29.7812 272.677 30.0885 272.422 30.3281C271.995 30.7448 271.466 31.026 270.836 31.1719C270.497 31.2552 270.115 31.2969 269.688 31.2969C268.646 31.2969 267.763 30.9193 267.039 30.1641C266.315 29.4036 265.953 28.3411 265.953 26.9766C265.953 25.6328 266.318 24.5417 267.047 23.7031C267.776 22.8646 268.729 22.4453 269.906 22.4453ZM272.148 26.1484C272.091 25.5391 271.958 25.0521 271.75 24.6875C271.365 24.0104 270.721 23.6719 269.82 23.6719C269.174 23.6719 268.633 23.9062 268.195 24.375C267.758 24.8385 267.526 25.4297 267.5 26.1484H272.148ZM280.555 22.6328H282.109C281.911 23.1693 281.471 24.3932 280.789 26.3047C280.279 27.7422 279.852 28.9141 279.508 29.8203C278.695 31.9557 278.122 33.2578 277.789 33.7266C277.456 34.1953 276.883 34.4297 276.07 34.4297C275.872 34.4297 275.719 34.4219 275.609 34.4062C275.505 34.3906 275.375 34.362 275.219 34.3203V33.0391C275.464 33.1068 275.641 33.1484 275.75 33.1641C275.859 33.1797 275.956 33.1875 276.039 33.1875C276.299 33.1875 276.49 33.1432 276.609 33.0547C276.734 32.9714 276.839 32.8672 276.922 32.7422C276.948 32.7005 277.042 32.487 277.203 32.1016C277.365 31.7161 277.482 31.4297 277.555 31.2422L274.461 22.6328H276.055L278.297 29.4453L280.555 22.6328ZM284.164 28.375C284.206 28.8438 284.323 29.2031 284.516 29.4531C284.87 29.9062 285.484 30.1328 286.359 30.1328C286.88 30.1328 287.339 30.0208 287.734 29.7969C288.13 29.5677 288.328 29.2161 288.328 28.7422C288.328 28.3828 288.169 28.1094 287.852 27.9219C287.648 27.8073 287.247 27.6745 286.648 27.5234L285.531 27.2422C284.818 27.0651 284.292 26.8672 283.953 26.6484C283.349 26.2682 283.047 25.7422 283.047 25.0703C283.047 24.2786 283.331 23.638 283.898 23.1484C284.471 22.6589 285.24 22.4141 286.203 22.4141C287.464 22.4141 288.372 22.7839 288.93 23.5234C289.279 23.9922 289.448 24.4974 289.438 25.0391H288.109C288.083 24.7214 287.971 24.4323 287.773 24.1719C287.451 23.8021 286.891 23.6172 286.094 23.6172C285.562 23.6172 285.159 23.7188 284.883 23.9219C284.612 24.125 284.477 24.3932 284.477 24.7266C284.477 25.0911 284.656 25.3828 285.016 25.6016C285.224 25.7318 285.531 25.8464 285.938 25.9453L286.867 26.1719C287.878 26.4167 288.555 26.6536 288.898 26.8828C289.445 27.2422 289.719 27.8073 289.719 28.5781C289.719 29.3229 289.435 29.9661 288.867 30.5078C288.305 31.0495 287.445 31.3203 286.289 31.3203C285.044 31.3203 284.161 31.0391 283.641 30.4766C283.125 29.9089 282.849 29.2083 282.812 28.375H284.164Z" fill="white"/>
<path d="M30.7891 89.5V101H28.625V99.8203C28.3073 100.326 27.9453 100.693 27.5391 100.922C27.1328 101.151 26.6276 101.266 26.0234 101.266C25.0286 101.266 24.1901 100.865 23.5078 100.062C22.8307 99.2552 22.4922 98.2214 22.4922 96.9609C22.4922 95.5078 22.8255 94.3646 23.4922 93.5312C24.1641 92.6979 25.0599 92.2812 26.1797 92.2812C26.6953 92.2812 27.1536 92.3958 27.5547 92.625C27.9557 92.849 28.2812 93.1615 28.5312 93.5625V89.5H30.7891ZM24.7891 96.7969C24.7891 97.5833 24.9453 98.2109 25.2578 98.6797C25.5651 99.1536 26.0339 99.3906 26.6641 99.3906C27.2943 99.3906 27.7734 99.1562 28.1016 98.6875C28.4297 98.2188 28.5938 97.612 28.5938 96.8672C28.5938 95.8255 28.3307 95.0807 27.8047 94.6328C27.4818 94.362 27.1068 94.2266 26.6797 94.2266C26.0286 94.2266 25.5495 94.474 25.2422 94.9688C24.9401 95.4583 24.7891 96.0677 24.7891 96.7969ZM39.9219 93.5625C40.6406 94.4635 41 95.5286 41 96.7578C41 98.0078 40.6406 99.0781 39.9219 99.9688C39.2031 100.854 38.112 101.297 36.6484 101.297C35.1849 101.297 34.0938 100.854 33.375 99.9688C32.6562 99.0781 32.2969 98.0078 32.2969 96.7578C32.2969 95.5286 32.6562 94.4635 33.375 93.5625C34.0938 92.6615 35.1849 92.2109 36.6484 92.2109C38.112 92.2109 39.2031 92.6615 39.9219 93.5625ZM36.6406 94.0938C35.9896 94.0938 35.487 94.3255 35.1328 94.7891C34.7839 95.2474 34.6094 95.9036 34.6094 96.7578C34.6094 97.612 34.7839 98.2708 35.1328 98.7344C35.487 99.1979 35.9896 99.4297 36.6406 99.4297C37.2917 99.4297 37.7917 99.1979 38.1406 98.7344C38.4896 98.2708 38.6641 97.612 38.6641 96.7578C38.6641 95.9036 38.4896 95.2474 38.1406 94.7891C37.7917 94.3255 37.2917 94.0938 36.6406 94.0938ZM48.0625 99.7969C48.0417 99.8229 47.9896 99.901 47.9062 100.031C47.8229 100.161 47.724 100.276 47.6094 100.375C47.2604 100.688 46.9219 100.901 46.5938 101.016C46.2708 101.13 45.8906 101.188 45.4531 101.188C44.1927 101.188 43.3438 100.734 42.9062 99.8281C42.6615 99.3281 42.5391 98.5911 42.5391 97.6172V92.4844H44.8203V97.6172C44.8203 98.1016 44.8776 98.4661 44.9922 98.7109C45.1953 99.1432 45.5938 99.3594 46.1875 99.3594C46.9479 99.3594 47.4688 99.0521 47.75 98.4375C47.8958 98.1042 47.9688 97.6641 47.9688 97.1172V92.4844H50.2266V101H48.0625V99.7969ZM57.0078 101.227C56.3047 101.227 55.7396 101.086 55.3125 100.805C55.0573 100.638 54.7812 100.346 54.4844 99.9297V101H52.3047V89.5H54.5234V93.5938C54.8047 93.1979 55.1146 92.8958 55.4531 92.6875C55.8542 92.4271 56.3646 92.2969 56.9844 92.2969C58.1042 92.2969 58.9792 92.7005 59.6094 93.5078C60.2448 94.3151 60.5625 95.3568 60.5625 96.6328C60.5625 97.9557 60.25 99.0521 59.625 99.9219C59 100.792 58.1276 101.227 57.0078 101.227ZM58.2266 96.8672C58.2266 96.263 58.1484 95.763 57.9922 95.3672C57.6953 94.6172 57.1484 94.2422 56.3516 94.2422C55.5443 94.2422 54.9896 94.6094 54.6875 95.3438C54.5312 95.7344 54.4531 96.2396 54.4531 96.8594C54.4531 97.5885 54.6146 98.1927 54.9375 98.6719C55.2604 99.151 55.7526 99.3906 56.4141 99.3906C56.987 99.3906 57.4323 99.1589 57.75 98.6953C58.0677 98.2318 58.2266 97.6224 58.2266 96.8672ZM66.0625 99.4141V101.078L65.0078 101.117C63.9557 101.154 63.237 100.971 62.8516 100.57C62.6016 100.315 62.4766 99.9219 62.4766 99.3906V94.1484H61.2891V92.5625H62.4766V90.1875H64.6797V92.5625H66.0625V94.1484H64.6797V98.6484C64.6797 98.9974 64.724 99.2161 64.8125 99.3047C64.901 99.388 65.1719 99.4297 65.625 99.4297C65.6927 99.4297 65.763 99.4297 65.8359 99.4297C65.9141 99.4245 65.9896 99.4193 66.0625 99.4141ZM74.7812 98.5C74.724 99.0052 74.4609 99.5182 73.9922 100.039C73.263 100.867 72.2422 101.281 70.9297 101.281C69.8464 101.281 68.8906 100.932 68.0625 100.234C67.2344 99.5365 66.8203 98.401 66.8203 96.8281C66.8203 95.3542 67.1927 94.224 67.9375 93.4375C68.6875 92.651 69.6589 92.2578 70.8516 92.2578C71.5599 92.2578 72.1979 92.3906 72.7656 92.6562C73.3333 92.9219 73.8021 93.3411 74.1719 93.9141C74.5052 94.4193 74.7214 95.0052 74.8203 95.6719C74.8776 96.0625 74.901 96.625 74.8906 97.3594H69.0625C69.0938 98.2135 69.362 98.8125 69.8672 99.1562C70.1745 99.3698 70.5443 99.4766 70.9766 99.4766C71.4349 99.4766 71.8073 99.3464 72.0938 99.0859C72.25 98.9453 72.388 98.75 72.5078 98.5H74.7812ZM72.5781 95.8906C72.5417 95.3021 72.362 94.8568 72.0391 94.5547C71.7214 94.2474 71.3255 94.0938 70.8516 94.0938C70.3359 94.0938 69.9349 94.2552 69.6484 94.5781C69.3672 94.901 69.1901 95.3385 69.1172 95.8906H72.5781ZM80.6797 94.5391C79.7839 94.5391 79.1823 94.8307 78.875 95.4141C78.7031 95.7422 78.6172 96.2474 78.6172 96.9297V101H76.375V92.4844H78.5V93.9688C78.8438 93.401 79.1432 93.013 79.3984 92.8047C79.8151 92.4557 80.3568 92.2812 81.0234 92.2812C81.0651 92.2812 81.099 92.2839 81.125 92.2891C81.1562 92.2891 81.2214 92.2917 81.3203 92.2969V94.5781C81.1797 94.5625 81.0547 94.5521 80.9453 94.5469C80.8359 94.5417 80.7474 94.5391 80.6797 94.5391ZM91.3516 94.0234C91.3516 93.7005 91.2422 93.4115 91.0234 93.1562C90.8099 92.8958 90.513 92.7656 90.1328 92.7656C89.5391 92.7656 89.0234 93.1172 88.5859 93.8203C88.1536 94.5182 87.9375 95.2135 87.9375 95.9062C87.9375 96.4167 88.0495 96.8073 88.2734 97.0781C88.4974 97.3438 88.7786 97.4766 89.1172 97.4766C89.8203 97.4766 90.3672 97.0677 90.7578 96.25C91.1536 95.4271 91.3516 94.6849 91.3516 94.0234ZM89.7969 101.336C87.6198 101.336 85.9427 100.656 84.7656 99.2969C83.8229 98.2083 83.3516 96.9505 83.3516 95.5234C83.3516 93.8255 83.9245 92.3828 85.0703 91.1953C86.3411 89.8724 88.0469 89.2109 90.1875 89.2109C92.0417 89.2109 93.5 89.6797 94.5625 90.6172C95.5573 91.5026 96.0547 92.651 96.0547 94.0625C96.0547 95.25 95.6979 96.2656 94.9844 97.1094C94.276 97.9479 93.4818 98.3672 92.6016 98.3672C92.0859 98.3672 91.7057 98.2448 91.4609 98C91.2161 97.75 91.0938 97.4505 91.0938 97.1016C91.0938 97.0443 91.099 96.9844 91.1094 96.9219C91.1198 96.8594 91.1328 96.7943 91.1484 96.7266C90.8724 97.3255 90.5234 97.75 90.1016 98C89.6797 98.2448 89.2448 98.3672 88.7969 98.3672C88.1562 98.3672 87.6354 98.1354 87.2344 97.6719C86.8385 97.2083 86.6406 96.612 86.6406 95.8828C86.6406 94.8464 86.9792 93.9323 87.6562 93.1406C88.3385 92.349 89.0703 91.9531 89.8516 91.9531C90.3828 91.9531 90.8203 92.1068 91.1641 92.4141C91.513 92.7214 91.6979 93.0911 91.7188 93.5234L92.1094 92.2109H93.2578L92.2188 95.6328C92.1406 95.8984 92.0833 96.112 92.0469 96.2734C92.0104 96.4349 91.9922 96.5781 91.9922 96.7031C91.9922 96.9375 92.0625 97.1094 92.2031 97.2188C92.349 97.3229 92.513 97.375 92.6953 97.375C93.2891 97.375 93.8203 97.0651 94.2891 96.4453C94.763 95.8255 95 95.0156 95 94.0156C95 92.8073 94.5781 91.8594 93.7344 91.1719C92.8906 90.4792 91.7552 90.1328 90.3281 90.1328C88.349 90.1328 86.8359 90.7109 85.7891 91.8672C84.8932 92.8516 84.4453 94.0885 84.4453 95.5781C84.4453 96.8802 84.8724 97.974 85.7266 98.8594C86.7266 99.9062 88.151 100.43 90 100.43C90.8646 100.43 91.6693 100.294 92.4141 100.023C93.1589 99.7474 93.8411 99.3776 94.4609 98.9141L94.9766 99.6172C94.5078 100.034 93.8073 100.424 92.875 100.789C91.9427 101.154 90.9167 101.336 89.7969 101.336ZM103.133 97.0391V91.9688L99.5469 97.0391H103.133ZM103.156 101V98.2656H98.25V96.8906L103.375 89.7812H104.562V97.0391H106.211V98.2656H104.562V101H103.156ZM108.117 99.2969H109.75V101H108.117V99.2969ZM115.531 89.8125C116.979 89.8125 118.026 90.4089 118.672 91.6016C119.172 92.5234 119.422 93.7865 119.422 95.3906C119.422 96.9115 119.195 98.1693 118.742 99.1641C118.086 100.591 117.013 101.305 115.523 101.305C114.18 101.305 113.18 100.721 112.523 99.5547C111.977 98.5807 111.703 97.2734 111.703 95.6328C111.703 94.362 111.867 93.2708 112.195 92.3594C112.81 90.6615 113.922 89.8125 115.531 89.8125ZM115.516 100.023C116.245 100.023 116.826 99.7005 117.258 99.0547C117.69 98.4089 117.906 97.2057 117.906 95.4453C117.906 94.1745 117.75 93.1302 117.438 92.3125C117.125 91.4896 116.518 91.0781 115.617 91.0781C114.789 91.0781 114.182 91.4688 113.797 92.25C113.417 93.026 113.227 94.1719 113.227 95.6875C113.227 96.8281 113.349 97.7448 113.594 98.4375C113.969 99.4948 114.609 100.023 115.516 100.023ZM121.477 99.2969H123.109V101H121.477V99.2969ZM128.891 89.8125C130.339 89.8125 131.385 90.4089 132.031 91.6016C132.531 92.5234 132.781 93.7865 132.781 95.3906C132.781 96.9115 132.555 98.1693 132.102 99.1641C131.445 100.591 130.372 101.305 128.883 101.305C127.539 101.305 126.539 100.721 125.883 99.5547C125.336 98.5807 125.062 97.2734 125.062 95.6328C125.062 94.362 125.227 93.2708 125.555 92.3594C126.169 90.6615 127.281 89.8125 128.891 89.8125ZM128.875 100.023C129.604 100.023 130.185 99.7005 130.617 99.0547C131.049 98.4089 131.266 97.2057 131.266 95.4453C131.266 94.1745 131.109 93.1302 130.797 92.3125C130.484 91.4896 129.878 91.0781 128.977 91.0781C128.148 91.0781 127.542 91.4688 127.156 92.25C126.776 93.026 126.586 94.1719 126.586 95.6875C126.586 96.8281 126.708 97.7448 126.953 98.4375C127.328 99.4948 127.969 100.023 128.875 100.023Z" fill="white"/>
<a href="mailto:doubter@2.0.0">
<rect fill="black" fill-opacity="0" y="-0.199219" width="111.461" height="18.3984"/>
</a>
<path d="M39.2031 149.484H41.7031L43.4766 155.766L45.2891 149.484H47.6797L44.6094 158H42.2578L39.2031 149.484ZM49.2656 150.406C49.8542 149.656 50.8646 149.281 52.2969 149.281C53.2292 149.281 54.0573 149.466 54.7812 149.836C55.5052 150.206 55.8672 150.904 55.8672 151.93V155.836C55.8672 156.107 55.8724 156.435 55.8828 156.82C55.8984 157.112 55.9427 157.31 56.0156 157.414C56.0885 157.518 56.1979 157.604 56.3438 157.672V158H53.9219C53.8542 157.828 53.8073 157.667 53.7812 157.516C53.7552 157.365 53.7344 157.193 53.7188 157C53.4115 157.333 53.0573 157.617 52.6562 157.852C52.1771 158.128 51.6354 158.266 51.0312 158.266C50.2604 158.266 49.6224 158.047 49.1172 157.609C48.6172 157.167 48.3672 156.542 48.3672 155.734C48.3672 154.688 48.7708 153.93 49.5781 153.461C50.0208 153.206 50.6719 153.023 51.5312 152.914L52.2891 152.82C52.7005 152.768 52.9948 152.703 53.1719 152.625C53.4896 152.49 53.6484 152.279 53.6484 151.992C53.6484 151.643 53.526 151.404 53.2812 151.273C53.0417 151.138 52.6875 151.07 52.2188 151.07C51.6927 151.07 51.3203 151.201 51.1016 151.461C50.9453 151.654 50.8411 151.914 50.7891 152.242H48.6406C48.6875 151.497 48.8958 150.885 49.2656 150.406ZM50.9219 156.391C51.1302 156.562 51.3854 156.648 51.6875 156.648C52.1667 156.648 52.6068 156.508 53.0078 156.227C53.4141 155.945 53.625 155.432 53.6406 154.688V153.859C53.5 153.948 53.3568 154.021 53.2109 154.078C53.0703 154.13 52.875 154.18 52.625 154.227L52.125 154.32C51.6562 154.404 51.3203 154.505 51.1172 154.625C50.7734 154.828 50.6016 155.143 50.6016 155.57C50.6016 155.951 50.7083 156.224 50.9219 156.391ZM57.8984 146.484H60.125V158H57.8984V146.484ZM64.5938 149.484V158H62.3359V149.484H64.5938ZM64.5938 146.414V148.469H62.3359V146.414H64.5938ZM70.6562 156.414V158.078L69.6016 158.117C68.5495 158.154 67.8307 157.971 67.4453 157.57C67.1953 157.315 67.0703 156.922 67.0703 156.391V151.148H65.8828V149.562H67.0703V147.188H69.2734V149.562H70.6562V151.148H69.2734V155.648C69.2734 155.997 69.3177 156.216 69.4062 156.305C69.4948 156.388 69.7656 156.43 70.2188 156.43C70.2865 156.43 70.3568 156.43 70.4297 156.43C70.5078 156.424 70.5833 156.419 70.6562 156.414ZM72.4062 150.406C72.9948 149.656 74.0052 149.281 75.4375 149.281C76.3698 149.281 77.1979 149.466 77.9219 149.836C78.6458 150.206 79.0078 150.904 79.0078 151.93V155.836C79.0078 156.107 79.013 156.435 79.0234 156.82C79.0391 157.112 79.0833 157.31 79.1562 157.414C79.2292 157.518 79.3385 157.604 79.4844 157.672V158H77.0625C76.9948 157.828 76.9479 157.667 76.9219 157.516C76.8958 157.365 76.875 157.193 76.8594 157C76.5521 157.333 76.1979 157.617 75.7969 157.852C75.3177 158.128 74.776 158.266 74.1719 158.266C73.401 158.266 72.763 158.047 72.2578 157.609C71.7578 157.167 71.5078 156.542 71.5078 155.734C71.5078 154.688 71.9115 153.93 72.7188 153.461C73.1615 153.206 73.8125 153.023 74.6719 152.914L75.4297 152.82C75.8411 152.768 76.1354 152.703 76.3125 152.625C76.6302 152.49 76.7891 152.279 76.7891 151.992C76.7891 151.643 76.6667 151.404 76.4219 151.273C76.1823 151.138 75.8281 151.07 75.3594 151.07C74.8333 151.07 74.4609 151.201 74.2422 151.461C74.0859 151.654 73.9818 151.914 73.9297 152.242H71.7812C71.8281 151.497 72.0365 150.885 72.4062 150.406ZM74.0625 156.391C74.2708 156.562 74.526 156.648 74.8281 156.648C75.3073 156.648 75.7474 156.508 76.1484 156.227C76.5547 155.945 76.7656 155.432 76.7812 154.688V153.859C76.6406 153.948 76.4974 154.021 76.3516 154.078C76.2109 154.13 76.0156 154.18 75.7656 154.227L75.2656 154.32C74.7969 154.404 74.4609 154.505 74.2578 154.625C73.9141 154.828 73.7422 155.143 73.7422 155.57C73.7422 155.951 73.849 156.224 74.0625 156.391ZM89.7109 151.023C89.7109 150.701 89.6016 150.411 89.3828 150.156C89.1693 149.896 88.8724 149.766 88.4922 149.766C87.8984 149.766 87.3828 150.117 86.9453 150.82C86.513 151.518 86.2969 152.214 86.2969 152.906C86.2969 153.417 86.4089 153.807 86.6328 154.078C86.8568 154.344 87.138 154.477 87.4766 154.477C88.1797 154.477 88.7266 154.068 89.1172 153.25C89.513 152.427 89.7109 151.685 89.7109 151.023ZM88.1562 158.336C85.9792 158.336 84.3021 157.656 83.125 156.297C82.1823 155.208 81.7109 153.951 81.7109 152.523C81.7109 150.826 82.2839 149.383 83.4297 148.195C84.7005 146.872 86.4062 146.211 88.5469 146.211C90.401 146.211 91.8594 146.68 92.9219 147.617C93.9167 148.503 94.4141 149.651 94.4141 151.062C94.4141 152.25 94.0573 153.266 93.3438 154.109C92.6354 154.948 91.8411 155.367 90.9609 155.367C90.4453 155.367 90.0651 155.245 89.8203 155C89.5755 154.75 89.4531 154.451 89.4531 154.102C89.4531 154.044 89.4583 153.984 89.4688 153.922C89.4792 153.859 89.4922 153.794 89.5078 153.727C89.2318 154.326 88.8828 154.75 88.4609 155C88.0391 155.245 87.6042 155.367 87.1562 155.367C86.5156 155.367 85.9948 155.135 85.5938 154.672C85.1979 154.208 85 153.612 85 152.883C85 151.846 85.3385 150.932 86.0156 150.141C86.6979 149.349 87.4297 148.953 88.2109 148.953C88.7422 148.953 89.1797 149.107 89.5234 149.414C89.8724 149.721 90.0573 150.091 90.0781 150.523L90.4688 149.211H91.6172L90.5781 152.633C90.5 152.898 90.4427 153.112 90.4062 153.273C90.3698 153.435 90.3516 153.578 90.3516 153.703C90.3516 153.938 90.4219 154.109 90.5625 154.219C90.7083 154.323 90.8724 154.375 91.0547 154.375C91.6484 154.375 92.1797 154.065 92.6484 153.445C93.1224 152.826 93.3594 152.016 93.3594 151.016C93.3594 149.807 92.9375 148.859 92.0938 148.172C91.25 147.479 90.1146 147.133 88.6875 147.133C86.7083 147.133 85.1953 147.711 84.1484 148.867C83.2526 149.852 82.8047 151.089 82.8047 152.578C82.8047 153.88 83.2318 154.974 84.0859 155.859C85.0859 156.906 86.5104 157.43 88.3594 157.43C89.224 157.43 90.0286 157.294 90.7734 157.023C91.5182 156.747 92.2005 156.378 92.8203 155.914L93.3359 156.617C92.8672 157.034 92.1667 157.424 91.2344 157.789C90.3021 158.154 89.276 158.336 88.1562 158.336ZM100.531 146.812C101.979 146.812 103.026 147.409 103.672 148.602C104.172 149.523 104.422 150.786 104.422 152.391C104.422 153.911 104.195 155.169 103.742 156.164C103.086 157.591 102.013 158.305 100.523 158.305C99.1797 158.305 98.1797 157.721 97.5234 156.555C96.9766 155.581 96.7031 154.273 96.7031 152.633C96.7031 151.362 96.8672 150.271 97.1953 149.359C97.8099 147.661 98.9219 146.812 100.531 146.812ZM100.516 157.023C101.245 157.023 101.826 156.701 102.258 156.055C102.69 155.409 102.906 154.206 102.906 152.445C102.906 151.174 102.75 150.13 102.438 149.312C102.125 148.49 101.518 148.078 100.617 148.078C99.7891 148.078 99.1823 148.469 98.7969 149.25C98.4167 150.026 98.2266 151.172 98.2266 152.688C98.2266 153.828 98.349 154.745 98.5938 155.438C98.9688 156.495 99.6094 157.023 100.516 157.023ZM106.477 156.297H108.109V158H106.477V156.297ZM113.719 158.305C112.396 158.305 111.435 157.943 110.836 157.219C110.242 156.49 109.945 155.604 109.945 154.562H111.414C111.477 155.286 111.612 155.812 111.82 156.141C112.185 156.729 112.844 157.023 113.797 157.023C114.536 157.023 115.13 156.826 115.578 156.43C116.026 156.034 116.25 155.523 116.25 154.898C116.25 154.128 116.013 153.589 115.539 153.281C115.07 152.974 114.417 152.82 113.578 152.82C113.484 152.82 113.388 152.823 113.289 152.828C113.195 152.828 113.099 152.831 113 152.836V151.594C113.146 151.609 113.268 151.62 113.367 151.625C113.466 151.63 113.573 151.633 113.688 151.633C114.214 151.633 114.646 151.549 114.984 151.383C115.578 151.091 115.875 150.57 115.875 149.82C115.875 149.263 115.677 148.833 115.281 148.531C114.885 148.229 114.424 148.078 113.898 148.078C112.961 148.078 112.312 148.391 111.953 149.016C111.755 149.359 111.643 149.849 111.617 150.484H110.227C110.227 149.651 110.393 148.943 110.727 148.359C111.299 147.318 112.307 146.797 113.75 146.797C114.891 146.797 115.773 147.052 116.398 147.562C117.023 148.068 117.336 148.802 117.336 149.766C117.336 150.453 117.151 151.01 116.781 151.438C116.552 151.703 116.255 151.911 115.891 152.062C116.479 152.224 116.938 152.536 117.266 153C117.599 153.458 117.766 154.021 117.766 154.688C117.766 155.755 117.414 156.625 116.711 157.297C116.008 157.969 115.01 158.305 113.719 158.305ZM119.836 156.297H121.469V158H119.836V156.297ZM127.25 146.812C128.698 146.812 129.745 147.409 130.391 148.602C130.891 149.523 131.141 150.786 131.141 152.391C131.141 153.911 130.914 155.169 130.461 156.164C129.805 157.591 128.732 158.305 127.242 158.305C125.898 158.305 124.898 157.721 124.242 156.555C123.695 155.581 123.422 154.273 123.422 152.633C123.422 151.362 123.586 150.271 123.914 149.359C124.529 147.661 125.641 146.812 127.25 146.812ZM127.234 157.023C127.964 157.023 128.544 156.701 128.977 156.055C129.409 155.409 129.625 154.206 129.625 152.445C129.625 151.174 129.469 150.13 129.156 149.312C128.844 148.49 128.237 148.078 127.336 148.078C126.508 148.078 125.901 148.469 125.516 149.25C125.135 150.026 124.945 151.172 124.945 152.688C124.945 153.828 125.068 154.745 125.312 155.438C125.688 156.495 126.328 157.023 127.234 157.023Z" fill="white"/>
<path d="M27.8203 208.828C27.6328 208.417 27.2656 208.211 26.7188 208.211C26.0833 208.211 25.6562 208.417 25.4375 208.828C25.3177 209.062 25.2578 209.411 25.2578 209.875V215H23V206.5H25.1641V207.742C25.4401 207.299 25.7005 206.984 25.9453 206.797C26.3776 206.464 26.9375 206.297 27.625 206.297C28.276 206.297 28.8021 206.44 29.2031 206.727C29.526 206.992 29.7708 207.333 29.9375 207.75C30.2292 207.25 30.5911 206.883 31.0234 206.648C31.4818 206.414 31.9922 206.297 32.5547 206.297C32.9297 206.297 33.2995 206.37 33.6641 206.516C34.0286 206.661 34.3594 206.917 34.6562 207.281C34.8958 207.578 35.0573 207.943 35.1406 208.375C35.1927 208.661 35.2188 209.081 35.2188 209.633L35.2031 215H32.9219V209.578C32.9219 209.255 32.8698 208.99 32.7656 208.781C32.5677 208.385 32.2031 208.188 31.6719 208.188C31.0573 208.188 30.6328 208.443 30.3984 208.953C30.2786 209.224 30.2188 209.549 30.2188 209.93V215H27.9766V209.93C27.9766 209.424 27.9245 209.057 27.8203 208.828ZM40.7344 212.766L42.4922 206.484H44.8594L41.9375 214.859C41.375 216.474 40.9297 217.474 40.6016 217.859C40.2734 218.25 39.6172 218.445 38.6328 218.445C38.4349 218.445 38.276 218.443 38.1562 218.438C38.0365 218.438 37.8568 218.43 37.6172 218.414V216.633L37.8984 216.648C38.1172 216.659 38.3255 216.651 38.5234 216.625C38.7214 216.599 38.888 216.539 39.0234 216.445C39.1536 216.357 39.2734 216.172 39.3828 215.891C39.4974 215.609 39.5443 215.438 39.5234 215.375L36.3984 206.484H38.875L40.7344 212.766ZM52.75 215H45.3984V213.266L49.7656 208.297H45.6953V206.484H52.6016V208.336L48.2812 213.172H52.75V215ZM61.2812 207.562C62 208.464 62.3594 209.529 62.3594 210.758C62.3594 212.008 62 213.078 61.2812 213.969C60.5625 214.854 59.4714 215.297 58.0078 215.297C56.5443 215.297 55.4531 214.854 54.7344 213.969C54.0156 213.078 53.6562 212.008 53.6562 210.758C53.6562 209.529 54.0156 208.464 54.7344 207.562C55.4531 206.661 56.5443 206.211 58.0078 206.211C59.4714 206.211 60.5625 206.661 61.2812 207.562ZM58 208.094C57.349 208.094 56.8464 208.326 56.4922 208.789C56.1432 209.247 55.9688 209.904 55.9688 210.758C55.9688 211.612 56.1432 212.271 56.4922 212.734C56.8464 213.198 57.349 213.43 58 213.43C58.651 213.43 59.151 213.198 59.5 212.734C59.849 212.271 60.0234 211.612 60.0234 210.758C60.0234 209.904 59.849 209.247 59.5 208.789C59.151 208.326 58.651 208.094 58 208.094ZM71.7109 203.5V215H69.5469V213.82C69.2292 214.326 68.8672 214.693 68.4609 214.922C68.0547 215.151 67.5495 215.266 66.9453 215.266C65.9505 215.266 65.112 214.865 64.4297 214.062C63.7526 213.255 63.4141 212.221 63.4141 210.961C63.4141 209.508 63.7474 208.365 64.4141 207.531C65.0859 206.698 65.9818 206.281 67.1016 206.281C67.6172 206.281 68.0755 206.396 68.4766 206.625C68.8776 206.849 69.2031 207.161 69.4531 207.562V203.5H71.7109ZM65.7109 210.797C65.7109 211.583 65.8672 212.211 66.1797 212.68C66.487 213.154 66.9557 213.391 67.5859 213.391C68.2161 213.391 68.6953 213.156 69.0234 212.688C69.3516 212.219 69.5156 211.612 69.5156 210.867C69.5156 209.826 69.2526 209.081 68.7266 208.633C68.4036 208.362 68.0286 208.227 67.6016 208.227C66.9505 208.227 66.4714 208.474 66.1641 208.969C65.862 209.458 65.7109 210.068 65.7109 210.797ZM82.4609 208.023C82.4609 207.701 82.3516 207.411 82.1328 207.156C81.9193 206.896 81.6224 206.766 81.2422 206.766C80.6484 206.766 80.1328 207.117 79.6953 207.82C79.263 208.518 79.0469 209.214 79.0469 209.906C79.0469 210.417 79.1589 210.807 79.3828 211.078C79.6068 211.344 79.888 211.477 80.2266 211.477C80.9297 211.477 81.4766 211.068 81.8672 210.25C82.263 209.427 82.4609 208.685 82.4609 208.023ZM80.9062 215.336C78.7292 215.336 77.0521 214.656 75.875 213.297C74.9323 212.208 74.4609 210.951 74.4609 209.523C74.4609 207.826 75.0339 206.383 76.1797 205.195C77.4505 203.872 79.1562 203.211 81.2969 203.211C83.151 203.211 84.6094 203.68 85.6719 204.617C86.6667 205.503 87.1641 206.651 87.1641 208.062C87.1641 209.25 86.8073 210.266 86.0938 211.109C85.3854 211.948 84.5911 212.367 83.7109 212.367C83.1953 212.367 82.8151 212.245 82.5703 212C82.3255 211.75 82.2031 211.451 82.2031 211.102C82.2031 211.044 82.2083 210.984 82.2188 210.922C82.2292 210.859 82.2422 210.794 82.2578 210.727C81.9818 211.326 81.6328 211.75 81.2109 212C80.7891 212.245 80.3542 212.367 79.9062 212.367C79.2656 212.367 78.7448 212.135 78.3438 211.672C77.9479 211.208 77.75 210.612 77.75 209.883C77.75 208.846 78.0885 207.932 78.7656 207.141C79.4479 206.349 80.1797 205.953 80.9609 205.953C81.4922 205.953 81.9297 206.107 82.2734 206.414C82.6224 206.721 82.8073 207.091 82.8281 207.523L83.2188 206.211H84.3672L83.3281 209.633C83.25 209.898 83.1927 210.112 83.1562 210.273C83.1198 210.435 83.1016 210.578 83.1016 210.703C83.1016 210.938 83.1719 211.109 83.3125 211.219C83.4583 211.323 83.6224 211.375 83.8047 211.375C84.3984 211.375 84.9297 211.065 85.3984 210.445C85.8724 209.826 86.1094 209.016 86.1094 208.016C86.1094 206.807 85.6875 205.859 84.8438 205.172C84 204.479 82.8646 204.133 81.4375 204.133C79.4583 204.133 77.9453 204.711 76.8984 205.867C76.0026 206.852 75.5547 208.089 75.5547 209.578C75.5547 210.88 75.9818 211.974 76.8359 212.859C77.8359 213.906 79.2604 214.43 81.1094 214.43C81.974 214.43 82.7786 214.294 83.5234 214.023C84.2682 213.747 84.9505 213.378 85.5703 212.914L86.0859 213.617C85.6172 214.034 84.9167 214.424 83.9844 214.789C83.0521 215.154 82.026 215.336 80.9062 215.336ZM90.4844 207.078V206C91.5 205.901 92.2083 205.737 92.6094 205.508C93.0104 205.273 93.3099 204.724 93.5078 203.859H94.6172V215H93.1172V207.078H90.4844ZM99.2266 213.297H100.859V215H99.2266V213.297ZM103.844 207.078V206C104.859 205.901 105.568 205.737 105.969 205.508C106.37 205.273 106.669 204.724 106.867 203.859H107.977V215H106.477V207.078H103.844ZM115.547 203.812C116.995 203.812 118.042 204.409 118.688 205.602C119.188 206.523 119.438 207.786 119.438 209.391C119.438 210.911 119.211 212.169 118.758 213.164C118.102 214.591 117.029 215.305 115.539 215.305C114.195 215.305 113.195 214.721 112.539 213.555C111.992 212.581 111.719 211.273 111.719 209.633C111.719 208.362 111.883 207.271 112.211 206.359C112.826 204.661 113.938 203.812 115.547 203.812ZM115.531 214.023C116.26 214.023 116.841 213.701 117.273 213.055C117.706 212.409 117.922 211.206 117.922 209.445C117.922 208.174 117.766 207.13 117.453 206.312C117.141 205.49 116.534 205.078 115.633 205.078C114.805 205.078 114.198 205.469 113.812 206.25C113.432 207.026 113.242 208.172 113.242 209.688C113.242 210.828 113.365 211.745 113.609 212.438C113.984 213.495 114.625 214.023 115.531 214.023ZM121.492 213.297H123.125V215H121.492V213.297ZM125.078 215C125.13 214.036 125.328 213.198 125.672 212.484C126.021 211.771 126.698 211.122 127.703 210.539L129.203 209.672C129.875 209.281 130.346 208.948 130.617 208.672C131.044 208.24 131.258 207.745 131.258 207.188C131.258 206.536 131.062 206.021 130.672 205.641C130.281 205.255 129.76 205.062 129.109 205.062C128.146 205.062 127.479 205.427 127.109 206.156C126.911 206.547 126.802 207.089 126.781 207.781H125.352C125.367 206.807 125.547 206.013 125.891 205.398C126.5 204.315 127.576 203.773 129.117 203.773C130.398 203.773 131.333 204.12 131.922 204.812C132.516 205.505 132.812 206.276 132.812 207.125C132.812 208.021 132.497 208.786 131.867 209.422C131.503 209.792 130.849 210.24 129.906 210.766L128.836 211.359C128.326 211.641 127.924 211.909 127.633 212.164C127.112 212.617 126.784 213.12 126.648 213.672H132.758V215H125.078Z" fill="white"/>
<a href="mailto:myzod@1.8.8">
<rect fill="black" fill-opacity="0" y="-0.199219" width="111.477" height="18.3984"/>
</a>
<path d="M51.6094 272H44.2578V270.266L48.625 265.297H44.5547V263.484H51.4609V265.336L47.1406 270.172H51.6094V272ZM60.1406 264.562C60.8594 265.464 61.2188 266.529 61.2188 267.758C61.2188 269.008 60.8594 270.078 60.1406 270.969C59.4219 271.854 58.3307 272.297 56.8672 272.297C55.4036 272.297 54.3125 271.854 53.5938 270.969C52.875 270.078 52.5156 269.008 52.5156 267.758C52.5156 266.529 52.875 265.464 53.5938 264.562C54.3125 263.661 55.4036 263.211 56.8672 263.211C58.3307 263.211 59.4219 263.661 60.1406 264.562ZM56.8594 265.094C56.2083 265.094 55.7057 265.326 55.3516 265.789C55.0026 266.247 54.8281 266.904 54.8281 267.758C54.8281 268.612 55.0026 269.271 55.3516 269.734C55.7057 270.198 56.2083 270.43 56.8594 270.43C57.5104 270.43 58.0104 270.198 58.3594 269.734C58.7083 269.271 58.8828 268.612 58.8828 267.758C58.8828 266.904 58.7083 266.247 58.3594 265.789C58.0104 265.326 57.5104 265.094 56.8594 265.094ZM70.5703 260.5V272H68.4062V270.82C68.0885 271.326 67.7266 271.693 67.3203 271.922C66.9141 272.151 66.4089 272.266 65.8047 272.266C64.8099 272.266 63.9714 271.865 63.2891 271.062C62.612 270.255 62.2734 269.221 62.2734 267.961C62.2734 266.508 62.6068 265.365 63.2734 264.531C63.9453 263.698 64.8411 263.281 65.9609 263.281C66.4766 263.281 66.9349 263.396 67.3359 263.625C67.737 263.849 68.0625 264.161 68.3125 264.562V260.5H70.5703ZM64.5703 267.797C64.5703 268.583 64.7266 269.211 65.0391 269.68C65.3464 270.154 65.8151 270.391 66.4453 270.391C67.0755 270.391 67.5547 270.156 67.8828 269.688C68.2109 269.219 68.375 268.612 68.375 267.867C68.375 266.826 68.112 266.081 67.5859 265.633C67.263 265.362 66.888 265.227 66.4609 265.227C65.8099 265.227 65.3307 265.474 65.0234 265.969C64.7214 266.458 64.5703 267.068 64.5703 267.797ZM81.3203 265.023C81.3203 264.701 81.2109 264.411 80.9922 264.156C80.7786 263.896 80.4818 263.766 80.1016 263.766C79.5078 263.766 78.9922 264.117 78.5547 264.82C78.1224 265.518 77.9062 266.214 77.9062 266.906C77.9062 267.417 78.0182 267.807 78.2422 268.078C78.4661 268.344 78.7474 268.477 79.0859 268.477C79.7891 268.477 80.3359 268.068 80.7266 267.25C81.1224 266.427 81.3203 265.685 81.3203 265.023ZM79.7656 272.336C77.5885 272.336 75.9115 271.656 74.7344 270.297C73.7917 269.208 73.3203 267.951 73.3203 266.523C73.3203 264.826 73.8932 263.383 75.0391 262.195C76.3099 260.872 78.0156 260.211 80.1562 260.211C82.0104 260.211 83.4688 260.68 84.5312 261.617C85.526 262.503 86.0234 263.651 86.0234 265.062C86.0234 266.25 85.6667 267.266 84.9531 268.109C84.2448 268.948 83.4505 269.367 82.5703 269.367C82.0547 269.367 81.6745 269.245 81.4297 269C81.1849 268.75 81.0625 268.451 81.0625 268.102C81.0625 268.044 81.0677 267.984 81.0781 267.922C81.0885 267.859 81.1016 267.794 81.1172 267.727C80.8411 268.326 80.4922 268.75 80.0703 269C79.6484 269.245 79.2135 269.367 78.7656 269.367C78.125 269.367 77.6042 269.135 77.2031 268.672C76.8073 268.208 76.6094 267.612 76.6094 266.883C76.6094 265.846 76.9479 264.932 77.625 264.141C78.3073 263.349 79.0391 262.953 79.8203 262.953C80.3516 262.953 80.7891 263.107 81.1328 263.414C81.4818 263.721 81.6667 264.091 81.6875 264.523L82.0781 263.211H83.2266L82.1875 266.633C82.1094 266.898 82.0521 267.112 82.0156 267.273C81.9792 267.435 81.9609 267.578 81.9609 267.703C81.9609 267.938 82.0312 268.109 82.1719 268.219C82.3177 268.323 82.4818 268.375 82.6641 268.375C83.2578 268.375 83.7891 268.065 84.2578 267.445C84.7318 266.826 84.9688 266.016 84.9688 265.016C84.9688 263.807 84.5469 262.859 83.7031 262.172C82.8594 261.479 81.724 261.133 80.2969 261.133C78.3177 261.133 76.8047 261.711 75.7578 262.867C74.862 263.852 74.4141 265.089 74.4141 266.578C74.4141 267.88 74.8411 268.974 75.6953 269.859C76.6953 270.906 78.1198 271.43 79.9688 271.43C80.8333 271.43 81.638 271.294 82.3828 271.023C83.1276 270.747 83.8099 270.378 84.4297 269.914L84.9453 270.617C84.4766 271.034 83.776 271.424 82.8438 271.789C81.9115 272.154 80.8854 272.336 79.7656 272.336ZM91.9688 272.305C90.6458 272.305 89.6849 271.943 89.0859 271.219C88.4922 270.49 88.1953 269.604 88.1953 268.562H89.6641C89.7266 269.286 89.862 269.812 90.0703 270.141C90.4349 270.729 91.0938 271.023 92.0469 271.023C92.7865 271.023 93.3802 270.826 93.8281 270.43C94.276 270.034 94.5 269.523 94.5 268.898C94.5 268.128 94.263 267.589 93.7891 267.281C93.3203 266.974 92.6667 266.82 91.8281 266.82C91.7344 266.82 91.638 266.823 91.5391 266.828C91.4453 266.828 91.349 266.831 91.25 266.836V265.594C91.3958 265.609 91.5182 265.62 91.6172 265.625C91.7161 265.63 91.8229 265.633 91.9375 265.633C92.4635 265.633 92.8958 265.549 93.2344 265.383C93.8281 265.091 94.125 264.57 94.125 263.82C94.125 263.263 93.9271 262.833 93.5312 262.531C93.1354 262.229 92.6745 262.078 92.1484 262.078C91.2109 262.078 90.5625 262.391 90.2031 263.016C90.0052 263.359 89.8932 263.849 89.8672 264.484H88.4766C88.4766 263.651 88.6432 262.943 88.9766 262.359C89.5495 261.318 90.5573 260.797 92 260.797C93.1406 260.797 94.0234 261.052 94.6484 261.562C95.2734 262.068 95.5859 262.802 95.5859 263.766C95.5859 264.453 95.401 265.01 95.0312 265.438C94.8021 265.703 94.5052 265.911 94.1406 266.062C94.7292 266.224 95.1875 266.536 95.5156 267C95.849 267.458 96.0156 268.021 96.0156 268.688C96.0156 269.755 95.6641 270.625 94.9609 271.297C94.2578 271.969 93.2604 272.305 91.9688 272.305ZM98.0859 270.297H99.7188V272H98.0859V270.297ZM101.672 272C101.724 271.036 101.922 270.198 102.266 269.484C102.615 268.771 103.292 268.122 104.297 267.539L105.797 266.672C106.469 266.281 106.94 265.948 107.211 265.672C107.638 265.24 107.852 264.745 107.852 264.188C107.852 263.536 107.656 263.021 107.266 262.641C106.875 262.255 106.354 262.062 105.703 262.062C104.74 262.062 104.073 262.427 103.703 263.156C103.505 263.547 103.396 264.089 103.375 264.781H101.945C101.961 263.807 102.141 263.013 102.484 262.398C103.094 261.315 104.169 260.773 105.711 260.773C106.992 260.773 107.927 261.12 108.516 261.812C109.109 262.505 109.406 263.276 109.406 264.125C109.406 265.021 109.091 265.786 108.461 266.422C108.096 266.792 107.443 267.24 106.5 267.766L105.43 268.359C104.919 268.641 104.518 268.909 104.227 269.164C103.706 269.617 103.378 270.12 103.242 270.672H109.352V272H101.672ZM110.578 272C110.63 271.036 110.828 270.198 111.172 269.484C111.521 268.771 112.198 268.122 113.203 267.539L114.703 266.672C115.375 266.281 115.846 265.948 116.117 265.672C116.544 265.24 116.758 264.745 116.758 264.188C116.758 263.536 116.562 263.021 116.172 262.641C115.781 262.255 115.26 262.062 114.609 262.062C113.646 262.062 112.979 262.427 112.609 263.156C112.411 263.547 112.302 264.089 112.281 264.781H110.852C110.867 263.807 111.047 263.013 111.391 262.398C112 261.315 113.076 260.773 114.617 260.773C115.898 260.773 116.833 261.12 117.422 261.812C118.016 262.505 118.312 263.276 118.312 264.125C118.312 265.021 117.997 265.786 117.367 266.422C117.003 266.792 116.349 267.24 115.406 267.766L114.336 268.359C113.826 268.641 113.424 268.909 113.133 269.164C112.612 269.617 112.284 270.12 112.148 270.672H118.258V272H110.578ZM120.352 270.297H121.984V272H120.352V270.297ZM128.727 268.039V262.969L125.141 268.039H128.727ZM128.75 272V269.266H123.844V267.891L128.969 260.781H130.156V268.039H131.805V269.266H130.156V272H128.75Z" fill="white"/>
<path d="M507.602 146.598C509.037 146.265 509.93 144.833 509.598 143.398C509.265 141.963 507.833 141.07 506.398 141.402C504.963 141.735 504.07 143.167 504.402 144.602C504.735 146.037 506.167 146.93 507.602 146.598ZM526.487 225.887L507.487 143.887L506.513 144.113L525.513 226.113L526.487 225.887Z" fill="white"/>
<path d="M504.896 241.286C503.656 241.286 502.755 240.946 502.194 240.268C501.637 239.584 501.359 238.754 501.359 237.777H502.736C502.794 238.456 502.921 238.949 503.117 239.257C503.458 239.809 504.076 240.084 504.97 240.084C505.663 240.084 506.22 239.899 506.64 239.528C507.06 239.157 507.27 238.678 507.27 238.092C507.27 237.37 507.047 236.864 506.603 236.576C506.164 236.288 505.551 236.144 504.765 236.144C504.677 236.144 504.586 236.146 504.494 236.151C504.406 236.151 504.315 236.154 504.223 236.159V234.994C504.359 235.009 504.474 235.019 504.567 235.023C504.66 235.028 504.76 235.031 504.867 235.031C505.36 235.031 505.766 234.953 506.083 234.796C506.64 234.523 506.918 234.035 506.918 233.332C506.918 232.809 506.732 232.406 506.361 232.123C505.99 231.84 505.558 231.698 505.065 231.698C504.186 231.698 503.578 231.991 503.241 232.577C503.056 232.899 502.951 233.358 502.926 233.954H501.623C501.623 233.173 501.779 232.509 502.091 231.962C502.628 230.985 503.573 230.497 504.926 230.497C505.995 230.497 506.823 230.736 507.409 231.215C507.995 231.688 508.288 232.377 508.288 233.28C508.288 233.925 508.114 234.447 507.768 234.848C507.553 235.097 507.274 235.292 506.933 235.434C507.484 235.585 507.914 235.878 508.222 236.312C508.534 236.742 508.69 237.27 508.69 237.895C508.69 238.896 508.361 239.711 507.702 240.341C507.042 240.971 506.107 241.286 504.896 241.286ZM510.631 239.403H512.162V241H510.631V239.403ZM514.96 233.573V232.562C515.912 232.47 516.576 232.316 516.952 232.101C517.328 231.881 517.609 231.366 517.794 230.556H518.834V241H517.428V233.573H514.96ZM527.155 230.241H529.242L532.333 239.337L535.402 230.241H537.467V241H536.083V234.65C536.083 234.43 536.088 234.066 536.098 233.559C536.107 233.051 536.112 232.506 536.112 231.925L533.043 241H531.601L528.51 231.925V232.255C528.51 232.519 528.515 232.921 528.524 233.463C528.539 234 528.546 234.396 528.546 234.65V241H527.155V230.241ZM539.723 230.241H541.195V234.687H546.791V230.241H548.263V241H546.791V235.968H541.195V241H539.723V230.241ZM549.765 239.96L554.416 234.335H550.109V233.156H556.188V234.232L551.566 239.821H556.327V241H549.765V239.96Z" fill="white"/>
<path d="M330.207 202.987C331.52 202.32 332.044 200.715 331.378 199.402C330.712 198.089 329.107 197.564 327.793 198.231C326.48 198.897 325.956 200.502 326.622 201.815C327.288 203.129 328.893 203.653 330.207 202.987ZM350.446 241.774L329.446 200.382L328.554 200.835L349.554 242.226L350.446 241.774Z" fill="white"/>
<path d="M327.436 250.573V249.562C328.388 249.47 329.052 249.316 329.428 249.101C329.804 248.881 330.084 248.366 330.27 247.556H331.31V258H329.904V250.573H327.436ZM335.631 256.403H337.162V258H335.631V256.403ZM342.912 247.468C344.083 247.468 344.899 247.773 345.358 248.383C345.822 248.989 346.054 249.614 346.054 250.258H344.75C344.672 249.843 344.547 249.519 344.376 249.284C344.059 248.845 343.578 248.625 342.934 248.625C342.196 248.625 341.61 248.967 341.176 249.65C340.741 250.329 340.5 251.303 340.451 252.573C340.753 252.128 341.134 251.796 341.593 251.577C342.013 251.381 342.482 251.284 343 251.284C343.878 251.284 344.645 251.564 345.299 252.126C345.954 252.688 346.281 253.525 346.281 254.638C346.281 255.59 345.971 256.435 345.351 257.172C344.73 257.905 343.847 258.271 342.699 258.271C341.718 258.271 340.871 257.9 340.158 257.158C339.445 256.411 339.088 255.156 339.088 253.393C339.088 252.089 339.247 250.983 339.564 250.075C340.175 248.337 341.291 247.468 342.912 247.468ZM342.816 257.099C343.51 257.099 344.027 256.867 344.369 256.403C344.716 255.935 344.889 255.383 344.889 254.748C344.889 254.211 344.735 253.701 344.428 253.217C344.12 252.729 343.561 252.485 342.75 252.485C342.184 252.485 341.686 252.673 341.256 253.049C340.832 253.425 340.619 253.991 340.619 254.748C340.619 255.412 340.812 255.971 341.198 256.425C341.588 256.875 342.128 257.099 342.816 257.099ZM352.155 247.241H354.242L357.333 256.337L360.402 247.241H362.467V258H361.083V251.65C361.083 251.43 361.088 251.066 361.098 250.559C361.107 250.051 361.112 249.506 361.112 248.925L358.043 258H356.601L353.51 248.925V249.255C353.51 249.519 353.515 249.921 353.524 250.463C353.539 251 353.546 251.396 353.546 251.65V258H352.155V247.241ZM364.723 247.241H366.195V251.687H371.791V247.241H373.263V258H371.791V252.968H366.195V258H364.723V247.241ZM374.765 256.96L379.416 251.335H375.109V250.156H381.188V251.232L376.566 256.821H381.327V258H374.765V256.96Z" fill="white"/>
<path d="M191.896 300.286C190.656 300.286 189.755 299.946 189.194 299.268C188.637 298.584 188.359 297.754 188.359 296.777H189.736C189.794 297.456 189.921 297.949 190.117 298.257C190.458 298.809 191.076 299.084 191.97 299.084C192.663 299.084 193.22 298.899 193.64 298.528C194.06 298.157 194.27 297.678 194.27 297.092C194.27 296.37 194.047 295.864 193.603 295.576C193.164 295.288 192.551 295.144 191.765 295.144C191.677 295.144 191.586 295.146 191.494 295.151C191.406 295.151 191.315 295.154 191.223 295.159V293.994C191.359 294.009 191.474 294.019 191.567 294.023C191.66 294.028 191.76 294.031 191.867 294.031C192.36 294.031 192.766 293.953 193.083 293.796C193.64 293.523 193.918 293.035 193.918 292.332C193.918 291.809 193.732 291.406 193.361 291.123C192.99 290.84 192.558 290.698 192.065 290.698C191.186 290.698 190.578 290.991 190.241 291.577C190.056 291.899 189.951 292.358 189.926 292.954H188.623C188.623 292.173 188.779 291.509 189.091 290.962C189.628 289.985 190.573 289.497 191.926 289.497C192.995 289.497 193.823 289.736 194.409 290.215C194.995 290.688 195.288 291.377 195.288 292.28C195.288 292.925 195.114 293.447 194.768 293.848C194.553 294.097 194.274 294.292 193.933 294.434C194.484 294.585 194.914 294.878 195.222 295.312C195.534 295.742 195.69 296.27 195.69 296.895C195.69 297.896 195.361 298.711 194.702 299.341C194.042 299.971 193.107 300.286 191.896 300.286ZM197.785 292.573V291.562C198.737 291.47 199.401 291.316 199.777 291.101C200.153 290.881 200.434 290.366 200.62 289.556H201.66V300H200.253V292.573H197.785ZM209.086 289.468C210.258 289.468 211.074 289.773 211.533 290.383C211.997 290.989 212.229 291.614 212.229 292.258H210.925C210.847 291.843 210.722 291.519 210.551 291.284C210.234 290.845 209.753 290.625 209.108 290.625C208.371 290.625 207.785 290.967 207.351 291.65C206.916 292.329 206.674 293.303 206.625 294.573C206.928 294.128 207.309 293.796 207.768 293.577C208.188 293.381 208.657 293.284 209.174 293.284C210.053 293.284 210.82 293.564 211.474 294.126C212.128 294.688 212.456 295.525 212.456 296.638C212.456 297.59 212.146 298.435 211.525 299.172C210.905 299.905 210.021 300.271 208.874 300.271C207.893 300.271 207.045 299.9 206.333 299.158C205.62 298.411 205.263 297.156 205.263 295.393C205.263 294.089 205.422 292.983 205.739 292.075C206.35 290.337 207.465 289.468 209.086 289.468ZM208.991 299.099C209.685 299.099 210.202 298.867 210.544 298.403C210.891 297.935 211.064 297.383 211.064 296.748C211.064 296.211 210.91 295.701 210.603 295.217C210.295 294.729 209.736 294.485 208.925 294.485C208.359 294.485 207.861 294.673 207.431 295.049C207.006 295.425 206.794 295.991 206.794 296.748C206.794 297.412 206.987 297.971 207.373 298.425C207.763 298.875 208.303 299.099 208.991 299.099ZM218.161 289.241H219.428V295.488L222.812 292.156H224.497L221.494 295.093L224.665 300H222.98L220.534 296.045L219.428 297.056V300H218.161V289.241ZM225.903 289.241H227.375V293.687H232.971V289.241H234.443V300H232.971V294.968H227.375V300H225.903V289.241ZM235.944 298.96L240.595 293.335H236.289V292.156H242.368V293.232L237.746 298.821H242.507V300H235.944V298.96Z" fill="white"/>
<path d="M557.229 88.8668C558.536 88.1883 559.045 86.5786 558.367 85.2714C557.688 83.9643 556.079 83.4547 554.771 84.1332C553.464 84.8117 552.955 86.4214 553.633 87.7286C554.312 89.0357 555.921 89.5453 557.229 88.8668ZM590.444 151.77L556.444 86.2696L555.556 86.7304L589.556 152.23L590.444 151.77Z" fill="white"/>
<path d="M570.896 167.286C569.656 167.286 568.755 166.946 568.194 166.268C567.637 165.584 567.359 164.754 567.359 163.777H568.736C568.794 164.456 568.921 164.949 569.117 165.257C569.458 165.809 570.076 166.084 570.97 166.084C571.663 166.084 572.22 165.899 572.64 165.528C573.06 165.157 573.27 164.678 573.27 164.092C573.27 163.37 573.047 162.864 572.603 162.576C572.164 162.288 571.551 162.144 570.765 162.144C570.677 162.144 570.586 162.146 570.494 162.151C570.406 162.151 570.315 162.154 570.223 162.159V160.994C570.359 161.009 570.474 161.019 570.567 161.023C570.66 161.028 570.76 161.031 570.867 161.031C571.36 161.031 571.766 160.953 572.083 160.796C572.64 160.523 572.918 160.035 572.918 159.332C572.918 158.809 572.732 158.406 572.361 158.123C571.99 157.84 571.558 157.698 571.065 157.698C570.186 157.698 569.578 157.991 569.241 158.577C569.056 158.899 568.951 159.358 568.926 159.954H567.623C567.623 159.173 567.779 158.509 568.091 157.962C568.628 156.985 569.573 156.497 570.926 156.497C571.995 156.497 572.823 156.736 573.409 157.215C573.995 157.688 574.288 158.377 574.288 159.28C574.288 159.925 574.114 160.447 573.768 160.848C573.553 161.097 573.274 161.292 572.933 161.434C573.484 161.585 573.914 161.878 574.222 162.312C574.534 162.742 574.69 163.27 574.69 163.895C574.69 164.896 574.361 165.711 573.702 166.341C573.042 166.971 572.107 167.286 570.896 167.286ZM576.631 165.403H578.162V167H576.631V165.403ZM581.377 164.327C581.465 165.079 581.814 165.599 582.425 165.887C582.737 166.033 583.099 166.106 583.509 166.106C584.29 166.106 584.869 165.857 585.245 165.359C585.621 164.861 585.809 164.31 585.809 163.704C585.809 162.972 585.584 162.405 585.135 162.005C584.69 161.604 584.156 161.404 583.531 161.404C583.077 161.404 582.686 161.492 582.359 161.668C582.037 161.844 581.761 162.088 581.531 162.4L580.389 162.334L581.187 156.688H586.636V157.962H582.176L581.729 160.877C581.973 160.691 582.205 160.552 582.425 160.459C582.815 160.298 583.267 160.218 583.78 160.218C584.742 160.218 585.557 160.528 586.226 161.148C586.895 161.768 587.229 162.554 587.229 163.506C587.229 164.498 586.922 165.372 586.307 166.128C585.696 166.885 584.72 167.264 583.377 167.264C582.522 167.264 581.766 167.024 581.106 166.546C580.452 166.062 580.086 165.323 580.008 164.327H581.377ZM593.155 156.241H595.242L598.333 165.337L601.402 156.241H603.467V167H602.083V160.65C602.083 160.43 602.088 160.066 602.098 159.559C602.107 159.051 602.112 158.506 602.112 157.925L599.043 167H597.601L594.51 157.925V158.255C594.51 158.519 594.515 158.921 594.524 159.463C594.539 160 594.546 160.396 594.546 160.65V167H593.155V156.241ZM605.723 156.241H607.195V160.687H612.791V156.241H614.263V167H612.791V161.968H607.195V167H605.723V156.241ZM615.765 165.96L620.416 160.335H616.109V159.156H622.188V160.232L617.566 165.821H622.327V167H615.765V165.96Z" fill="white"/>
<path d="M176.647 261.587C178.076 261.23 178.944 259.782 178.587 258.353C178.23 256.924 176.782 256.056 175.353 256.413C173.924 256.77 173.056 258.218 173.413 259.647C173.77 261.076 175.218 261.944 176.647 261.587ZM185.485 294.879L176.485 258.879L175.515 259.121L184.515 295.121L185.485 294.879Z" fill="white"/>
<rect x="562" y="84" width="1" height="5" fill="white"/>
<rect x="563" y="86" width="4" height="1" fill="white"/>
<rect x="567" y="86" width="4" height="1" fill="white"/>
<rect x="571" y="84" width="1" height="5" fill="white"/>
<rect x="549" y="103" width="1" height="5" fill="white"/>
<rect x="550" y="105" width="4" height="1" fill="white"/>
<rect x="554" y="105" width="4" height="1" fill="white"/>
<rect x="558" y="103" width="1" height="5" fill="white"/>
<rect x="513" y="141" width="1" height="5" fill="white"/>
<rect x="514" y="143" width="4" height="1" fill="white"/>
<rect x="518" y="143" width="4" height="1" fill="white"/>
<rect x="522" y="141" width="1" height="5" fill="white"/>
<rect x="490" y="160" width="1" height="5" fill="white"/>
<rect x="491" y="162" width="4" height="1" fill="white"/>
<rect x="495" y="162" width="4" height="1" fill="white"/>
<rect x="499" y="160" width="1" height="5" fill="white"/>
<rect x="336" y="198" width="1" height="5" fill="white"/>
<rect x="337" y="200" width="3" height="1" fill="white"/>
<rect x="340" y="200" width="3" height="1" fill="white"/>
<rect x="343" y="198" width="1" height="5" fill="white"/>
<rect x="267" y="217" width="1" height="5" fill="white"/>
<rect x="268" y="219" width="3" height="1" fill="white"/>
<rect x="271" y="219" width="3" height="1" fill="white"/>
<rect x="274" y="217" width="1" height="5" fill="white"/>
<rect x="183" y="256" width="1" height="5" fill="white"/>
<rect x="184" y="258" width="2" height="1" fill="white"/>
<rect x="186" y="258" width="2" height="1" fill="white"/>
<rect x="188" y="256" width="1" height="5" fill="white"/>
<rect x="189" y="274" width="1" height="5" fill="white"/>
<rect x="190" y="276" width="2" height="1" fill="white"/>
<rect x="192" y="276" width="2" height="1" fill="white"/>
<rect x="194" y="274" width="1" height="5" fill="white"/>
<line x1="150.5" y1="56" x2="150.5" y2="311" stroke="white"/>
<line x1="269.501" y1="300" x2="269.501" y2="311" stroke="white"/>
<line x1="388.5" y1="300" x2="388.5" y2="311" stroke="white"/>
<line x1="507.5" y1="300" x2="507.5" y2="311" stroke="white"/>
<line x1="626.5" y1="300" x2="626.5" y2="311" stroke="white"/>
<line x1="151" y1="305.5" x2="626" y2="305.5" stroke="white"/>
<rect x="309" y="17" width="17" height="17" rx="8.5" fill="#4285F4"/>
<rect x="422" y="17" width="17" height="17" rx="8.5" fill="#EA4335"/>
</svg>
