<svg width="656" height="384" viewBox="0 0 656 384" fill="none" xmlns="http://www.w3.org/2000/svg">
<rect width="656" height="384" fill="white"/>
<path d="M148.5 54.5V304.5" stroke="#333333" stroke-miterlimit="10"/>
<path d="M208.5 54.5V304.5" stroke="#CCCCCC" stroke-miterlimit="10"/>
<path d="M267.5 54.5V304.5" stroke="#CCCCCC" stroke-miterlimit="10"/>
<path d="M327.5 54.5V304.5" stroke="#CCCCCC" stroke-miterlimit="10"/>
<path d="M386.5 54.5V304.5" stroke="#CCCCCC" stroke-miterlimit="10"/>
<path d="M445.5 54.5V304.5" stroke="#CCCCCC" stroke-miterlimit="10"/>
<path d="M505.5 54.5V304.5" stroke="#CCCCCC" stroke-miterlimit="10"/>
<path d="M564.5 54.5V304.5" stroke="#CCCCCC" stroke-miterlimit="10"/>
<path d="M624.5 54.5V304.5" stroke="#CCCCCC" stroke-miterlimit="10"/>
<path d="M163.5 54.5V304.5" stroke="#E6E6E6" stroke-miterlimit="10"/>
<path d="M178.5 54.5V304.5" stroke="#E6E6E6" stroke-miterlimit="10"/>
<path d="M193.5 54.5V304.5" stroke="#E6E6E6" stroke-miterlimit="10"/>
<path d="M222.5 54.5V304.5" stroke="#E6E6E6" stroke-miterlimit="10"/>
<path d="M237.5 54.5V304.5" stroke="#E6E6E6" stroke-miterlimit="10"/>
<path d="M252.5 54.5V304.5" stroke="#E6E6E6" stroke-miterlimit="10"/>
<path d="M282.5 54.5V304.5" stroke="#E6E6E6" stroke-miterlimit="10"/>
<path d="M297.5 54.5V304.5" stroke="#E6E6E6" stroke-miterlimit="10"/>
<path d="M312.5 54.5V304.5" stroke="#E6E6E6" stroke-miterlimit="10"/>
<path d="M341.5 54.5V304.5" stroke="#E6E6E6" stroke-miterlimit="10"/>
<path d="M356.5 54.5V304.5" stroke="#E6E6E6" stroke-miterlimit="10"/>
<path d="M371.5 54.5V304.5" stroke="#E6E6E6" stroke-miterlimit="10"/>
<path d="M401.5 54.5V304.5" stroke="#E6E6E6" stroke-miterlimit="10"/>
<path d="M416.5 54.5V304.5" stroke="#E6E6E6" stroke-miterlimit="10"/>
<path d="M431.5 54.5V304.5" stroke="#E6E6E6" stroke-miterlimit="10"/>
<path d="M460.5 54.5V304.5" stroke="#E6E6E6" stroke-miterlimit="10"/>
<path d="M475.5 54.5V304.5" stroke="#E6E6E6" stroke-miterlimit="10"/>
<path d="M490.5 54.5V304.5" stroke="#E6E6E6" stroke-miterlimit="10"/>
<path d="M520.5 54.5V304.5" stroke="#E6E6E6" stroke-miterlimit="10"/>
<path d="M535.5 54.5V304.5" stroke="#E6E6E6" stroke-miterlimit="10"/>
<path d="M550.5 54.5V304.5" stroke="#E6E6E6" stroke-miterlimit="10"/>
<path d="M579.5 54.5V304.5" stroke="#E6E6E6" stroke-miterlimit="10"/>
<path d="M594.5 54.5V304.5" stroke="#E6E6E6" stroke-miterlimit="10"/>
<path d="M609.5 54.5V304.5" stroke="#E6E6E6" stroke-miterlimit="10"/>
<path d="M624.5 304.5H148.5" stroke="black" stroke-miterlimit="10"/>
<mask id="mask0_301_139" style="mask-type:luminance" maskUnits="userSpaceOnUse" x="148" y="54" width="477" height="251">
<path d="M148.55 54.9166H624.45V304.45H148.55V54.9166Z" fill="white"/>
</mask>
<g mask="url(#mask0_301_139)">
<path d="M149 93V76H611C612.105 76 613 76.8954 613 78V91C613 92.1046 612.105 93 611 93H149Z" fill="#4285F4"/>
</g>
<mask id="mask1_301_139" style="mask-type:luminance" maskUnits="userSpaceOnUse" x="148" y="54" width="477" height="251">
<path d="M148.55 54.9166H624.45V304.45H148.55V54.9166Z" fill="white"/>
</mask>
<g mask="url(#mask1_301_139)">
<path d="M149 150V133H503C504.105 133 505 133.895 505 135V148C505 149.105 504.105 150 503 150H149Z" fill="#4285F4"/>
</g>
<mask id="mask2_301_139" style="mask-type:luminance" maskUnits="userSpaceOnUse" x="148" y="54" width="477" height="251">
<path d="M148.55 54.9166H624.45V304.45H148.55V54.9166Z" fill="white"/>
</mask>
<g mask="url(#mask2_301_139)">
<path d="M149 207V190H307C308.105 190 309 190.895 309 192V205C309 206.105 308.105 207 307 207H149Z" fill="#4285F4"/>
</g>
<mask id="mask3_301_139" style="mask-type:luminance" maskUnits="userSpaceOnUse" x="148" y="54" width="477" height="251">
<path d="M148.55 54.9166H624.45V304.45H148.55V54.9166Z" fill="white"/>
</mask>
<g mask="url(#mask3_301_139)">
<path d="M149 265V248H206C207.105 248 208 248.895 208 250V263C208 264.105 207.105 265 206 265H149Z" fill="#4285F4"/>
</g>
<mask id="mask4_301_139" style="mask-type:luminance" maskUnits="userSpaceOnUse" x="148" y="54" width="477" height="251">
<path d="M148.55 54.9166H624.45V304.45H148.55V54.9166Z" fill="white"/>
</mask>
<g mask="url(#mask4_301_139)">
<path d="M149 112V95H551C552.105 95 553 95.8954 553 97V110C553 111.105 552.105 112 551 112H149Z" fill="#EA4335"/>
</g>
<mask id="mask5_301_139" style="mask-type:luminance" maskUnits="userSpaceOnUse" x="148" y="54" width="477" height="251">
<path d="M148.55 54.9166H624.45V304.45H148.55V54.9166Z" fill="white"/>
</mask>
<g mask="url(#mask5_301_139)">
<path d="M149 169V152H468C469.105 152 470 152.895 470 154V167C470 168.105 469.105 169 468 169H149Z" fill="#EA4335"/>
</g>
<mask id="mask6_301_139" style="mask-type:luminance" maskUnits="userSpaceOnUse" x="148" y="54" width="477" height="251">
<path d="M148.55 54.9166H624.45V304.45H148.55V54.9166Z" fill="white"/>
</mask>
<g mask="url(#mask6_301_139)">
<path d="M149 226V209H319C320.105 209 321 209.895 321 211V224C321 225.105 320.105 226 319 226H149Z" fill="#EA4335"/>
</g>
<mask id="mask7_301_139" style="mask-type:luminance" maskUnits="userSpaceOnUse" x="149" y="54" width="476" height="251">
<path d="M149 54.9166H624.9V304.45H149V54.9166Z" fill="white"/>
</mask>
<g mask="url(#mask7_301_139)">
<path d="M148.45 284V267H205.45C206.555 267 207.45 267.895 207.45 269V282C207.45 283.105 206.555 284 205.45 284H148.45Z" fill="#EA4335"/>
</g>
<path d="M148.5 310.5V298.5" stroke="black" stroke-miterlimit="10"/>
<path d="M208.5 310.5V298.5" stroke="black" stroke-miterlimit="10"/>
<path d="M267.5 310.5V298.5" stroke="black" stroke-miterlimit="10"/>
<path d="M327.5 310.5V298.5" stroke="black" stroke-miterlimit="10"/>
<path d="M386.5 310.5V298.5" stroke="black" stroke-miterlimit="10"/>
<path d="M445.5 310.5V298.5" stroke="black" stroke-miterlimit="10"/>
<path d="M505.5 310.5V298.5" stroke="black" stroke-miterlimit="10"/>
<path d="M564.5 310.5V298.5" stroke="black" stroke-miterlimit="10"/>
<path d="M624.5 310.5V298.5" stroke="black" stroke-miterlimit="10"/>
<path d="M145.55 323.216C145.55 322.195 145.654 321.377 145.862 320.762C146.071 320.137 146.378 319.658 146.784 319.325C147.201 318.992 147.722 318.825 148.347 318.825C148.805 318.825 149.206 318.919 149.55 319.106C149.904 319.294 150.196 319.565 150.425 319.919C150.654 320.262 150.831 320.684 150.956 321.184C151.081 321.684 151.144 322.361 151.144 323.216C151.144 324.226 151.04 325.038 150.831 325.653C150.633 326.268 150.326 326.747 149.909 327.091C149.503 327.424 148.982 327.591 148.347 327.591C147.524 327.591 146.873 327.294 146.394 326.7C145.831 325.992 145.55 324.83 145.55 323.216ZM146.628 323.216C146.628 324.622 146.795 325.559 147.128 326.028C147.461 326.497 147.868 326.731 148.347 326.731C148.836 326.731 149.243 326.497 149.566 326.028C149.899 325.559 150.066 324.622 150.066 323.216C150.066 321.799 149.899 320.861 149.566 320.403C149.243 319.934 148.831 319.7 148.331 319.7C147.852 319.7 147.467 319.903 147.175 320.309C146.81 320.83 146.628 321.799 146.628 323.216Z" fill="black"/>
<path d="M209.006 327.45H207.959V320.731C207.699 320.971 207.36 321.216 206.944 321.466C206.537 321.705 206.173 321.882 205.85 321.997V320.981C206.433 320.7 206.944 320.367 207.381 319.981C207.829 319.585 208.147 319.2 208.334 318.825H209.006V327.45Z" fill="black"/>
<path d="M270.072 326.434V327.45H264.384C264.384 327.2 264.426 326.955 264.509 326.716C264.655 326.33 264.884 325.95 265.197 325.575C265.52 325.2 265.983 324.768 266.588 324.278C267.525 323.507 268.155 322.898 268.478 322.45C268.811 322.002 268.978 321.58 268.978 321.184C268.978 320.768 268.827 320.419 268.525 320.137C268.223 319.846 267.832 319.7 267.353 319.7C266.843 319.7 266.436 319.851 266.134 320.153C265.832 320.455 265.676 320.877 265.666 321.419L264.588 321.309C264.66 320.497 264.936 319.882 265.416 319.466C265.905 319.038 266.561 318.825 267.384 318.825C268.207 318.825 268.858 319.054 269.338 319.512C269.817 319.971 270.056 320.538 270.056 321.216C270.056 321.559 269.983 321.898 269.838 322.231C269.702 322.554 269.468 322.903 269.134 323.278C268.811 323.643 268.275 324.143 267.525 324.778C266.89 325.309 266.478 325.674 266.291 325.872C266.114 326.059 265.968 326.247 265.853 326.434H270.072Z" fill="black"/>
<path d="M324.012 325.184L325.075 325.044C325.19 325.637 325.393 326.07 325.684 326.341C325.976 326.601 326.33 326.731 326.747 326.731C327.247 326.731 327.669 326.559 328.012 326.216C328.356 325.872 328.528 325.445 328.528 324.934C328.528 324.455 328.367 324.059 328.044 323.747C327.731 323.424 327.33 323.262 326.841 323.262C326.643 323.262 326.393 323.304 326.091 323.387L326.216 322.45C326.288 322.46 326.346 322.466 326.387 322.466C326.835 322.466 327.236 322.351 327.591 322.122C327.955 321.882 328.137 321.518 328.137 321.028C328.137 320.643 328.007 320.325 327.747 320.075C327.486 319.815 327.148 319.684 326.731 319.684C326.325 319.684 325.981 319.815 325.7 320.075C325.429 320.335 325.257 320.721 325.184 321.231L324.122 321.044C324.247 320.346 324.538 319.804 324.997 319.419C325.455 319.023 326.023 318.825 326.7 318.825C327.169 318.825 327.601 318.929 327.997 319.137C328.393 319.335 328.695 319.606 328.903 319.95C329.111 320.294 329.216 320.663 329.216 321.059C329.216 321.424 329.117 321.762 328.919 322.075C328.721 322.377 328.429 322.617 328.044 322.794C328.544 322.908 328.934 323.153 329.216 323.528C329.497 323.893 329.637 324.356 329.637 324.919C329.637 325.669 329.361 326.304 328.809 326.825C328.268 327.346 327.58 327.606 326.747 327.606C325.997 327.606 325.372 327.382 324.872 326.934C324.372 326.476 324.085 325.893 324.012 325.184Z" fill="black"/>
<path d="M386.875 327.45V325.387H383.156V324.419L387.078 318.856H387.938V324.419H389.094V325.387H387.938V327.45H386.875ZM386.875 324.419V320.559L384.188 324.419H386.875Z" fill="black"/>
<path d="M442.988 325.2L444.097 325.106C444.18 325.648 444.368 326.054 444.659 326.325C444.962 326.596 445.326 326.731 445.753 326.731C446.253 326.731 446.68 326.538 447.034 326.153C447.389 325.768 447.566 325.262 447.566 324.637C447.566 324.033 447.394 323.559 447.05 323.216C446.717 322.861 446.274 322.684 445.722 322.684C445.389 322.684 445.081 322.762 444.8 322.919C444.529 323.075 444.316 323.273 444.159 323.512L443.175 323.387L444.003 318.981H448.284V319.981H444.847L444.394 322.294C444.904 321.929 445.441 321.747 446.003 321.747C446.753 321.747 447.383 322.007 447.894 322.528C448.415 323.049 448.675 323.721 448.675 324.544C448.675 325.315 448.451 325.986 448.003 326.559C447.451 327.247 446.701 327.591 445.753 327.591C444.972 327.591 444.331 327.372 443.831 326.934C443.342 326.497 443.06 325.919 442.988 325.2Z" fill="black"/>
<path d="M507.944 320.966L506.897 321.044C506.803 320.627 506.673 320.325 506.506 320.137C506.215 319.835 505.86 319.684 505.444 319.684C505.11 319.684 504.814 319.778 504.553 319.966C504.23 320.216 503.97 320.575 503.772 321.044C503.584 321.502 503.485 322.158 503.475 323.012C503.725 322.627 504.032 322.341 504.397 322.153C504.772 321.966 505.162 321.872 505.569 321.872C506.267 321.872 506.86 322.132 507.35 322.653C507.85 323.174 508.1 323.841 508.1 324.653C508.1 325.195 507.98 325.7 507.741 326.169C507.511 326.627 507.194 326.981 506.787 327.231C506.381 327.471 505.923 327.591 505.412 327.591C504.527 327.591 503.808 327.268 503.256 326.622C502.704 325.976 502.428 324.913 502.428 323.434C502.428 321.768 502.735 320.559 503.35 319.809C503.881 319.153 504.6 318.825 505.506 318.825C506.183 318.825 506.735 319.018 507.162 319.403C507.6 319.778 507.86 320.299 507.944 320.966ZM503.647 324.669C503.647 325.033 503.72 325.382 503.866 325.716C504.022 326.038 504.235 326.288 504.506 326.466C504.787 326.643 505.084 326.731 505.397 326.731C505.834 326.731 506.215 326.554 506.537 326.2C506.86 325.835 507.022 325.346 507.022 324.731C507.022 324.137 506.86 323.669 506.537 323.325C506.225 322.981 505.829 322.809 505.35 322.809C504.871 322.809 504.465 322.981 504.131 323.325C503.808 323.669 503.647 324.117 503.647 324.669Z" fill="black"/>
<path d="M562.025 319.981V318.966H567.588V319.794C567.046 320.377 566.504 321.153 565.963 322.122C565.431 323.08 565.02 324.07 564.728 325.091C564.509 325.809 564.374 326.596 564.322 327.45H563.228C563.239 326.773 563.369 325.955 563.619 324.997C563.879 324.038 564.244 323.117 564.713 322.231C565.192 321.346 565.702 320.596 566.244 319.981H562.025Z" fill="black"/>
<path d="M623.075 322.794C622.637 322.627 622.309 322.398 622.091 322.106C621.882 321.804 621.778 321.45 621.778 321.044C621.778 320.419 622.002 319.893 622.45 319.466C622.908 319.038 623.507 318.825 624.247 318.825C624.997 318.825 625.601 319.044 626.059 319.481C626.518 319.919 626.747 320.45 626.747 321.075C626.747 321.471 626.643 321.815 626.434 322.106C626.226 322.398 625.908 322.627 625.481 322.794C626.012 322.96 626.413 323.236 626.684 323.622C626.955 324.007 627.091 324.466 627.091 324.997C627.091 325.726 626.83 326.341 626.309 326.841C625.799 327.341 625.117 327.591 624.262 327.591C623.419 327.591 622.736 327.341 622.216 326.841C621.695 326.341 621.434 325.716 621.434 324.966C621.434 324.403 621.575 323.934 621.856 323.559C622.148 323.184 622.554 322.929 623.075 322.794ZM622.856 320.997C622.856 321.403 622.986 321.736 623.247 321.997C623.518 322.257 623.861 322.387 624.278 322.387C624.684 322.387 625.018 322.262 625.278 322.012C625.538 321.752 625.669 321.434 625.669 321.059C625.669 320.674 625.533 320.351 625.262 320.091C624.992 319.82 624.658 319.684 624.262 319.684C623.856 319.684 623.518 319.815 623.247 320.075C622.986 320.335 622.856 320.643 622.856 320.997ZM622.528 324.966C622.528 325.268 622.596 325.559 622.731 325.841C622.877 326.122 623.091 326.341 623.372 326.497C623.653 326.653 623.955 326.731 624.278 326.731C624.778 326.731 625.19 326.57 625.512 326.247C625.846 325.924 626.012 325.512 626.012 325.012C626.012 324.502 625.846 324.08 625.512 323.747C625.179 323.413 624.757 323.247 624.247 323.247C623.747 323.247 623.335 323.413 623.012 323.747C622.69 324.07 622.528 324.476 622.528 324.966Z" fill="black"/>
<path d="M278.106 345.241H280.193L283.284 354.337L286.353 345.241H288.418V356H287.034V349.65C287.034 349.43 287.039 349.066 287.049 348.559C287.059 348.051 287.063 347.506 287.063 346.925L283.995 356H282.552L279.461 346.925V347.255C279.461 347.519 279.466 347.921 279.476 348.463C279.49 349 279.498 349.396 279.498 349.65V356H278.106V345.241ZM290.462 348.192H291.802V356H290.462V348.192ZM290.462 345.241H291.802V346.735H290.462V345.241ZM293.838 345.241H295.157V356H293.838V345.241ZM297.178 345.241H298.497V356H297.178V345.241ZM300.481 348.192H301.822V356H300.481V348.192ZM300.481 345.241H301.822V346.735H300.481V345.241ZM306.934 355.15C307.808 355.15 308.406 354.821 308.729 354.162C309.056 353.498 309.219 352.76 309.219 351.95C309.219 351.217 309.102 350.622 308.868 350.163C308.497 349.44 307.857 349.079 306.949 349.079C306.143 349.079 305.557 349.386 305.191 350.001C304.825 350.617 304.642 351.359 304.642 352.228C304.642 353.063 304.825 353.759 305.191 354.315C305.557 354.872 306.138 355.15 306.934 355.15ZM306.985 347.929C307.996 347.929 308.851 348.266 309.549 348.939C310.247 349.613 310.596 350.604 310.596 351.913C310.596 353.178 310.289 354.223 309.673 355.048C309.058 355.873 308.104 356.286 306.81 356.286C305.73 356.286 304.874 355.922 304.239 355.194C303.604 354.462 303.287 353.48 303.287 352.25C303.287 350.932 303.621 349.882 304.29 349.101C304.959 348.319 305.857 347.929 306.985 347.929ZM312.171 348.156H313.423V349.269C313.794 348.81 314.188 348.48 314.603 348.28C315.018 348.08 315.479 347.98 315.987 347.98C317.1 347.98 317.852 348.368 318.243 349.145C318.458 349.569 318.565 350.177 318.565 350.968V356H317.225V351.056C317.225 350.578 317.154 350.192 317.012 349.899C316.778 349.411 316.353 349.167 315.738 349.167C315.425 349.167 315.169 349.198 314.969 349.262C314.607 349.369 314.29 349.584 314.017 349.906C313.797 350.165 313.653 350.434 313.584 350.712C313.521 350.985 313.489 351.378 313.489 351.891V356H312.171V348.156ZM321.304 353.539C321.343 353.979 321.453 354.315 321.634 354.55C321.966 354.975 322.542 355.187 323.362 355.187C323.851 355.187 324.28 355.082 324.651 354.872C325.022 354.657 325.208 354.328 325.208 353.883C325.208 353.546 325.059 353.29 324.761 353.114C324.571 353.007 324.195 352.882 323.633 352.741L322.586 352.477C321.917 352.311 321.424 352.125 321.106 351.92C320.54 351.564 320.257 351.071 320.257 350.441C320.257 349.699 320.523 349.098 321.055 348.639C321.592 348.18 322.312 347.951 323.216 347.951C324.397 347.951 325.25 348.297 325.772 348.991C326.099 349.43 326.258 349.904 326.248 350.412H325.003C324.979 350.114 324.874 349.843 324.688 349.599C324.385 349.252 323.86 349.079 323.113 349.079C322.615 349.079 322.237 349.174 321.978 349.364C321.724 349.555 321.597 349.806 321.597 350.119C321.597 350.46 321.766 350.734 322.103 350.939C322.298 351.061 322.586 351.168 322.967 351.261L323.838 351.474C324.786 351.703 325.42 351.925 325.743 352.14C326.255 352.477 326.512 353.007 326.512 353.729C326.512 354.428 326.246 355.031 325.713 355.539C325.186 356.046 324.38 356.3 323.296 356.3C322.129 356.3 321.302 356.037 320.813 355.509C320.33 354.977 320.071 354.32 320.037 353.539H321.304ZM335.308 355.15C336.182 355.15 336.78 354.821 337.103 354.162C337.43 353.498 337.593 352.76 337.593 351.95C337.593 351.217 337.476 350.622 337.242 350.163C336.871 349.44 336.231 349.079 335.323 349.079C334.517 349.079 333.931 349.386 333.565 350.001C333.199 350.617 333.016 351.359 333.016 352.228C333.016 353.063 333.199 353.759 333.565 354.315C333.931 354.872 334.512 355.15 335.308 355.15ZM335.359 347.929C336.37 347.929 337.225 348.266 337.923 348.939C338.621 349.613 338.97 350.604 338.97 351.913C338.97 353.178 338.663 354.223 338.047 355.048C337.432 355.873 336.478 356.286 335.184 356.286C334.104 356.286 333.248 355.922 332.613 355.194C331.978 354.462 331.661 353.48 331.661 352.25C331.661 350.932 331.995 349.882 332.664 349.101C333.333 348.319 334.231 347.929 335.359 347.929ZM340.875 346.962C340.894 346.415 340.989 346.015 341.16 345.761C341.468 345.312 342.061 345.087 342.94 345.087C343.023 345.087 343.108 345.089 343.196 345.094C343.284 345.099 343.384 345.106 343.497 345.116V346.317C343.36 346.308 343.26 346.303 343.196 346.303C343.138 346.298 343.082 346.295 343.028 346.295C342.627 346.295 342.388 346.4 342.31 346.61C342.232 346.815 342.193 347.343 342.193 348.192H343.497V349.232H342.178V356H340.875V349.232H339.783V348.192H340.875V346.962ZM352.007 355.15C352.881 355.15 353.479 354.821 353.802 354.162C354.129 353.498 354.292 352.76 354.292 351.95C354.292 351.217 354.175 350.622 353.941 350.163C353.57 349.44 352.93 349.079 352.022 349.079C351.216 349.079 350.63 349.386 350.264 350.001C349.898 350.617 349.715 351.359 349.715 352.228C349.715 353.063 349.898 353.759 350.264 354.315C350.63 354.872 351.211 355.15 352.007 355.15ZM352.059 347.929C353.069 347.929 353.924 348.266 354.622 348.939C355.32 349.613 355.669 350.604 355.669 351.913C355.669 353.178 355.362 354.223 354.747 355.048C354.131 355.873 353.177 356.286 351.883 356.286C350.804 356.286 349.947 355.922 349.312 355.194C348.677 354.462 348.36 353.48 348.36 352.25C348.36 350.932 348.694 349.882 349.363 349.101C350.032 348.319 350.931 347.929 352.059 347.929ZM360.555 355.114C361.17 355.114 361.68 354.857 362.085 354.345C362.496 353.827 362.701 353.056 362.701 352.03C362.701 351.405 362.61 350.868 362.43 350.419C362.088 349.555 361.463 349.123 360.555 349.123C359.642 349.123 359.017 349.579 358.68 350.492C358.499 350.98 358.409 351.601 358.409 352.353C358.409 352.958 358.499 353.473 358.68 353.898C359.021 354.708 359.646 355.114 360.555 355.114ZM357.142 348.192H358.423V349.232C358.687 348.876 358.975 348.6 359.288 348.405C359.732 348.112 360.254 347.965 360.855 347.965C361.744 347.965 362.498 348.307 363.118 348.991C363.738 349.669 364.048 350.641 364.048 351.906C364.048 353.615 363.602 354.835 362.708 355.568C362.142 356.032 361.482 356.264 360.73 356.264C360.14 356.264 359.644 356.134 359.244 355.875C359.009 355.729 358.748 355.478 358.46 355.121V359.127H357.142V348.192ZM368.86 347.98C369.417 347.98 369.957 348.112 370.479 348.375C371.001 348.634 371.399 348.971 371.673 349.386C371.937 349.782 372.112 350.243 372.2 350.771C372.278 351.132 372.317 351.708 372.317 352.499H366.568C366.592 353.295 366.78 353.935 367.132 354.418C367.483 354.896 368.028 355.136 368.765 355.136C369.454 355.136 370.003 354.909 370.413 354.455C370.647 354.191 370.813 353.886 370.911 353.539H372.208C372.173 353.827 372.059 354.149 371.863 354.506C371.673 354.857 371.458 355.146 371.219 355.37C370.818 355.761 370.323 356.024 369.732 356.161C369.415 356.239 369.056 356.278 368.655 356.278C367.679 356.278 366.851 355.924 366.172 355.216C365.494 354.503 365.154 353.507 365.154 352.228C365.154 350.968 365.496 349.945 366.18 349.159C366.863 348.373 367.757 347.98 368.86 347.98ZM370.962 351.452C370.909 350.88 370.784 350.424 370.589 350.082C370.228 349.447 369.625 349.13 368.78 349.13C368.174 349.13 367.667 349.35 367.256 349.789C366.846 350.224 366.629 350.778 366.604 351.452H370.962ZM373.98 348.156H375.232V349.511C375.335 349.247 375.586 348.927 375.987 348.551C376.387 348.17 376.849 347.98 377.371 347.98C377.396 347.98 377.437 347.982 377.496 347.987C377.554 347.992 377.654 348.002 377.796 348.017V349.408C377.718 349.394 377.645 349.384 377.576 349.379C377.513 349.374 377.442 349.372 377.364 349.372C376.7 349.372 376.189 349.586 375.833 350.016C375.477 350.441 375.298 350.932 375.298 351.488V356H373.98V348.156ZM379.949 353.913C379.949 354.293 380.088 354.594 380.367 354.813C380.645 355.033 380.975 355.143 381.355 355.143C381.819 355.143 382.269 355.036 382.703 354.821C383.436 354.464 383.802 353.881 383.802 353.07V352.008C383.641 352.111 383.433 352.196 383.179 352.265C382.925 352.333 382.676 352.382 382.432 352.411L381.634 352.514C381.155 352.577 380.796 352.677 380.557 352.814C380.152 353.043 379.949 353.41 379.949 353.913ZM383.143 351.247C383.445 351.208 383.648 351.081 383.75 350.866C383.809 350.749 383.838 350.58 383.838 350.36C383.838 349.911 383.677 349.586 383.355 349.386C383.038 349.181 382.581 349.079 381.985 349.079C381.297 349.079 380.809 349.264 380.521 349.635C380.359 349.84 380.254 350.146 380.206 350.551H378.975C379 349.584 379.312 348.913 379.913 348.537C380.518 348.156 381.219 347.965 382.015 347.965C382.938 347.965 383.687 348.141 384.263 348.493C384.834 348.844 385.12 349.391 385.12 350.133V354.652C385.12 354.789 385.147 354.899 385.201 354.982C385.259 355.065 385.379 355.106 385.56 355.106C385.618 355.106 385.684 355.104 385.757 355.099C385.831 355.089 385.909 355.077 385.992 355.062V356.037C385.787 356.095 385.63 356.132 385.523 356.146C385.416 356.161 385.269 356.168 385.083 356.168C384.629 356.168 384.3 356.007 384.095 355.685C383.987 355.514 383.912 355.272 383.868 354.96C383.599 355.312 383.213 355.617 382.71 355.875C382.208 356.134 381.653 356.264 381.048 356.264C380.32 356.264 379.725 356.044 379.261 355.604C378.802 355.16 378.572 354.606 378.572 353.942C378.572 353.214 378.799 352.65 379.253 352.25C379.708 351.85 380.303 351.603 381.041 351.51L383.143 351.247ZM387.552 345.966H388.885V348.156H390.137V349.232H388.885V354.352C388.885 354.625 388.978 354.809 389.163 354.901C389.266 354.955 389.437 354.982 389.676 354.982C389.739 354.982 389.808 354.982 389.881 354.982C389.954 354.977 390.04 354.97 390.137 354.96V356C389.986 356.044 389.827 356.076 389.661 356.095C389.5 356.115 389.324 356.125 389.134 356.125C388.519 356.125 388.101 355.968 387.881 355.656C387.662 355.338 387.552 354.928 387.552 354.425V349.232H386.49V348.156H387.552V345.966ZM391.463 348.192H392.803V356H391.463V348.192ZM391.463 345.241H392.803V346.735H391.463V345.241ZM397.916 355.15C398.79 355.15 399.388 354.821 399.71 354.162C400.037 353.498 400.201 352.76 400.201 351.95C400.201 351.217 400.083 350.622 399.849 350.163C399.478 349.44 398.838 349.079 397.93 349.079C397.125 349.079 396.539 349.386 396.172 350.001C395.806 350.617 395.623 351.359 395.623 352.228C395.623 353.063 395.806 353.759 396.172 354.315C396.539 354.872 397.12 355.15 397.916 355.15ZM397.967 347.929C398.978 347.929 399.832 348.266 400.53 348.939C401.229 349.613 401.578 350.604 401.578 351.913C401.578 353.178 401.27 354.223 400.655 355.048C400.04 355.873 399.085 356.286 397.791 356.286C396.712 356.286 395.855 355.922 395.22 355.194C394.585 354.462 394.268 353.48 394.268 352.25C394.268 350.932 394.603 349.882 395.271 349.101C395.94 348.319 396.839 347.929 397.967 347.929ZM403.152 348.156H404.405V349.269C404.776 348.81 405.169 348.48 405.584 348.28C405.999 348.08 406.46 347.98 406.968 347.98C408.082 347.98 408.833 348.368 409.224 349.145C409.439 349.569 409.546 350.177 409.546 350.968V356H408.206V351.056C408.206 350.578 408.135 350.192 407.994 349.899C407.759 349.411 407.334 349.167 406.719 349.167C406.407 349.167 406.15 349.198 405.95 349.262C405.589 349.369 405.271 349.584 404.998 349.906C404.778 350.165 404.634 350.434 404.566 350.712C404.502 350.985 404.471 351.378 404.471 351.891V356H403.152V348.156ZM412.286 353.539C412.325 353.979 412.435 354.315 412.615 354.55C412.947 354.975 413.523 355.187 414.344 355.187C414.832 355.187 415.262 355.082 415.633 354.872C416.004 354.657 416.189 354.328 416.189 353.883C416.189 353.546 416.041 353.29 415.743 353.114C415.552 353.007 415.176 352.882 414.615 352.741L413.567 352.477C412.898 352.311 412.405 352.125 412.088 351.92C411.521 351.564 411.238 351.071 411.238 350.441C411.238 349.699 411.504 349.098 412.037 348.639C412.574 348.18 413.294 347.951 414.197 347.951C415.379 347.951 416.231 348.297 416.753 348.991C417.081 349.43 417.239 349.904 417.229 350.412H415.984C415.96 350.114 415.855 349.843 415.669 349.599C415.367 349.252 414.842 349.079 414.095 349.079C413.597 349.079 413.218 349.174 412.959 349.364C412.706 349.555 412.579 349.806 412.579 350.119C412.579 350.46 412.747 350.734 413.084 350.939C413.279 351.061 413.567 351.168 413.948 351.261L414.82 351.474C415.767 351.703 416.402 351.925 416.724 352.14C417.237 352.477 417.493 353.007 417.493 353.729C417.493 354.428 417.227 355.031 416.695 355.539C416.167 356.046 415.362 356.3 414.278 356.3C413.111 356.3 412.283 356.037 411.795 355.509C411.312 354.977 411.053 354.32 411.019 353.539H412.286ZM426.487 355.114C427.103 355.114 427.613 354.857 428.018 354.345C428.428 353.827 428.633 353.056 428.633 352.03C428.633 351.405 428.543 350.868 428.362 350.419C428.021 349.555 427.396 349.123 426.487 349.123C425.574 349.123 424.949 349.579 424.612 350.492C424.432 350.98 424.341 351.601 424.341 352.353C424.341 352.958 424.432 353.473 424.612 353.898C424.954 354.708 425.579 355.114 426.487 355.114ZM423.074 348.192H424.356V349.232C424.62 348.876 424.908 348.6 425.22 348.405C425.665 348.112 426.187 347.965 426.788 347.965C427.676 347.965 428.431 348.307 429.051 348.991C429.671 349.669 429.981 350.641 429.981 351.906C429.981 353.615 429.534 354.835 428.641 355.568C428.074 356.032 427.415 356.264 426.663 356.264C426.072 356.264 425.577 356.134 425.176 355.875C424.942 355.729 424.681 355.478 424.393 355.121V359.127H423.074V348.192ZM434.793 347.98C435.35 347.98 435.889 348.112 436.412 348.375C436.934 348.634 437.332 348.971 437.605 349.386C437.869 349.782 438.045 350.243 438.133 350.771C438.211 351.132 438.25 351.708 438.25 352.499H432.5C432.525 353.295 432.713 353.935 433.064 354.418C433.416 354.896 433.96 355.136 434.698 355.136C435.386 355.136 435.936 354.909 436.346 354.455C436.58 354.191 436.746 353.886 436.844 353.539H438.14C438.106 353.827 437.991 354.149 437.796 354.506C437.605 354.857 437.391 355.146 437.151 355.37C436.751 355.761 436.255 356.024 435.665 356.161C435.347 356.239 434.988 356.278 434.588 356.278C433.611 356.278 432.784 355.924 432.105 355.216C431.426 354.503 431.087 353.507 431.087 352.228C431.087 350.968 431.429 349.945 432.112 349.159C432.796 348.373 433.689 347.98 434.793 347.98ZM436.895 351.452C436.841 350.88 436.717 350.424 436.521 350.082C436.16 349.447 435.557 349.13 434.712 349.13C434.107 349.13 433.599 349.35 433.189 349.789C432.779 350.224 432.562 350.778 432.537 351.452H436.895ZM439.913 348.156H441.165V349.511C441.268 349.247 441.519 348.927 441.919 348.551C442.32 348.17 442.781 347.98 443.304 347.98C443.328 347.98 443.37 347.982 443.428 347.987C443.487 347.992 443.587 348.002 443.729 348.017V349.408C443.65 349.394 443.577 349.384 443.509 349.379C443.445 349.374 443.375 349.372 443.296 349.372C442.632 349.372 442.122 349.586 441.766 350.016C441.409 350.441 441.231 350.932 441.231 351.488V356H439.913V348.156ZM449.83 353.539C449.869 353.979 449.979 354.315 450.159 354.55C450.491 354.975 451.067 355.187 451.888 355.187C452.376 355.187 452.806 355.082 453.177 354.872C453.548 354.657 453.733 354.328 453.733 353.883C453.733 353.546 453.584 353.29 453.287 353.114C453.096 353.007 452.72 352.882 452.159 352.741L451.111 352.477C450.442 352.311 449.949 352.125 449.632 351.92C449.065 351.564 448.782 351.071 448.782 350.441C448.782 349.699 449.048 349.098 449.581 348.639C450.118 348.18 450.838 347.951 451.741 347.951C452.923 347.951 453.775 348.297 454.297 348.991C454.625 349.43 454.783 349.904 454.773 350.412H453.528C453.504 350.114 453.399 349.843 453.213 349.599C452.911 349.252 452.386 349.079 451.639 349.079C451.141 349.079 450.762 349.174 450.503 349.364C450.25 349.555 450.123 349.806 450.123 350.119C450.123 350.46 450.291 350.734 450.628 350.939C450.823 351.061 451.111 351.168 451.492 351.261L452.364 351.474C453.311 351.703 453.946 351.925 454.268 352.14C454.781 352.477 455.037 353.007 455.037 353.729C455.037 354.428 454.771 355.031 454.239 355.539C453.711 356.046 452.906 356.3 451.822 356.3C450.655 356.3 449.827 356.037 449.339 355.509C448.855 354.977 448.597 354.32 448.562 353.539H449.83ZM459.812 347.98C460.369 347.98 460.909 348.112 461.431 348.375C461.954 348.634 462.352 348.971 462.625 349.386C462.889 349.782 463.064 350.243 463.152 350.771C463.23 351.132 463.27 351.708 463.27 352.499H457.52C457.544 353.295 457.732 353.935 458.084 354.418C458.436 354.896 458.98 355.136 459.717 355.136C460.406 355.136 460.955 354.909 461.365 354.455C461.6 354.191 461.766 353.886 461.863 353.539H463.16C463.125 353.827 463.011 354.149 462.815 354.506C462.625 354.857 462.41 355.146 462.171 355.37C461.771 355.761 461.275 356.024 460.684 356.161C460.367 356.239 460.008 356.278 459.607 356.278C458.631 356.278 457.803 355.924 457.125 355.216C456.446 354.503 456.106 353.507 456.106 352.228C456.106 350.968 456.448 349.945 457.132 349.159C457.815 348.373 458.709 347.98 459.812 347.98ZM461.915 351.452C461.861 350.88 461.736 350.424 461.541 350.082C461.18 349.447 460.577 349.13 459.732 349.13C459.126 349.13 458.619 349.35 458.208 349.789C457.798 350.224 457.581 350.778 457.557 351.452H461.915ZM467.92 347.929C468.804 347.929 469.522 348.144 470.074 348.573C470.63 349.003 470.965 349.743 471.077 350.792H469.795C469.717 350.309 469.539 349.909 469.261 349.591C468.982 349.269 468.536 349.108 467.92 349.108C467.081 349.108 466.48 349.518 466.119 350.338C465.884 350.871 465.767 351.527 465.767 352.309C465.767 353.095 465.933 353.756 466.265 354.293C466.597 354.831 467.12 355.099 467.833 355.099C468.379 355.099 468.812 354.933 469.129 354.601C469.451 354.264 469.673 353.805 469.795 353.224H471.077C470.931 354.264 470.564 355.026 469.979 355.509C469.393 355.988 468.643 356.227 467.73 356.227C466.705 356.227 465.887 355.854 465.276 355.106C464.666 354.354 464.361 353.417 464.361 352.294C464.361 350.917 464.695 349.845 465.364 349.079C466.033 348.312 466.885 347.929 467.92 347.929ZM475.508 355.15C476.382 355.15 476.98 354.821 477.303 354.162C477.63 353.498 477.793 352.76 477.793 351.95C477.793 351.217 477.676 350.622 477.442 350.163C477.071 349.44 476.431 349.079 475.523 349.079C474.717 349.079 474.131 349.386 473.765 350.001C473.399 350.617 473.216 351.359 473.216 352.228C473.216 353.063 473.399 353.759 473.765 354.315C474.131 354.872 474.712 355.15 475.508 355.15ZM475.56 347.929C476.57 347.929 477.425 348.266 478.123 348.939C478.821 349.613 479.17 350.604 479.17 351.913C479.17 353.178 478.863 354.223 478.248 355.048C477.632 355.873 476.678 356.286 475.384 356.286C474.305 356.286 473.448 355.922 472.813 355.194C472.178 354.462 471.861 353.48 471.861 352.25C471.861 350.932 472.195 349.882 472.864 349.101C473.533 348.319 474.432 347.929 475.56 347.929ZM480.745 348.156H481.998V349.269C482.369 348.81 482.762 348.48 483.177 348.28C483.592 348.08 484.053 347.98 484.561 347.98C485.674 347.98 486.426 348.368 486.817 349.145C487.032 349.569 487.139 350.177 487.139 350.968V356H485.799V351.056C485.799 350.578 485.728 350.192 485.586 349.899C485.352 349.411 484.927 349.167 484.312 349.167C484 349.167 483.743 349.198 483.543 349.262C483.182 349.369 482.864 349.584 482.591 349.906C482.371 350.165 482.227 350.434 482.159 350.712C482.095 350.985 482.063 351.378 482.063 351.891V356H480.745V348.156ZM489.93 352.169C489.93 353.009 490.108 353.712 490.464 354.279C490.821 354.845 491.392 355.128 492.178 355.128C492.789 355.128 493.289 354.867 493.68 354.345C494.075 353.817 494.273 353.063 494.273 352.082C494.273 351.09 494.07 350.358 493.665 349.884C493.26 349.406 492.759 349.167 492.164 349.167C491.5 349.167 490.96 349.42 490.545 349.928C490.135 350.436 489.93 351.183 489.93 352.169ZM491.915 348.017C492.515 348.017 493.018 348.144 493.423 348.397C493.658 348.544 493.924 348.8 494.222 349.167V345.204H495.489V356H494.302V354.909C493.995 355.392 493.631 355.741 493.211 355.956C492.791 356.171 492.31 356.278 491.768 356.278C490.894 356.278 490.137 355.912 489.498 355.18C488.858 354.442 488.538 353.463 488.538 352.243C488.538 351.1 488.829 350.111 489.41 349.276C489.996 348.437 490.831 348.017 491.915 348.017Z" fill="black"/>
<path d="M244 28C244 27.4477 244.448 27 245 27H255C255.552 27 256 27.4477 256 28V38C256 38.5523 255.552 39 255 39H245C244.448 39 244 38.5523 244 38V28Z" fill="#4285F4"/>
<path d="M407 28C407 27.4477 407.448 27 408 27H418C418.552 27 419 27.4477 419 28V38C419 38.5523 418.552 39 418 39H408C407.448 39 407 38.5523 407 38V28Z" fill="#EA4335"/>
<path d="M265.143 27.2407H266.6V36.7183H272.049V38H265.143V27.2407ZM276.429 37.1504C277.303 37.1504 277.901 36.8208 278.224 36.1616C278.551 35.4976 278.714 34.7603 278.714 33.9497C278.714 33.2173 278.597 32.6216 278.363 32.1626C277.992 31.4399 277.352 31.0786 276.444 31.0786C275.638 31.0786 275.052 31.3862 274.686 32.0015C274.32 32.6167 274.137 33.3589 274.137 34.228C274.137 35.063 274.32 35.7588 274.686 36.3154C275.052 36.8721 275.633 37.1504 276.429 37.1504ZM276.48 29.9287C277.491 29.9287 278.346 30.2656 279.044 30.9395C279.742 31.6133 280.091 32.6045 280.091 33.9131C280.091 35.1777 279.784 36.2227 279.168 37.0479C278.553 37.873 277.599 38.2856 276.305 38.2856C275.226 38.2856 274.369 37.9219 273.734 37.1943C273.099 36.4619 272.782 35.4805 272.782 34.25C272.782 32.9316 273.116 31.8818 273.785 31.1006C274.454 30.3193 275.353 29.9287 276.48 29.9287ZM284.779 37.1504C285.653 37.1504 286.251 36.8208 286.573 36.1616C286.9 35.4976 287.064 34.7603 287.064 33.9497C287.064 33.2173 286.947 32.6216 286.712 32.1626C286.341 31.4399 285.702 31.0786 284.793 31.0786C283.988 31.0786 283.402 31.3862 283.036 32.0015C282.669 32.6167 282.486 33.3589 282.486 34.228C282.486 35.063 282.669 35.7588 283.036 36.3154C283.402 36.8721 283.983 37.1504 284.779 37.1504ZM284.83 29.9287C285.841 29.9287 286.695 30.2656 287.394 30.9395C288.092 31.6133 288.441 32.6045 288.441 33.9131C288.441 35.1777 288.133 36.2227 287.518 37.0479C286.903 37.873 285.948 38.2856 284.654 38.2856C283.575 38.2856 282.718 37.9219 282.083 37.1943C281.449 36.4619 281.131 35.4805 281.131 34.25C281.131 32.9316 281.466 31.8818 282.135 31.1006C282.804 30.3193 283.702 29.9287 284.83 29.9287ZM290.799 35.5391C290.838 35.9785 290.948 36.3154 291.129 36.5498C291.461 36.9746 292.037 37.187 292.857 37.187C293.346 37.187 293.775 37.082 294.146 36.8721C294.518 36.6572 294.703 36.3276 294.703 35.8833C294.703 35.5464 294.554 35.29 294.256 35.1143C294.066 35.0068 293.69 34.8823 293.128 34.7407L292.081 34.4771C291.412 34.311 290.919 34.1255 290.602 33.9204C290.035 33.564 289.752 33.0708 289.752 32.4409C289.752 31.6987 290.018 31.0981 290.55 30.6392C291.087 30.1802 291.808 29.9507 292.711 29.9507C293.893 29.9507 294.745 30.2974 295.267 30.9907C295.594 31.4302 295.753 31.9038 295.743 32.4116H294.498C294.474 32.1138 294.369 31.8428 294.183 31.5986C293.88 31.252 293.355 31.0786 292.608 31.0786C292.11 31.0786 291.732 31.1738 291.473 31.3643C291.219 31.5547 291.092 31.8062 291.092 32.1187C291.092 32.4604 291.261 32.7339 291.598 32.939C291.793 33.061 292.081 33.1685 292.462 33.2612L293.333 33.4736C294.281 33.7031 294.916 33.9253 295.238 34.1401C295.75 34.4771 296.007 35.0068 296.007 35.7295C296.007 36.4277 295.741 37.0308 295.208 37.5386C294.681 38.0464 293.875 38.3003 292.792 38.3003C291.625 38.3003 290.797 38.0366 290.309 37.5093C289.825 36.9771 289.566 36.3203 289.532 35.5391H290.799ZM300.782 29.98C301.339 29.98 301.878 30.1118 302.401 30.3755C302.923 30.6343 303.321 30.9712 303.595 31.3862C303.858 31.7817 304.034 32.2432 304.122 32.7705C304.2 33.1318 304.239 33.708 304.239 34.499H298.49C298.514 35.2949 298.702 35.9346 299.054 36.418C299.405 36.8965 299.95 37.1357 300.687 37.1357C301.375 37.1357 301.925 36.9087 302.335 36.4546C302.569 36.1909 302.735 35.8857 302.833 35.5391H304.129C304.095 35.8271 303.98 36.1494 303.785 36.5059C303.595 36.8574 303.38 37.1455 303.141 37.3701C302.74 37.7607 302.245 38.0244 301.654 38.1611C301.336 38.2393 300.978 38.2783 300.577 38.2783C299.601 38.2783 298.773 37.9243 298.094 37.2163C297.416 36.5034 297.076 35.5073 297.076 34.228C297.076 32.9683 297.418 31.9453 298.102 31.1592C298.785 30.373 299.679 29.98 300.782 29.98ZM302.884 33.4517C302.831 32.8804 302.706 32.4238 302.511 32.082C302.149 31.4473 301.546 31.1299 300.702 31.1299C300.096 31.1299 299.588 31.3496 299.178 31.7891C298.768 32.2236 298.551 32.7778 298.526 33.4517H302.884ZM310.685 30.1558L312.779 36.5425L314.969 30.1558H316.412L313.453 38H312.047L309.154 30.1558H310.685ZM318.551 35.9126C318.551 36.2935 318.69 36.5938 318.968 36.8135C319.247 37.0332 319.576 37.1431 319.957 37.1431C320.421 37.1431 320.87 37.0356 321.305 36.8208C322.037 36.4644 322.403 35.8809 322.403 35.0703V34.0083C322.242 34.1108 322.035 34.1963 321.781 34.2646C321.527 34.333 321.278 34.3818 321.034 34.4111L320.235 34.5137C319.757 34.5771 319.398 34.6772 319.159 34.814C318.753 35.0435 318.551 35.4097 318.551 35.9126ZM321.744 33.2466C322.047 33.2075 322.25 33.0806 322.352 32.8657C322.411 32.7485 322.44 32.5801 322.44 32.3604C322.44 31.9111 322.279 31.5864 321.957 31.3862C321.639 31.1812 321.183 31.0786 320.587 31.0786C319.898 31.0786 319.41 31.2642 319.122 31.6353C318.961 31.8403 318.856 32.1455 318.807 32.5508H317.577C317.601 31.584 317.914 30.9126 318.514 30.5366C319.12 30.1558 319.82 29.9653 320.616 29.9653C321.539 29.9653 322.289 30.1411 322.865 30.4927C323.436 30.8442 323.722 31.3911 323.722 32.1333V36.6523C323.722 36.7891 323.749 36.8989 323.802 36.9819C323.861 37.0649 323.98 37.1064 324.161 37.1064C324.22 37.1064 324.286 37.104 324.359 37.0991C324.432 37.0894 324.51 37.0771 324.593 37.0625V38.0366C324.388 38.0952 324.232 38.1318 324.125 38.1465C324.017 38.1611 323.871 38.1685 323.685 38.1685C323.231 38.1685 322.901 38.0073 322.696 37.6851C322.589 37.5142 322.513 37.2725 322.469 36.96C322.201 37.3115 321.815 37.6167 321.312 37.8755C320.809 38.1343 320.255 38.2637 319.649 38.2637C318.922 38.2637 318.326 38.0439 317.862 37.6045C317.403 37.1602 317.174 36.606 317.174 35.9419C317.174 35.2144 317.401 34.6504 317.855 34.25C318.309 33.8496 318.905 33.603 319.642 33.5103L321.744 33.2466ZM325.926 27.2407H327.245V38H325.926V27.2407ZM329.229 30.1924H330.57V38H329.229V30.1924ZM329.229 27.2407H330.57V28.7349H329.229V27.2407ZM333.404 34.1694C333.404 35.0093 333.583 35.7124 333.939 36.2788C334.295 36.8452 334.867 37.1284 335.653 37.1284C336.263 37.1284 336.764 36.8672 337.154 36.3447C337.55 35.8174 337.748 35.063 337.748 34.0815C337.748 33.0903 337.545 32.3579 337.14 31.8843C336.734 31.4058 336.234 31.1665 335.638 31.1665C334.974 31.1665 334.435 31.4204 334.02 31.9282C333.609 32.436 333.404 33.1831 333.404 34.1694ZM335.389 30.0166C335.99 30.0166 336.493 30.1436 336.898 30.3975C337.132 30.5439 337.398 30.8003 337.696 31.1665V27.2041H338.963V38H337.777V36.9087C337.469 37.3921 337.105 37.7412 336.686 37.9561C336.266 38.1709 335.785 38.2783 335.243 38.2783C334.369 38.2783 333.612 37.9121 332.972 37.1797C332.333 36.4424 332.013 35.4634 332.013 34.2427C332.013 33.1001 332.303 32.1113 332.884 31.2764C333.47 30.4365 334.305 30.0166 335.389 30.0166ZM341.93 35.9126C341.93 36.2935 342.069 36.5938 342.347 36.8135C342.625 37.0332 342.955 37.1431 343.336 37.1431C343.8 37.1431 344.249 37.0356 344.684 36.8208C345.416 36.4644 345.782 35.8809 345.782 35.0703V34.0083C345.621 34.1108 345.414 34.1963 345.16 34.2646C344.906 34.333 344.657 34.3818 344.413 34.4111L343.614 34.5137C343.136 34.5771 342.777 34.6772 342.538 34.814C342.132 35.0435 341.93 35.4097 341.93 35.9126ZM345.123 33.2466C345.426 33.2075 345.628 33.0806 345.731 32.8657C345.79 32.7485 345.819 32.5801 345.819 32.3604C345.819 31.9111 345.658 31.5864 345.335 31.3862C345.018 31.1812 344.562 31.0786 343.966 31.0786C343.277 31.0786 342.789 31.2642 342.501 31.6353C342.34 31.8403 342.235 32.1455 342.186 32.5508H340.956C340.98 31.584 341.292 30.9126 341.893 30.5366C342.499 30.1558 343.199 29.9653 343.995 29.9653C344.918 29.9653 345.667 30.1411 346.244 30.4927C346.815 30.8442 347.101 31.3911 347.101 32.1333V36.6523C347.101 36.7891 347.127 36.8989 347.181 36.9819C347.24 37.0649 347.359 37.1064 347.54 37.1064C347.599 37.1064 347.665 37.104 347.738 37.0991C347.811 37.0894 347.889 37.0771 347.972 37.0625V38.0366C347.767 38.0952 347.611 38.1318 347.503 38.1465C347.396 38.1611 347.25 38.1685 347.064 38.1685C346.61 38.1685 346.28 38.0073 346.075 37.6851C345.968 37.5142 345.892 37.2725 345.848 36.96C345.58 37.3115 345.194 37.6167 344.691 37.8755C344.188 38.1343 343.634 38.2637 343.028 38.2637C342.301 38.2637 341.705 38.0439 341.241 37.6045C340.782 37.1602 340.553 36.606 340.553 35.9419C340.553 35.2144 340.78 34.6504 341.234 34.25C341.688 33.8496 342.284 33.603 343.021 33.5103L345.123 33.2466ZM349.532 27.9658H350.865V30.1558H352.118V31.2324H350.865V36.3521C350.865 36.6255 350.958 36.8086 351.144 36.9014C351.246 36.9551 351.417 36.9819 351.656 36.9819C351.72 36.9819 351.788 36.9819 351.861 36.9819C351.935 36.9771 352.02 36.9697 352.118 36.96V38C351.966 38.0439 351.808 38.0757 351.642 38.0952C351.48 38.1147 351.305 38.1245 351.114 38.1245C350.499 38.1245 350.082 37.9683 349.862 37.6558C349.642 37.3384 349.532 36.9282 349.532 36.4253V31.2324H348.47V30.1558H349.532V27.9658ZM353.443 30.1924H354.784V38H353.443V30.1924ZM353.443 27.2407H354.784V28.7349H353.443V27.2407ZM359.896 37.1504C360.77 37.1504 361.368 36.8208 361.69 36.1616C362.018 35.4976 362.181 34.7603 362.181 33.9497C362.181 33.2173 362.064 32.6216 361.83 32.1626C361.458 31.4399 360.819 31.0786 359.911 31.0786C359.105 31.0786 358.519 31.3862 358.153 32.0015C357.787 32.6167 357.604 33.3589 357.604 34.228C357.604 35.063 357.787 35.7588 358.153 36.3154C358.519 36.8721 359.1 37.1504 359.896 37.1504ZM359.947 29.9287C360.958 29.9287 361.812 30.2656 362.511 30.9395C363.209 31.6133 363.558 32.6045 363.558 33.9131C363.558 35.1777 363.25 36.2227 362.635 37.0479C362.02 37.873 361.065 38.2856 359.771 38.2856C358.692 38.2856 357.835 37.9219 357.201 37.1943C356.566 36.4619 356.249 35.4805 356.249 34.25C356.249 32.9316 356.583 31.8818 357.252 31.1006C357.921 30.3193 358.819 29.9287 359.947 29.9287ZM365.133 30.1558H366.385V31.269C366.756 30.8101 367.149 30.4805 367.564 30.2803C367.979 30.0801 368.441 29.98 368.949 29.98C370.062 29.98 370.814 30.3682 371.205 31.1445C371.419 31.5693 371.527 32.1772 371.527 32.9683V38H370.187V33.0562C370.187 32.5776 370.116 32.1919 369.974 31.8989C369.74 31.4106 369.315 31.1665 368.7 31.1665C368.387 31.1665 368.131 31.1982 367.931 31.2617C367.569 31.3691 367.252 31.584 366.979 31.9062C366.759 32.165 366.615 32.4336 366.546 32.7119C366.483 32.9854 366.451 33.3784 366.451 33.8911V38H365.133V30.1558Z" fill="black"/>
<path d="M429.095 34.5283C429.129 35.1387 429.273 35.6343 429.527 36.0151C430.01 36.728 430.862 37.0845 432.083 37.0845C432.63 37.0845 433.128 37.0063 433.577 36.8501C434.446 36.5474 434.881 36.0054 434.881 35.2241C434.881 34.6382 434.698 34.2207 434.332 33.9717C433.96 33.7275 433.379 33.5151 432.588 33.3345L431.131 33.0049C430.179 32.79 429.505 32.5532 429.109 32.2944C428.426 31.8452 428.084 31.1738 428.084 30.2803C428.084 29.3135 428.418 28.52 429.087 27.8999C429.756 27.2798 430.704 26.9697 431.929 26.9697C433.057 26.9697 434.014 27.2432 434.8 27.79C435.591 28.332 435.987 29.2012 435.987 30.3975H434.617C434.544 29.8213 434.388 29.3794 434.148 29.0718C433.704 28.5103 432.95 28.2295 431.885 28.2295C431.026 28.2295 430.408 28.4102 430.032 28.7715C429.656 29.1328 429.468 29.5527 429.468 30.0312C429.468 30.5586 429.688 30.9443 430.127 31.1885C430.416 31.3447 431.067 31.54 432.083 31.7744L433.592 32.1187C434.319 32.2847 434.881 32.5117 435.276 32.7998C435.96 33.3027 436.302 34.0327 436.302 34.9897C436.302 36.1812 435.867 37.0332 434.998 37.5459C434.134 38.0586 433.128 38.3149 431.98 38.3149C430.643 38.3149 429.595 37.9731 428.838 37.2896C428.082 36.6108 427.71 35.6904 427.725 34.5283H429.095ZM438.235 27.9658H439.568V30.1558H440.821V31.2324H439.568V36.3521C439.568 36.6255 439.661 36.8086 439.847 36.9014C439.949 36.9551 440.12 36.9819 440.359 36.9819C440.423 36.9819 440.491 36.9819 440.564 36.9819C440.638 36.9771 440.723 36.9697 440.821 36.96V38C440.669 38.0439 440.511 38.0757 440.345 38.0952C440.184 38.1147 440.008 38.1245 439.817 38.1245C439.202 38.1245 438.785 37.9683 438.565 37.6558C438.345 37.3384 438.235 36.9282 438.235 36.4253V31.2324H437.173V30.1558H438.235V27.9658ZM442.183 30.1558H443.436V31.5107C443.538 31.2471 443.79 30.9272 444.19 30.5513C444.59 30.1704 445.052 29.98 445.574 29.98C445.599 29.98 445.64 29.9824 445.699 29.9873C445.757 29.9922 445.857 30.002 445.999 30.0166V31.4082C445.921 31.3936 445.848 31.3838 445.779 31.3789C445.716 31.374 445.645 31.3716 445.567 31.3716C444.903 31.3716 444.393 31.5864 444.036 32.0161C443.68 32.4409 443.501 32.9316 443.501 33.4883V38H442.183V30.1558ZM447.142 30.1924H448.482V38H447.142V30.1924ZM447.142 27.2407H448.482V28.7349H447.142V27.2407ZM453.506 29.9287C454.39 29.9287 455.108 30.1436 455.66 30.5732C456.216 31.0029 456.551 31.7427 456.663 32.7925H455.381C455.303 32.3091 455.125 31.9087 454.847 31.5913C454.568 31.269 454.122 31.1079 453.506 31.1079C452.667 31.1079 452.066 31.5181 451.705 32.3384C451.47 32.8706 451.353 33.5273 451.353 34.3086C451.353 35.0947 451.519 35.7563 451.851 36.2935C452.183 36.8306 452.706 37.0991 453.418 37.0991C453.965 37.0991 454.397 36.9331 454.715 36.6011C455.037 36.2642 455.259 35.8052 455.381 35.2241H456.663C456.517 36.2642 456.15 37.0259 455.564 37.5093C454.979 37.9878 454.229 38.2271 453.316 38.2271C452.291 38.2271 451.473 37.8535 450.862 37.1064C450.252 36.3545 449.947 35.417 449.947 34.2939C449.947 32.917 450.281 31.8452 450.95 31.0786C451.619 30.312 452.471 29.9287 453.506 29.9287ZM458.245 27.9658H459.578V30.1558H460.831V31.2324H459.578V36.3521C459.578 36.6255 459.671 36.8086 459.856 36.9014C459.959 36.9551 460.13 36.9819 460.369 36.9819C460.433 36.9819 460.501 36.9819 460.574 36.9819C460.647 36.9771 460.733 36.9697 460.831 36.96V38C460.679 38.0439 460.521 38.0757 460.354 38.0952C460.193 38.1147 460.018 38.1245 459.827 38.1245C459.212 38.1245 458.794 37.9683 458.575 37.6558C458.355 37.3384 458.245 36.9282 458.245 36.4253V31.2324H457.183V30.1558H458.245V27.9658ZM466.976 30.1558L469.07 36.5425L471.26 30.1558H472.703L469.744 38H468.338L465.445 30.1558H466.976ZM474.842 35.9126C474.842 36.2935 474.981 36.5938 475.259 36.8135C475.538 37.0332 475.867 37.1431 476.248 37.1431C476.712 37.1431 477.161 37.0356 477.596 36.8208C478.328 36.4644 478.694 35.8809 478.694 35.0703V34.0083C478.533 34.1108 478.326 34.1963 478.072 34.2646C477.818 34.333 477.569 34.3818 477.325 34.4111L476.526 34.5137C476.048 34.5771 475.689 34.6772 475.45 34.814C475.044 35.0435 474.842 35.4097 474.842 35.9126ZM478.035 33.2466C478.338 33.2075 478.541 33.0806 478.643 32.8657C478.702 32.7485 478.731 32.5801 478.731 32.3604C478.731 31.9111 478.57 31.5864 478.248 31.3862C477.93 31.1812 477.474 31.0786 476.878 31.0786C476.189 31.0786 475.701 31.2642 475.413 31.6353C475.252 31.8403 475.147 32.1455 475.098 32.5508H473.868C473.892 31.584 474.205 30.9126 474.805 30.5366C475.411 30.1558 476.111 29.9653 476.907 29.9653C477.83 29.9653 478.58 30.1411 479.156 30.4927C479.727 30.8442 480.013 31.3911 480.013 32.1333V36.6523C480.013 36.7891 480.04 36.8989 480.093 36.9819C480.152 37.0649 480.271 37.1064 480.452 37.1064C480.511 37.1064 480.577 37.104 480.65 37.0991C480.723 37.0894 480.801 37.0771 480.884 37.0625V38.0366C480.679 38.0952 480.523 38.1318 480.416 38.1465C480.308 38.1611 480.162 38.1685 479.976 38.1685C479.522 38.1685 479.192 38.0073 478.987 37.6851C478.88 37.5142 478.804 37.2725 478.76 36.96C478.492 37.3115 478.106 37.6167 477.603 37.8755C477.1 38.1343 476.546 38.2637 475.94 38.2637C475.213 38.2637 474.617 38.0439 474.153 37.6045C473.694 37.1602 473.465 36.606 473.465 35.9419C473.465 35.2144 473.692 34.6504 474.146 34.25C474.6 33.8496 475.196 33.603 475.933 33.5103L478.035 33.2466ZM482.217 27.2407H483.536V38H482.217V27.2407ZM485.521 30.1924H486.861V38H485.521V30.1924ZM485.521 27.2407H486.861V28.7349H485.521V27.2407ZM489.695 34.1694C489.695 35.0093 489.874 35.7124 490.23 36.2788C490.586 36.8452 491.158 37.1284 491.944 37.1284C492.554 37.1284 493.055 36.8672 493.445 36.3447C493.841 35.8174 494.039 35.063 494.039 34.0815C494.039 33.0903 493.836 32.3579 493.431 31.8843C493.025 31.4058 492.525 31.1665 491.929 31.1665C491.265 31.1665 490.726 31.4204 490.311 31.9282C489.9 32.436 489.695 33.1831 489.695 34.1694ZM491.68 30.0166C492.281 30.0166 492.784 30.1436 493.189 30.3975C493.423 30.5439 493.689 30.8003 493.987 31.1665V27.2041H495.254V38H494.068V36.9087C493.76 37.3921 493.396 37.7412 492.977 37.9561C492.557 38.1709 492.076 38.2783 491.534 38.2783C490.66 38.2783 489.903 37.9121 489.263 37.1797C488.624 36.4424 488.304 35.4634 488.304 34.2427C488.304 33.1001 488.594 32.1113 489.175 31.2764C489.761 30.4365 490.596 30.0166 491.68 30.0166ZM498.221 35.9126C498.221 36.2935 498.36 36.5938 498.638 36.8135C498.917 37.0332 499.246 37.1431 499.627 37.1431C500.091 37.1431 500.54 37.0356 500.975 36.8208C501.707 36.4644 502.073 35.8809 502.073 35.0703V34.0083C501.912 34.1108 501.705 34.1963 501.451 34.2646C501.197 34.333 500.948 34.3818 500.704 34.4111L499.905 34.5137C499.427 34.5771 499.068 34.6772 498.829 34.814C498.423 35.0435 498.221 35.4097 498.221 35.9126ZM501.414 33.2466C501.717 33.2075 501.919 33.0806 502.022 32.8657C502.081 32.7485 502.11 32.5801 502.11 32.3604C502.11 31.9111 501.949 31.5864 501.626 31.3862C501.309 31.1812 500.853 31.0786 500.257 31.0786C499.568 31.0786 499.08 31.2642 498.792 31.6353C498.631 31.8403 498.526 32.1455 498.477 32.5508H497.247C497.271 31.584 497.583 30.9126 498.184 30.5366C498.79 30.1558 499.49 29.9653 500.286 29.9653C501.209 29.9653 501.958 30.1411 502.535 30.4927C503.106 30.8442 503.392 31.3911 503.392 32.1333V36.6523C503.392 36.7891 503.418 36.8989 503.472 36.9819C503.531 37.0649 503.65 37.1064 503.831 37.1064C503.89 37.1064 503.956 37.104 504.029 37.0991C504.102 37.0894 504.18 37.0771 504.263 37.0625V38.0366C504.058 38.0952 503.902 38.1318 503.794 38.1465C503.687 38.1611 503.541 38.1685 503.355 38.1685C502.901 38.1685 502.571 38.0073 502.366 37.6851C502.259 37.5142 502.183 37.2725 502.139 36.96C501.871 37.3115 501.485 37.6167 500.982 37.8755C500.479 38.1343 499.925 38.2637 499.319 38.2637C498.592 38.2637 497.996 38.0439 497.532 37.6045C497.073 37.1602 496.844 36.606 496.844 35.9419C496.844 35.2144 497.071 34.6504 497.525 34.25C497.979 33.8496 498.575 33.603 499.312 33.5103L501.414 33.2466ZM505.823 27.9658H507.156V30.1558H508.409V31.2324H507.156V36.3521C507.156 36.6255 507.249 36.8086 507.435 36.9014C507.537 36.9551 507.708 36.9819 507.947 36.9819C508.011 36.9819 508.079 36.9819 508.152 36.9819C508.226 36.9771 508.311 36.9697 508.409 36.96V38C508.257 38.0439 508.099 38.0757 507.933 38.0952C507.771 38.1147 507.596 38.1245 507.405 38.1245C506.79 38.1245 506.373 37.9683 506.153 37.6558C505.933 37.3384 505.823 36.9282 505.823 36.4253V31.2324H504.761V30.1558H505.823V27.9658ZM509.734 30.1924H511.075V38H509.734V30.1924ZM509.734 27.2407H511.075V28.7349H509.734V27.2407ZM516.187 37.1504C517.061 37.1504 517.659 36.8208 517.981 36.1616C518.309 35.4976 518.472 34.7603 518.472 33.9497C518.472 33.2173 518.355 32.6216 518.121 32.1626C517.75 31.4399 517.11 31.0786 516.202 31.0786C515.396 31.0786 514.81 31.3862 514.444 32.0015C514.078 32.6167 513.895 33.3589 513.895 34.228C513.895 35.063 514.078 35.7588 514.444 36.3154C514.81 36.8721 515.391 37.1504 516.187 37.1504ZM516.238 29.9287C517.249 29.9287 518.104 30.2656 518.802 30.9395C519.5 31.6133 519.849 32.6045 519.849 33.9131C519.849 35.1777 519.542 36.2227 518.926 37.0479C518.311 37.873 517.356 38.2856 516.062 38.2856C514.983 38.2856 514.126 37.9219 513.492 37.1943C512.857 36.4619 512.54 35.4805 512.54 34.25C512.54 32.9316 512.874 31.8818 513.543 31.1006C514.212 30.3193 515.11 29.9287 516.238 29.9287ZM521.424 30.1558H522.676V31.269C523.047 30.8101 523.44 30.4805 523.855 30.2803C524.271 30.0801 524.732 29.98 525.24 29.98C526.353 29.98 527.105 30.3682 527.496 31.1445C527.71 31.5693 527.818 32.1772 527.818 32.9683V38H526.478V33.0562C526.478 32.5776 526.407 32.1919 526.265 31.8989C526.031 31.4106 525.606 31.1665 524.991 31.1665C524.678 31.1665 524.422 31.1982 524.222 31.2617C523.86 31.3691 523.543 31.584 523.27 31.9062C523.05 32.165 522.906 32.4336 522.837 32.7119C522.774 32.9854 522.742 33.3784 522.742 33.8911V38H521.424V30.1558Z" fill="black"/>
<path d="M41.2397 88.2188V99H39.2109V97.894C38.9131 98.3677 38.5737 98.7119 38.1929 98.9268C37.812 99.1416 37.3384 99.249 36.772 99.249C35.8394 99.249 35.0532 98.873 34.4136 98.1211C33.7788 97.3643 33.4614 96.395 33.4614 95.2134C33.4614 93.8511 33.7739 92.7793 34.3989 91.998C35.0288 91.2168 35.8687 90.8262 36.9185 90.8262C37.4019 90.8262 37.8315 90.9336 38.2075 91.1484C38.5835 91.3584 38.8887 91.6514 39.123 92.0273V88.2188H41.2397ZM35.6147 95.0596C35.6147 95.7969 35.7612 96.3853 36.0542 96.8247C36.3423 97.269 36.7817 97.4912 37.3726 97.4912C37.9634 97.4912 38.4126 97.2715 38.7202 96.832C39.0278 96.3926 39.1816 95.8237 39.1816 95.1255C39.1816 94.1489 38.9351 93.4507 38.4419 93.0308C38.1392 92.7769 37.7876 92.6499 37.3872 92.6499C36.7769 92.6499 36.3276 92.8818 36.0396 93.3457C35.7563 93.8047 35.6147 94.376 35.6147 95.0596ZM49.8018 92.0273C50.4756 92.8721 50.8125 93.8706 50.8125 95.0229C50.8125 96.1948 50.4756 97.1982 49.8018 98.0332C49.1279 98.8633 48.105 99.2783 46.7329 99.2783C45.3608 99.2783 44.3379 98.8633 43.6641 98.0332C42.9902 97.1982 42.6533 96.1948 42.6533 95.0229C42.6533 93.8706 42.9902 92.8721 43.6641 92.0273C44.3379 91.1826 45.3608 90.7603 46.7329 90.7603C48.105 90.7603 49.1279 91.1826 49.8018 92.0273ZM46.7256 92.5254C46.1152 92.5254 45.644 92.7427 45.312 93.1772C44.9849 93.6069 44.8213 94.2222 44.8213 95.0229C44.8213 95.8237 44.9849 96.4414 45.312 96.876C45.644 97.3105 46.1152 97.5278 46.7256 97.5278C47.3359 97.5278 47.8047 97.3105 48.1318 96.876C48.459 96.4414 48.6226 95.8237 48.6226 95.0229C48.6226 94.2222 48.459 93.6069 48.1318 93.1772C47.8047 92.7427 47.3359 92.5254 46.7256 92.5254ZM57.4336 97.8721C57.4141 97.8965 57.3652 97.9697 57.2871 98.0918C57.209 98.2139 57.1162 98.3213 57.0088 98.4141C56.6816 98.707 56.3643 98.9072 56.0566 99.0146C55.7539 99.1221 55.3975 99.1758 54.9873 99.1758C53.8057 99.1758 53.0098 98.751 52.5996 97.9014C52.3701 97.4326 52.2554 96.7417 52.2554 95.8286V91.0166H54.394V95.8286C54.394 96.2827 54.4478 96.6245 54.5552 96.854C54.7456 97.2593 55.1191 97.4619 55.6758 97.4619C56.3887 97.4619 56.877 97.1738 57.1406 96.5977C57.2773 96.2852 57.3457 95.8726 57.3457 95.3599V91.0166H59.4624V99H57.4336V97.8721ZM65.8198 99.2124C65.1606 99.2124 64.6309 99.0806 64.2305 98.8169C63.9912 98.6606 63.7324 98.3872 63.4541 97.9966V99H61.4106V88.2188H63.4907V92.0566C63.7544 91.6855 64.0449 91.4023 64.3623 91.207C64.7383 90.9629 65.2168 90.8408 65.7979 90.8408C66.8477 90.8408 67.668 91.2192 68.2588 91.9761C68.8545 92.7329 69.1523 93.7095 69.1523 94.9058C69.1523 96.146 68.8594 97.1738 68.2734 97.9893C67.6875 98.8047 66.8696 99.2124 65.8198 99.2124ZM66.9624 95.1255C66.9624 94.5591 66.8892 94.0903 66.7427 93.7192C66.4644 93.0161 65.9517 92.6646 65.2046 92.6646C64.4478 92.6646 63.9277 93.0088 63.6445 93.6973C63.498 94.0635 63.4248 94.5371 63.4248 95.1182C63.4248 95.8018 63.5762 96.3682 63.8789 96.8174C64.1816 97.2666 64.6431 97.4912 65.2632 97.4912C65.8003 97.4912 66.2178 97.2739 66.5156 96.8394C66.8135 96.4048 66.9624 95.8335 66.9624 95.1255ZM74.3086 97.5132V99.0732L73.3198 99.1099C72.3335 99.144 71.6597 98.9731 71.2983 98.5972C71.064 98.3579 70.9468 97.9893 70.9468 97.4912V92.5767H69.8335V91.0898H70.9468V88.8633H73.0122V91.0898H74.3086V92.5767H73.0122V96.7954C73.0122 97.1226 73.0537 97.3276 73.1367 97.4106C73.2197 97.4888 73.4736 97.5278 73.8984 97.5278C73.9619 97.5278 74.0278 97.5278 74.0962 97.5278C74.1694 97.5229 74.2402 97.5181 74.3086 97.5132ZM82.4824 96.6562C82.4287 97.1299 82.1821 97.6108 81.7427 98.0991C81.0591 98.8755 80.1021 99.2637 78.8716 99.2637C77.856 99.2637 76.96 98.9365 76.1836 98.2822C75.4072 97.6279 75.019 96.5635 75.019 95.0889C75.019 93.707 75.3682 92.6475 76.0664 91.9102C76.7695 91.1729 77.6802 90.8042 78.7983 90.8042C79.4624 90.8042 80.0605 90.9287 80.5928 91.1777C81.125 91.4268 81.5645 91.8198 81.9111 92.3569C82.2236 92.8306 82.4263 93.3799 82.519 94.0049C82.5728 94.3711 82.5947 94.8984 82.585 95.5869H77.1211C77.1504 96.3877 77.4019 96.9492 77.8755 97.2715C78.1636 97.4717 78.5103 97.5718 78.9155 97.5718C79.3452 97.5718 79.6943 97.4497 79.9629 97.2056C80.1094 97.0737 80.2388 96.8906 80.3511 96.6562H82.4824ZM80.417 94.21C80.3828 93.6582 80.2144 93.2407 79.9116 92.9575C79.6138 92.6694 79.2427 92.5254 78.7983 92.5254C78.3149 92.5254 77.939 92.6768 77.6704 92.9795C77.4067 93.2822 77.2407 93.6924 77.1724 94.21H80.417ZM88.0122 92.9429C87.1724 92.9429 86.6084 93.2163 86.3203 93.7632C86.1592 94.0708 86.0786 94.5444 86.0786 95.1841V99H83.9766V91.0166H85.9688V92.4082C86.291 91.876 86.5718 91.5122 86.811 91.3169C87.2017 90.9897 87.7095 90.8262 88.3345 90.8262C88.3735 90.8262 88.4053 90.8286 88.4297 90.8335C88.459 90.8335 88.52 90.8359 88.6128 90.8408V92.9795C88.481 92.9648 88.3638 92.9551 88.2612 92.9502C88.1587 92.9453 88.0757 92.9429 88.0122 92.9429ZM98.0171 92.4595C98.0171 92.1567 97.9146 91.8857 97.7095 91.6465C97.5093 91.4023 97.231 91.2803 96.8745 91.2803C96.3179 91.2803 95.8345 91.6099 95.4243 92.269C95.019 92.9233 94.8164 93.5752 94.8164 94.2246C94.8164 94.7031 94.9214 95.0693 95.1313 95.3232C95.3413 95.5723 95.605 95.6968 95.9224 95.6968C96.5815 95.6968 97.0942 95.3135 97.4604 94.5469C97.8315 93.7754 98.0171 93.0796 98.0171 92.4595ZM96.5596 99.3149C94.5186 99.3149 92.9463 98.6777 91.8428 97.4033C90.959 96.3828 90.5171 95.2036 90.5171 93.8657C90.5171 92.2739 91.0542 90.9214 92.1284 89.8081C93.3198 88.5679 94.9189 87.9478 96.9258 87.9478C98.6641 87.9478 100.031 88.3872 101.027 89.2661C101.96 90.0962 102.426 91.1729 102.426 92.4961C102.426 93.6094 102.092 94.5615 101.423 95.3525C100.759 96.1387 100.014 96.5317 99.189 96.5317C98.7056 96.5317 98.3491 96.417 98.1196 96.1875C97.8901 95.9531 97.7754 95.6724 97.7754 95.3452C97.7754 95.2915 97.7803 95.2354 97.79 95.1768C97.7998 95.1182 97.812 95.0571 97.8267 94.9937C97.5679 95.5552 97.2407 95.9531 96.8452 96.1875C96.4497 96.417 96.042 96.5317 95.6221 96.5317C95.0215 96.5317 94.5332 96.3145 94.1572 95.8799C93.7861 95.4453 93.6006 94.8862 93.6006 94.2026C93.6006 93.231 93.918 92.374 94.5527 91.6318C95.1924 90.8896 95.8784 90.5186 96.6108 90.5186C97.1089 90.5186 97.519 90.6626 97.8413 90.9507C98.1685 91.2388 98.3418 91.5854 98.3613 91.9907L98.7275 90.7603H99.8042L98.8301 93.9683C98.7568 94.2173 98.7031 94.4175 98.6689 94.5688C98.6348 94.7202 98.6177 94.8545 98.6177 94.9717C98.6177 95.1914 98.6836 95.3525 98.8154 95.4551C98.9521 95.5527 99.106 95.6016 99.2769 95.6016C99.8335 95.6016 100.332 95.311 100.771 94.73C101.215 94.1489 101.438 93.3896 101.438 92.4521C101.438 91.3193 101.042 90.4307 100.251 89.7861C99.46 89.1367 98.3955 88.812 97.0576 88.812C95.2021 88.812 93.7837 89.354 92.8022 90.438C91.9624 91.3608 91.5425 92.5205 91.5425 93.917C91.5425 95.1377 91.9429 96.1631 92.7437 96.9932C93.6812 97.9746 95.0166 98.4653 96.75 98.4653C97.5605 98.4653 98.3149 98.3384 99.0132 98.0845C99.7114 97.8257 100.351 97.479 100.932 97.0444L101.416 97.7036C100.976 98.0942 100.319 98.4604 99.4453 98.8022C98.5713 99.144 97.6094 99.3149 96.5596 99.3149ZM104.572 99C104.621 98.0967 104.807 97.3105 105.129 96.6416C105.456 95.9727 106.091 95.3647 107.033 94.8179L108.439 94.0049C109.069 93.6387 109.511 93.3262 109.765 93.0674C110.166 92.6621 110.366 92.1982 110.366 91.6758C110.366 91.0654 110.183 90.582 109.816 90.2256C109.45 89.8643 108.962 89.6836 108.352 89.6836C107.448 89.6836 106.823 90.0254 106.477 90.709C106.291 91.0752 106.188 91.583 106.169 92.2324H104.829C104.843 91.3193 105.012 90.5747 105.334 89.9985C105.905 88.9829 106.914 88.4751 108.359 88.4751C109.56 88.4751 110.437 88.7998 110.988 89.4492C111.545 90.0986 111.823 90.8213 111.823 91.6172C111.823 92.457 111.528 93.1748 110.937 93.7705C110.595 94.1172 109.982 94.5371 109.099 95.0303L108.095 95.5869C107.617 95.8506 107.241 96.1021 106.967 96.3413C106.479 96.7661 106.171 97.2373 106.044 97.7549H111.772V99H104.572ZM113.735 97.4033H115.266V99H113.735V97.4033ZM120.686 88.5117C122.043 88.5117 123.024 89.0708 123.63 90.189C124.099 91.0532 124.333 92.2373 124.333 93.7412C124.333 95.167 124.121 96.3462 123.696 97.2788C123.081 98.6167 122.075 99.2856 120.678 99.2856C119.418 99.2856 118.481 98.7388 117.866 97.645C117.353 96.7319 117.097 95.5063 117.097 93.9683C117.097 92.7769 117.25 91.7539 117.558 90.8994C118.134 89.3076 119.177 88.5117 120.686 88.5117ZM120.671 98.0845C121.354 98.0845 121.899 97.7817 122.304 97.1763C122.709 96.5708 122.912 95.4429 122.912 93.7925C122.912 92.6011 122.766 91.6221 122.473 90.8555C122.18 90.084 121.611 89.6982 120.766 89.6982C119.99 89.6982 119.421 90.0645 119.06 90.7969C118.703 91.5244 118.525 92.5986 118.525 94.0195C118.525 95.0889 118.64 95.9482 118.869 96.5977C119.221 97.5889 119.821 98.0845 120.671 98.0845ZM126.259 97.4033H127.79V99H126.259V97.4033ZM133.21 88.5117C134.567 88.5117 135.549 89.0708 136.154 90.189C136.623 91.0532 136.857 92.2373 136.857 93.7412C136.857 95.167 136.645 96.3462 136.22 97.2788C135.605 98.6167 134.599 99.2856 133.203 99.2856C131.943 99.2856 131.005 98.7388 130.39 97.645C129.877 96.7319 129.621 95.5063 129.621 93.9683C129.621 92.7769 129.775 91.7539 130.083 90.8994C130.659 89.3076 131.701 88.5117 133.21 88.5117ZM133.195 98.0845C133.879 98.0845 134.423 97.7817 134.829 97.1763C135.234 96.5708 135.437 95.4429 135.437 93.7925C135.437 92.6011 135.29 91.6221 134.997 90.8555C134.704 90.084 134.135 89.6982 133.291 89.6982C132.514 89.6982 131.945 90.0645 131.584 90.7969C131.228 91.5244 131.049 92.5986 131.049 94.0195C131.049 95.0889 131.164 95.9482 131.394 96.5977C131.745 97.5889 132.346 98.0845 133.195 98.0845Z" fill="black"/>
<path d="M50.1904 148.017H52.5342L54.1968 153.905L55.896 148.017H58.1372L55.2588 156H53.0542L50.1904 148.017ZM59.624 148.881C60.1758 148.178 61.123 147.826 62.4658 147.826C63.3398 147.826 64.1162 148 64.7949 148.346C65.4736 148.693 65.813 149.347 65.813 150.309V153.971C65.813 154.225 65.8179 154.533 65.8276 154.894C65.8423 155.167 65.8838 155.353 65.9521 155.451C66.0205 155.548 66.123 155.629 66.2598 155.692V156H63.9893C63.9258 155.839 63.8818 155.688 63.8574 155.546C63.833 155.404 63.8135 155.243 63.7988 155.062C63.5107 155.375 63.1787 155.641 62.8027 155.861C62.3535 156.12 61.8457 156.249 61.2793 156.249C60.5566 156.249 59.9585 156.044 59.4849 155.634C59.0161 155.219 58.7817 154.633 58.7817 153.876C58.7817 152.895 59.1602 152.184 59.917 151.745C60.332 151.505 60.9424 151.334 61.748 151.232L62.4585 151.144C62.8442 151.095 63.1201 151.034 63.2861 150.961C63.584 150.834 63.7329 150.636 63.7329 150.368C63.7329 150.041 63.6182 149.816 63.3887 149.694C63.1641 149.567 62.832 149.503 62.3926 149.503C61.8994 149.503 61.5503 149.625 61.3452 149.87C61.1987 150.05 61.1011 150.294 61.0522 150.602H59.0381C59.082 149.904 59.2773 149.33 59.624 148.881ZM61.1768 154.491C61.3721 154.652 61.6113 154.733 61.8945 154.733C62.3438 154.733 62.7563 154.601 63.1323 154.337C63.5132 154.074 63.7109 153.593 63.7256 152.895V152.118C63.5938 152.201 63.4595 152.27 63.3228 152.323C63.1909 152.372 63.0078 152.418 62.7734 152.462L62.3047 152.55C61.8652 152.628 61.5503 152.724 61.3599 152.836C61.0376 153.026 60.8765 153.322 60.8765 153.722C60.8765 154.079 60.9766 154.335 61.1768 154.491ZM67.7173 145.204H69.8047V156H67.7173V145.204ZM73.9941 148.017V156H71.8774V148.017H73.9941ZM73.9941 145.138V147.064H71.8774V145.138H73.9941ZM79.6777 154.513V156.073L78.689 156.11C77.7026 156.144 77.0288 155.973 76.6675 155.597C76.4331 155.358 76.3159 154.989 76.3159 154.491V149.577H75.2026V148.09H76.3159V145.863H78.3813V148.09H79.6777V149.577H78.3813V153.795C78.3813 154.123 78.4229 154.328 78.5059 154.411C78.5889 154.489 78.8428 154.528 79.2676 154.528C79.3311 154.528 79.397 154.528 79.4653 154.528C79.5386 154.523 79.6094 154.518 79.6777 154.513ZM81.3184 148.881C81.8701 148.178 82.8174 147.826 84.1602 147.826C85.0342 147.826 85.8105 148 86.4893 148.346C87.168 148.693 87.5073 149.347 87.5073 150.309V153.971C87.5073 154.225 87.5122 154.533 87.522 154.894C87.5366 155.167 87.5781 155.353 87.6465 155.451C87.7148 155.548 87.8174 155.629 87.9541 155.692V156H85.6836C85.6201 155.839 85.5762 155.688 85.5518 155.546C85.5273 155.404 85.5078 155.243 85.4932 155.062C85.2051 155.375 84.873 155.641 84.4971 155.861C84.0479 156.12 83.54 156.249 82.9736 156.249C82.251 156.249 81.6528 156.044 81.1792 155.634C80.7104 155.219 80.4761 154.633 80.4761 153.876C80.4761 152.895 80.8545 152.184 81.6113 151.745C82.0264 151.505 82.6367 151.334 83.4424 151.232L84.1528 151.144C84.5386 151.095 84.8145 151.034 84.9805 150.961C85.2783 150.834 85.4272 150.636 85.4272 150.368C85.4272 150.041 85.3125 149.816 85.083 149.694C84.8584 149.567 84.5264 149.503 84.0869 149.503C83.5938 149.503 83.2446 149.625 83.0396 149.87C82.8931 150.05 82.7954 150.294 82.7466 150.602H80.7324C80.7764 149.904 80.9717 149.33 81.3184 148.881ZM82.8711 154.491C83.0664 154.652 83.3057 154.733 83.5889 154.733C84.0381 154.733 84.4507 154.601 84.8267 154.337C85.2075 154.074 85.4053 153.593 85.4199 152.895V152.118C85.2881 152.201 85.1538 152.27 85.0171 152.323C84.8853 152.372 84.7021 152.418 84.4678 152.462L83.999 152.55C83.5596 152.628 83.2446 152.724 83.0542 152.836C82.7319 153.026 82.5708 153.322 82.5708 153.722C82.5708 154.079 82.6709 154.335 82.8711 154.491ZM97.5415 149.459C97.5415 149.157 97.439 148.886 97.2339 148.646C97.0337 148.402 96.7554 148.28 96.3989 148.28C95.8423 148.28 95.3589 148.61 94.9487 149.269C94.5435 149.923 94.3408 150.575 94.3408 151.225C94.3408 151.703 94.4458 152.069 94.6558 152.323C94.8657 152.572 95.1294 152.697 95.4468 152.697C96.106 152.697 96.6187 152.313 96.9849 151.547C97.356 150.775 97.5415 150.08 97.5415 149.459ZM96.084 156.315C94.043 156.315 92.4707 155.678 91.3672 154.403C90.4834 153.383 90.0415 152.204 90.0415 150.866C90.0415 149.274 90.5786 147.921 91.6528 146.808C92.8442 145.568 94.4434 144.948 96.4502 144.948C98.1885 144.948 99.5557 145.387 100.552 146.266C101.484 147.096 101.951 148.173 101.951 149.496C101.951 150.609 101.616 151.562 100.947 152.353C100.283 153.139 99.5386 153.532 98.7134 153.532C98.23 153.532 97.8735 153.417 97.644 153.188C97.4146 152.953 97.2998 152.672 97.2998 152.345C97.2998 152.292 97.3047 152.235 97.3145 152.177C97.3242 152.118 97.3364 152.057 97.3511 151.994C97.0923 152.555 96.7651 152.953 96.3696 153.188C95.9741 153.417 95.5664 153.532 95.1465 153.532C94.5459 153.532 94.0576 153.314 93.6816 152.88C93.3105 152.445 93.125 151.886 93.125 151.203C93.125 150.231 93.4424 149.374 94.0771 148.632C94.7168 147.89 95.4028 147.519 96.1353 147.519C96.6333 147.519 97.0435 147.663 97.3657 147.951C97.6929 148.239 97.8662 148.585 97.8857 148.991L98.252 147.76H99.3286L98.3545 150.968C98.2812 151.217 98.2275 151.417 98.1934 151.569C98.1592 151.72 98.1421 151.854 98.1421 151.972C98.1421 152.191 98.208 152.353 98.3398 152.455C98.4766 152.553 98.6304 152.602 98.8013 152.602C99.3579 152.602 99.856 152.311 100.295 151.73C100.74 151.149 100.962 150.39 100.962 149.452C100.962 148.319 100.566 147.431 99.7754 146.786C98.9844 146.137 97.9199 145.812 96.582 145.812C94.7266 145.812 93.3081 146.354 92.3267 147.438C91.4868 148.361 91.0669 149.521 91.0669 150.917C91.0669 152.138 91.4673 153.163 92.2681 153.993C93.2056 154.975 94.541 155.465 96.2744 155.465C97.085 155.465 97.8394 155.338 98.5376 155.084C99.2358 154.826 99.8755 154.479 100.457 154.044L100.94 154.704C100.5 155.094 99.8438 155.46 98.9697 155.802C98.0957 156.144 97.1338 156.315 96.084 156.315ZM107.686 145.512C109.043 145.512 110.024 146.071 110.63 147.189C111.099 148.053 111.333 149.237 111.333 150.741C111.333 152.167 111.121 153.346 110.696 154.279C110.081 155.617 109.075 156.286 107.678 156.286C106.418 156.286 105.481 155.739 104.866 154.645C104.353 153.732 104.097 152.506 104.097 150.968C104.097 149.777 104.25 148.754 104.558 147.899C105.134 146.308 106.177 145.512 107.686 145.512ZM107.671 155.084C108.354 155.084 108.899 154.782 109.304 154.176C109.709 153.571 109.912 152.443 109.912 150.792C109.912 149.601 109.766 148.622 109.473 147.855C109.18 147.084 108.611 146.698 107.766 146.698C106.99 146.698 106.421 147.064 106.06 147.797C105.703 148.524 105.525 149.599 105.525 151.02C105.525 152.089 105.64 152.948 105.869 153.598C106.221 154.589 106.821 155.084 107.671 155.084ZM113.259 154.403H114.79V156H113.259V154.403ZM117.588 148.573V147.562C118.54 147.47 119.204 147.316 119.58 147.101C119.956 146.881 120.237 146.366 120.422 145.556H121.462V156H120.056V148.573H117.588ZM125.784 154.403H127.314V156H125.784V154.403ZM130.669 153.466C130.708 154.193 130.989 154.696 131.511 154.975C131.78 155.121 132.083 155.194 132.419 155.194C133.049 155.194 133.586 154.933 134.031 154.411C134.475 153.883 134.79 152.816 134.976 151.21C134.683 151.674 134.319 152.001 133.884 152.191C133.455 152.377 132.991 152.47 132.493 152.47C131.482 152.47 130.681 152.155 130.09 151.525C129.504 150.895 129.211 150.084 129.211 149.093C129.211 148.141 129.502 147.304 130.083 146.581C130.664 145.858 131.521 145.497 132.654 145.497C134.182 145.497 135.237 146.186 135.818 147.562C136.14 148.319 136.301 149.267 136.301 150.404C136.301 151.688 136.108 152.826 135.723 153.817C135.083 155.468 133.999 156.293 132.471 156.293C131.445 156.293 130.667 156.024 130.134 155.487C129.602 154.95 129.336 154.276 129.336 153.466H130.669ZM132.668 151.312C133.191 151.312 133.667 151.142 134.097 150.8C134.531 150.453 134.749 149.85 134.749 148.991C134.749 148.219 134.553 147.646 134.163 147.27C133.777 146.889 133.284 146.698 132.683 146.698C132.039 146.698 131.526 146.916 131.145 147.35C130.769 147.78 130.581 148.356 130.581 149.079C130.581 149.762 130.747 150.307 131.079 150.712C131.411 151.112 131.941 151.312 132.668 151.312Z" fill="black"/>
<path d="M46.4565 207.214C46.2808 206.828 45.9365 206.635 45.4238 206.635C44.8281 206.635 44.4277 206.828 44.2227 207.214C44.1104 207.434 44.0542 207.761 44.0542 208.195V213H41.9375V205.031H43.9663V206.196C44.2251 205.781 44.4692 205.485 44.6987 205.31C45.104 204.997 45.6289 204.841 46.2734 204.841C46.8838 204.841 47.377 204.975 47.7529 205.244C48.0557 205.493 48.2852 205.812 48.4414 206.203C48.7148 205.734 49.0542 205.39 49.4595 205.17C49.8892 204.951 50.3677 204.841 50.895 204.841C51.2466 204.841 51.5933 204.909 51.9351 205.046C52.2769 205.183 52.5869 205.422 52.8652 205.764C53.0898 206.042 53.2412 206.384 53.3193 206.789C53.3682 207.058 53.3926 207.451 53.3926 207.968L53.3779 213H51.2393V207.917C51.2393 207.614 51.1904 207.365 51.0928 207.17C50.9072 206.799 50.5654 206.613 50.0674 206.613C49.4912 206.613 49.0933 206.853 48.8735 207.331C48.7612 207.585 48.7051 207.89 48.7051 208.247V213H46.603V208.247C46.603 207.773 46.5542 207.429 46.4565 207.214ZM58.5635 210.905L60.2114 205.017H62.4307L59.6914 212.868C59.1641 214.382 58.7466 215.319 58.439 215.681C58.1313 216.047 57.5161 216.23 56.5933 216.23C56.4077 216.23 56.2588 216.228 56.1465 216.223C56.0342 216.223 55.8657 216.215 55.6411 216.201V214.531L55.9048 214.545C56.1099 214.555 56.3052 214.548 56.4907 214.523C56.6763 214.499 56.8325 214.443 56.9595 214.355C57.0815 214.272 57.1938 214.099 57.2964 213.835C57.4038 213.571 57.4478 213.41 57.4282 213.352L54.4985 205.017H56.8203L58.5635 210.905ZM69.8281 213H62.936V211.374L67.0303 206.716H63.2144V205.017H69.689V206.752L65.6387 211.286H69.8281V213ZM77.8262 206.027C78.5 206.872 78.8369 207.871 78.8369 209.023C78.8369 210.195 78.5 211.198 77.8262 212.033C77.1523 212.863 76.1294 213.278 74.7573 213.278C73.3853 213.278 72.3623 212.863 71.6885 212.033C71.0146 211.198 70.6777 210.195 70.6777 209.023C70.6777 207.871 71.0146 206.872 71.6885 206.027C72.3623 205.183 73.3853 204.76 74.7573 204.76C76.1294 204.76 77.1523 205.183 77.8262 206.027ZM74.75 206.525C74.1396 206.525 73.6685 206.743 73.3364 207.177C73.0093 207.607 72.8457 208.222 72.8457 209.023C72.8457 209.824 73.0093 210.441 73.3364 210.876C73.6685 211.311 74.1396 211.528 74.75 211.528C75.3604 211.528 75.8291 211.311 76.1562 210.876C76.4834 210.441 76.647 209.824 76.647 209.023C76.647 208.222 76.4834 207.607 76.1562 207.177C75.8291 206.743 75.3604 206.525 74.75 206.525ZM87.604 202.219V213H85.5752V211.894C85.2773 212.368 84.938 212.712 84.5571 212.927C84.1763 213.142 83.7026 213.249 83.1362 213.249C82.2036 213.249 81.4175 212.873 80.7778 212.121C80.1431 211.364 79.8257 210.395 79.8257 209.213C79.8257 207.851 80.1382 206.779 80.7632 205.998C81.3931 205.217 82.2329 204.826 83.2827 204.826C83.7661 204.826 84.1958 204.934 84.5718 205.148C84.9478 205.358 85.2529 205.651 85.4873 206.027V202.219H87.604ZM81.979 209.06C81.979 209.797 82.1255 210.385 82.4185 210.825C82.7065 211.269 83.146 211.491 83.7368 211.491C84.3276 211.491 84.7769 211.271 85.0845 210.832C85.3921 210.393 85.5459 209.824 85.5459 209.125C85.5459 208.149 85.2993 207.451 84.8062 207.031C84.5034 206.777 84.1519 206.65 83.7515 206.65C83.1411 206.65 82.6919 206.882 82.4038 207.346C82.1206 207.805 81.979 208.376 81.979 209.06ZM97.6821 206.459C97.6821 206.157 97.5796 205.886 97.3745 205.646C97.1743 205.402 96.896 205.28 96.5396 205.28C95.9829 205.28 95.4995 205.61 95.0894 206.269C94.6841 206.923 94.4814 207.575 94.4814 208.225C94.4814 208.703 94.5864 209.069 94.7964 209.323C95.0063 209.572 95.27 209.697 95.5874 209.697C96.2466 209.697 96.7593 209.313 97.1255 208.547C97.4966 207.775 97.6821 207.08 97.6821 206.459ZM96.2246 213.315C94.1836 213.315 92.6113 212.678 91.5078 211.403C90.624 210.383 90.1821 209.204 90.1821 207.866C90.1821 206.274 90.7192 204.921 91.7935 203.808C92.9849 202.568 94.584 201.948 96.5908 201.948C98.3291 201.948 99.6963 202.387 100.692 203.266C101.625 204.096 102.091 205.173 102.091 206.496C102.091 207.609 101.757 208.562 101.088 209.353C100.424 210.139 99.6792 210.532 98.854 210.532C98.3706 210.532 98.0142 210.417 97.7847 210.188C97.5552 209.953 97.4404 209.672 97.4404 209.345C97.4404 209.292 97.4453 209.235 97.4551 209.177C97.4648 209.118 97.4771 209.057 97.4917 208.994C97.2329 209.555 96.9058 209.953 96.5103 210.188C96.1147 210.417 95.707 210.532 95.2871 210.532C94.6865 210.532 94.1982 210.314 93.8223 209.88C93.4512 209.445 93.2656 208.886 93.2656 208.203C93.2656 207.231 93.583 206.374 94.2178 205.632C94.8574 204.89 95.5435 204.519 96.2759 204.519C96.7739 204.519 97.1841 204.663 97.5063 204.951C97.8335 205.239 98.0068 205.585 98.0264 205.991L98.3926 204.76H99.4692L98.4951 207.968C98.4219 208.217 98.3682 208.417 98.334 208.569C98.2998 208.72 98.2827 208.854 98.2827 208.972C98.2827 209.191 98.3486 209.353 98.4805 209.455C98.6172 209.553 98.771 209.602 98.9419 209.602C99.4985 209.602 99.9966 209.311 100.436 208.73C100.88 208.149 101.103 207.39 101.103 206.452C101.103 205.319 100.707 204.431 99.916 203.786C99.125 203.137 98.0605 202.812 96.7227 202.812C94.8672 202.812 93.4487 203.354 92.4673 204.438C91.6274 205.361 91.2075 206.521 91.2075 207.917C91.2075 209.138 91.6079 210.163 92.4087 210.993C93.3462 211.975 94.6816 212.465 96.415 212.465C97.2256 212.465 97.98 212.338 98.6782 212.084C99.3765 211.826 100.016 211.479 100.597 211.044L101.081 211.704C100.641 212.094 99.9844 212.46 99.1104 212.802C98.2363 213.144 97.2744 213.315 96.2246 213.315ZM105.204 205.573V204.562C106.156 204.47 106.82 204.316 107.196 204.101C107.572 203.881 107.853 203.366 108.039 202.556H109.079V213H107.672V205.573H105.204ZM113.4 211.403H114.931V213H113.4V211.403ZM120.373 206.906C120.954 206.906 121.408 206.745 121.735 206.423C122.062 206.096 122.226 205.708 122.226 205.258C122.226 204.868 122.069 204.509 121.757 204.182C121.444 203.854 120.968 203.691 120.329 203.691C119.694 203.691 119.235 203.854 118.952 204.182C118.668 204.509 118.527 204.892 118.527 205.332C118.527 205.825 118.71 206.21 119.076 206.489C119.442 206.767 119.875 206.906 120.373 206.906ZM120.453 212.099C121.063 212.099 121.569 211.936 121.969 211.608C122.375 211.276 122.577 210.783 122.577 210.129C122.577 209.45 122.37 208.935 121.955 208.583C121.54 208.232 121.007 208.056 120.358 208.056C119.728 208.056 119.213 208.237 118.812 208.598C118.417 208.955 118.219 209.45 118.219 210.085C118.219 210.632 118.4 211.105 118.761 211.506C119.127 211.901 119.691 212.099 120.453 212.099ZM118.578 207.412C118.212 207.255 117.926 207.072 117.721 206.862C117.335 206.472 117.143 205.964 117.143 205.339C117.143 204.558 117.426 203.886 117.992 203.325C118.559 202.763 119.362 202.482 120.402 202.482C121.408 202.482 122.196 202.749 122.768 203.281C123.339 203.808 123.625 204.426 123.625 205.134C123.625 205.788 123.458 206.318 123.126 206.723C122.941 206.953 122.653 207.177 122.262 207.397C122.697 207.597 123.039 207.827 123.288 208.085C123.751 208.574 123.983 209.208 123.983 209.99C123.983 210.913 123.673 211.696 123.053 212.341C122.433 212.98 121.557 213.3 120.424 213.3C119.403 213.3 118.539 213.024 117.831 212.473C117.128 211.916 116.776 211.11 116.776 210.056C116.776 209.436 116.928 208.901 117.23 208.452C117.533 207.998 117.982 207.651 118.578 207.412ZM125.924 211.403H127.455V213H125.924V211.403ZM132.897 206.906C133.478 206.906 133.932 206.745 134.259 206.423C134.586 206.096 134.75 205.708 134.75 205.258C134.75 204.868 134.594 204.509 134.281 204.182C133.969 203.854 133.493 203.691 132.853 203.691C132.218 203.691 131.759 203.854 131.476 204.182C131.193 204.509 131.051 204.892 131.051 205.332C131.051 205.825 131.234 206.21 131.601 206.489C131.967 206.767 132.399 206.906 132.897 206.906ZM132.978 212.099C133.588 212.099 134.093 211.936 134.494 211.608C134.899 211.276 135.102 210.783 135.102 210.129C135.102 209.45 134.894 208.935 134.479 208.583C134.064 208.232 133.532 208.056 132.882 208.056C132.252 208.056 131.737 208.237 131.337 208.598C130.941 208.955 130.744 209.45 130.744 210.085C130.744 210.632 130.924 211.105 131.286 211.506C131.652 211.901 132.216 212.099 132.978 212.099ZM131.103 207.412C130.736 207.255 130.451 207.072 130.246 206.862C129.86 206.472 129.667 205.964 129.667 205.339C129.667 204.558 129.95 203.886 130.517 203.325C131.083 202.763 131.886 202.482 132.926 202.482C133.932 202.482 134.721 202.749 135.292 203.281C135.863 203.808 136.149 204.426 136.149 205.134C136.149 205.788 135.983 206.318 135.651 206.723C135.465 206.953 135.177 207.177 134.787 207.397C135.221 207.597 135.563 207.827 135.812 208.085C136.276 208.574 136.508 209.208 136.508 209.99C136.508 210.913 136.198 211.696 135.578 212.341C134.958 212.98 134.081 213.3 132.948 213.3C131.928 213.3 131.063 213.024 130.355 212.473C129.652 211.916 129.301 211.11 129.301 210.056C129.301 209.436 129.452 208.901 129.755 208.452C130.058 207.998 130.507 207.651 131.103 207.412Z" fill="black"/>
<path d="M62.1338 271H55.2417V269.374L59.3359 264.716H55.52V263.017H61.9946V264.752L57.9443 269.286H62.1338V271ZM70.1318 264.027C70.8057 264.872 71.1426 265.871 71.1426 267.023C71.1426 268.195 70.8057 269.198 70.1318 270.033C69.458 270.863 68.4351 271.278 67.063 271.278C65.6909 271.278 64.668 270.863 63.9941 270.033C63.3203 269.198 62.9834 268.195 62.9834 267.023C62.9834 265.871 63.3203 264.872 63.9941 264.027C64.668 263.183 65.6909 262.76 67.063 262.76C68.4351 262.76 69.458 263.183 70.1318 264.027ZM67.0557 264.525C66.4453 264.525 65.9741 264.743 65.6421 265.177C65.3149 265.607 65.1514 266.222 65.1514 267.023C65.1514 267.824 65.3149 268.441 65.6421 268.876C65.9741 269.311 66.4453 269.528 67.0557 269.528C67.666 269.528 68.1348 269.311 68.4619 268.876C68.7891 268.441 68.9526 267.824 68.9526 267.023C68.9526 266.222 68.7891 265.607 68.4619 265.177C68.1348 264.743 67.666 264.525 67.0557 264.525ZM79.9097 260.219V271H77.8809V269.894C77.583 270.368 77.2437 270.712 76.8628 270.927C76.4819 271.142 76.0083 271.249 75.4419 271.249C74.5093 271.249 73.7231 270.873 73.0835 270.121C72.4487 269.364 72.1313 268.395 72.1313 267.213C72.1313 265.851 72.4438 264.779 73.0688 263.998C73.6987 263.217 74.5386 262.826 75.5884 262.826C76.0718 262.826 76.5015 262.934 76.8774 263.148C77.2534 263.358 77.5586 263.651 77.793 264.027V260.219H79.9097ZM74.2847 267.06C74.2847 267.797 74.4312 268.385 74.7241 268.825C75.0122 269.269 75.4517 269.491 76.0425 269.491C76.6333 269.491 77.0825 269.271 77.3901 268.832C77.6978 268.393 77.8516 267.824 77.8516 267.125C77.8516 266.149 77.605 265.451 77.1118 265.031C76.8091 264.777 76.4575 264.65 76.0571 264.65C75.4468 264.65 74.9976 264.882 74.7095 265.346C74.4263 265.805 74.2847 266.376 74.2847 267.06ZM89.9878 264.459C89.9878 264.157 89.8853 263.886 89.6802 263.646C89.48 263.402 89.2017 263.28 88.8452 263.28C88.2886 263.28 87.8052 263.61 87.395 264.269C86.9897 264.923 86.7871 265.575 86.7871 266.225C86.7871 266.703 86.8921 267.069 87.1021 267.323C87.312 267.572 87.5757 267.697 87.8931 267.697C88.5522 267.697 89.0649 267.313 89.4312 266.547C89.8022 265.775 89.9878 265.08 89.9878 264.459ZM88.5303 271.315C86.4893 271.315 84.917 270.678 83.8135 269.403C82.9297 268.383 82.4878 267.204 82.4878 265.866C82.4878 264.274 83.0249 262.921 84.0991 261.808C85.2905 260.568 86.8896 259.948 88.8965 259.948C90.6348 259.948 92.002 260.387 92.998 261.266C93.9307 262.096 94.397 263.173 94.397 264.496C94.397 265.609 94.0625 266.562 93.3936 267.353C92.7295 268.139 91.9849 268.532 91.1597 268.532C90.6763 268.532 90.3198 268.417 90.0903 268.188C89.8608 267.953 89.7461 267.672 89.7461 267.345C89.7461 267.292 89.751 267.235 89.7607 267.177C89.7705 267.118 89.7827 267.057 89.7974 266.994C89.5386 267.555 89.2114 267.953 88.8159 268.188C88.4204 268.417 88.0127 268.532 87.5928 268.532C86.9922 268.532 86.5039 268.314 86.1279 267.88C85.7568 267.445 85.5713 266.886 85.5713 266.203C85.5713 265.231 85.8887 264.374 86.5234 263.632C87.1631 262.89 87.8491 262.519 88.5815 262.519C89.0796 262.519 89.4897 262.663 89.812 262.951C90.1392 263.239 90.3125 263.585 90.332 263.991L90.6982 262.76H91.7749L90.8008 265.968C90.7275 266.217 90.6738 266.417 90.6396 266.569C90.6055 266.72 90.5884 266.854 90.5884 266.972C90.5884 267.191 90.6543 267.353 90.7861 267.455C90.9229 267.553 91.0767 267.602 91.2476 267.602C91.8042 267.602 92.3022 267.311 92.7417 266.73C93.186 266.149 93.4082 265.39 93.4082 264.452C93.4082 263.319 93.0127 262.431 92.2217 261.786C91.4307 261.137 90.3662 260.812 89.0283 260.812C87.1729 260.812 85.7544 261.354 84.7729 262.438C83.9331 263.361 83.5132 264.521 83.5132 265.917C83.5132 267.138 83.9136 268.163 84.7144 268.993C85.6519 269.975 86.9873 270.465 88.7207 270.465C89.5312 270.465 90.2856 270.338 90.9839 270.084C91.6821 269.826 92.3218 269.479 92.9028 269.044L93.3862 269.704C92.9468 270.094 92.29 270.46 91.416 270.802C90.542 271.144 89.5801 271.315 88.5303 271.315ZM99.9707 271.286C98.7305 271.286 97.8296 270.946 97.2681 270.268C96.7114 269.584 96.4331 268.754 96.4331 267.777H97.8101C97.8687 268.456 97.9956 268.949 98.1909 269.257C98.5327 269.809 99.1504 270.084 100.044 270.084C100.737 270.084 101.294 269.899 101.714 269.528C102.134 269.157 102.344 268.678 102.344 268.092C102.344 267.37 102.122 266.864 101.677 266.576C101.238 266.288 100.625 266.144 99.8389 266.144C99.751 266.144 99.6606 266.146 99.5679 266.151C99.48 266.151 99.3896 266.154 99.2969 266.159V264.994C99.4336 265.009 99.5483 265.019 99.6411 265.023C99.7339 265.028 99.834 265.031 99.9414 265.031C100.435 265.031 100.84 264.953 101.157 264.796C101.714 264.523 101.992 264.035 101.992 263.332C101.992 262.809 101.807 262.406 101.436 262.123C101.064 261.84 100.632 261.698 100.139 261.698C99.2603 261.698 98.6523 261.991 98.3154 262.577C98.1299 262.899 98.0249 263.358 98.0005 263.954H96.6968C96.6968 263.173 96.853 262.509 97.1655 261.962C97.7026 260.985 98.6475 260.497 100 260.497C101.069 260.497 101.897 260.736 102.483 261.215C103.069 261.688 103.362 262.377 103.362 263.28C103.362 263.925 103.188 264.447 102.842 264.848C102.627 265.097 102.349 265.292 102.007 265.434C102.559 265.585 102.988 265.878 103.296 266.312C103.608 266.742 103.765 267.27 103.765 267.895C103.765 268.896 103.435 269.711 102.776 270.341C102.117 270.971 101.182 271.286 99.9707 271.286ZM105.706 269.403H107.236V271H105.706V269.403ZM109.067 271C109.116 270.097 109.302 269.311 109.624 268.642C109.951 267.973 110.586 267.365 111.528 266.818L112.935 266.005C113.564 265.639 114.006 265.326 114.26 265.067C114.661 264.662 114.861 264.198 114.861 263.676C114.861 263.065 114.678 262.582 114.312 262.226C113.945 261.864 113.457 261.684 112.847 261.684C111.943 261.684 111.318 262.025 110.972 262.709C110.786 263.075 110.684 263.583 110.664 264.232H109.324C109.338 263.319 109.507 262.575 109.829 261.999C110.4 260.983 111.409 260.475 112.854 260.475C114.055 260.475 114.932 260.8 115.483 261.449C116.04 262.099 116.318 262.821 116.318 263.617C116.318 264.457 116.023 265.175 115.432 265.771C115.09 266.117 114.478 266.537 113.594 267.03L112.59 267.587C112.112 267.851 111.736 268.102 111.462 268.341C110.974 268.766 110.667 269.237 110.54 269.755H116.267V271H109.067ZM121.006 260.512C122.363 260.512 123.345 261.071 123.95 262.189C124.419 263.053 124.653 264.237 124.653 265.741C124.653 267.167 124.441 268.346 124.016 269.279C123.401 270.617 122.395 271.286 120.999 271.286C119.739 271.286 118.801 270.739 118.186 269.645C117.673 268.732 117.417 267.506 117.417 265.968C117.417 264.777 117.571 263.754 117.878 262.899C118.455 261.308 119.497 260.512 121.006 260.512ZM120.991 270.084C121.675 270.084 122.219 269.782 122.625 269.176C123.03 268.571 123.232 267.443 123.232 265.792C123.232 264.601 123.086 263.622 122.793 262.855C122.5 262.084 121.931 261.698 121.086 261.698C120.31 261.698 119.741 262.064 119.38 262.797C119.023 263.524 118.845 264.599 118.845 266.02C118.845 267.089 118.96 267.948 119.189 268.598C119.541 269.589 120.142 270.084 120.991 270.084ZM126.58 269.403H128.11V271H126.58V269.403ZM129.941 271C129.99 270.097 130.176 269.311 130.498 268.642C130.825 267.973 131.46 267.365 132.402 266.818L133.809 266.005C134.438 265.639 134.88 265.326 135.134 265.067C135.535 264.662 135.735 264.198 135.735 263.676C135.735 263.065 135.552 262.582 135.186 262.226C134.819 261.864 134.331 261.684 133.721 261.684C132.817 261.684 132.192 262.025 131.846 262.709C131.66 263.075 131.558 263.583 131.538 264.232H130.198C130.212 263.319 130.381 262.575 130.703 261.999C131.274 260.983 132.283 260.475 133.728 260.475C134.929 260.475 135.806 260.8 136.357 261.449C136.914 262.099 137.192 262.821 137.192 263.617C137.192 264.457 136.897 265.175 136.306 265.771C135.964 266.117 135.352 266.537 134.468 267.03L133.464 267.587C132.986 267.851 132.61 268.102 132.336 268.341C131.848 268.766 131.541 269.237 131.414 269.755H137.141V271H129.941Z" fill="black"/>
</svg>
