<svg version="1.1" viewBox="0.0 0.0 600.0 371.0" fill="none" stroke="none" stroke-linecap="square" stroke-miterlimit="10" width="600" height="371" xmlns:xlink="http://www.w3.org/1999/xlink" xmlns="http://www.w3.org/2000/svg"><path fill="#ffffff" d="M0 0L600.0 0L600.0 371.0L0 371.0L0 0Z" fill-rule="nonzero"/><path stroke="#333333" stroke-width="1.0" stroke-linecap="butt" d="M106.5 18.5L106.5 294.5" fill-rule="nonzero"/><path stroke="#cccccc" stroke-width="1.0" stroke-linecap="butt" d="M201.5 18.5L201.5 294.5" fill-rule="nonzero"/><path stroke="#cccccc" stroke-width="1.0" stroke-linecap="butt" d="M296.5 18.5L296.5 294.5" fill-rule="nonzero"/><path stroke="#cccccc" stroke-width="1.0" stroke-linecap="butt" d="M391.5 18.5L391.5 294.5" fill-rule="nonzero"/><path stroke="#cccccc" stroke-width="1.0" stroke-linecap="butt" d="M486.5 18.5L486.5 294.5" fill-rule="nonzero"/><path stroke="#cccccc" stroke-width="1.0" stroke-linecap="butt" d="M581.5 18.5L581.5 294.5" fill-rule="nonzero"/><path stroke="#e6e6e6" stroke-width="1.0" stroke-linecap="butt" d="M138.5 18.5L138.5 294.5" fill-rule="nonzero"/><path stroke="#e6e6e6" stroke-width="1.0" stroke-linecap="butt" d="M169.5 18.5L169.5 294.5" fill-rule="nonzero"/><path stroke="#e6e6e6" stroke-width="1.0" stroke-linecap="butt" d="M233.5 18.5L233.5 294.5" fill-rule="nonzero"/><path stroke="#e6e6e6" stroke-width="1.0" stroke-linecap="butt" d="M264.5 18.5L264.5 294.5" fill-rule="nonzero"/><path stroke="#e6e6e6" stroke-width="1.0" stroke-linecap="butt" d="M328.5 18.5L328.5 294.5" fill-rule="nonzero"/><path stroke="#e6e6e6" stroke-width="1.0" stroke-linecap="butt" d="M359.5 18.5L359.5 294.5" fill-rule="nonzero"/><path stroke="#e6e6e6" stroke-width="1.0" stroke-linecap="butt" d="M423.5 18.5L423.5 294.5" fill-rule="nonzero"/><path stroke="#e6e6e6" stroke-width="1.0" stroke-linecap="butt" d="M454.5 18.5L454.5 294.5" fill-rule="nonzero"/><path stroke="#e6e6e6" stroke-width="1.0" stroke-linecap="butt" d="M518.5 18.5L518.5 294.5" fill-rule="nonzero"/><path stroke="#e6e6e6" stroke-width="1.0" stroke-linecap="butt" d="M549.5 18.5L549.5 294.5" fill-rule="nonzero"/><path stroke="#000000" stroke-width="1.0" stroke-linecap="butt" d="M581.5 294.5L106.5 294.5" fill-rule="nonzero"/><clipPath id="id_0"><path d="M106.55 18.55L581.45 18.55L581.45 294.45L106.55 294.45L106.55 18.55Z" clip-rule="nonzero"/></clipPath><path stroke="#000000" stroke-width="2.0" stroke-linecap="butt" stroke-opacity="0.0" clip-path="url(#id_0)" d="M107.0 82.0L107.0 41.0L489.0 41.0C490.10458 41.0 491.0 41.89543 491.0 43.0L491.0 80.0C491.0 81.10457 490.10458 82.0 489.0 82.0Z" fill-rule="nonzero"/><path fill="#4285f4" clip-path="url(#id_0)" d="M107.0 82.0L107.0 41.0L489.0 41.0C490.10458 41.0 491.0 41.89543 491.0 43.0L491.0 80.0C491.0 81.10457 490.10458 82.0 489.0 82.0Z" fill-rule="nonzero"/><path stroke="#000000" stroke-width="2.0" stroke-linecap="butt" stroke-opacity="0.0" clip-path="url(#id_0)" d="M107.0 146.0L107.0 105.0L180.0 105.0C181.10457 105.0 182.0 105.89543 182.0 107.0L182.0 144.0C182.0 145.10457 181.10457 146.0 180.0 146.0Z" fill-rule="nonzero"/><path fill="#4285f4" clip-path="url(#id_0)" d="M107.0 146.0L107.0 105.0L180.0 105.0C181.10457 105.0 182.0 105.89543 182.0 107.0L182.0 144.0C182.0 145.10457 181.10457 146.0 180.0 146.0Z" fill-rule="nonzero"/><path stroke="#000000" stroke-width="2.0" stroke-linecap="butt" stroke-opacity="0.0" clip-path="url(#id_0)" d="M107.0 209.0L107.0 168.0L172.0 168.0C173.10457 168.0 174.0 168.89543 174.0 170.0L174.0 207.0C174.0 208.10457 173.10457 209.0 172.0 209.0Z" fill-rule="nonzero"/><path fill="#4285f4" clip-path="url(#id_0)" d="M107.0 209.0L107.0 168.0L172.0 168.0C173.10457 168.0 174.0 168.89543 174.0 170.0L174.0 207.0C174.0 208.10457 173.10457 209.0 172.0 209.0Z" fill-rule="nonzero"/><path stroke="#000000" stroke-width="2.0" stroke-linecap="butt" stroke-opacity="0.0" clip-path="url(#id_0)" d="M107.0 273.0L107.0 232.0L131.0 232.0C132.10457 232.0 133.0 232.89543 133.0 234.0L133.0 271.0C133.0 272.10458 132.10457 273.0 131.0 273.0Z" fill-rule="nonzero"/><path fill="#4285f4" clip-path="url(#id_0)" d="M107.0 273.0L107.0 232.0L131.0 232.0C132.10457 232.0 133.0 232.89543 133.0 234.0L133.0 271.0C133.0 272.10458 132.10457 273.0 131.0 273.0Z" fill-rule="nonzero"/><path stroke="#000000" stroke-width="1.0" stroke-linecap="butt" d="M138.5 297.5L138.5 291.5" fill-rule="nonzero"/><path stroke="#000000" stroke-width="1.0" stroke-linecap="butt" d="M169.5 297.5L169.5 291.5" fill-rule="nonzero"/><path stroke="#000000" stroke-width="1.0" stroke-linecap="butt" d="M233.5 297.5L233.5 291.5" fill-rule="nonzero"/><path stroke="#000000" stroke-width="1.0" stroke-linecap="butt" d="M264.5 297.5L264.5 291.5" fill-rule="nonzero"/><path stroke="#000000" stroke-width="1.0" stroke-linecap="butt" d="M328.5 297.5L328.5 291.5" fill-rule="nonzero"/><path stroke="#000000" stroke-width="1.0" stroke-linecap="butt" d="M359.5 297.5L359.5 291.5" fill-rule="nonzero"/><path stroke="#000000" stroke-width="1.0" stroke-linecap="butt" d="M423.5 297.5L423.5 291.5" fill-rule="nonzero"/><path stroke="#000000" stroke-width="1.0" stroke-linecap="butt" d="M454.5 297.5L454.5 291.5" fill-rule="nonzero"/><path stroke="#000000" stroke-width="1.0" stroke-linecap="butt" d="M518.5 297.5L518.5 291.5" fill-rule="nonzero"/><path stroke="#000000" stroke-width="1.0" stroke-linecap="butt" d="M549.5 297.5L549.5 291.5" fill-rule="nonzero"/><path stroke="#000000" stroke-width="1.0" stroke-linecap="butt" d="M106.5 300.5L106.5 288.5" fill-rule="nonzero"/><path stroke="#000000" stroke-width="1.0" stroke-linecap="butt" d="M201.5 300.5L201.5 288.5" fill-rule="nonzero"/><path stroke="#000000" stroke-width="1.0" stroke-linecap="butt" d="M296.5 300.5L296.5 288.5" fill-rule="nonzero"/><path stroke="#000000" stroke-width="1.0" stroke-linecap="butt" d="M391.5 300.5L391.5 288.5" fill-rule="nonzero"/><path stroke="#000000" stroke-width="1.0" stroke-linecap="butt" d="M486.5 300.5L486.5 288.5" fill-rule="nonzero"/><path stroke="#000000" stroke-width="1.0" stroke-linecap="butt" d="M581.5 300.5L581.5 288.5" fill-rule="nonzero"/><path fill="#000000" d="M261.39062 349.45L261.39062 340.85626L263.10938 340.85626L265.14062 346.9344Q265.42188 347.79376 265.54688 348.21564Q265.6875 347.7469 266.0 346.84064L268.0625 340.85626L269.59375 340.85626L269.59375 349.45L268.5 349.45L268.5 342.2625L266.0 349.45L264.96875 349.45L262.48438 342.1375L262.48438 349.45L261.39062 349.45ZM270.29688 342.075L270.29688 340.85626L271.35938 340.85626L271.35938 342.075L270.29688 342.075ZM270.29688 349.45L270.29688 343.23126L271.35938 343.23126L271.35938 349.45L270.29688 349.45ZM273.26562 349.45L273.26562 340.85626L274.32812 340.85626L274.32812 349.45L273.26562 349.45ZM276.26562 349.45L276.26562 340.85626L277.32812 340.85626L277.32812 349.45L276.26562 349.45ZM279.29688 342.075L279.29688 340.85626L280.35938 340.85626L280.35938 342.075L279.29688 342.075ZM279.29688 349.45L279.29688 343.23126L280.35938 343.23126L280.35938 349.45L279.29688 349.45ZM281.90625 346.34064Q281.90625 344.60626 282.85938 343.77814Q283.65625 343.09064 284.8125 343.09064Q286.09375 343.09064 286.90625 343.9344Q287.73438 344.7625 287.73438 346.2469Q287.73438 347.45 287.375 348.1375Q287.01562 348.825 286.3125 349.21564Q285.625 349.59064 284.8125 349.59064Q283.51562 349.59064 282.70312 348.7625Q281.90625 347.91876 281.90625 346.34064ZM282.98438 346.34064Q282.98438 347.52814 283.5 348.1219Q284.03125 348.71564 284.8125 348.71564Q285.60938 348.71564 286.125 348.1219Q286.64062 347.52814 286.64062 346.3094Q286.64062 345.15314 286.10938 344.5594Q285.59375 343.96564 284.8125 343.96564Q284.03125 343.96564 283.5 344.5594Q282.98438 345.1375 282.98438 346.34064ZM289.29688 349.45L289.29688 343.23126L290.23438 343.23126L290.23438 344.10626Q290.92188 343.09064 292.21875 343.09064Q292.78125 343.09064 293.25 343.29376Q293.73438 343.4969 293.96875 343.825Q294.20312 344.15314 294.29688 344.59064Q294.34375 344.8875 294.34375 345.6219L294.34375 349.45L293.29688 349.45L293.29688 345.66876Q293.29688 345.0125 293.17188 344.7Q293.04688 344.3875 292.73438 344.2Q292.42188 343.9969 292.0 343.9969Q291.32812 343.9969 290.82812 344.4344Q290.34375 344.85626 290.34375 346.04376L290.34375 349.45L289.29688 349.45ZM295.875 347.59064L296.90625 347.4344Q297.0 348.0594 297.39062 348.3875Q297.79688 348.71564 298.53125 348.71564Q299.25 348.71564 299.59375 348.4344Q299.95312 348.1375 299.95312 347.73126Q299.95312 347.3719 299.64062 347.16876Q299.42188 347.02814 298.5625 346.8094Q297.40625 346.5125 296.95312 346.3094Q296.51562 346.09064 296.28125 345.71564Q296.04688 345.34064 296.04688 344.8719Q296.04688 344.46564 296.23438 344.10626Q296.42188 343.7469 296.75 343.5125Q297.0 343.34064 297.42188 343.21564Q297.84375 343.09064 298.34375 343.09064Q299.0625 343.09064 299.60938 343.3094Q300.17188 343.5125 300.4375 343.8719Q300.70312 344.23126 300.79688 344.825L299.76562 344.96564Q299.70312 344.4969 299.35938 344.23126Q299.03125 343.95 298.40625 343.95Q297.6875 343.95 297.375 344.2Q297.0625 344.4344 297.0625 344.7625Q297.0625 344.96564 297.1875 345.1219Q297.32812 345.29376 297.59375 345.40314Q297.75 345.46564 298.53125 345.66876Q299.65625 345.98126 300.09375 346.16876Q300.53125 346.35626 300.78125 346.71564Q301.03125 347.075 301.03125 347.6219Q301.03125 348.15314 300.71875 348.6219Q300.42188 349.075 299.84375 349.34064Q299.26562 349.59064 298.53125 349.59064Q297.3125 349.59064 296.67188 349.09064Q296.04688 348.575 295.875 347.59064ZM305.90625 346.34064Q305.90625 344.60626 306.85938 343.77814Q307.65625 343.09064 308.8125 343.09064Q310.09375 343.09064 310.90625 343.9344Q311.73438 344.7625 311.73438 346.2469Q311.73438 347.45 311.375 348.1375Q311.01562 348.825 310.3125 349.21564Q309.625 349.59064 308.8125 349.59064Q307.51562 349.59064 306.70312 348.7625Q305.90625 347.91876 305.90625 346.34064ZM306.98438 346.34064Q306.98438 347.52814 307.5 348.1219Q308.03125 348.71564 308.8125 348.71564Q309.60938 348.71564 310.125 348.1219Q310.64062 347.52814 310.64062 346.3094Q310.64062 345.15314 310.10938 344.5594Q309.59375 343.96564 308.8125 343.96564Q308.03125 343.96564 307.5 344.5594Q306.98438 345.1375 306.98438 346.34064ZM313.54688 349.45L313.54688 344.04376L312.60938 344.04376L312.60938 343.23126L313.54688 343.23126L313.54688 342.5594Q313.54688 341.9344 313.65625 341.6375Q313.8125 341.21564 314.1875 340.96564Q314.57812 340.71564 315.26562 340.71564Q315.71875 340.71564 316.25 340.825L316.09375 341.73126Q315.76562 341.6844 315.46875 341.6844Q314.98438 341.6844 314.78125 341.8875Q314.59375 342.09064 314.59375 342.65314L314.59375 343.23126L315.8125 343.23126L315.8125 344.04376L314.59375 344.04376L314.59375 349.45L313.54688 349.45ZM318.90625 346.34064Q318.90625 344.60626 319.85938 343.77814Q320.65625 343.09064 321.8125 343.09064Q323.09375 343.09064 323.90625 343.9344Q324.73438 344.7625 324.73438 346.2469Q324.73438 347.45 324.375 348.1375Q324.01562 348.825 323.3125 349.21564Q322.625 349.59064 321.8125 349.59064Q320.51562 349.59064 319.70312 348.7625Q318.90625 347.91876 318.90625 346.34064ZM319.98438 346.34064Q319.98438 347.52814 320.5 348.1219Q321.03125 348.71564 321.8125 348.71564Q322.60938 348.71564 323.125 348.1219Q323.64062 347.52814 323.64062 346.3094Q323.64062 345.15314 323.10938 344.5594Q322.59375 343.96564 321.8125 343.96564Q321.03125 343.96564 320.5 344.5594Q319.98438 345.1375 319.98438 346.34064ZM326.29688 351.84064L326.29688 343.23126L327.25 343.23126L327.25 344.02814Q327.59375 343.5594 328.01562 343.325Q328.45312 343.09064 329.0625 343.09064Q329.85938 343.09064 330.46875 343.4969Q331.07812 343.90314 331.375 344.65314Q331.6875 345.40314 331.6875 346.29376Q331.6875 347.2469 331.34375 348.0125Q331.01562 348.77814 330.35938 349.1844Q329.70312 349.59064 328.98438 349.59064Q328.45312 349.59064 328.03125 349.3719Q327.60938 349.1375 327.34375 348.8094L327.34375 351.84064L326.29688 351.84064ZM327.25 346.3719Q327.25 347.575 327.73438 348.15314Q328.21875 348.71564 328.90625 348.71564Q329.60938 348.71564 330.10938 348.1219Q330.60938 347.52814 330.60938 346.27814Q330.60938 345.09064 330.125 344.5125Q329.64062 343.91876 328.95312 343.91876Q328.28125 343.91876 327.76562 344.54376Q327.25 345.16876 327.25 346.3719ZM337.54688 347.45L338.64062 347.575Q338.39062 348.52814 337.6875 349.0594Q336.98438 349.59064 335.90625 349.59064Q334.54688 349.59064 333.73438 348.7469Q332.9375 347.90314 332.9375 346.3875Q332.9375 344.825 333.75 343.96564Q334.5625 343.09064 335.84375 343.09064Q337.09375 343.09064 337.875 343.9344Q338.67188 344.77814 338.67188 346.325Q338.67188 346.41876 338.67188 346.60626L334.03125 346.60626Q334.09375 347.6375 334.60938 348.1844Q335.125 348.71564 335.90625 348.71564Q336.48438 348.71564 336.89062 348.41876Q337.3125 348.10626 337.54688 347.45ZM334.09375 345.7469L337.5625 345.7469Q337.5 344.95 337.17188 344.5594Q336.65625 343.95 335.85938 343.95Q335.125 343.95 334.625 344.4344Q334.14062 344.91876 334.09375 345.7469ZM340.28125 349.45L340.28125 343.23126L341.23438 343.23126L341.23438 344.16876Q341.59375 343.5125 341.89062 343.3094Q342.20312 343.09064 342.57812 343.09064Q343.10938 343.09064 343.65625 343.41876L343.29688 344.40314Q342.90625 344.16876 342.53125 344.16876Q342.17188 344.16876 341.89062 344.3875Q341.625 344.59064 341.51562 344.96564Q341.32812 345.52814 341.32812 346.1844L341.32812 349.45L340.28125 349.45ZM348.35938 348.6844Q347.76562 349.1844 347.21875 349.3875Q346.6875 349.59064 346.0625 349.59064Q345.03125 349.59064 344.48438 349.09064Q343.9375 348.59064 343.9375 347.8094Q343.9375 347.35626 344.14062 346.98126Q344.34375 346.59064 344.6875 346.3719Q345.03125 346.1375 345.45312 346.02814Q345.75 345.9344 346.39062 345.85626Q347.65625 345.71564 348.26562 345.4969Q348.26562 345.27814 348.26562 345.23126Q348.26562 344.575 347.96875 344.3094Q347.5625 343.96564 346.76562 343.96564Q346.03125 343.96564 345.67188 344.23126Q345.3125 344.48126 345.14062 345.1375L344.10938 344.9969Q344.25 344.34064 344.57812 343.9344Q344.90625 343.52814 345.51562 343.3094Q346.125 343.09064 346.92188 343.09064Q347.71875 343.09064 348.21875 343.27814Q348.71875 343.46564 348.95312 343.7469Q349.1875 344.02814 349.28125 344.46564Q349.32812 344.73126 349.32812 345.4344L349.32812 346.84064Q349.32812 348.3094 349.39062 348.7Q349.46875 349.09064 349.67188 349.45L348.5625 349.45Q348.40625 349.1219 348.35938 348.6844ZM348.26562 346.325Q347.6875 346.5594 346.54688 346.73126Q345.89062 346.825 345.625 346.95Q345.35938 347.0594 345.20312 347.27814Q345.0625 347.4969 345.0625 347.77814Q345.0625 348.2 345.375 348.48126Q345.70312 348.7625 346.3125 348.7625Q346.92188 348.7625 347.39062 348.4969Q347.875 348.23126 348.09375 347.7625Q348.26562 347.40314 348.26562 346.71564L348.26562 346.325ZM353.59375 348.5125L353.75 349.4344Q353.29688 349.52814 352.95312 349.52814Q352.375 349.52814 352.0625 349.35626Q351.75 349.16876 351.60938 348.8719Q351.48438 348.575 351.48438 347.6219L351.48438 344.04376L350.71875 344.04376L350.71875 343.23126L351.48438 343.23126L351.48438 341.6844L352.53125 341.0594L352.53125 343.23126L353.59375 343.23126L353.59375 344.04376L352.53125 344.04376L352.53125 347.6844Q352.53125 348.1375 352.57812 348.2625Q352.64062 348.3875 352.76562 348.46564Q352.89062 348.54376 353.125 348.54376Q353.3125 348.54376 353.59375 348.5125ZM354.29688 342.075L354.29688 340.85626L355.35938 340.85626L355.35938 342.075L354.29688 342.075ZM354.29688 349.45L354.29688 343.23126L355.35938 343.23126L355.35938 349.45L354.29688 349.45ZM356.90625 346.34064Q356.90625 344.60626 357.85938 343.77814Q358.65625 343.09064 359.8125 343.09064Q361.09375 343.09064 361.90625 343.9344Q362.73438 344.7625 362.73438 346.2469Q362.73438 347.45 362.375 348.1375Q362.01562 348.825 361.3125 349.21564Q360.625 349.59064 359.8125 349.59064Q358.51562 349.59064 357.70312 348.7625Q356.90625 347.91876 356.90625 346.34064ZM357.98438 346.34064Q357.98438 347.52814 358.5 348.1219Q359.03125 348.71564 359.8125 348.71564Q360.60938 348.71564 361.125 348.1219Q361.64062 347.52814 361.64062 346.3094Q361.64062 345.15314 361.10938 344.5594Q360.59375 343.96564 359.8125 343.96564Q359.03125 343.96564 358.5 344.5594Q357.98438 345.1375 357.98438 346.34064ZM364.29688 349.45L364.29688 343.23126L365.23438 343.23126L365.23438 344.10626Q365.92188 343.09064 367.21875 343.09064Q367.78125 343.09064 368.25 343.29376Q368.73438 343.4969 368.96875 343.825Q369.20312 344.15314 369.29688 344.59064Q369.34375 344.8875 369.34375 345.6219L369.34375 349.45L368.29688 349.45L368.29688 345.66876Q368.29688 345.0125 368.17188 344.7Q368.04688 344.3875 367.73438 344.2Q367.42188 343.9969 367.0 343.9969Q366.32812 343.9969 365.82812 344.4344Q365.34375 344.85626 365.34375 346.04376L365.34375 349.45L364.29688 349.45ZM370.875 347.59064L371.90625 347.4344Q372.0 348.0594 372.39062 348.3875Q372.79688 348.71564 373.53125 348.71564Q374.25 348.71564 374.59375 348.4344Q374.95312 348.1375 374.95312 347.73126Q374.95312 347.3719 374.64062 347.16876Q374.42188 347.02814 373.5625 346.8094Q372.40625 346.5125 371.95312 346.3094Q371.51562 346.09064 371.28125 345.71564Q371.04688 345.34064 371.04688 344.8719Q371.04688 344.46564 371.23438 344.10626Q371.42188 343.7469 371.75 343.5125Q372.0 343.34064 372.42188 343.21564Q372.84375 343.09064 373.34375 343.09064Q374.0625 343.09064 374.60938 343.3094Q375.17188 343.5125 375.4375 343.8719Q375.70312 344.23126 375.79688 344.825L374.76562 344.96564Q374.70312 344.4969 374.35938 344.23126Q374.03125 343.95 373.40625 343.95Q372.6875 343.95 372.375 344.2Q372.0625 344.4344 372.0625 344.7625Q372.0625 344.96564 372.1875 345.1219Q372.32812 345.29376 372.59375 345.40314Q372.75 345.46564 373.53125 345.66876Q374.65625 345.98126 375.09375 346.16876Q375.53125 346.35626 375.78125 346.71564Q376.03125 347.075 376.03125 347.6219Q376.03125 348.15314 375.71875 348.6219Q375.42188 349.075 374.84375 349.34064Q374.26562 349.59064 373.53125 349.59064Q372.3125 349.59064 371.67188 349.09064Q371.04688 348.575 370.875 347.59064ZM380.5 349.59064L382.98438 340.71564L383.82812 340.71564L381.34375 349.59064L380.5 349.59064ZM386.875 347.59064L387.90625 347.4344Q388.0 348.0594 388.39062 348.3875Q388.79688 348.71564 389.53125 348.71564Q390.25 348.71564 390.59375 348.4344Q390.95312 348.1375 390.95312 347.73126Q390.95312 347.3719 390.64062 347.16876Q390.42188 347.02814 389.5625 346.8094Q388.40625 346.5125 387.95312 346.3094Q387.51562 346.09064 387.28125 345.71564Q387.04688 345.34064 387.04688 344.8719Q387.04688 344.46564 387.23438 344.10626Q387.42188 343.7469 387.75 343.5125Q388.0 343.34064 388.42188 343.21564Q388.84375 343.09064 389.34375 343.09064Q390.0625 343.09064 390.60938 343.3094Q391.17188 343.5125 391.4375 343.8719Q391.70312 344.23126 391.79688 344.825L390.76562 344.96564Q390.70312 344.4969 390.35938 344.23126Q390.03125 343.95 389.40625 343.95Q388.6875 343.95 388.375 344.2Q388.0625 344.4344 388.0625 344.7625Q388.0625 344.96564 388.1875 345.1219Q388.32812 345.29376 388.59375 345.40314Q388.75 345.46564 389.53125 345.66876Q390.65625 345.98126 391.09375 346.16876Q391.53125 346.35626 391.78125 346.71564Q392.03125 347.075 392.03125 347.6219Q392.03125 348.15314 391.71875 348.6219Q391.42188 349.075 390.84375 349.34064Q390.26562 349.59064 389.53125 349.59064Q388.3125 349.59064 387.67188 349.09064Q387.04688 348.575 386.875 347.59064ZM398.54688 347.45L399.64062 347.575Q399.39062 348.52814 398.6875 349.0594Q397.98438 349.59064 396.90625 349.59064Q395.54688 349.59064 394.73438 348.7469Q393.9375 347.90314 393.9375 346.3875Q393.9375 344.825 394.75 343.96564Q395.5625 343.09064 396.84375 343.09064Q398.09375 343.09064 398.875 343.9344Q399.67188 344.77814 399.67188 346.325Q399.67188 346.41876 399.67188 346.60626L395.03125 346.60626Q395.09375 347.6375 395.60938 348.1844Q396.125 348.71564 396.90625 348.71564Q397.48438 348.71564 397.89062 348.41876Q398.3125 348.10626 398.54688 347.45ZM395.09375 345.7469L398.5625 345.7469Q398.5 344.95 398.17188 344.5594Q397.65625 343.95 396.85938 343.95Q396.125 343.95 395.625 344.4344Q395.14062 344.91876 395.09375 345.7469ZM405.35938 347.16876L406.39062 347.3094Q406.21875 348.3719 405.51562 348.98126Q404.8125 349.59064 403.79688 349.59064Q402.51562 349.59064 401.73438 348.7625Q400.96875 347.91876 400.96875 346.35626Q400.96875 345.35626 401.29688 344.60626Q401.64062 343.84064 402.3125 343.46564Q403.0 343.09064 403.8125 343.09064Q404.8125 343.09064 405.45312 343.60626Q406.10938 344.10626 406.29688 345.0594L405.26562 345.21564Q405.125 344.59064 404.75 344.27814Q404.375 343.95 403.84375 343.95Q403.04688 343.95 402.54688 344.52814Q402.04688 345.09064 402.04688 346.325Q402.04688 347.59064 402.53125 348.15314Q403.01562 348.71564 403.78125 348.71564Q404.40625 348.71564 404.8125 348.34064Q405.23438 347.96564 405.35938 347.16876ZM406.90625 346.34064Q406.90625 344.60626 407.85938 343.77814Q408.65625 343.09064 409.8125 343.09064Q411.09375 343.09064 411.90625 343.9344Q412.73438 344.7625 412.73438 346.2469Q412.73438 347.45 412.375 348.1375Q412.01562 348.825 411.3125 349.21564Q410.625 349.59064 409.8125 349.59064Q408.51562 349.59064 407.70312 348.7625Q406.90625 347.91876 406.90625 346.34064ZM407.98438 346.34064Q407.98438 347.52814 408.5 348.1219Q409.03125 348.71564 409.8125 348.71564Q410.60938 348.71564 411.125 348.1219Q411.64062 347.52814 411.64062 346.3094Q411.64062 345.15314 411.10938 344.5594Q410.59375 343.96564 409.8125 343.96564Q409.03125 343.96564 408.5 344.5594Q407.98438 345.1375 407.98438 346.34064ZM414.29688 349.45L414.29688 343.23126L415.23438 343.23126L415.23438 344.10626Q415.92188 343.09064 417.21875 343.09064Q417.78125 343.09064 418.25 343.29376Q418.73438 343.4969 418.96875 343.825Q419.20312 344.15314 419.29688 344.59064Q419.34375 344.8875 419.34375 345.6219L419.34375 349.45L418.29688 349.45L418.29688 345.66876Q418.29688 345.0125 418.17188 344.7Q418.04688 344.3875 417.73438 344.2Q417.42188 343.9969 417.0 343.9969Q416.32812 343.9969 415.82812 344.4344Q415.34375 344.85626 415.34375 346.04376L415.34375 349.45L414.29688 349.45ZM425.32812 349.45L425.32812 348.66876Q424.73438 349.59064 423.59375 349.59064Q422.84375 349.59064 422.21875 349.1844Q421.59375 348.7625 421.25 348.02814Q420.90625 347.29376 420.90625 346.34064Q420.90625 345.41876 421.21875 344.65314Q421.53125 343.8875 422.15625 343.4969Q422.78125 343.09064 423.54688 343.09064Q424.10938 343.09064 424.54688 343.325Q424.98438 343.5594 425.26562 343.9344L425.26562 340.85626L426.3125 340.85626L426.3125 349.45L425.32812 349.45ZM422.0 346.34064Q422.0 347.54376 422.5 348.1375Q423.0 348.71564 423.6875 348.71564Q424.375 348.71564 424.85938 348.15314Q425.34375 347.59064 425.34375 346.4344Q425.34375 345.15314 424.84375 344.5594Q424.35938 343.96564 423.64062 343.96564Q422.9375 343.96564 422.46875 344.54376Q422.0 345.10626 422.0 346.34064Z" fill-rule="nonzero"/><path fill="#000000" d="M85.53438 65.36207L88.83125 56.76832L90.05 56.76832L93.56563 65.36207L92.28438 65.36207L91.26875 62.752693L87.69063 62.752693L86.7375 65.36207L85.53438 65.36207ZM88.01875 61.83082L90.925 61.83082L90.03438 59.45582Q89.6125 58.377693 89.425 57.67457Q89.25313 58.502693 88.95625 59.315193L88.01875 61.83082ZM93.33125 58.002693L93.33125 56.76832L94.39375 56.76832L94.39375 58.002693L93.33125 58.002693ZM92.00313 67.78394L92.19063 66.87769Q92.51875 66.95582 92.69063 66.95582Q93.01875 66.95582 93.175 66.73707Q93.33125 66.53394 93.33125 65.67457L93.33125 59.14332L94.39375 59.14332L94.39375 65.70582Q94.39375 66.84644 94.09688 67.29957Q93.70625 67.89332 92.83125 67.89332Q92.39375 67.89332 92.00313 67.78394ZM98.06563 65.36207L95.70625 59.14332L96.81563 59.14332L98.15938 62.86207Q98.3625 63.471443 98.55 64.11207Q98.69063 63.627693 98.94063 62.940193L100.33125 59.14332L101.40938 59.14332L99.05 65.36207L98.06563 65.36207Z" fill-rule="nonzero"/><path fill="#000000" d="M63.378124 128.78735L63.378124 128.0061Q62.784374 128.92798 61.64375 128.92798Q60.89375 128.92798 60.26875 128.52173Q59.64375 128.09985 59.3 127.36548Q58.95625 126.6311 58.95625 125.67798Q58.95625 124.7561 59.26875 123.99048Q59.58125 123.22485 60.20625 122.83423Q60.83125 122.42798 61.596874 122.42798Q62.159374 122.42798 62.596874 122.66235Q63.034374 122.89673 63.315624 123.27173L63.315624 120.1936L64.3625 120.1936L64.3625 128.78735L63.378124 128.78735ZM60.05 125.67798Q60.05 126.8811 60.55 127.47485Q61.05 128.05298 61.7375 128.05298Q62.425 128.05298 62.909374 127.49048Q63.39375 126.92798 63.39375 125.77173Q63.39375 124.49048 62.89375 123.89673Q62.409374 123.30298 61.690624 123.30298Q60.9875 123.30298 60.51875 123.8811Q60.05 124.4436 60.05 125.67798ZM65.95625 125.67798Q65.95625 123.9436 66.90938 123.11548Q67.70625 122.42798 68.8625 122.42798Q70.14375 122.42798 70.95625 123.27173Q71.78438 124.09985 71.78438 125.58423Q71.78438 126.78735 71.425 127.47485Q71.06563 128.16235 70.3625 128.55298Q69.675 128.92798 68.8625 128.92798Q67.56563 128.92798 66.75313 128.09985Q65.95625 127.2561 65.95625 125.67798ZM67.03438 125.67798Q67.03438 126.86548 67.55 127.45923Q68.08125 128.05298 68.8625 128.05298Q69.65938 128.05298 70.175 127.45923Q70.69063 126.86548 70.69063 125.64673Q70.69063 124.49048 70.15938 123.89673Q69.64375 123.30298 68.8625 123.30298Q68.08125 123.30298 67.55 123.89673Q67.03438 124.47485 67.03438 125.67798ZM77.425 128.78735L77.425 127.86548Q76.69063 128.92798 75.44063 128.92798Q74.89375 128.92798 74.40938 128.72485Q73.94063 128.5061 73.70625 128.1936Q73.47188 127.86548 73.37813 127.39673Q73.31563 127.09985 73.31563 126.41235L73.31563 122.5686L74.37813 122.5686L74.37813 126.02173Q74.37813 126.83423 74.44063 127.1311Q74.53438 127.53735 74.84688 127.78735Q75.175 128.02173 75.65938 128.02173Q76.12813 128.02173 76.53438 127.78735Q76.95625 127.53735 77.12813 127.11548Q77.31563 126.6936 77.31563 125.89673L77.31563 122.5686L78.3625 122.5686L78.3625 128.78735L77.425 128.78735ZM81.31563 128.78735L80.33125 128.78735L80.33125 120.1936L81.39375 120.1936L81.39375 123.2561Q82.06563 122.42798 83.09688 122.42798Q83.675 122.42798 84.175 122.66235Q84.69063 122.8811 85.01875 123.30298Q85.3625 123.72485 85.55 124.3186Q85.7375 124.91235 85.7375 125.58423Q85.7375 127.17798 84.94063 128.05298Q84.14375 128.92798 83.05 128.92798Q81.94063 128.92798 81.31563 128.0061L81.31563 128.78735ZM81.3 125.6311Q81.3 126.74048 81.6125 127.24048Q82.1125 128.05298 82.95625 128.05298Q83.64375 128.05298 84.14375 127.45923Q84.65938 126.86548 84.65938 125.66235Q84.65938 124.4436 84.175 123.86548Q83.69063 123.28735 83.00313 123.28735Q82.31563 123.28735 81.8 123.89673Q81.3 124.49048 81.3 125.6311ZM89.64375 127.84985L89.8 128.77173Q89.34688 128.86548 89.00313 128.86548Q88.425 128.86548 88.1125 128.6936Q87.8 128.5061 87.65938 128.20923Q87.53438 127.91235 87.53438 126.95923L87.53438 123.3811L86.76875 123.3811L86.76875 122.5686L87.53438 122.5686L87.53438 121.02173L88.58125 120.39673L88.58125 122.5686L89.64375 122.5686L89.64375 123.3811L88.58125 123.3811L88.58125 127.02173Q88.58125 127.47485 88.62813 127.59985Q88.69063 127.72485 88.81563 127.80298Q88.94063 127.8811 89.175 127.8811Q89.3625 127.8811 89.64375 127.84985ZM94.59688 126.78735L95.69063 126.91235Q95.44063 127.86548 94.7375 128.39673Q94.03438 128.92798 92.95625 128.92798Q91.59688 128.92798 90.78438 128.08423Q89.9875 127.24048 89.9875 125.72485Q89.9875 124.16235 90.8 123.30298Q91.6125 122.42798 92.89375 122.42798Q94.14375 122.42798 94.925 123.27173Q95.72188 124.11548 95.72188 125.66235Q95.72188 125.7561 95.72188 125.9436L91.08125 125.9436Q91.14375 126.97485 91.65938 127.52173Q92.175 128.05298 92.95625 128.05298Q93.53438 128.05298 93.94063 127.7561Q94.3625 127.4436 94.59688 126.78735ZM91.14375 125.08423L94.6125 125.08423Q94.55 124.28735 94.22188 123.89673Q93.70625 123.28735 92.90938 123.28735Q92.175 123.28735 91.675 123.77173Q91.19063 124.2561 91.14375 125.08423ZM97.33125 128.78735L97.33125 122.5686L98.28438 122.5686L98.28438 123.5061Q98.64375 122.84985 98.94063 122.64673Q99.25313 122.42798 99.62813 122.42798Q100.15938 122.42798 100.70625 122.7561L100.34688 123.74048Q99.95625 123.5061 99.58125 123.5061Q99.22188 123.5061 98.94063 123.72485Q98.675 123.92798 98.56563 124.30298Q98.37813 124.86548 98.37813 125.52173L98.37813 128.78735L97.33125 128.78735Z" fill-rule="nonzero"/><path fill="#000000" d="M25.346874 191.25952Q24.971874 191.69702 24.503124 191.96265Q24.034374 192.22827 23.55 192.22827Q23.034374 192.22827 22.534374 191.9314Q22.05 191.6189 21.7375 190.9939Q21.440624 190.35327 21.440624 189.60327Q21.440624 188.66577 21.909374 187.72827Q22.39375 186.79077 23.096874 186.32202Q23.8 185.85327 24.471874 185.85327Q24.9875 185.85327 25.440624 186.13452Q25.909374 186.40015 26.2375 186.9314L26.440624 186.02515L27.4875 186.02515L26.64375 189.96265Q26.471874 190.77515 26.471874 190.8689Q26.471874 191.02515 26.58125 191.15015Q26.70625 191.25952 26.878124 191.25952Q27.190624 191.25952 27.690624 190.90015Q28.3625 190.4314 28.753124 189.65015Q29.14375 188.85327 29.14375 188.00952Q29.14375 187.04077 28.64375 186.19702Q28.14375 185.33765 27.14375 184.83765Q26.159374 184.32202 24.95625 184.32202Q23.58125 184.32202 22.440624 184.96265Q21.315624 185.60327 20.690624 186.8064Q20.065624 187.9939 20.065624 189.3689Q20.065624 190.8064 20.690624 191.85327Q21.315624 192.88452 22.4875 193.3689Q23.675 193.8689 25.1125 193.8689Q26.64375 193.8689 27.675 193.35327Q28.721874 192.83765 29.2375 192.10327L30.3 192.10327Q30.003124 192.71265 29.26875 193.35327Q28.55 193.9939 27.55 194.3689Q26.55 194.7439 25.128124 194.7439Q23.83125 194.7439 22.721874 194.40015Q21.628124 194.07202 20.846874 193.40015Q20.08125 192.72827 19.690624 191.85327Q19.20625 190.7439 19.20625 189.46265Q19.20625 188.04077 19.784374 186.7439Q20.503124 185.15015 21.815624 184.3064Q23.128124 183.46265 25.003124 183.46265Q26.45625 183.46265 27.6125 184.0564Q28.76875 184.65015 29.440624 185.83765Q30.01875 186.83765 30.01875 188.04077Q30.01875 189.72827 28.815624 191.0564Q27.753124 192.2439 26.4875 192.2439Q26.08125 192.2439 25.83125 192.1189Q25.58125 191.9939 25.471874 191.75952Q25.39375 191.6189 25.346874 191.25952ZM22.51875 189.66577Q22.51875 190.47827 22.89375 190.9314Q23.284374 191.3689 23.76875 191.3689Q24.096874 191.3689 24.45625 191.16577Q24.83125 190.96265 25.159374 190.58765Q25.4875 190.19702 25.690624 189.60327Q25.909374 189.00952 25.909374 188.41577Q25.909374 187.6189 25.503124 187.1814Q25.1125 186.72827 24.55 186.72827Q24.175 186.72827 23.846874 186.9314Q23.51875 187.1189 23.20625 187.54077Q22.89375 187.96265 22.70625 188.57202Q22.51875 189.16577 22.51875 189.66577ZM32.315624 192.21265L31.33125 192.21265L31.33125 183.6189L32.39375 183.6189L32.39375 186.6814Q33.065624 185.85327 34.096874 185.85327Q34.675 185.85327 35.175 186.08765Q35.690624 186.3064 36.01875 186.72827Q36.3625 187.15015 36.55 187.7439Q36.7375 188.33765 36.7375 189.00952Q36.7375 190.60327 35.940624 191.47827Q35.14375 192.35327 34.05 192.35327Q32.940624 192.35327 32.315624 191.4314L32.315624 192.21265ZM32.3 189.0564Q32.3 190.16577 32.6125 190.66577Q33.1125 191.47827 33.95625 191.47827Q34.64375 191.47827 35.14375 190.88452Q35.659374 190.29077 35.659374 189.08765Q35.659374 187.8689 35.175 187.29077Q34.690624 186.71265 34.003124 186.71265Q33.315624 186.71265 32.8 187.32202Q32.3 187.91577 32.3 189.0564ZM42.409374 191.44702Q41.815624 191.94702 41.26875 192.15015Q40.7375 192.35327 40.1125 192.35327Q39.08125 192.35327 38.534374 191.85327Q37.9875 191.35327 37.9875 190.57202Q37.9875 190.1189 38.190624 189.7439Q38.39375 189.35327 38.7375 189.13452Q39.08125 188.90015 39.503124 188.79077Q39.8 188.69702 40.440624 188.6189Q41.70625 188.47827 42.315624 188.25952Q42.315624 188.04077 42.315624 187.9939Q42.315624 187.33765 42.01875 187.07202Q41.6125 186.72827 40.815624 186.72827Q40.08125 186.72827 39.721874 186.9939Q39.3625 187.2439 39.190624 187.90015L38.159374 187.75952Q38.3 187.10327 38.628124 186.69702Q38.95625 186.29077 39.565624 186.07202Q40.175 185.85327 40.971874 185.85327Q41.76875 185.85327 42.26875 186.04077Q42.76875 186.22827 43.003124 186.50952Q43.2375 186.79077 43.33125 187.22827Q43.378124 187.4939 43.378124 188.19702L43.378124 189.60327Q43.378124 191.07202 43.440624 191.46265Q43.51875 191.85327 43.721874 192.21265L42.6125 192.21265Q42.45625 191.88452 42.409374 191.44702ZM42.315624 189.08765Q41.7375 189.32202 40.596874 189.4939Q39.940624 189.58765 39.675 189.71265Q39.409374 189.82202 39.253124 190.04077Q39.1125 190.25952 39.1125 190.54077Q39.1125 190.96265 39.425 191.2439Q39.753124 191.52515 40.3625 191.52515Q40.971874 191.52515 41.440624 191.25952Q41.925 190.9939 42.14375 190.52515Q42.315624 190.16577 42.315624 189.47827L42.315624 189.08765ZM49.378124 192.21265L49.378124 191.4314Q48.784374 192.35327 47.64375 192.35327Q46.89375 192.35327 46.26875 191.94702Q45.64375 191.52515 45.3 190.79077Q44.95625 190.0564 44.95625 189.10327Q44.95625 188.1814 45.26875 187.41577Q45.58125 186.65015 46.20625 186.25952Q46.83125 185.85327 47.596874 185.85327Q48.159374 185.85327 48.596874 186.08765Q49.034374 186.32202 49.315624 186.69702L49.315624 183.6189L50.3625 183.6189L50.3625 192.21265L49.378124 192.21265ZM46.05 189.10327Q46.05 190.3064 46.55 190.90015Q47.05 191.47827 47.7375 191.47827Q48.425 191.47827 48.909374 190.91577Q49.39375 190.35327 49.39375 189.19702Q49.39375 187.91577 48.89375 187.32202Q48.409374 186.72827 47.690624 186.72827Q46.9875 186.72827 46.51875 187.3064Q46.05 187.8689 46.05 189.10327ZM52.33125 192.21265L52.33125 185.9939L53.284374 185.9939L53.284374 186.9314Q53.64375 186.27515 53.940624 186.07202Q54.253124 185.85327 54.628124 185.85327Q55.159374 185.85327 55.70625 186.1814L55.346874 187.16577Q54.95625 186.9314 54.58125 186.9314Q54.221874 186.9314 53.940624 187.15015Q53.675 187.35327 53.565624 187.72827Q53.378124 188.29077 53.378124 188.94702L53.378124 192.21265L52.33125 192.21265ZM60.409374 191.44702Q59.815624 191.94702 59.26875 192.15015Q58.7375 192.35327 58.1125 192.35327Q57.08125 192.35327 56.534374 191.85327Q55.9875 191.35327 55.9875 190.57202Q55.9875 190.1189 56.190624 189.7439Q56.39375 189.35327 56.7375 189.13452Q57.08125 188.90015 57.503124 188.79077Q57.8 188.69702 58.440624 188.6189Q59.70625 188.47827 60.315624 188.25952Q60.315624 188.04077 60.315624 187.9939Q60.315624 187.33765 60.01875 187.07202Q59.6125 186.72827 58.815624 186.72827Q58.08125 186.72827 57.721874 186.9939Q57.3625 187.2439 57.190624 187.90015L56.159374 187.75952Q56.3 187.10327 56.628124 186.69702Q56.95625 186.29077 57.565624 186.07202Q58.175 185.85327 58.971874 185.85327Q59.76875 185.85327 60.26875 186.04077Q60.76875 186.22827 61.003124 186.50952Q61.2375 186.79077 61.33125 187.22827Q61.378124 187.4939 61.378124 188.19702L61.378124 189.60327Q61.378124 191.07202 61.440624 191.46265Q61.51875 191.85327 61.721874 192.21265L60.6125 192.21265Q60.45625 191.88452 60.409374 191.44702ZM60.315624 189.08765Q59.7375 189.32202 58.596874 189.4939Q57.940624 189.58765 57.675 189.71265Q57.409374 189.82202 57.253124 190.04077Q57.1125 190.25952 57.1125 190.54077Q57.1125 190.96265 57.425 191.2439Q57.753124 191.52515 58.3625 191.52515Q58.971874 191.52515 59.440624 191.25952Q59.925 190.9939 60.14375 190.52515Q60.315624 190.16577 60.315624 189.47827L60.315624 189.08765ZM63.346874 194.60327L63.346874 185.9939L64.3 185.9939L64.3 186.79077Q64.64375 186.32202 65.06563 186.08765Q65.50313 185.85327 66.1125 185.85327Q66.90938 185.85327 67.51875 186.25952Q68.12813 186.66577 68.425 187.41577Q68.7375 188.16577 68.7375 189.0564Q68.7375 190.00952 68.39375 190.77515Q68.06563 191.54077 67.40938 191.94702Q66.75313 192.35327 66.03438 192.35327Q65.50313 192.35327 65.08125 192.13452Q64.65938 191.90015 64.39375 191.57202L64.39375 194.60327L63.346874 194.60327ZM64.3 189.13452Q64.3 190.33765 64.78438 190.91577Q65.26875 191.47827 65.95625 191.47827Q66.65938 191.47827 67.15938 190.88452Q67.65938 190.29077 67.65938 189.04077Q67.65938 187.85327 67.175 187.27515Q66.69063 186.6814 66.00313 186.6814Q65.33125 186.6814 64.81563 187.3064Q64.3 187.9314 64.3 189.13452ZM69.55 192.35327L72.03438 183.47827L72.87813 183.47827L70.39375 192.35327L69.55 192.35327ZM75.06563 192.21265L72.70625 185.9939L73.81563 185.9939L75.15938 189.71265Q75.3625 190.32202 75.55 190.96265Q75.69063 190.47827 75.94063 189.79077L77.33125 185.9939L78.40938 185.9939L76.05 192.21265L75.06563 192.21265ZM82.40938 191.44702Q81.81563 191.94702 81.26875 192.15015Q80.7375 192.35327 80.1125 192.35327Q79.08125 192.35327 78.53438 191.85327Q77.9875 191.35327 77.9875 190.57202Q77.9875 190.1189 78.19063 189.7439Q78.39375 189.35327 78.7375 189.13452Q79.08125 188.90015 79.50313 188.79077Q79.8 188.69702 80.44063 188.6189Q81.70625 188.47827 82.31563 188.25952Q82.31563 188.04077 82.31563 187.9939Q82.31563 187.33765 82.01875 187.07202Q81.6125 186.72827 80.81563 186.72827Q80.08125 186.72827 79.72188 186.9939Q79.3625 187.2439 79.19063 187.90015L78.15938 187.75952Q78.3 187.10327 78.62813 186.69702Q78.95625 186.29077 79.56563 186.07202Q80.175 185.85327 80.97188 185.85327Q81.76875 185.85327 82.26875 186.04077Q82.76875 186.22827 83.00313 186.50952Q83.2375 186.79077 83.33125 187.22827Q83.37813 187.4939 83.37813 188.19702L83.37813 189.60327Q83.37813 191.07202 83.44063 191.46265Q83.51875 191.85327 83.72188 192.21265L82.6125 192.21265Q82.45625 191.88452 82.40938 191.44702ZM82.31563 189.08765Q81.7375 189.32202 80.59688 189.4939Q79.94063 189.58765 79.675 189.71265Q79.40938 189.82202 79.25313 190.04077Q79.1125 190.25952 79.1125 190.54077Q79.1125 190.96265 79.425 191.2439Q79.75313 191.52515 80.3625 191.52515Q80.97188 191.52515 81.44063 191.25952Q81.925 190.9939 82.14375 190.52515Q82.31563 190.16577 82.31563 189.47827L82.31563 189.08765ZM85.31563 192.21265L85.31563 183.6189L86.37813 183.6189L86.37813 192.21265L85.31563 192.21265ZM88.34688 184.83765L88.34688 183.6189L89.40938 183.6189L89.40938 184.83765L88.34688 184.83765ZM88.34688 192.21265L88.34688 185.9939L89.40938 185.9939L89.40938 192.21265L88.34688 192.21265ZM93.64375 191.27515L93.8 192.19702Q93.34688 192.29077 93.00313 192.29077Q92.425 192.29077 92.1125 192.1189Q91.8 191.9314 91.65938 191.63452Q91.53438 191.33765 91.53438 190.38452L91.53438 186.8064L90.76875 186.8064L90.76875 185.9939L91.53438 185.9939L91.53438 184.44702L92.58125 183.82202L92.58125 185.9939L93.64375 185.9939L93.64375 186.8064L92.58125 186.8064L92.58125 190.44702Q92.58125 190.90015 92.62813 191.02515Q92.69063 191.15015 92.81563 191.22827Q92.94063 191.3064 93.175 191.3064Q93.3625 191.3064 93.64375 191.27515ZM98.40938 191.44702Q97.81563 191.94702 97.26875 192.15015Q96.7375 192.35327 96.1125 192.35327Q95.08125 192.35327 94.53438 191.85327Q93.9875 191.35327 93.9875 190.57202Q93.9875 190.1189 94.19063 189.7439Q94.39375 189.35327 94.7375 189.13452Q95.08125 188.90015 95.50313 188.79077Q95.8 188.69702 96.44063 188.6189Q97.70625 188.47827 98.31563 188.25952Q98.31563 188.04077 98.31563 187.9939Q98.31563 187.33765 98.01875 187.07202Q97.6125 186.72827 96.81563 186.72827Q96.08125 186.72827 95.72188 186.9939Q95.3625 187.2439 95.19063 187.90015L94.15938 187.75952Q94.3 187.10327 94.62813 186.69702Q94.95625 186.29077 95.56563 186.07202Q96.175 185.85327 96.97188 185.85327Q97.76875 185.85327 98.26875 186.04077Q98.76875 186.22827 99.00313 186.50952Q99.2375 186.79077 99.33125 187.22827Q99.37813 187.4939 99.37813 188.19702L99.37813 189.60327Q99.37813 191.07202 99.44063 191.46265Q99.51875 191.85327 99.72188 192.21265L98.6125 192.21265Q98.45625 191.88452 98.40938 191.44702ZM98.31563 189.08765Q97.7375 189.32202 96.59688 189.4939Q95.94063 189.58765 95.675 189.71265Q95.40938 189.82202 95.25313 190.04077Q95.1125 190.25952 95.1125 190.54077Q95.1125 190.96265 95.425 191.2439Q95.75313 191.52515 96.3625 191.52515Q96.97188 191.52515 97.44063 191.25952Q97.925 190.9939 98.14375 190.52515Q98.31563 190.16577 98.31563 189.47827L98.31563 189.08765Z" fill-rule="nonzero"/><path fill="#000000" d="M66.34688 255.63792L66.34688 249.41917L67.28438 249.41917L67.28438 250.29417Q67.58125 249.82542 68.06563 249.5598Q68.55 249.27855 69.175 249.27855Q69.8625 249.27855 70.3 249.5598Q70.75313 249.84105 70.925 250.35667Q71.675 249.27855 72.84688 249.27855Q73.78438 249.27855 74.26875 249.79417Q74.76875 250.29417 74.76875 251.3723L74.76875 255.63792L73.72188 255.63792L73.72188 251.71605Q73.72188 251.09105 73.6125 250.8098Q73.51875 250.52855 73.25313 250.35667Q72.9875 250.1848 72.6125 250.1848Q71.95625 250.1848 71.51875 250.6223Q71.09688 251.0598 71.09688 252.02855L71.09688 255.63792L70.03438 255.63792L70.03438 251.59105Q70.03438 250.88792 69.76875 250.54417Q69.51875 250.1848 68.94063 250.1848Q68.4875 250.1848 68.1125 250.41917Q67.7375 250.65355 67.56563 251.10667Q67.39375 251.5598 67.39375 252.40355L67.39375 255.63792L66.34688 255.63792ZM77.3 258.02856L77.175 257.0442Q77.51875 257.13794 77.78438 257.13794Q78.12813 257.13794 78.33125 257.01294Q78.55 256.90356 78.69063 256.70044Q78.78438 256.52856 79.01875 255.90355Q79.03438 255.82542 79.1125 255.65355L76.7375 249.41917L77.87813 249.41917L79.175 253.01292Q79.425 253.70042 79.62813 254.46605Q79.81563 253.73167 80.06563 253.04417L81.39375 249.41917L82.44063 249.41917L80.08125 255.7473Q79.69063 256.76294 79.4875 257.15356Q79.20625 257.6848 78.83125 257.9192Q78.47188 258.1692 77.97188 258.1692Q77.675 258.1692 77.3 258.02856ZM81.78438 255.63792L81.78438 254.77855L85.75313 250.23167Q85.06563 250.26292 84.55 250.26292L82.01875 250.26292L82.01875 249.41917L87.1125 249.41917L87.1125 250.10667L83.7375 254.0598L83.08125 254.77855Q83.8 254.73167 84.40938 254.73167L87.3 254.73167L87.3 255.63792L81.78438 255.63792ZM86.95625 252.52855Q86.95625 250.79417 87.90938 249.96605Q88.70625 249.27855 89.8625 249.27855Q91.14375 249.27855 91.95625 250.1223Q92.78438 250.95042 92.78438 252.4348Q92.78438 253.63792 92.425 254.32542Q92.06563 255.01292 91.3625 255.40355Q90.675 255.77855 89.8625 255.77855Q88.56563 255.77855 87.75313 254.95042Q86.95625 254.10667 86.95625 252.52855ZM88.03438 252.52855Q88.03438 253.71605 88.55 254.3098Q89.08125 254.90355 89.8625 254.90355Q90.65938 254.90355 91.175 254.3098Q91.69063 253.71605 91.69063 252.4973Q91.69063 251.34105 91.15938 250.7473Q90.64375 250.15355 89.8625 250.15355Q89.08125 250.15355 88.55 250.7473Q88.03438 251.32542 88.03438 252.52855ZM98.37813 255.63792L98.37813 254.85667Q97.78438 255.77855 96.64375 255.77855Q95.89375 255.77855 95.26875 255.3723Q94.64375 254.95042 94.3 254.21605Q93.95625 253.48167 93.95625 252.52855Q93.95625 251.60667 94.26875 250.84105Q94.58125 250.07542 95.20625 249.6848Q95.83125 249.27855 96.59688 249.27855Q97.15938 249.27855 97.59688 249.51292Q98.03438 249.7473 98.31563 250.1223L98.31563 247.04417L99.3625 247.04417L99.3625 255.63792L98.37813 255.63792ZM95.05 252.52855Q95.05 253.73167 95.55 254.32542Q96.05 254.90355 96.7375 254.90355Q97.425 254.90355 97.90938 254.34105Q98.39375 253.77855 98.39375 252.6223Q98.39375 251.34105 97.89375 250.7473Q97.40938 250.15355 96.69063 250.15355Q95.9875 250.15355 95.51875 250.73167Q95.05 251.29417 95.05 252.52855Z" fill-rule="nonzero"/><path fill="#000000" d="M103.55 313.21564Q103.55 311.6844 103.8625 310.7625Q104.175 309.825 104.78438 309.325Q105.40938 308.825 106.34688 308.825Q107.03438 308.825 107.55 309.10626Q108.08125 309.3875 108.425 309.91876Q108.76875 310.4344 108.95625 311.1844Q109.14375 311.9344 109.14375 313.21564Q109.14375 314.73126 108.83125 315.65314Q108.53438 316.575 107.90938 317.09064Q107.3 317.59064 106.34688 317.59064Q105.1125 317.59064 104.39375 316.7Q103.55 315.6375 103.55 313.21564ZM104.62813 313.21564Q104.62813 315.325 105.12813 316.02814Q105.62813 316.73126 106.34688 316.73126Q107.08125 316.73126 107.56563 316.02814Q108.06563 315.325 108.06563 313.21564Q108.06563 311.09064 107.56563 310.40314Q107.08125 309.7 106.33125 309.7Q105.6125 309.7 105.175 310.3094Q104.62813 311.09064 104.62813 313.21564Z" fill-rule="nonzero"/><path fill="#000000" d="M198.99875 317.45L197.95187 317.45L197.95187 310.73126Q197.56125 311.09064 196.93625 311.46564Q196.32687 311.825 195.8425 311.9969L195.8425 310.98126Q196.7175 310.5594 197.37375 309.98126Q198.04562 309.3875 198.32687 308.825L198.99875 308.825L198.99875 317.45ZM202.03 313.21564Q202.03 311.6844 202.3425 310.7625Q202.655 309.825 203.26437 309.325Q203.88937 308.825 204.82687 308.825Q205.51437 308.825 206.03 309.10626Q206.56125 309.3875 206.905 309.91876Q207.24875 310.4344 207.43625 311.1844Q207.62375 311.9344 207.62375 313.21564Q207.62375 314.73126 207.31125 315.65314Q207.01437 316.575 206.38937 317.09064Q205.78 317.59064 204.82687 317.59064Q203.5925 317.59064 202.87375 316.7Q202.03 315.6375 202.03 313.21564ZM203.10812 313.21564Q203.10812 315.325 203.60812 316.02814Q204.10812 316.73126 204.82687 316.73126Q205.56125 316.73126 206.04562 316.02814Q206.54562 315.325 206.54562 313.21564Q206.54562 311.09064 206.04562 310.40314Q205.56125 309.7 204.81125 309.7Q204.0925 309.7 203.655 310.3094Q203.10812 311.09064 203.10812 313.21564Z" fill-rule="nonzero"/><path fill="#000000" d="M295.5569 316.4344L295.5569 317.45L289.8694 317.45Q289.8694 317.075 289.9944 316.71564Q290.21313 316.1375 290.6819 315.575Q291.16626 315.0125 292.0725 314.27814Q293.47876 313.1219 293.96313 312.45Q294.46313 311.77814 294.46313 311.1844Q294.46313 310.5594 294.01 310.1375Q293.5569 309.7 292.83813 309.7Q292.0725 309.7 291.6194 310.15314Q291.16626 310.60626 291.15063 311.41876L290.0725 311.3094Q290.1819 310.09064 290.90063 309.46564Q291.635 308.825 292.8694 308.825Q294.10376 308.825 294.8225 309.5125Q295.54126 310.2 295.54126 311.21564Q295.54126 311.73126 295.3225 312.23126Q295.1194 312.71564 294.6194 313.27814Q294.135 313.825 293.01 314.77814Q292.0569 315.575 291.77563 315.8719Q291.51 316.15314 291.33813 316.4344L295.5569 316.4344ZM297.01 313.21564Q297.01 311.6844 297.3225 310.7625Q297.635 309.825 298.2444 309.325Q298.8694 308.825 299.8069 308.825Q300.4944 308.825 301.01 309.10626Q301.54126 309.3875 301.885 309.91876Q302.22876 310.4344 302.41626 311.1844Q302.60376 311.9344 302.60376 313.21564Q302.60376 314.73126 302.29126 315.65314Q301.9944 316.575 301.3694 317.09064Q300.76 317.59064 299.8069 317.59064Q298.5725 317.59064 297.85376 316.7Q297.01 315.6375 297.01 313.21564ZM298.08813 313.21564Q298.08813 315.325 298.58813 316.02814Q299.08813 316.73126 299.8069 316.73126Q300.54126 316.73126 301.02563 316.02814Q301.52563 315.325 301.52563 313.21564Q301.52563 311.09064 301.02563 310.40314Q300.54126 309.7 299.79126 309.7Q299.0725 309.7 298.635 310.3094Q298.08813 311.09064 298.08813 313.21564Z" fill-rule="nonzero"/><path fill="#000000" d="M384.99 315.1844L386.0525 315.04376Q386.22437 315.9344 386.66187 316.34064Q387.09937 316.73126 387.72437 316.73126Q388.47437 316.73126 388.99 316.21564Q389.5056 315.7 389.5056 314.9344Q389.5056 314.21564 389.02124 313.7469Q388.5525 313.2625 387.8181 313.2625Q387.52124 313.2625 387.0681 313.3875L387.1931 312.45Q387.3025 312.46564 387.365 312.46564Q388.03687 312.46564 388.5681 312.1219Q389.115 311.7625 389.115 311.02814Q389.115 310.45 388.72437 310.075Q388.33374 309.6844 387.70874 309.6844Q387.09937 309.6844 386.6775 310.075Q386.27124 310.46564 386.16187 311.23126L385.09937 311.04376Q385.28687 309.9969 385.97437 309.41876Q386.66187 308.825 387.6775 308.825Q388.3806 308.825 388.97437 309.1375Q389.5681 309.4344 389.8806 309.95Q390.1931 310.46564 390.1931 311.0594Q390.1931 311.60626 389.89624 312.075Q389.59937 312.52814 389.02124 312.79376Q389.77124 312.96564 390.1931 313.52814Q390.615 314.075 390.615 314.91876Q390.615 316.04376 389.78687 316.825Q388.97437 317.60626 387.72437 317.60626Q386.59937 317.60626 385.84937 316.9344Q385.09937 316.2469 384.99 315.1844ZM391.99 313.21564Q391.99 311.6844 392.3025 310.7625Q392.615 309.825 393.22437 309.325Q393.84937 308.825 394.78687 308.825Q395.47437 308.825 395.99 309.10626Q396.52124 309.3875 396.865 309.91876Q397.20874 310.4344 397.39624 311.1844Q397.58374 311.9344 397.58374 313.21564Q397.58374 314.73126 397.27124 315.65314Q396.97437 316.575 396.34937 317.09064Q395.74 317.59064 394.78687 317.59064Q393.5525 317.59064 392.83374 316.7Q391.99 315.6375 391.99 313.21564ZM393.0681 313.21564Q393.0681 315.325 393.5681 316.02814Q394.0681 316.73126 394.78687 316.73126Q395.52124 316.73126 396.0056 316.02814Q396.5056 315.325 396.5056 313.21564Q396.5056 311.09064 396.0056 310.40314Q395.52124 309.7 394.77124 309.7Q394.0525 309.7 393.615 310.3094Q393.0681 311.09064 393.0681 313.21564Z" fill-rule="nonzero"/><path fill="#000000" d="M483.345 317.45L483.345 315.3875L479.62625 315.3875L479.62625 314.41876L483.54813 308.85626L484.4075 308.85626L484.4075 314.41876L485.56375 314.41876L485.56375 315.3875L484.4075 315.3875L484.4075 317.45L483.345 317.45ZM483.345 314.41876L483.345 310.5594L480.6575 314.41876L483.345 314.41876ZM486.97 313.21564Q486.97 311.6844 487.2825 310.7625Q487.595 309.825 488.20438 309.325Q488.82938 308.825 489.76688 308.825Q490.45438 308.825 490.97 309.10626Q491.50125 309.3875 491.845 309.91876Q492.18875 310.4344 492.37625 311.1844Q492.56375 311.9344 492.56375 313.21564Q492.56375 314.73126 492.25125 315.65314Q491.95438 316.575 491.32938 317.09064Q490.72 317.59064 489.76688 317.59064Q488.5325 317.59064 487.81375 316.7Q486.97 315.6375 486.97 313.21564ZM488.04813 313.21564Q488.04813 315.325 488.54813 316.02814Q489.04813 316.73126 489.76688 316.73126Q490.50125 316.73126 490.98563 316.02814Q491.48563 315.325 491.48563 313.21564Q491.48563 311.09064 490.98563 310.40314Q490.50125 309.7 489.75125 309.7Q489.0325 309.7 488.595 310.3094Q488.04813 311.09064 488.04813 313.21564Z" fill-rule="nonzero"/><path fill="#000000" d="M574.95 315.2L576.0594 315.10626Q576.1844 315.91876 576.6219 316.325Q577.075 316.73126 577.71564 316.73126Q578.46564 316.73126 578.9969 316.15314Q579.52814 315.575 579.52814 314.6375Q579.52814 313.73126 579.0125 313.21564Q578.5125 312.6844 577.6844 312.6844Q577.1844 312.6844 576.7625 312.91876Q576.35626 313.15314 576.1219 313.5125L575.1375 313.3875L575.96564 308.98126L580.2469 308.98126L580.2469 309.98126L576.8094 309.98126L576.35626 312.29376Q577.1219 311.7469 577.96564 311.7469Q579.09064 311.7469 579.85626 312.52814Q580.6375 313.3094 580.6375 314.54376Q580.6375 315.7 579.96564 316.5594Q579.1375 317.59064 577.71564 317.59064Q576.54376 317.59064 575.79376 316.9344Q575.0594 316.27814 574.95 315.2ZM581.95 313.21564Q581.95 311.6844 582.2625 310.7625Q582.575 309.825 583.1844 309.325Q583.8094 308.825 584.7469 308.825Q585.4344 308.825 585.95 309.10626Q586.48126 309.3875 586.825 309.91876Q587.16876 310.4344 587.35626 311.1844Q587.54376 311.9344 587.54376 313.21564Q587.54376 314.73126 587.23126 315.65314Q586.9344 316.575 586.3094 317.09064Q585.7 317.59064 584.7469 317.59064Q583.5125 317.59064 582.79376 316.7Q581.95 315.6375 581.95 313.21564ZM583.02814 313.21564Q583.02814 315.325 583.52814 316.02814Q584.02814 316.73126 584.7469 316.73126Q585.48126 316.73126 585.96564 316.02814Q586.46564 315.325 586.46564 313.21564Q586.46564 311.09064 585.96564 310.40314Q585.48126 309.7 584.73126 309.7Q584.0125 309.7 583.575 310.3094Q583.02814 311.09064 583.02814 313.21564Z" fill-rule="nonzero"/></svg>