<svg version="1.1" viewBox="0.0 0.0 600.0 371.0" fill="none" stroke="none" stroke-linecap="square"
     stroke-miterlimit="10" width="600" height="371"
     xmlns="http://www.w3.org/2000/svg">
    <path fill="#ffffff" d="M0 0L600.0 0L600.0 371.0L0 371.0L0 0Z" fill-rule="nonzero"/>
    <path stroke="#333333" stroke-width="1.0" stroke-linecap="butt" d="M105.5 44.5L105.5 294.5" fill-rule="nonzero"/>
    <path stroke="#cccccc" stroke-width="1.0" stroke-linecap="butt" d="M224.5 44.5L224.5 294.5" fill-rule="nonzero"/>
    <path stroke="#cccccc" stroke-width="1.0" stroke-linecap="butt" d="M343.5 44.5L343.5 294.5" fill-rule="nonzero"/>
    <path stroke="#cccccc" stroke-width="1.0" stroke-linecap="butt" d="M462.5 44.5L462.5 294.5" fill-rule="nonzero"/>
    <path stroke="#cccccc" stroke-width="1.0" stroke-linecap="butt" d="M581.5 44.5L581.5 294.5" fill-rule="nonzero"/>
    <path stroke="#e6e6e6" stroke-width="1.0" stroke-linecap="butt" d="M145.5 44.5L145.5 294.5" fill-rule="nonzero"/>
    <path stroke="#e6e6e6" stroke-width="1.0" stroke-linecap="butt" d="M184.5 44.5L184.5 294.5" fill-rule="nonzero"/>
    <path stroke="#e6e6e6" stroke-width="1.0" stroke-linecap="butt" d="M264.5 44.5L264.5 294.5" fill-rule="nonzero"/>
    <path stroke="#e6e6e6" stroke-width="1.0" stroke-linecap="butt" d="M303.5 44.5L303.5 294.5" fill-rule="nonzero"/>
    <path stroke="#e6e6e6" stroke-width="1.0" stroke-linecap="butt" d="M383.5 44.5L383.5 294.5" fill-rule="nonzero"/>
    <path stroke="#e6e6e6" stroke-width="1.0" stroke-linecap="butt" d="M422.5 44.5L422.5 294.5" fill-rule="nonzero"/>
    <path stroke="#e6e6e6" stroke-width="1.0" stroke-linecap="butt" d="M502.5 44.5L502.5 294.5" fill-rule="nonzero"/>
    <path stroke="#e6e6e6" stroke-width="1.0" stroke-linecap="butt" d="M541.5 44.5L541.5 294.5" fill-rule="nonzero"/>
    <path stroke="#000000" stroke-width="1.0" stroke-linecap="butt" d="M581.5 294.5L105.5 294.5" fill-rule="nonzero"/>
    <clipPath id="id_0">
        <path d="M105.55 44.916668L581.45 44.916668L581.45 294.45L105.55 294.45L105.55 44.916668Z" clip-rule="nonzero"/>
    </clipPath>
    <path stroke="#000000" stroke-width="2.0" stroke-linecap="butt" stroke-opacity="0.0" clip-path="url(#id_0)"
          d="M106.0 75.0L106.0 62.0L575.0 62.0C576.10455 62.0 577.0 62.89543 577.0 64.0L577.0 73.0C577.0 74.10457 576.10455 75.0 575.0 75.0Z"
          fill-rule="nonzero"/>
    <path fill="#4285f4" clip-path="url(#id_0)"
          d="M106.0 75.0L106.0 62.0L575.0 62.0C576.10455 62.0 577.0 62.89543 577.0 64.0L577.0 73.0C577.0 74.10457 576.10455 75.0 575.0 75.0Z"
          fill-rule="nonzero"/>
    <path stroke="#000000" stroke-width="2.0" stroke-linecap="butt" stroke-opacity="0.0" clip-path="url(#id_0)"
          d="M106.0 122.0L106.0 109.0L213.0 109.0C214.10457 109.0 215.0 109.89543 215.0 111.0L215.0 120.0C215.0 121.10457 214.10457 122.0 213.0 122.0Z"
          fill-rule="nonzero"/>
    <path fill="#4285f4" clip-path="url(#id_0)"
          d="M106.0 122.0L106.0 109.0L213.0 109.0C214.10457 109.0 215.0 109.89543 215.0 111.0L215.0 120.0C215.0 121.10457 214.10457 122.0 213.0 122.0Z"
          fill-rule="nonzero"/>
    <path stroke="#000000" stroke-width="2.0" stroke-linecap="butt" stroke-opacity="0.0" clip-path="url(#id_0)"
          d="M106.0 169.0L106.0 156.0L205.0 156.0C206.10457 156.0 207.0 156.89543 207.0 158.0L207.0 167.0C207.0 168.10457 206.10457 169.0 205.0 169.0Z"
          fill-rule="nonzero"/>
    <path fill="#4285f4" clip-path="url(#id_0)"
          d="M106.0 169.0L106.0 156.0L205.0 156.0C206.10457 156.0 207.0 156.89543 207.0 158.0L207.0 167.0C207.0 168.10457 206.10457 169.0 205.0 169.0Z"
          fill-rule="nonzero"/>
    <path stroke="#000000" stroke-width="2.0" stroke-linecap="butt" stroke-opacity="0.0" clip-path="url(#id_0)"
          d="M106.0 215.0L106.0 202.0L138.0 202.0C139.10457 202.0 140.0 202.89543 140.0 204.0L140.0 213.0C140.0 214.10457 139.10457 215.0 138.0 215.0Z"
          fill-rule="nonzero"/>
    <path fill="#4285f4" clip-path="url(#id_0)"
          d="M106.0 215.0L106.0 202.0L138.0 202.0C139.10457 202.0 140.0 202.89543 140.0 204.0L140.0 213.0C140.0 214.10457 139.10457 215.0 138.0 215.0Z"
          fill-rule="nonzero"/>
    <path stroke="#000000" stroke-width="2.0" stroke-linecap="butt" stroke-opacity="0.0" clip-path="url(#id_0)"
          d="M106.0 262.0L106.0 249.0L117.0 249.0C118.10457 249.0 119.0 249.89543 119.0 251.0L119.0 260.0C119.0 261.10458 118.10457 262.0 117.0 262.0Z"
          fill-rule="nonzero"/>
    <path fill="#4285f4" clip-path="url(#id_0)"
          d="M106.0 262.0L106.0 249.0L117.0 249.0C118.10457 249.0 119.0 249.89543 119.0 251.0L119.0 260.0C119.0 261.10458 118.10457 262.0 117.0 262.0Z"
          fill-rule="nonzero"/>
    <path stroke="#000000" stroke-width="2.0" stroke-linecap="butt" stroke-opacity="0.0" clip-path="url(#id_0)"
          d="M106.0 90.0L106.0 77.0L356.0 77.0C357.10458 77.0 358.0 77.89543 358.0 79.0L358.0 88.0C358.0 89.10457 357.10458 90.0 356.0 90.0Z"
          fill-rule="nonzero"/>
    <path fill="#ea4335" clip-path="url(#id_0)"
          d="M106.0 90.0L106.0 77.0L356.0 77.0C357.10458 77.0 358.0 77.89543 358.0 79.0L358.0 88.0C358.0 89.10457 357.10458 90.0 356.0 90.0Z"
          fill-rule="nonzero"/>
    <path stroke="#000000" stroke-width="2.0" stroke-linecap="butt" stroke-opacity="0.0" clip-path="url(#id_0)"
          d="M106.0 137.0L106.0 124.0L202.0 124.0C203.10457 124.0 204.0 124.89543 204.0 126.0L204.0 135.0C204.0 136.10457 203.10457 137.0 202.0 137.0Z"
          fill-rule="nonzero"/>
    <path fill="#ea4335" clip-path="url(#id_0)"
          d="M106.0 137.0L106.0 124.0L202.0 124.0C203.10457 124.0 204.0 124.89543 204.0 126.0L204.0 135.0C204.0 136.10457 203.10457 137.0 202.0 137.0Z"
          fill-rule="nonzero"/>
    <path stroke="#000000" stroke-width="2.0" stroke-linecap="butt" stroke-opacity="0.0" clip-path="url(#id_0)"
          d="M106.0 184.0L106.0 171.0L200.0 171.0C201.10457 171.0 202.0 171.89543 202.0 173.0L202.0 182.0C202.0 183.10457 201.10457 184.0 200.0 184.0Z"
          fill-rule="nonzero"/>
    <path fill="#ea4335" clip-path="url(#id_0)"
          d="M106.0 184.0L106.0 171.0L200.0 171.0C201.10457 171.0 202.0 171.89543 202.0 173.0L202.0 182.0C202.0 183.10457 201.10457 184.0 200.0 184.0Z"
          fill-rule="nonzero"/>
    <path stroke="#000000" stroke-width="2.0" stroke-linecap="butt" stroke-opacity="0.0" clip-path="url(#id_0)"
          d="M106.0 230.0L106.0 217.0L140.0 217.0C141.10457 217.0 142.0 217.89543 142.0 219.0L142.0 228.0C142.0 229.10457 141.10457 230.0 140.0 230.0Z"
          fill-rule="nonzero"/>
    <path fill="#ea4335" clip-path="url(#id_0)"
          d="M106.0 230.0L106.0 217.0L140.0 217.0C141.10457 217.0 142.0 217.89543 142.0 219.0L142.0 228.0C142.0 229.10457 141.10457 230.0 140.0 230.0Z"
          fill-rule="nonzero"/>
    <path stroke="#000000" stroke-width="2.0" stroke-linecap="butt" stroke-opacity="0.0" clip-path="url(#id_0)"
          d="M106.0 277.0L106.0 264.0L117.0 264.0C118.10457 264.0 119.0 264.89542 119.0 266.0L119.0 275.0C119.0 276.10458 118.10457 277.0 117.0 277.0Z"
          fill-rule="nonzero"/>
    <path fill="#ea4335" clip-path="url(#id_0)"
          d="M106.0 277.0L106.0 264.0L117.0 264.0C118.10457 264.0 119.0 264.89542 119.0 266.0L119.0 275.0C119.0 276.10458 118.10457 277.0 117.0 277.0Z"
          fill-rule="nonzero"/>
    <path stroke="#000000" stroke-width="1.0" stroke-linecap="butt" d="M105.5 300.5L105.5 288.5" fill-rule="nonzero"/>
    <path stroke="#000000" stroke-width="1.0" stroke-linecap="butt" d="M224.5 300.5L224.5 288.5" fill-rule="nonzero"/>
    <path stroke="#000000" stroke-width="1.0" stroke-linecap="butt" d="M343.5 300.5L343.5 288.5" fill-rule="nonzero"/>
    <path stroke="#000000" stroke-width="1.0" stroke-linecap="butt" d="M462.5 300.5L462.5 288.5" fill-rule="nonzero"/>
    <path stroke="#000000" stroke-width="1.0" stroke-linecap="butt" d="M581.5 300.5L581.5 288.5" fill-rule="nonzero"/>
    <path fill="#000000"
          d="M260.89062 349.45L260.89062 340.85626L262.60938 340.85626L264.64062 346.9344Q264.92188 347.79376 265.04688 348.21564Q265.1875 347.7469 265.5 346.84064L267.5625 340.85626L269.09375 340.85626L269.09375 349.45L268.0 349.45L268.0 342.2625L265.5 349.45L264.46875 349.45L261.98438 342.1375L261.98438 349.45L260.89062 349.45ZM269.79688 342.075L269.79688 340.85626L270.85938 340.85626L270.85938 342.075L269.79688 342.075ZM269.79688 349.45L269.79688 343.23126L270.85938 343.23126L270.85938 349.45L269.79688 349.45ZM272.76562 349.45L272.76562 340.85626L273.82812 340.85626L273.82812 349.45L272.76562 349.45ZM275.76562 349.45L275.76562 340.85626L276.82812 340.85626L276.82812 349.45L275.76562 349.45ZM278.79688 342.075L278.79688 340.85626L279.85938 340.85626L279.85938 342.075L278.79688 342.075ZM278.79688 349.45L278.79688 343.23126L279.85938 343.23126L279.85938 349.45L278.79688 349.45ZM281.40625 346.34064Q281.40625 344.60626 282.35938 343.77814Q283.15625 343.09064 284.3125 343.09064Q285.59375 343.09064 286.40625 343.9344Q287.23438 344.7625 287.23438 346.2469Q287.23438 347.45 286.875 348.1375Q286.51562 348.825 285.8125 349.21564Q285.125 349.59064 284.3125 349.59064Q283.01562 349.59064 282.20312 348.7625Q281.40625 347.91876 281.40625 346.34064ZM282.48438 346.34064Q282.48438 347.52814 283.0 348.1219Q283.53125 348.71564 284.3125 348.71564Q285.10938 348.71564 285.625 348.1219Q286.14062 347.52814 286.14062 346.3094Q286.14062 345.15314 285.60938 344.5594Q285.09375 343.96564 284.3125 343.96564Q283.53125 343.96564 283.0 344.5594Q282.48438 345.1375 282.48438 346.34064ZM288.79688 349.45L288.79688 343.23126L289.73438 343.23126L289.73438 344.10626Q290.42188 343.09064 291.71875 343.09064Q292.28125 343.09064 292.75 343.29376Q293.23438 343.4969 293.46875 343.825Q293.70312 344.15314 293.79688 344.59064Q293.84375 344.8875 293.84375 345.6219L293.84375 349.45L292.79688 349.45L292.79688 345.66876Q292.79688 345.0125 292.67188 344.7Q292.54688 344.3875 292.23438 344.2Q291.92188 343.9969 291.5 343.9969Q290.82812 343.9969 290.32812 344.4344Q289.84375 344.85626 289.84375 346.04376L289.84375 349.45L288.79688 349.45ZM295.375 347.59064L296.40625 347.4344Q296.5 348.0594 296.89062 348.3875Q297.29688 348.71564 298.03125 348.71564Q298.75 348.71564 299.09375 348.4344Q299.45312 348.1375 299.45312 347.73126Q299.45312 347.3719 299.14062 347.16876Q298.92188 347.02814 298.0625 346.8094Q296.90625 346.5125 296.45312 346.3094Q296.01562 346.09064 295.78125 345.71564Q295.54688 345.34064 295.54688 344.8719Q295.54688 344.46564 295.73438 344.10626Q295.92188 343.7469 296.25 343.5125Q296.5 343.34064 296.92188 343.21564Q297.34375 343.09064 297.84375 343.09064Q298.5625 343.09064 299.10938 343.3094Q299.67188 343.5125 299.9375 343.8719Q300.20312 344.23126 300.29688 344.825L299.26562 344.96564Q299.20312 344.4969 298.85938 344.23126Q298.53125 343.95 297.90625 343.95Q297.1875 343.95 296.875 344.2Q296.5625 344.4344 296.5625 344.7625Q296.5625 344.96564 296.6875 345.1219Q296.82812 345.29376 297.09375 345.40314Q297.25 345.46564 298.03125 345.66876Q299.15625 345.98126 299.59375 346.16876Q300.03125 346.35626 300.28125 346.71564Q300.53125 347.075 300.53125 347.6219Q300.53125 348.15314 300.21875 348.6219Q299.92188 349.075 299.34375 349.34064Q298.76562 349.59064 298.03125 349.59064Q296.8125 349.59064 296.17188 349.09064Q295.54688 348.575 295.375 347.59064ZM305.40625 346.34064Q305.40625 344.60626 306.35938 343.77814Q307.15625 343.09064 308.3125 343.09064Q309.59375 343.09064 310.40625 343.9344Q311.23438 344.7625 311.23438 346.2469Q311.23438 347.45 310.875 348.1375Q310.51562 348.825 309.8125 349.21564Q309.125 349.59064 308.3125 349.59064Q307.01562 349.59064 306.20312 348.7625Q305.40625 347.91876 305.40625 346.34064ZM306.48438 346.34064Q306.48438 347.52814 307.0 348.1219Q307.53125 348.71564 308.3125 348.71564Q309.10938 348.71564 309.625 348.1219Q310.14062 347.52814 310.14062 346.3094Q310.14062 345.15314 309.60938 344.5594Q309.09375 343.96564 308.3125 343.96564Q307.53125 343.96564 307.0 344.5594Q306.48438 345.1375 306.48438 346.34064ZM313.04688 349.45L313.04688 344.04376L312.10938 344.04376L312.10938 343.23126L313.04688 343.23126L313.04688 342.5594Q313.04688 341.9344 313.15625 341.6375Q313.3125 341.21564 313.6875 340.96564Q314.07812 340.71564 314.76562 340.71564Q315.21875 340.71564 315.75 340.825L315.59375 341.73126Q315.26562 341.6844 314.96875 341.6844Q314.48438 341.6844 314.28125 341.8875Q314.09375 342.09064 314.09375 342.65314L314.09375 343.23126L315.3125 343.23126L315.3125 344.04376L314.09375 344.04376L314.09375 349.45L313.04688 349.45ZM318.40625 346.34064Q318.40625 344.60626 319.35938 343.77814Q320.15625 343.09064 321.3125 343.09064Q322.59375 343.09064 323.40625 343.9344Q324.23438 344.7625 324.23438 346.2469Q324.23438 347.45 323.875 348.1375Q323.51562 348.825 322.8125 349.21564Q322.125 349.59064 321.3125 349.59064Q320.01562 349.59064 319.20312 348.7625Q318.40625 347.91876 318.40625 346.34064ZM319.48438 346.34064Q319.48438 347.52814 320.0 348.1219Q320.53125 348.71564 321.3125 348.71564Q322.10938 348.71564 322.625 348.1219Q323.14062 347.52814 323.14062 346.3094Q323.14062 345.15314 322.60938 344.5594Q322.09375 343.96564 321.3125 343.96564Q320.53125 343.96564 320.0 344.5594Q319.48438 345.1375 319.48438 346.34064ZM325.79688 351.84064L325.79688 343.23126L326.75 343.23126L326.75 344.02814Q327.09375 343.5594 327.51562 343.325Q327.95312 343.09064 328.5625 343.09064Q329.35938 343.09064 329.96875 343.4969Q330.57812 343.90314 330.875 344.65314Q331.1875 345.40314 331.1875 346.29376Q331.1875 347.2469 330.84375 348.0125Q330.51562 348.77814 329.85938 349.1844Q329.20312 349.59064 328.48438 349.59064Q327.95312 349.59064 327.53125 349.3719Q327.10938 349.1375 326.84375 348.8094L326.84375 351.84064L325.79688 351.84064ZM326.75 346.3719Q326.75 347.575 327.23438 348.15314Q327.71875 348.71564 328.40625 348.71564Q329.10938 348.71564 329.60938 348.1219Q330.10938 347.52814 330.10938 346.27814Q330.10938 345.09064 329.625 344.5125Q329.14062 343.91876 328.45312 343.91876Q327.78125 343.91876 327.26562 344.54376Q326.75 345.16876 326.75 346.3719ZM337.04688 347.45L338.14062 347.575Q337.89062 348.52814 337.1875 349.0594Q336.48438 349.59064 335.40625 349.59064Q334.04688 349.59064 333.23438 348.7469Q332.4375 347.90314 332.4375 346.3875Q332.4375 344.825 333.25 343.96564Q334.0625 343.09064 335.34375 343.09064Q336.59375 343.09064 337.375 343.9344Q338.17188 344.77814 338.17188 346.325Q338.17188 346.41876 338.17188 346.60626L333.53125 346.60626Q333.59375 347.6375 334.10938 348.1844Q334.625 348.71564 335.40625 348.71564Q335.98438 348.71564 336.39062 348.41876Q336.8125 348.10626 337.04688 347.45ZM333.59375 345.7469L337.0625 345.7469Q337.0 344.95 336.67188 344.5594Q336.15625 343.95 335.35938 343.95Q334.625 343.95 334.125 344.4344Q333.64062 344.91876 333.59375 345.7469ZM339.78125 349.45L339.78125 343.23126L340.73438 343.23126L340.73438 344.16876Q341.09375 343.5125 341.39062 343.3094Q341.70312 343.09064 342.07812 343.09064Q342.60938 343.09064 343.15625 343.41876L342.79688 344.40314Q342.40625 344.16876 342.03125 344.16876Q341.67188 344.16876 341.39062 344.3875Q341.125 344.59064 341.01562 344.96564Q340.82812 345.52814 340.82812 346.1844L340.82812 349.45L339.78125 349.45ZM347.85938 348.6844Q347.26562 349.1844 346.71875 349.3875Q346.1875 349.59064 345.5625 349.59064Q344.53125 349.59064 343.98438 349.09064Q343.4375 348.59064 343.4375 347.8094Q343.4375 347.35626 343.64062 346.98126Q343.84375 346.59064 344.1875 346.3719Q344.53125 346.1375 344.95312 346.02814Q345.25 345.9344 345.89062 345.85626Q347.15625 345.71564 347.76562 345.4969Q347.76562 345.27814 347.76562 345.23126Q347.76562 344.575 347.46875 344.3094Q347.0625 343.96564 346.26562 343.96564Q345.53125 343.96564 345.17188 344.23126Q344.8125 344.48126 344.64062 345.1375L343.60938 344.9969Q343.75 344.34064 344.07812 343.9344Q344.40625 343.52814 345.01562 343.3094Q345.625 343.09064 346.42188 343.09064Q347.21875 343.09064 347.71875 343.27814Q348.21875 343.46564 348.45312 343.7469Q348.6875 344.02814 348.78125 344.46564Q348.82812 344.73126 348.82812 345.4344L348.82812 346.84064Q348.82812 348.3094 348.89062 348.7Q348.96875 349.09064 349.17188 349.45L348.0625 349.45Q347.90625 349.1219 347.85938 348.6844ZM347.76562 346.325Q347.1875 346.5594 346.04688 346.73126Q345.39062 346.825 345.125 346.95Q344.85938 347.0594 344.70312 347.27814Q344.5625 347.4969 344.5625 347.77814Q344.5625 348.2 344.875 348.48126Q345.20312 348.7625 345.8125 348.7625Q346.42188 348.7625 346.89062 348.4969Q347.375 348.23126 347.59375 347.7625Q347.76562 347.40314 347.76562 346.71564L347.76562 346.325ZM353.09375 348.5125L353.25 349.4344Q352.79688 349.52814 352.45312 349.52814Q351.875 349.52814 351.5625 349.35626Q351.25 349.16876 351.10938 348.8719Q350.98438 348.575 350.98438 347.6219L350.98438 344.04376L350.21875 344.04376L350.21875 343.23126L350.98438 343.23126L350.98438 341.6844L352.03125 341.0594L352.03125 343.23126L353.09375 343.23126L353.09375 344.04376L352.03125 344.04376L352.03125 347.6844Q352.03125 348.1375 352.07812 348.2625Q352.14062 348.3875 352.26562 348.46564Q352.39062 348.54376 352.625 348.54376Q352.8125 348.54376 353.09375 348.5125ZM353.79688 342.075L353.79688 340.85626L354.85938 340.85626L354.85938 342.075L353.79688 342.075ZM353.79688 349.45L353.79688 343.23126L354.85938 343.23126L354.85938 349.45L353.79688 349.45ZM356.40625 346.34064Q356.40625 344.60626 357.35938 343.77814Q358.15625 343.09064 359.3125 343.09064Q360.59375 343.09064 361.40625 343.9344Q362.23438 344.7625 362.23438 346.2469Q362.23438 347.45 361.875 348.1375Q361.51562 348.825 360.8125 349.21564Q360.125 349.59064 359.3125 349.59064Q358.01562 349.59064 357.20312 348.7625Q356.40625 347.91876 356.40625 346.34064ZM357.48438 346.34064Q357.48438 347.52814 358.0 348.1219Q358.53125 348.71564 359.3125 348.71564Q360.10938 348.71564 360.625 348.1219Q361.14062 347.52814 361.14062 346.3094Q361.14062 345.15314 360.60938 344.5594Q360.09375 343.96564 359.3125 343.96564Q358.53125 343.96564 358.0 344.5594Q357.48438 345.1375 357.48438 346.34064ZM363.79688 349.45L363.79688 343.23126L364.73438 343.23126L364.73438 344.10626Q365.42188 343.09064 366.71875 343.09064Q367.28125 343.09064 367.75 343.29376Q368.23438 343.4969 368.46875 343.825Q368.70312 344.15314 368.79688 344.59064Q368.84375 344.8875 368.84375 345.6219L368.84375 349.45L367.79688 349.45L367.79688 345.66876Q367.79688 345.0125 367.67188 344.7Q367.54688 344.3875 367.23438 344.2Q366.92188 343.9969 366.5 343.9969Q365.82812 343.9969 365.32812 344.4344Q364.84375 344.85626 364.84375 346.04376L364.84375 349.45L363.79688 349.45ZM370.375 347.59064L371.40625 347.4344Q371.5 348.0594 371.89062 348.3875Q372.29688 348.71564 373.03125 348.71564Q373.75 348.71564 374.09375 348.4344Q374.45312 348.1375 374.45312 347.73126Q374.45312 347.3719 374.14062 347.16876Q373.92188 347.02814 373.0625 346.8094Q371.90625 346.5125 371.45312 346.3094Q371.01562 346.09064 370.78125 345.71564Q370.54688 345.34064 370.54688 344.8719Q370.54688 344.46564 370.73438 344.10626Q370.92188 343.7469 371.25 343.5125Q371.5 343.34064 371.92188 343.21564Q372.34375 343.09064 372.84375 343.09064Q373.5625 343.09064 374.10938 343.3094Q374.67188 343.5125 374.9375 343.8719Q375.20312 344.23126 375.29688 344.825L374.26562 344.96564Q374.20312 344.4969 373.85938 344.23126Q373.53125 343.95 372.90625 343.95Q372.1875 343.95 371.875 344.2Q371.5625 344.4344 371.5625 344.7625Q371.5625 344.96564 371.6875 345.1219Q371.82812 345.29376 372.09375 345.40314Q372.25 345.46564 373.03125 345.66876Q374.15625 345.98126 374.59375 346.16876Q375.03125 346.35626 375.28125 346.71564Q375.53125 347.075 375.53125 347.6219Q375.53125 348.15314 375.21875 348.6219Q374.92188 349.075 374.34375 349.34064Q373.76562 349.59064 373.03125 349.59064Q371.8125 349.59064 371.17188 349.09064Q370.54688 348.575 370.375 347.59064ZM380.0 349.59064L382.48438 340.71564L383.32812 340.71564L380.84375 349.59064L380.0 349.59064ZM386.375 347.59064L387.40625 347.4344Q387.5 348.0594 387.89062 348.3875Q388.29688 348.71564 389.03125 348.71564Q389.75 348.71564 390.09375 348.4344Q390.45312 348.1375 390.45312 347.73126Q390.45312 347.3719 390.14062 347.16876Q389.92188 347.02814 389.0625 346.8094Q387.90625 346.5125 387.45312 346.3094Q387.01562 346.09064 386.78125 345.71564Q386.54688 345.34064 386.54688 344.8719Q386.54688 344.46564 386.73438 344.10626Q386.92188 343.7469 387.25 343.5125Q387.5 343.34064 387.92188 343.21564Q388.34375 343.09064 388.84375 343.09064Q389.5625 343.09064 390.10938 343.3094Q390.67188 343.5125 390.9375 343.8719Q391.20312 344.23126 391.29688 344.825L390.26562 344.96564Q390.20312 344.4969 389.85938 344.23126Q389.53125 343.95 388.90625 343.95Q388.1875 343.95 387.875 344.2Q387.5625 344.4344 387.5625 344.7625Q387.5625 344.96564 387.6875 345.1219Q387.82812 345.29376 388.09375 345.40314Q388.25 345.46564 389.03125 345.66876Q390.15625 345.98126 390.59375 346.16876Q391.03125 346.35626 391.28125 346.71564Q391.53125 347.075 391.53125 347.6219Q391.53125 348.15314 391.21875 348.6219Q390.92188 349.075 390.34375 349.34064Q389.76562 349.59064 389.03125 349.59064Q387.8125 349.59064 387.17188 349.09064Q386.54688 348.575 386.375 347.59064ZM398.04688 347.45L399.14062 347.575Q398.89062 348.52814 398.1875 349.0594Q397.48438 349.59064 396.40625 349.59064Q395.04688 349.59064 394.23438 348.7469Q393.4375 347.90314 393.4375 346.3875Q393.4375 344.825 394.25 343.96564Q395.0625 343.09064 396.34375 343.09064Q397.59375 343.09064 398.375 343.9344Q399.17188 344.77814 399.17188 346.325Q399.17188 346.41876 399.17188 346.60626L394.53125 346.60626Q394.59375 347.6375 395.10938 348.1844Q395.625 348.71564 396.40625 348.71564Q396.98438 348.71564 397.39062 348.41876Q397.8125 348.10626 398.04688 347.45ZM394.59375 345.7469L398.0625 345.7469Q398.0 344.95 397.67188 344.5594Q397.15625 343.95 396.35938 343.95Q395.625 343.95 395.125 344.4344Q394.64062 344.91876 394.59375 345.7469ZM404.85938 347.16876L405.89062 347.3094Q405.71875 348.3719 405.01562 348.98126Q404.3125 349.59064 403.29688 349.59064Q402.01562 349.59064 401.23438 348.7625Q400.46875 347.91876 400.46875 346.35626Q400.46875 345.35626 400.79688 344.60626Q401.14062 343.84064 401.8125 343.46564Q402.5 343.09064 403.3125 343.09064Q404.3125 343.09064 404.95312 343.60626Q405.60938 344.10626 405.79688 345.0594L404.76562 345.21564Q404.625 344.59064 404.25 344.27814Q403.875 343.95 403.34375 343.95Q402.54688 343.95 402.04688 344.52814Q401.54688 345.09064 401.54688 346.325Q401.54688 347.59064 402.03125 348.15314Q402.51562 348.71564 403.28125 348.71564Q403.90625 348.71564 404.3125 348.34064Q404.73438 347.96564 404.85938 347.16876ZM406.40625 346.34064Q406.40625 344.60626 407.35938 343.77814Q408.15625 343.09064 409.3125 343.09064Q410.59375 343.09064 411.40625 343.9344Q412.23438 344.7625 412.23438 346.2469Q412.23438 347.45 411.875 348.1375Q411.51562 348.825 410.8125 349.21564Q410.125 349.59064 409.3125 349.59064Q408.01562 349.59064 407.20312 348.7625Q406.40625 347.91876 406.40625 346.34064ZM407.48438 346.34064Q407.48438 347.52814 408.0 348.1219Q408.53125 348.71564 409.3125 348.71564Q410.10938 348.71564 410.625 348.1219Q411.14062 347.52814 411.14062 346.3094Q411.14062 345.15314 410.60938 344.5594Q410.09375 343.96564 409.3125 343.96564Q408.53125 343.96564 408.0 344.5594Q407.48438 345.1375 407.48438 346.34064ZM413.79688 349.45L413.79688 343.23126L414.73438 343.23126L414.73438 344.10626Q415.42188 343.09064 416.71875 343.09064Q417.28125 343.09064 417.75 343.29376Q418.23438 343.4969 418.46875 343.825Q418.70312 344.15314 418.79688 344.59064Q418.84375 344.8875 418.84375 345.6219L418.84375 349.45L417.79688 349.45L417.79688 345.66876Q417.79688 345.0125 417.67188 344.7Q417.54688 344.3875 417.23438 344.2Q416.92188 343.9969 416.5 343.9969Q415.82812 343.9969 415.32812 344.4344Q414.84375 344.85626 414.84375 346.04376L414.84375 349.45L413.79688 349.45ZM424.82812 349.45L424.82812 348.66876Q424.23438 349.59064 423.09375 349.59064Q422.34375 349.59064 421.71875 349.1844Q421.09375 348.7625 420.75 348.02814Q420.40625 347.29376 420.40625 346.34064Q420.40625 345.41876 420.71875 344.65314Q421.03125 343.8875 421.65625 343.4969Q422.28125 343.09064 423.04688 343.09064Q423.60938 343.09064 424.04688 343.325Q424.48438 343.5594 424.76562 343.9344L424.76562 340.85626L425.8125 340.85626L425.8125 349.45L424.82812 349.45ZM421.5 346.34064Q421.5 347.54376 422.0 348.1375Q422.5 348.71564 423.1875 348.71564Q423.875 348.71564 424.35938 348.15314Q424.84375 347.59064 424.84375 346.4344Q424.84375 345.15314 424.34375 344.5594Q423.85938 343.96564 423.14062 343.96564Q422.4375 343.96564 421.96875 344.54376Q421.5 345.10626 421.5 346.34064Z"
          fill-rule="nonzero"/>
    <path fill="#000000"
          d="M43.409374 79.63422Q42.815624 80.13422 42.26875 80.33734Q41.7375 80.54047 41.1125 80.54047Q40.08125 80.54047 39.534374 80.04047Q38.9875 79.54047 38.9875 78.75922Q38.9875 78.30609 39.190624 77.93109Q39.39375 77.54047 39.7375 77.32172Q40.08125 77.08734 40.503124 76.97797Q40.8 76.88422 41.440624 76.80609Q42.70625 76.66547 43.315624 76.44672Q43.315624 76.22797 43.315624 76.18109Q43.315624 75.52484 43.01875 75.25922Q42.6125 74.91547 41.815624 74.91547Q41.08125 74.91547 40.721874 75.18109Q40.3625 75.43109 40.190624 76.08734L39.159374 75.94672Q39.3 75.29047 39.628124 74.88422Q39.95625 74.47797 40.565624 74.25922Q41.175 74.04047 41.971874 74.04047Q42.76875 74.04047 43.26875 74.22797Q43.76875 74.41547 44.003124 74.69672Q44.2375 74.97797 44.33125 75.41547Q44.378124 75.68109 44.378124 76.38422L44.378124 77.79047Q44.378124 79.25922 44.440624 79.64984Q44.51875 80.04047 44.721874 80.39984L43.6125 80.39984Q43.45625 80.07172 43.409374 79.63422ZM43.315624 77.27484Q42.7375 77.50922 41.596874 77.68109Q40.940624 77.77484 40.675 77.89984Q40.409374 78.00922 40.253124 78.22797Q40.1125 78.44672 40.1125 78.72797Q40.1125 79.14984 40.425 79.43109Q40.753124 79.71234 41.3625 79.71234Q41.971874 79.71234 42.440624 79.44672Q42.925 79.18109 43.14375 78.71234Q43.315624 78.35297 43.315624 77.66547L43.315624 77.27484ZM46.33125 73.04047L46.33125 71.80609L47.39375 71.80609L47.39375 73.04047L46.33125 73.04047ZM45.003124 82.82172L45.190624 81.91547Q45.51875 81.99359 45.690624 81.99359Q46.01875 81.99359 46.175 81.77484Q46.33125 81.57172 46.33125 80.71234L46.33125 74.18109L47.39375 74.18109L47.39375 80.74359Q47.39375 81.88422 47.096874 82.33734Q46.70625 82.93109 45.83125 82.93109Q45.39375 82.93109 45.003124 82.82172ZM51.065624 80.39984L48.70625 74.18109L49.815624 74.18109L51.159374 77.89984Q51.3625 78.50922 51.55 79.14984Q51.690624 78.66547 51.940624 77.97797L53.33125 74.18109L54.409374 74.18109L52.05 80.39984L51.065624 80.39984ZM60.346874 79.44672Q59.971874 79.88422 59.503124 80.14984Q59.034374 80.41547 58.55 80.41547Q58.034374 80.41547 57.534374 80.11859Q57.05 79.80609 56.7375 79.18109Q56.440624 78.54047 56.440624 77.79047Q56.440624 76.85297 56.909374 75.91547Q57.39375 74.97797 58.096874 74.50922Q58.8 74.04047 59.471874 74.04047Q59.9875 74.04047 60.440624 74.32172Q60.909374 74.58734 61.2375 75.11859L61.440624 74.21234L62.4875 74.21234L61.64375 78.14984Q61.471874 78.96234 61.471874 79.05609Q61.471874 79.21234 61.58125 79.33734Q61.70625 79.44672 61.878124 79.44672Q62.190624 79.44672 62.690624 79.08734Q63.3625 78.61859 63.753124 77.83734Q64.14375 77.04047 64.14375 76.19672Q64.14375 75.22797 63.64375 74.38422Q63.14375 73.52484 62.14375 73.02484Q61.159374 72.50922 59.95625 72.50922Q58.58125 72.50922 57.440624 73.14984Q56.315624 73.79047 55.690624 74.99359Q55.065624 76.18109 55.065624 77.55609Q55.065624 78.99359 55.690624 80.04047Q56.315624 81.07172 57.4875 81.55609Q58.675 82.05609 60.1125 82.05609Q61.64375 82.05609 62.675 81.54047Q63.721874 81.02484 64.2375 80.29047L65.3 80.29047Q65.00313 80.89984 64.26875 81.54047Q63.55 82.18109 62.55 82.55609Q61.55 82.93109 60.128124 82.93109Q58.83125 82.93109 57.721874 82.58734Q56.628124 82.25922 55.846874 81.58734Q55.08125 80.91547 54.690624 80.04047Q54.20625 78.93109 54.20625 77.64984Q54.20625 76.22797 54.784374 74.93109Q55.503124 73.33734 56.815624 72.49359Q58.128124 71.64984 60.003124 71.64984Q61.45625 71.64984 62.6125 72.24359Q63.76875 72.83734 64.44063 74.02484Q65.01875 75.02484 65.01875 76.22797Q65.01875 77.91547 63.815624 79.24359Q62.753124 80.43109 61.4875 80.43109Q61.08125 80.43109 60.83125 80.30609Q60.58125 80.18109 60.471874 79.94672Q60.39375 79.80609 60.346874 79.44672ZM57.51875 77.85297Q57.51875 78.66547 57.89375 79.11859Q58.284374 79.55609 58.76875 79.55609Q59.096874 79.55609 59.45625 79.35297Q59.83125 79.14984 60.159374 78.77484Q60.4875 78.38422 60.690624 77.79047Q60.909374 77.19672 60.909374 76.60297Q60.909374 75.80609 60.503124 75.36859Q60.1125 74.91547 59.55 74.91547Q59.175 74.91547 58.846874 75.11859Q58.51875 75.30609 58.20625 75.72797Q57.89375 76.14984 57.70625 76.75922Q57.51875 77.35297 57.51875 77.85297ZM67.675 75.74359Q67.01875 75.49359 66.69063 75.05609Q66.37813 74.60297 66.37813 73.99359Q66.37813 73.05609 67.05 72.41547Q67.7375 71.77484 68.84688 71.77484Q69.97188 71.77484 70.65938 72.43109Q71.34688 73.08734 71.34688 74.02484Q71.34688 74.61859 71.03438 75.05609Q70.72188 75.49359 70.08125 75.74359Q70.87813 75.99359 71.28438 76.57172Q71.69063 77.14984 71.69063 77.94672Q71.69063 79.04047 70.90938 79.79047Q70.14375 80.54047 68.8625 80.54047Q67.59688 80.54047 66.81563 79.79047Q66.03438 79.04047 66.03438 77.91547Q66.03438 77.07172 66.45625 76.50922Q66.89375 75.94672 67.675 75.74359ZM67.45625 73.94672Q67.45625 74.55609 67.84688 74.94672Q68.25313 75.33734 68.87813 75.33734Q69.4875 75.33734 69.87813 74.96234Q70.26875 74.57172 70.26875 74.00922Q70.26875 73.43109 69.8625 73.04047Q69.45625 72.63422 68.8625 72.63422Q68.25313 72.63422 67.84688 73.02484Q67.45625 73.41547 67.45625 73.94672ZM67.12813 77.91547Q67.12813 78.36859 67.33125 78.79047Q67.55 79.21234 67.97188 79.44672Q68.39375 79.68109 68.87813 79.68109Q69.62813 79.68109 70.1125 79.19672Q70.6125 78.71234 70.6125 77.96234Q70.6125 77.19672 70.1125 76.69672Q69.6125 76.19672 68.84688 76.19672Q68.09688 76.19672 67.6125 76.69672Q67.12813 77.18109 67.12813 77.91547ZM73.64375 80.39984L73.64375 79.19672L74.84688 79.19672L74.84688 80.39984L73.64375 80.39984ZM80.01875 80.39984L78.97188 80.39984L78.97188 73.68109Q78.58125 74.04047 77.95625 74.41547Q77.34688 74.77484 76.8625 74.94672L76.8625 73.93109Q77.7375 73.50922 78.39375 72.93109Q79.06563 72.33734 79.34688 71.77484L80.01875 71.77484L80.01875 80.39984ZM87.01875 80.39984L85.97188 80.39984L85.97188 73.68109Q85.58125 74.04047 84.95625 74.41547Q84.34688 74.77484 83.8625 74.94672L83.8625 73.93109Q84.7375 73.50922 85.39375 72.93109Q86.06563 72.33734 86.34688 71.77484L87.01875 71.77484L87.01875 80.39984ZM90.64375 80.39984L90.64375 79.19672L91.84688 79.19672L91.84688 80.39984L90.64375 80.39984ZM93.05 76.16547Q93.05 74.63422 93.3625 73.71234Q93.675 72.77484 94.28438 72.27484Q94.90938 71.77484 95.84688 71.77484Q96.53438 71.77484 97.05 72.05609Q97.58125 72.33734 97.925 72.86859Q98.26875 73.38422 98.45625 74.13422Q98.64375 74.88422 98.64375 76.16547Q98.64375 77.68109 98.33125 78.60297Q98.03438 79.52484 97.40938 80.04047Q96.8 80.54047 95.84688 80.54047Q94.6125 80.54047 93.89375 79.64984Q93.05 78.58734 93.05 76.16547ZM94.12813 76.16547Q94.12813 78.27484 94.62813 78.97797Q95.12813 79.68109 95.84688 79.68109Q96.58125 79.68109 97.06563 78.97797Q97.56563 78.27484 97.56563 76.16547Q97.56563 74.04047 97.06563 73.35297Q96.58125 72.64984 95.83125 72.64984Q95.1125 72.64984 94.675 73.25922Q94.12813 74.04047 94.12813 76.16547Z"
          fill-rule="nonzero"/>
    <path fill="#000000"
          d="M23.378124 127.04159L23.378124 126.26034Q22.784374 127.18221 21.64375 127.18221Q20.89375 127.18221 20.26875 126.77596Q19.64375 126.35409 19.3 125.61971Q18.95625 124.88534 18.95625 123.93221Q18.95625 123.01034 19.26875 122.24471Q19.58125 121.47909 20.20625 121.08846Q20.83125 120.68221 21.596874 120.68221Q22.159374 120.68221 22.596874 120.91659Q23.034374 121.15096 23.315624 121.52596L23.315624 118.44784L24.3625 118.44784L24.3625 127.04159L23.378124 127.04159ZM20.05 123.93221Q20.05 125.13534 20.55 125.72909Q21.05 126.30721 21.7375 126.30721Q22.425 126.30721 22.909374 125.74471Q23.39375 125.18221 23.39375 124.02596Q23.39375 122.74471 22.89375 122.15096Q22.409374 121.55721 21.690624 121.55721Q20.9875 121.55721 20.51875 122.13534Q20.05 122.69784 20.05 123.93221ZM25.95625 123.93221Q25.95625 122.19784 26.909374 121.36971Q27.70625 120.68221 28.8625 120.68221Q30.14375 120.68221 30.95625 121.52596Q31.784374 122.35409 31.784374 123.83846Q31.784374 125.04159 31.425 125.72909Q31.065624 126.41659 30.3625 126.80721Q29.675 127.18221 28.8625 127.18221Q27.565624 127.18221 26.753124 126.35409Q25.95625 125.51034 25.95625 123.93221ZM27.034374 123.93221Q27.034374 125.11971 27.55 125.71346Q28.08125 126.30721 28.8625 126.30721Q29.659374 126.30721 30.175 125.71346Q30.690624 125.11971 30.690624 123.90096Q30.690624 122.74471 30.159374 122.15096Q29.64375 121.55721 28.8625 121.55721Q28.08125 121.55721 27.55 122.15096Q27.034374 122.72909 27.034374 123.93221ZM37.425 127.04159L37.425 126.11971Q36.690624 127.18221 35.440624 127.18221Q34.89375 127.18221 34.409374 126.97909Q33.940624 126.76034 33.70625 126.44784Q33.471874 126.11971 33.378124 125.65096Q33.315624 125.35409 33.315624 124.66659L33.315624 120.82284L34.378124 120.82284L34.378124 124.27596Q34.378124 125.08846 34.440624 125.38534Q34.534374 125.79159 34.846874 126.04159Q35.175 126.27596 35.659374 126.27596Q36.128124 126.27596 36.534374 126.04159Q36.95625 125.79159 37.128124 125.36971Q37.315624 124.94784 37.315624 124.15096L37.315624 120.82284L38.3625 120.82284L38.3625 127.04159L37.425 127.04159ZM41.315624 127.04159L40.33125 127.04159L40.33125 118.44784L41.39375 118.44784L41.39375 121.51034Q42.065624 120.68221 43.096874 120.68221Q43.675 120.68221 44.175 120.91659Q44.690624 121.13534 45.01875 121.55721Q45.3625 121.97909 45.55 122.57284Q45.7375 123.16659 45.7375 123.83846Q45.7375 125.43221 44.940624 126.30721Q44.14375 127.18221 43.05 127.18221Q41.940624 127.18221 41.315624 126.26034L41.315624 127.04159ZM41.3 123.88534Q41.3 124.99471 41.6125 125.49471Q42.1125 126.30721 42.95625 126.30721Q43.64375 126.30721 44.14375 125.71346Q44.659374 125.11971 44.659374 123.91659Q44.659374 122.69784 44.175 122.11971Q43.690624 121.54159 43.003124 121.54159Q42.315624 121.54159 41.8 122.15096Q41.3 122.74471 41.3 123.88534ZM49.64375 126.10409L49.8 127.02596Q49.346874 127.11971 49.003124 127.11971Q48.425 127.11971 48.1125 126.94784Q47.8 126.76034 47.659374 126.46346Q47.534374 126.16659 47.534374 125.21346L47.534374 121.63534L46.76875 121.63534L46.76875 120.82284L47.534374 120.82284L47.534374 119.27596L48.58125 118.65096L48.58125 120.82284L49.64375 120.82284L49.64375 121.63534L48.58125 121.63534L48.58125 125.27596Q48.58125 125.72909 48.628124 125.85409Q48.690624 125.97909 48.815624 126.05721Q48.940624 126.13534 49.175 126.13534Q49.3625 126.13534 49.64375 126.10409ZM54.596874 125.04159L55.690624 125.16659Q55.440624 126.11971 54.7375 126.65096Q54.034374 127.18221 52.95625 127.18221Q51.596874 127.18221 50.784374 126.33846Q49.9875 125.49471 49.9875 123.97909Q49.9875 122.41659 50.8 121.55721Q51.6125 120.68221 52.89375 120.68221Q54.14375 120.68221 54.925 121.52596Q55.721874 122.36971 55.721874 123.91659Q55.721874 124.01034 55.721874 124.19784L51.08125 124.19784Q51.14375 125.22909 51.659374 125.77596Q52.175 126.30721 52.95625 126.30721Q53.534374 126.30721 53.940624 126.01034Q54.3625 125.69784 54.596874 125.04159ZM51.14375 123.33846L54.6125 123.33846Q54.55 122.54159 54.221874 122.15096Q53.70625 121.54159 52.909374 121.54159Q52.175 121.54159 51.675 122.02596Q51.190624 122.51034 51.14375 123.33846ZM57.33125 127.04159L57.33125 120.82284L58.284374 120.82284L58.284374 121.76034Q58.64375 121.10409 58.940624 120.90096Q59.253124 120.68221 59.628124 120.68221Q60.159374 120.68221 60.70625 121.01034L60.346874 121.99471Q59.95625 121.76034 59.58125 121.76034Q59.221874 121.76034 58.940624 121.97909Q58.675 122.18221 58.565624 122.55721Q58.378124 123.11971 58.378124 123.77596L58.378124 127.04159L57.33125 127.04159ZM67.34688 126.08846Q66.97188 126.52596 66.50313 126.79159Q66.03438 127.05721 65.55 127.05721Q65.03438 127.05721 64.53438 126.76034Q64.05 126.44784 63.7375 125.82284Q63.440624 125.18221 63.440624 124.43221Q63.440624 123.49471 63.909374 122.55721Q64.39375 121.61971 65.09688 121.15096Q65.8 120.68221 66.47188 120.68221Q66.9875 120.68221 67.44063 120.96346Q67.90938 121.22909 68.2375 121.76034L68.44063 120.85409L69.4875 120.85409L68.64375 124.79159Q68.47188 125.60409 68.47188 125.69784Q68.47188 125.85409 68.58125 125.97909Q68.70625 126.08846 68.87813 126.08846Q69.19063 126.08846 69.69063 125.72909Q70.3625 125.26034 70.75313 124.47909Q71.14375 123.68221 71.14375 122.83846Q71.14375 121.86971 70.64375 121.02596Q70.14375 120.16659 69.14375 119.66659Q68.15938 119.15096 66.95625 119.15096Q65.58125 119.15096 64.44063 119.79159Q63.315624 120.43221 62.690624 121.63534Q62.065624 122.82284 62.065624 124.19784Q62.065624 125.63534 62.690624 126.68221Q63.315624 127.71346 64.4875 128.19785Q65.675 128.69785 67.1125 128.69785Q68.64375 128.69785 69.675 128.18222Q70.72188 127.66659 71.2375 126.93221L72.3 126.93221Q72.00313 127.54159 71.26875 128.18222Q70.55 128.82285 69.55 129.19785Q68.55 129.57285 67.12813 129.57285Q65.83125 129.57285 64.72188 129.2291Q63.628124 128.90097 62.846874 128.2291Q62.08125 127.55721 61.690624 126.68221Q61.20625 125.57284 61.20625 124.29159Q61.20625 122.86971 61.784374 121.57284Q62.503124 119.97909 63.815624 119.13534Q65.12813 118.29159 67.00313 118.29159Q68.45625 118.29159 69.6125 118.88534Q70.76875 119.47909 71.44063 120.66659Q72.01875 121.66659 72.01875 122.86971Q72.01875 124.55721 70.81563 125.88534Q69.75313 127.07284 68.4875 127.07284Q68.08125 127.07284 67.83125 126.94784Q67.58125 126.82284 67.47188 126.58846Q67.39375 126.44784 67.34688 126.08846ZM64.51875 124.49471Q64.51875 125.30721 64.89375 125.76034Q65.28438 126.19784 65.76875 126.19784Q66.09688 126.19784 66.45625 125.99471Q66.83125 125.79159 67.15938 125.41659Q67.4875 125.02596 67.69063 124.43221Q67.90938 123.83846 67.90938 123.24471Q67.90938 122.44784 67.50313 122.01034Q67.1125 121.55721 66.55 121.55721Q66.175 121.55721 65.84688 121.76034Q65.51875 121.94784 65.20625 122.36971Q64.89375 122.79159 64.70625 123.40096Q64.51875 123.99471 64.51875 124.49471ZM77.01875 127.04159L75.97188 127.04159L75.97188 120.32284Q75.58125 120.68221 74.95625 121.05721Q74.34688 121.41659 73.8625 121.58846L73.8625 120.57284Q74.7375 120.15096 75.39375 119.57284Q76.06563 118.97909 76.34688 118.41659L77.01875 118.41659L77.01875 127.04159ZM80.64375 127.04159L80.64375 125.83846L81.84688 125.83846L81.84688 127.04159L80.64375 127.04159ZM83.05 122.80721Q83.05 121.27596 83.3625 120.35409Q83.675 119.41659 84.28438 118.91659Q84.90938 118.41659 85.84688 118.41659Q86.53438 118.41659 87.05 118.69784Q87.58125 118.97909 87.925 119.51034Q88.26875 120.02596 88.45625 120.77596Q88.64375 121.52596 88.64375 122.80721Q88.64375 124.32284 88.33125 125.24471Q88.03438 126.16659 87.40938 126.68221Q86.8 127.18221 85.84688 127.18221Q84.6125 127.18221 83.89375 126.29159Q83.05 125.22909 83.05 122.80721ZM84.12813 122.80721Q84.12813 124.91659 84.62813 125.61971Q85.12813 126.32284 85.84688 126.32284Q86.58125 126.32284 87.06563 125.61971Q87.56563 124.91659 87.56563 122.80721Q87.56563 120.68221 87.06563 119.99471Q86.58125 119.29159 85.83125 119.29159Q85.1125 119.29159 84.675 119.90096Q84.12813 120.68221 84.12813 122.80721ZM90.64375 127.04159L90.64375 125.83846L91.84688 125.83846L91.84688 127.04159L90.64375 127.04159ZM93.05 122.80721Q93.05 121.27596 93.3625 120.35409Q93.675 119.41659 94.28438 118.91659Q94.90938 118.41659 95.84688 118.41659Q96.53438 118.41659 97.05 118.69784Q97.58125 118.97909 97.925 119.51034Q98.26875 120.02596 98.45625 120.77596Q98.64375 121.52596 98.64375 122.80721Q98.64375 124.32284 98.33125 125.24471Q98.03438 126.16659 97.40938 126.68221Q96.8 127.18221 95.84688 127.18221Q94.6125 127.18221 93.89375 126.29159Q93.05 125.22909 93.05 122.80721ZM94.12813 122.80721Q94.12813 124.91659 94.62813 125.61971Q95.12813 126.32284 95.84688 126.32284Q96.58125 126.32284 97.06563 125.61971Q97.56563 124.91659 97.56563 122.80721Q97.56563 120.68221 97.06563 119.99471Q96.58125 119.29159 95.83125 119.29159Q95.1125 119.29159 94.675 119.90096Q94.12813 120.68221 94.12813 122.80721Z"
          fill-rule="nonzero"/>
    <path fill="#000000"
          d="M35.065624 173.68333L32.70625 167.46458L33.815624 167.46458L35.159374 171.18333Q35.3625 171.79271 35.55 172.43333Q35.690624 171.94896 35.940624 171.26146L37.33125 167.46458L38.409374 167.46458L36.05 173.68333L35.065624 173.68333ZM42.409374 172.91771Q41.815624 173.41771 41.26875 173.62083Q40.7375 173.82396 40.1125 173.82396Q39.08125 173.82396 38.534374 173.32396Q37.9875 172.82396 37.9875 172.04271Q37.9875 171.58958 38.190624 171.21458Q38.39375 170.82396 38.7375 170.60521Q39.08125 170.37083 39.503124 170.26146Q39.8 170.16771 40.440624 170.08958Q41.70625 169.94896 42.315624 169.73021Q42.315624 169.51146 42.315624 169.46458Q42.315624 168.80833 42.01875 168.54271Q41.6125 168.19896 40.815624 168.19896Q40.08125 168.19896 39.721874 168.46458Q39.3625 168.71458 39.190624 169.37083L38.159374 169.23021Q38.3 168.57396 38.628124 168.16771Q38.95625 167.76146 39.565624 167.54271Q40.175 167.32396 40.971874 167.32396Q41.76875 167.32396 42.26875 167.51146Q42.76875 167.69896 43.003124 167.98021Q43.2375 168.26146 43.33125 168.69896Q43.378124 168.96458 43.378124 169.66771L43.378124 171.07396Q43.378124 172.54271 43.440624 172.93333Q43.51875 173.32396 43.721874 173.68333L42.6125 173.68333Q42.45625 173.35521 42.409374 172.91771ZM42.315624 170.55833Q41.7375 170.79271 40.596874 170.96458Q39.940624 171.05833 39.675 171.18333Q39.409374 171.29271 39.253124 171.51146Q39.1125 171.73021 39.1125 172.01146Q39.1125 172.43333 39.425 172.71458Q39.753124 172.99583 40.3625 172.99583Q40.971874 172.99583 41.440624 172.73021Q41.925 172.46458 42.14375 171.99583Q42.315624 171.63646 42.315624 170.94896L42.315624 170.55833ZM45.315624 173.68333L45.315624 165.08958L46.378124 165.08958L46.378124 173.68333L45.315624 173.68333ZM48.346874 166.30833L48.346874 165.08958L49.409374 165.08958L49.409374 166.30833L48.346874 166.30833ZM48.346874 173.68333L48.346874 167.46458L49.409374 167.46458L49.409374 173.68333L48.346874 173.68333ZM53.64375 172.74583L53.8 173.66771Q53.346874 173.76146 53.003124 173.76146Q52.425 173.76146 52.1125 173.58958Q51.8 173.40208 51.659374 173.10521Q51.534374 172.80833 51.534374 171.85521L51.534374 168.27708L50.76875 168.27708L50.76875 167.46458L51.534374 167.46458L51.534374 165.91771L52.58125 165.29271L52.58125 167.46458L53.64375 167.46458L53.64375 168.27708L52.58125 168.27708L52.58125 171.91771Q52.58125 172.37083 52.628124 172.49583Q52.690624 172.62083 52.815624 172.69896Q52.940624 172.77708 53.175 172.77708Q53.3625 172.77708 53.64375 172.74583ZM58.409374 172.91771Q57.815624 173.41771 57.26875 173.62083Q56.7375 173.82396 56.1125 173.82396Q55.08125 173.82396 54.534374 173.32396Q53.9875 172.82396 53.9875 172.04271Q53.9875 171.58958 54.190624 171.21458Q54.39375 170.82396 54.7375 170.60521Q55.08125 170.37083 55.503124 170.26146Q55.8 170.16771 56.440624 170.08958Q57.70625 169.94896 58.315624 169.73021Q58.315624 169.51146 58.315624 169.46458Q58.315624 168.80833 58.01875 168.54271Q57.6125 168.19896 56.815624 168.19896Q56.08125 168.19896 55.721874 168.46458Q55.3625 168.71458 55.190624 169.37083L54.159374 169.23021Q54.3 168.57396 54.628124 168.16771Q54.95625 167.76146 55.565624 167.54271Q56.175 167.32396 56.971874 167.32396Q57.76875 167.32396 58.26875 167.51146Q58.76875 167.69896 59.003124 167.98021Q59.2375 168.26146 59.33125 168.69896Q59.378124 168.96458 59.378124 169.66771L59.378124 171.07396Q59.378124 172.54271 59.440624 172.93333Q59.51875 173.32396 59.721874 173.68333L58.6125 173.68333Q58.45625 173.35521 58.409374 172.91771ZM58.315624 170.55833Q57.7375 170.79271 56.596874 170.96458Q55.940624 171.05833 55.675 171.18333Q55.409374 171.29271 55.253124 171.51146Q55.1125 171.73021 55.1125 172.01146Q55.1125 172.43333 55.425 172.71458Q55.753124 172.99583 56.3625 172.99583Q56.971874 172.99583 57.440624 172.73021Q57.925 172.46458 58.14375 171.99583Q58.315624 171.63646 58.315624 170.94896L58.315624 170.55833ZM67.34688 172.73021Q66.97188 173.16771 66.50313 173.43333Q66.03438 173.69896 65.55 173.69896Q65.03438 173.69896 64.53438 173.40208Q64.05 173.08958 63.7375 172.46458Q63.440624 171.82396 63.440624 171.07396Q63.440624 170.13646 63.909374 169.19896Q64.39375 168.26146 65.09688 167.79271Q65.8 167.32396 66.47188 167.32396Q66.9875 167.32396 67.44063 167.60521Q67.90938 167.87083 68.2375 168.40208L68.44063 167.49583L69.4875 167.49583L68.64375 171.43333Q68.47188 172.24583 68.47188 172.33958Q68.47188 172.49583 68.58125 172.62083Q68.70625 172.73021 68.87813 172.73021Q69.19063 172.73021 69.69063 172.37083Q70.3625 171.90208 70.75313 171.12083Q71.14375 170.32396 71.14375 169.48021Q71.14375 168.51146 70.64375 167.66771Q70.14375 166.80833 69.14375 166.30833Q68.15938 165.79271 66.95625 165.79271Q65.58125 165.79271 64.44063 166.43333Q63.315624 167.07396 62.690624 168.27708Q62.065624 169.46458 62.065624 170.83958Q62.065624 172.27708 62.690624 173.32396Q63.315624 174.35521 64.4875 174.83958Q65.675 175.33958 67.1125 175.33958Q68.64375 175.33958 69.675 174.82396Q70.72188 174.30833 71.2375 173.57396L72.3 173.57396Q72.00313 174.18333 71.26875 174.82396Q70.55 175.46458 69.55 175.83958Q68.55 176.21458 67.12813 176.21458Q65.83125 176.21458 64.72188 175.87083Q63.628124 175.54271 62.846874 174.87083Q62.08125 174.19896 61.690624 173.32396Q61.20625 172.21458 61.20625 170.93333Q61.20625 169.51146 61.784374 168.21458Q62.503124 166.62083 63.815624 165.77708Q65.12813 164.93333 67.00313 164.93333Q68.45625 164.93333 69.6125 165.52708Q70.76875 166.12083 71.44063 167.30833Q72.01875 168.30833 72.01875 169.51146Q72.01875 171.19896 70.81563 172.52708Q69.75313 173.71458 68.4875 173.71458Q68.08125 173.71458 67.83125 173.58958Q67.58125 173.46458 67.47188 173.23021Q67.39375 173.08958 67.34688 172.73021ZM64.51875 171.13646Q64.51875 171.94896 64.89375 172.40208Q65.28438 172.83958 65.76875 172.83958Q66.09688 172.83958 66.45625 172.63646Q66.83125 172.43333 67.15938 172.05833Q67.4875 171.66771 67.69063 171.07396Q67.90938 170.48021 67.90938 169.88646Q67.90938 169.08958 67.50313 168.65208Q67.1125 168.19896 66.55 168.19896Q66.175 168.19896 65.84688 168.40208Q65.51875 168.58958 65.20625 169.01146Q64.89375 169.43333 64.70625 170.04271Q64.51875 170.63646 64.51875 171.13646ZM73.05 169.44896Q73.05 167.91771 73.3625 166.99583Q73.675 166.05833 74.28438 165.55833Q74.90938 165.05833 75.84688 165.05833Q76.53438 165.05833 77.05 165.33958Q77.58125 165.62083 77.925 166.15208Q78.26875 166.66771 78.45625 167.41771Q78.64375 168.16771 78.64375 169.44896Q78.64375 170.96458 78.33125 171.88646Q78.03438 172.80833 77.40938 173.32396Q76.8 173.82396 75.84688 173.82396Q74.6125 173.82396 73.89375 172.93333Q73.05 171.87083 73.05 169.44896ZM74.12813 169.44896Q74.12813 171.55833 74.62813 172.26146Q75.12813 172.96458 75.84688 172.96458Q76.58125 172.96458 77.06563 172.26146Q77.56563 171.55833 77.56563 169.44896Q77.56563 167.32396 77.06563 166.63646Q76.58125 165.93333 75.83125 165.93333Q75.1125 165.93333 74.675 166.54271Q74.12813 167.32396 74.12813 169.44896ZM80.64375 173.68333L80.64375 172.48021L81.84688 172.48021L81.84688 173.68333L80.64375 173.68333ZM87.01875 173.68333L85.97188 173.68333L85.97188 166.96458Q85.58125 167.32396 84.95625 167.69896Q84.34688 168.05833 83.8625 168.23021L83.8625 167.21458Q84.7375 166.79271 85.39375 166.21458Q86.06563 165.62083 86.34688 165.05833L87.01875 165.05833L87.01875 173.68333ZM90.64375 173.68333L90.64375 172.48021L91.84688 172.48021L91.84688 173.68333L90.64375 173.68333ZM98.51875 167.19896L97.47188 167.27708Q97.33125 166.65208 97.08125 166.37083Q96.64375 165.91771 96.01875 165.91771Q95.51875 165.91771 95.12813 166.19896Q94.64375 166.57396 94.34688 167.27708Q94.06563 167.96458 94.05 169.24583Q94.425 168.66771 94.97188 168.38646Q95.53438 168.10521 96.14375 168.10521Q97.19063 168.10521 97.925 168.88646Q98.675 169.66771 98.675 170.88646Q98.675 171.69896 98.31563 172.40208Q97.97188 173.08958 97.3625 173.46458Q96.75313 173.82396 95.9875 173.82396Q94.65938 173.82396 93.83125 172.85521Q93.00313 171.88646 93.00313 169.66771Q93.00313 167.16771 93.925 166.04271Q94.72188 165.05833 96.08125 165.05833Q97.09688 165.05833 97.7375 165.63646Q98.39375 166.19896 98.51875 167.19896ZM94.22188 170.90208Q94.22188 171.44896 94.44063 171.94896Q94.675 172.43333 95.08125 172.69896Q95.50313 172.96458 95.97188 172.96458Q96.62813 172.96458 97.1125 172.43333Q97.59688 171.88646 97.59688 170.96458Q97.59688 170.07396 97.1125 169.55833Q96.64375 169.04271 95.925 169.04271Q95.20625 169.04271 94.70625 169.55833Q94.22188 170.07396 94.22188 170.90208Z"
          fill-rule="nonzero"/>
    <path fill="#000000"
          d="M26.346874 220.32507L26.346874 214.10632L27.284374 214.10632L27.284374 214.98132Q27.58125 214.51257 28.065624 214.24695Q28.55 213.9657 29.175 213.9657Q29.8625 213.9657 30.3 214.24695Q30.753124 214.5282 30.925 215.04382Q31.675 213.9657 32.846874 213.9657Q33.784374 213.9657 34.26875 214.48132Q34.76875 214.98132 34.76875 216.05945L34.76875 220.32507L33.721874 220.32507L33.721874 216.4032Q33.721874 215.7782 33.6125 215.49695Q33.51875 215.2157 33.253124 215.04382Q32.9875 214.87195 32.6125 214.87195Q31.95625 214.87195 31.51875 215.30945Q31.096874 215.74695 31.096874 216.7157L31.096874 220.32507L30.034374 220.32507L30.034374 216.2782Q30.034374 215.57507 29.76875 215.23132Q29.51875 214.87195 28.940624 214.87195Q28.4875 214.87195 28.1125 215.10632Q27.7375 215.3407 27.565624 215.79382Q27.39375 216.24695 27.39375 217.0907L27.39375 220.32507L26.346874 220.32507ZM37.3 222.7157L37.175 221.73132Q37.51875 221.82507 37.784374 221.82507Q38.128124 221.82507 38.33125 221.70007Q38.55 221.5907 38.690624 221.38757Q38.784374 221.2157 39.01875 220.5907Q39.034374 220.51257 39.1125 220.3407L36.7375 214.10632L37.878124 214.10632L39.175 217.70007Q39.425 218.38757 39.628124 219.1532Q39.815624 218.41882 40.065624 217.73132L41.39375 214.10632L42.440624 214.10632L40.08125 220.43445Q39.690624 221.45007 39.4875 221.8407Q39.20625 222.37195 38.83125 222.60632Q38.471874 222.85632 37.971874 222.85632Q37.675 222.85632 37.3 222.7157ZM41.784374 220.32507L41.784374 219.4657L45.753124 214.91882Q45.065624 214.95007 44.55 214.95007L42.01875 214.95007L42.01875 214.10632L47.1125 214.10632L47.1125 214.79382L43.7375 218.74695L43.08125 219.4657Q43.8 219.41882 44.409374 219.41882L47.3 219.41882L47.3 220.32507L41.784374 220.32507ZM46.95625 217.2157Q46.95625 215.48132 47.909374 214.6532Q48.70625 213.9657 49.8625 213.9657Q51.14375 213.9657 51.95625 214.80945Q52.784374 215.63757 52.784374 217.12195Q52.784374 218.32507 52.425 219.01257Q52.065624 219.70007 51.3625 220.0907Q50.675 220.4657 49.8625 220.4657Q48.565624 220.4657 47.753124 219.63757Q46.95625 218.79382 46.95625 217.2157ZM48.034374 217.2157Q48.034374 218.4032 48.55 218.99695Q49.08125 219.5907 49.8625 219.5907Q50.659374 219.5907 51.175 218.99695Q51.690624 218.4032 51.690624 217.18445Q51.690624 216.0282 51.159374 215.43445Q50.64375 214.8407 49.8625 214.8407Q49.08125 214.8407 48.55 215.43445Q48.034374 216.01257 48.034374 217.2157ZM58.378124 220.32507L58.378124 219.54382Q57.784374 220.4657 56.64375 220.4657Q55.89375 220.4657 55.26875 220.05945Q54.64375 219.63757 54.3 218.9032Q53.95625 218.16882 53.95625 217.2157Q53.95625 216.29382 54.26875 215.5282Q54.58125 214.76257 55.20625 214.37195Q55.83125 213.9657 56.596874 213.9657Q57.159374 213.9657 57.596874 214.20007Q58.034374 214.43445 58.315624 214.80945L58.315624 211.73132L59.3625 211.73132L59.3625 220.32507L58.378124 220.32507ZM55.05 217.2157Q55.05 218.41882 55.55 219.01257Q56.05 219.5907 56.7375 219.5907Q57.425 219.5907 57.909374 219.0282Q58.39375 218.4657 58.39375 217.30945Q58.39375 216.0282 57.89375 215.43445Q57.409374 214.8407 56.690624 214.8407Q55.9875 214.8407 55.51875 215.41882Q55.05 215.98132 55.05 217.2157ZM67.34688 219.37195Q66.97188 219.80945 66.50313 220.07507Q66.03438 220.3407 65.55 220.3407Q65.03438 220.3407 64.53438 220.04382Q64.05 219.73132 63.7375 219.10632Q63.440624 218.4657 63.440624 217.7157Q63.440624 216.7782 63.909374 215.8407Q64.39375 214.9032 65.09688 214.43445Q65.8 213.9657 66.47188 213.9657Q66.9875 213.9657 67.44063 214.24695Q67.90938 214.51257 68.2375 215.04382L68.44063 214.13757L69.4875 214.13757L68.64375 218.07507Q68.47188 218.88757 68.47188 218.98132Q68.47188 219.13757 68.58125 219.26257Q68.70625 219.37195 68.87813 219.37195Q69.19063 219.37195 69.69063 219.01257Q70.3625 218.54382 70.75313 217.76257Q71.14375 216.9657 71.14375 216.12195Q71.14375 215.1532 70.64375 214.30945Q70.14375 213.45007 69.14375 212.95007Q68.15938 212.43445 66.95625 212.43445Q65.58125 212.43445 64.44063 213.07507Q63.315624 213.7157 62.690624 214.91882Q62.065624 216.10632 62.065624 217.48132Q62.065624 218.91882 62.690624 219.9657Q63.315624 220.99695 64.4875 221.48132Q65.675 221.98132 67.1125 221.98132Q68.64375 221.98132 69.675 221.4657Q70.72188 220.95007 71.2375 220.2157L72.3 220.2157Q72.00313 220.82507 71.26875 221.4657Q70.55 222.10632 69.55 222.48132Q68.55 222.85632 67.12813 222.85632Q65.83125 222.85632 64.72188 222.51257Q63.628124 222.18445 62.846874 221.51257Q62.08125 220.8407 61.690624 219.9657Q61.20625 218.85632 61.20625 217.57507Q61.20625 216.1532 61.784374 214.85632Q62.503124 213.26257 63.815624 212.41882Q65.12813 211.57507 67.00313 211.57507Q68.45625 211.57507 69.6125 212.16882Q70.76875 212.76257 71.44063 213.95007Q72.01875 214.95007 72.01875 216.1532Q72.01875 217.8407 70.81563 219.16882Q69.75313 220.35632 68.4875 220.35632Q68.08125 220.35632 67.83125 220.23132Q67.58125 220.10632 67.47188 219.87195Q67.39375 219.73132 67.34688 219.37195ZM64.51875 217.7782Q64.51875 218.5907 64.89375 219.04382Q65.28438 219.48132 65.76875 219.48132Q66.09688 219.48132 66.45625 219.2782Q66.83125 219.07507 67.15938 218.70007Q67.4875 218.30945 67.69063 217.7157Q67.90938 217.12195 67.90938 216.5282Q67.90938 215.73132 67.50313 215.29382Q67.1125 214.8407 66.55 214.8407Q66.175 214.8407 65.84688 215.04382Q65.51875 215.23132 65.20625 215.6532Q64.89375 216.07507 64.70625 216.68445Q64.51875 217.2782 64.51875 217.7782ZM77.01875 220.32507L75.97188 220.32507L75.97188 213.60632Q75.58125 213.9657 74.95625 214.3407Q74.34688 214.70007 73.8625 214.87195L73.8625 213.85632Q74.7375 213.43445 75.39375 212.85632Q76.06563 212.26257 76.34688 211.70007L77.01875 211.70007L77.01875 220.32507ZM80.64375 220.32507L80.64375 219.12195L81.84688 219.12195L81.84688 220.32507L80.64375 220.32507ZM84.675 215.66882Q84.01875 215.41882 83.69063 214.98132Q83.37813 214.5282 83.37813 213.91882Q83.37813 212.98132 84.05 212.3407Q84.7375 211.70007 85.84688 211.70007Q86.97188 211.70007 87.65938 212.35632Q88.34688 213.01257 88.34688 213.95007Q88.34688 214.54382 88.03438 214.98132Q87.72188 215.41882 87.08125 215.66882Q87.87813 215.91882 88.28438 216.49695Q88.69063 217.07507 88.69063 217.87195Q88.69063 218.9657 87.90938 219.7157Q87.14375 220.4657 85.8625 220.4657Q84.59688 220.4657 83.81563 219.7157Q83.03438 218.9657 83.03438 217.8407Q83.03438 216.99695 83.45625 216.43445Q83.89375 215.87195 84.675 215.66882ZM84.45625 213.87195Q84.45625 214.48132 84.84688 214.87195Q85.25313 215.26257 85.87813 215.26257Q86.4875 215.26257 86.87813 214.88757Q87.26875 214.49695 87.26875 213.93445Q87.26875 213.35632 86.8625 212.9657Q86.45625 212.55945 85.8625 212.55945Q85.25313 212.55945 84.84688 212.95007Q84.45625 213.3407 84.45625 213.87195ZM84.12813 217.8407Q84.12813 218.29382 84.33125 218.7157Q84.55 219.13757 84.97188 219.37195Q85.39375 219.60632 85.87813 219.60632Q86.62813 219.60632 87.1125 219.12195Q87.6125 218.63757 87.6125 217.88757Q87.6125 217.12195 87.1125 216.62195Q86.6125 216.12195 85.84688 216.12195Q85.09688 216.12195 84.6125 216.62195Q84.12813 217.10632 84.12813 217.8407ZM90.64375 220.32507L90.64375 219.12195L91.84688 219.12195L91.84688 220.32507L90.64375 220.32507ZM94.675 215.66882Q94.01875 215.41882 93.69063 214.98132Q93.37813 214.5282 93.37813 213.91882Q93.37813 212.98132 94.05 212.3407Q94.7375 211.70007 95.84688 211.70007Q96.97188 211.70007 97.65938 212.35632Q98.34688 213.01257 98.34688 213.95007Q98.34688 214.54382 98.03438 214.98132Q97.72188 215.41882 97.08125 215.66882Q97.87813 215.91882 98.28438 216.49695Q98.69063 217.07507 98.69063 217.87195Q98.69063 218.9657 97.90938 219.7157Q97.14375 220.4657 95.8625 220.4657Q94.59688 220.4657 93.81563 219.7157Q93.03438 218.9657 93.03438 217.8407Q93.03438 216.99695 93.45625 216.43445Q93.89375 215.87195 94.675 215.66882ZM94.45625 213.87195Q94.45625 214.48132 94.84688 214.87195Q95.25313 215.26257 95.87813 215.26257Q96.4875 215.26257 96.87813 214.88757Q97.26875 214.49695 97.26875 213.93445Q97.26875 213.35632 96.8625 212.9657Q96.45625 212.55945 95.8625 212.55945Q95.25313 212.55945 94.84688 212.95007Q94.45625 213.3407 94.45625 213.87195ZM94.12813 217.8407Q94.12813 218.29382 94.33125 218.7157Q94.55 219.13757 94.97188 219.37195Q95.39375 219.60632 95.87813 219.60632Q96.62813 219.60632 97.1125 219.12195Q97.6125 218.63757 97.6125 217.88757Q97.6125 217.12195 97.1125 216.62195Q96.6125 216.12195 95.84688 216.12195Q95.09688 216.12195 94.6125 216.62195Q94.12813 217.10632 94.12813 217.8407Z"
          fill-rule="nonzero"/>
    <path fill="#000000"
          d="M34.784374 266.96683L34.784374 266.10745L38.753124 261.56058Q38.065624 261.59183 37.55 261.59183L35.01875 261.59183L35.01875 260.74808L40.1125 260.74808L40.1125 261.43558L36.7375 265.3887L36.08125 266.10745Q36.8 266.06058 37.409374 266.06058L40.3 266.06058L40.3 266.96683L34.784374 266.96683ZM39.95625 263.85745Q39.95625 262.12308 40.909374 261.29495Q41.70625 260.60745 42.8625 260.60745Q44.14375 260.60745 44.95625 261.4512Q45.784374 262.27933 45.784374 263.7637Q45.784374 264.96683 45.425 265.65433Q45.065624 266.34183 44.3625 266.73245Q43.675 267.10745 42.8625 267.10745Q41.565624 267.10745 40.753124 266.27933Q39.95625 265.43558 39.95625 263.85745ZM41.034374 263.85745Q41.034374 265.04495 41.55 265.6387Q42.08125 266.23245 42.8625 266.23245Q43.659374 266.23245 44.175 265.6387Q44.690624 265.04495 44.690624 263.8262Q44.690624 262.66995 44.159374 262.0762Q43.64375 261.48245 42.8625 261.48245Q42.08125 261.48245 41.55 262.0762Q41.034374 262.65433 41.034374 263.85745ZM51.378124 266.96683L51.378124 266.18558Q50.784374 267.10745 49.64375 267.10745Q48.89375 267.10745 48.26875 266.7012Q47.64375 266.27933 47.3 265.54495Q46.95625 264.81058 46.95625 263.85745Q46.95625 262.93558 47.26875 262.16995Q47.58125 261.40433 48.20625 261.0137Q48.83125 260.60745 49.596874 260.60745Q50.159374 260.60745 50.596874 260.84183Q51.034374 261.0762 51.315624 261.4512L51.315624 258.37308L52.3625 258.37308L52.3625 266.96683L51.378124 266.96683ZM48.05 263.85745Q48.05 265.06058 48.55 265.65433Q49.05 266.23245 49.7375 266.23245Q50.425 266.23245 50.909374 265.66995Q51.39375 265.10745 51.39375 263.9512Q51.39375 262.66995 50.89375 262.0762Q50.409374 261.48245 49.690624 261.48245Q48.9875 261.48245 48.51875 262.06058Q48.05 262.62308 48.05 263.85745ZM60.346874 266.0137Q59.971874 266.4512 59.503124 266.71683Q59.034374 266.98245 58.55 266.98245Q58.034374 266.98245 57.534374 266.68558Q57.05 266.37308 56.7375 265.74808Q56.440624 265.10745 56.440624 264.35745Q56.440624 263.41995 56.909374 262.48245Q57.39375 261.54495 58.096874 261.0762Q58.8 260.60745 59.471874 260.60745Q59.9875 260.60745 60.440624 260.8887Q60.909374 261.15433 61.2375 261.68558L61.440624 260.77933L62.4875 260.77933L61.64375 264.71683Q61.471874 265.52933 61.471874 265.62308Q61.471874 265.77933 61.58125 265.90433Q61.70625 266.0137 61.878124 266.0137Q62.190624 266.0137 62.690624 265.65433Q63.3625 265.18558 63.753124 264.40433Q64.14375 263.60745 64.14375 262.7637Q64.14375 261.79495 63.64375 260.9512Q63.14375 260.09183 62.14375 259.59183Q61.159374 259.0762 59.95625 259.0762Q58.58125 259.0762 57.440624 259.71683Q56.315624 260.35745 55.690624 261.56058Q55.065624 262.74808 55.065624 264.12308Q55.065624 265.56058 55.690624 266.60745Q56.315624 267.6387 57.4875 268.12308Q58.675 268.62308 60.1125 268.62308Q61.64375 268.62308 62.675 268.10745Q63.721874 267.59183 64.2375 266.85745L65.3 266.85745Q65.00313 267.46683 64.26875 268.10745Q63.55 268.74808 62.55 269.12308Q61.55 269.49808 60.128124 269.49808Q58.83125 269.49808 57.721874 269.15433Q56.628124 268.8262 55.846874 268.15433Q55.08125 267.48245 54.690624 266.60745Q54.20625 265.49808 54.20625 264.21683Q54.20625 262.79495 54.784374 261.49808Q55.503124 259.90433 56.815624 259.06058Q58.128124 258.21683 60.003124 258.21683Q61.45625 258.21683 62.6125 258.81058Q63.76875 259.40433 64.44063 260.59183Q65.01875 261.59183 65.01875 262.79495Q65.01875 264.48245 63.815624 265.81058Q62.753124 266.99808 61.4875 266.99808Q61.08125 266.99808 60.83125 266.87308Q60.58125 266.74808 60.471874 266.5137Q60.39375 266.37308 60.346874 266.0137ZM57.51875 264.41995Q57.51875 265.23245 57.89375 265.68558Q58.284374 266.12308 58.76875 266.12308Q59.096874 266.12308 59.45625 265.91995Q59.83125 265.71683 60.159374 265.34183Q60.4875 264.9512 60.690624 264.35745Q60.909374 263.7637 60.909374 263.16995Q60.909374 262.37308 60.503124 261.93558Q60.1125 261.48245 59.55 261.48245Q59.175 261.48245 58.846874 261.68558Q58.51875 261.87308 58.20625 262.29495Q57.89375 262.71683 57.70625 263.3262Q57.51875 263.91995 57.51875 264.41995ZM66.05 264.7012L67.1125 264.56058Q67.28438 265.4512 67.72188 265.85745Q68.15938 266.24808 68.78438 266.24808Q69.53438 266.24808 70.05 265.73245Q70.56563 265.21683 70.56563 264.4512Q70.56563 263.73245 70.08125 263.2637Q69.6125 262.77933 68.87813 262.77933Q68.58125 262.77933 68.12813 262.90433L68.25313 261.96683Q68.3625 261.98245 68.425 261.98245Q69.09688 261.98245 69.62813 261.6387Q70.175 261.27933 70.175 260.54495Q70.175 259.96683 69.78438 259.59183Q69.39375 259.2012 68.76875 259.2012Q68.15938 259.2012 67.7375 259.59183Q67.33125 259.98245 67.22188 260.74808L66.15938 260.56058Q66.34688 259.5137 67.03438 258.93558Q67.72188 258.34183 68.7375 258.34183Q69.44063 258.34183 70.03438 258.65433Q70.62813 258.9512 70.94063 259.46683Q71.25313 259.98245 71.25313 260.5762Q71.25313 261.12308 70.95625 261.59183Q70.65938 262.04495 70.08125 262.31058Q70.83125 262.48245 71.25313 263.04495Q71.675 263.59183 71.675 264.43558Q71.675 265.56058 70.84688 266.34183Q70.03438 267.12308 68.78438 267.12308Q67.65938 267.12308 66.90938 266.4512Q66.15938 265.7637 66.05 264.7012ZM73.64375 266.96683L73.64375 265.7637L74.84688 265.7637L74.84688 266.96683L73.64375 266.96683ZM80.01875 266.96683L78.97188 266.96683L78.97188 260.24808Q78.58125 260.60745 77.95625 260.98245Q77.34688 261.34183 76.8625 261.5137L76.8625 260.49808Q77.7375 260.0762 78.39375 259.49808Q79.06563 258.90433 79.34688 258.34183L80.01875 258.34183L80.01875 266.96683ZM83.20625 264.98245L84.22188 264.8887Q84.34688 265.60745 84.70625 265.93558Q85.08125 266.24808 85.64375 266.24808Q86.12813 266.24808 86.4875 266.02933Q86.8625 265.79495 87.09688 265.43558Q87.33125 265.06058 87.4875 264.43558Q87.64375 263.79495 87.64375 263.1387Q87.64375 263.06058 87.64375 262.91995Q87.33125 263.41995 86.78438 263.74808Q86.2375 264.06058 85.59688 264.06058Q84.51875 264.06058 83.78438 263.29495Q83.05 262.5137 83.05 261.24808Q83.05 259.93558 83.81563 259.1387Q84.59688 258.34183 85.75313 258.34183Q86.58125 258.34183 87.26875 258.79495Q87.97188 259.24808 88.33125 260.09183Q88.69063 260.91995 88.69063 262.49808Q88.69063 264.1387 88.33125 265.12308Q87.9875 266.09183 87.26875 266.60745Q86.56563 267.10745 85.62813 267.10745Q84.6125 267.10745 83.97188 266.56058Q83.33125 265.99808 83.20625 264.98245ZM87.51875 261.18558Q87.51875 260.27933 87.03438 259.74808Q86.56563 259.21683 85.87813 259.21683Q85.175 259.21683 84.64375 259.79495Q84.12813 260.35745 84.12813 261.27933Q84.12813 262.09183 84.62813 262.60745Q85.12813 263.12308 85.84688 263.12308Q86.58125 263.12308 87.05 262.60745Q87.51875 262.09183 87.51875 261.18558ZM90.64375 266.96683L90.64375 265.7637L91.84688 265.7637L91.84688 266.96683L90.64375 266.96683ZM97.01875 266.96683L95.97188 266.96683L95.97188 260.24808Q95.58125 260.60745 94.95625 260.98245Q94.34688 261.34183 93.8625 261.5137L93.8625 260.49808Q94.7375 260.0762 95.39375 259.49808Q96.06563 258.90433 96.34688 258.34183L97.01875 258.34183L97.01875 266.96683Z"
          fill-rule="nonzero"/>
    <path fill="#000000"
          d="M102.55 313.21564Q102.55 311.6844 102.8625 310.7625Q103.175 309.825 103.78438 309.325Q104.40938 308.825 105.34688 308.825Q106.03438 308.825 106.55 309.10626Q107.08125 309.3875 107.425 309.91876Q107.76875 310.4344 107.95625 311.1844Q108.14375 311.9344 108.14375 313.21564Q108.14375 314.73126 107.83125 315.65314Q107.53438 316.575 106.90938 317.09064Q106.3 317.59064 105.34688 317.59064Q104.1125 317.59064 103.39375 316.7Q102.55 315.6375 102.55 313.21564ZM103.62813 313.21564Q103.62813 315.325 104.12813 316.02814Q104.62813 316.73126 105.34688 316.73126Q106.08125 316.73126 106.56563 316.02814Q107.06563 315.325 107.06563 313.21564Q107.06563 311.09064 106.56563 310.40314Q106.08125 309.7 105.33125 309.7Q104.6125 309.7 104.175 310.3094Q103.62813 311.09064 103.62813 313.21564Z"
          fill-rule="nonzero"/>
    <path fill="#000000"
          d="M221.99374 317.45L220.94687 317.45L220.94687 310.73126Q220.55624 311.09064 219.93124 311.46564Q219.32187 311.825 218.8375 311.9969L218.8375 310.98126Q219.7125 310.5594 220.36874 309.98126Q221.04062 309.3875 221.32187 308.825L221.99374 308.825L221.99374 317.45ZM225.025 313.21564Q225.025 311.6844 225.3375 310.7625Q225.65 309.825 226.25937 309.325Q226.88437 308.825 227.82187 308.825Q228.50937 308.825 229.025 309.10626Q229.55624 309.3875 229.9 309.91876Q230.24374 310.4344 230.43124 311.1844Q230.61874 311.9344 230.61874 313.21564Q230.61874 314.73126 230.30624 315.65314Q230.00937 316.575 229.38437 317.09064Q228.775 317.59064 227.82187 317.59064Q226.5875 317.59064 225.86874 316.7Q225.025 315.6375 225.025 313.21564ZM226.10312 313.21564Q226.10312 315.325 226.60312 316.02814Q227.10312 316.73126 227.82187 316.73126Q228.55624 316.73126 229.04062 316.02814Q229.54062 315.325 229.54062 313.21564Q229.54062 311.09064 229.04062 310.40314Q228.55624 309.7 227.80624 309.7Q227.0875 309.7 226.65 310.3094Q226.10312 311.09064 226.10312 313.21564Z"
          fill-rule="nonzero"/>
    <path fill="#000000"
          d="M342.54688 316.4344L342.54688 317.45L336.85938 317.45Q336.85938 317.075 336.98438 316.71564Q337.20312 316.1375 337.67188 315.575Q338.15625 315.0125 339.0625 314.27814Q340.46875 313.1219 340.95312 312.45Q341.45312 311.77814 341.45312 311.1844Q341.45312 310.5594 341.0 310.1375Q340.54688 309.7 339.82812 309.7Q339.0625 309.7 338.60938 310.15314Q338.15625 310.60626 338.14062 311.41876L337.0625 311.3094Q337.17188 310.09064 337.89062 309.46564Q338.625 308.825 339.85938 308.825Q341.09375 308.825 341.8125 309.5125Q342.53125 310.2 342.53125 311.21564Q342.53125 311.73126 342.3125 312.23126Q342.10938 312.71564 341.60938 313.27814Q341.125 313.825 340.0 314.77814Q339.04688 315.575 338.76562 315.8719Q338.5 316.15314 338.32812 316.4344L342.54688 316.4344ZM344.0 313.21564Q344.0 311.6844 344.3125 310.7625Q344.625 309.825 345.23438 309.325Q345.85938 308.825 346.79688 308.825Q347.48438 308.825 348.0 309.10626Q348.53125 309.3875 348.875 309.91876Q349.21875 310.4344 349.40625 311.1844Q349.59375 311.9344 349.59375 313.21564Q349.59375 314.73126 349.28125 315.65314Q348.98438 316.575 348.35938 317.09064Q347.75 317.59064 346.79688 317.59064Q345.5625 317.59064 344.84375 316.7Q344.0 315.6375 344.0 313.21564ZM345.07812 313.21564Q345.07812 315.325 345.57812 316.02814Q346.07812 316.73126 346.79688 316.73126Q347.53125 316.73126 348.01562 316.02814Q348.51562 315.325 348.51562 313.21564Q348.51562 311.09064 348.01562 310.40314Q347.53125 309.7 346.78125 309.7Q346.0625 309.7 345.625 310.3094Q345.07812 311.09064 345.07812 313.21564Z"
          fill-rule="nonzero"/>
    <path fill="#000000"
          d="M455.975 315.1844L457.0375 315.04376Q457.20938 315.9344 457.64688 316.34064Q458.08438 316.73126 458.70938 316.73126Q459.45938 316.73126 459.975 316.21564Q460.49063 315.7 460.49063 314.9344Q460.49063 314.21564 460.00626 313.7469Q459.5375 313.2625 458.80313 313.2625Q458.50626 313.2625 458.05313 313.3875L458.17813 312.45Q458.2875 312.46564 458.35 312.46564Q459.02188 312.46564 459.55313 312.1219Q460.1 311.7625 460.1 311.02814Q460.1 310.45 459.70938 310.075Q459.31876 309.6844 458.69376 309.6844Q458.08438 309.6844 457.6625 310.075Q457.25626 310.46564 457.14688 311.23126L456.08438 311.04376Q456.27188 309.9969 456.95938 309.41876Q457.64688 308.825 458.6625 308.825Q459.36563 308.825 459.95938 309.1375Q460.55313 309.4344 460.86563 309.95Q461.17813 310.46564 461.17813 311.0594Q461.17813 311.60626 460.88126 312.075Q460.58438 312.52814 460.00626 312.79376Q460.75626 312.96564 461.17813 313.52814Q461.6 314.075 461.6 314.91876Q461.6 316.04376 460.77188 316.825Q459.95938 317.60626 458.70938 317.60626Q457.58438 317.60626 456.83438 316.9344Q456.08438 316.2469 455.975 315.1844ZM462.975 313.21564Q462.975 311.6844 463.2875 310.7625Q463.6 309.825 464.20938 309.325Q464.83438 308.825 465.77188 308.825Q466.45938 308.825 466.975 309.10626Q467.50626 309.3875 467.85 309.91876Q468.19376 310.4344 468.38126 311.1844Q468.56876 311.9344 468.56876 313.21564Q468.56876 314.73126 468.25626 315.65314Q467.95938 316.575 467.33438 317.09064Q466.725 317.59064 465.77188 317.59064Q464.5375 317.59064 463.81876 316.7Q462.975 315.6375 462.975 313.21564ZM464.05313 313.21564Q464.05313 315.325 464.55313 316.02814Q465.05313 316.73126 465.77188 316.73126Q466.50626 316.73126 466.99063 316.02814Q467.49063 315.325 467.49063 313.21564Q467.49063 311.09064 466.99063 310.40314Q466.50626 309.7 465.75626 309.7Q465.0375 309.7 464.6 310.3094Q464.05313 311.09064 464.05313 313.21564Z"
          fill-rule="nonzero"/>
    <path fill="#000000"
          d="M578.325 317.45L578.325 315.3875L574.60626 315.3875L574.60626 314.41876L578.52814 308.85626L579.3875 308.85626L579.3875 314.41876L580.54376 314.41876L580.54376 315.3875L579.3875 315.3875L579.3875 317.45L578.325 317.45ZM578.325 314.41876L578.325 310.5594L575.6375 314.41876L578.325 314.41876ZM581.95 313.21564Q581.95 311.6844 582.2625 310.7625Q582.575 309.825 583.1844 309.325Q583.8094 308.825 584.7469 308.825Q585.4344 308.825 585.95 309.10626Q586.48126 309.3875 586.825 309.91876Q587.16876 310.4344 587.35626 311.1844Q587.54376 311.9344 587.54376 313.21564Q587.54376 314.73126 587.23126 315.65314Q586.9344 316.575 586.3094 317.09064Q585.7 317.59064 584.7469 317.59064Q583.5125 317.59064 582.79376 316.7Q581.95 315.6375 581.95 313.21564ZM583.02814 313.21564Q583.02814 315.325 583.52814 316.02814Q584.02814 316.73126 584.7469 316.73126Q585.48126 316.73126 585.96564 316.02814Q586.46564 315.325 586.46564 313.21564Q586.46564 311.09064 585.96564 310.40314Q585.48126 309.7 584.73126 309.7Q584.0125 309.7 583.575 310.3094Q583.02814 311.09064 583.02814 313.21564Z"
          fill-rule="nonzero"/>
    <path fill="#4285f4"
          d="M186.0 20.55C186.0 19.997715 186.44771 19.55 187.0 19.55L197.0 19.55C197.55229 19.55 198.0 19.997715 198.0 20.55L198.0 30.55C198.0 31.102285 197.55229 31.55 197.0 31.55L187.0 31.55C186.44771 31.55 186.0 31.102285 186.0 30.55Z"
          fill-rule="nonzero"/>
    <path fill="#1a1a1a"
          d="M206.875 29.55L206.875 20.95625L208.01562 20.95625L208.01562 28.534374L212.25 28.534374L212.25 29.55L206.875 29.55ZM213.40625 26.440624Q213.40625 24.70625 214.35938 23.878124Q215.15625 23.190624 216.3125 23.190624Q217.59375 23.190624 218.40625 24.034374Q219.23438 24.8625 219.23438 26.346874Q219.23438 27.55 218.875 28.2375Q218.51562 28.925 217.8125 29.315624Q217.125 29.690624 216.3125 29.690624Q215.01562 29.690624 214.20312 28.8625Q213.40625 28.01875 213.40625 26.440624ZM214.48438 26.440624Q214.48438 27.628124 215.0 28.221874Q215.53125 28.815624 216.3125 28.815624Q217.10938 28.815624 217.625 28.221874Q218.14062 27.628124 218.14062 26.409374Q218.14062 25.253124 217.60938 24.659374Q217.09375 24.065624 216.3125 24.065624Q215.53125 24.065624 215.0 24.659374Q214.48438 25.2375 214.48438 26.440624ZM220.40625 26.440624Q220.40625 24.70625 221.35938 23.878124Q222.15625 23.190624 223.3125 23.190624Q224.59375 23.190624 225.40625 24.034374Q226.23438 24.8625 226.23438 26.346874Q226.23438 27.55 225.875 28.2375Q225.51562 28.925 224.8125 29.315624Q224.125 29.690624 223.3125 29.690624Q222.01562 29.690624 221.20312 28.8625Q220.40625 28.01875 220.40625 26.440624ZM221.48438 26.440624Q221.48438 27.628124 222.0 28.221874Q222.53125 28.815624 223.3125 28.815624Q224.10938 28.815624 224.625 28.221874Q225.14062 27.628124 225.14062 26.409374Q225.14062 25.253124 224.60938 24.659374Q224.09375 24.065624 223.3125 24.065624Q222.53125 24.065624 222.0 24.659374Q221.48438 25.2375 221.48438 26.440624ZM227.375 27.690624L228.40625 27.534374Q228.5 28.159374 228.89062 28.4875Q229.29688 28.815624 230.03125 28.815624Q230.75 28.815624 231.09375 28.534374Q231.45312 28.2375 231.45312 27.83125Q231.45312 27.471874 231.14062 27.26875Q230.92188 27.128124 230.0625 26.909374Q228.90625 26.6125 228.45312 26.409374Q228.01562 26.190624 227.78125 25.815624Q227.54688 25.440624 227.54688 24.971874Q227.54688 24.565624 227.73438 24.20625Q227.92188 23.846874 228.25 23.6125Q228.5 23.440624 228.92188 23.315624Q229.34375 23.190624 229.84375 23.190624Q230.5625 23.190624 231.10938 23.409374Q231.67188 23.6125 231.9375 23.971874Q232.20312 24.33125 232.29688 24.925L231.26562 25.065624Q231.20312 24.596874 230.85938 24.33125Q230.53125 24.05 229.90625 24.05Q229.1875 24.05 228.875 24.3Q228.5625 24.534374 228.5625 24.8625Q228.5625 25.065624 228.6875 25.221874Q228.82812 25.39375 229.09375 25.503124Q229.25 25.565624 230.03125 25.76875Q231.15625 26.08125 231.59375 26.26875Q232.03125 26.45625 232.28125 26.815624Q232.53125 27.175 232.53125 27.721874Q232.53125 28.253124 232.21875 28.721874Q231.92188 29.175 231.34375 29.440624Q230.76562 29.690624 230.03125 29.690624Q228.8125 29.690624 228.17188 29.190624Q227.54688 28.675 227.375 27.690624ZM239.04688 27.55L240.14062 27.675Q239.89062 28.628124 239.1875 29.159374Q238.48438 29.690624 237.40625 29.690624Q236.04688 29.690624 235.23438 28.846874Q234.4375 28.003124 234.4375 26.4875Q234.4375 24.925 235.25 24.065624Q236.0625 23.190624 237.34375 23.190624Q238.59375 23.190624 239.375 24.034374Q240.17188 24.878124 240.17188 26.425Q240.17188 26.51875 240.17188 26.70625L235.53125 26.70625Q235.59375 27.7375 236.10938 28.284374Q236.625 28.815624 237.40625 28.815624Q237.98438 28.815624 238.39062 28.51875Q238.8125 28.20625 239.04688 27.55ZM235.59375 25.846874L239.0625 25.846874Q239.0 25.05 238.67188 24.659374Q238.15625 24.05 237.35938 24.05Q236.625 24.05 236.125 24.534374Q235.64062 25.01875 235.59375 25.846874ZM246.51562 29.55L244.15625 23.33125L245.26562 23.33125L246.60938 27.05Q246.8125 27.659374 247.0 28.3Q247.14062 27.815624 247.39062 27.128124L248.78125 23.33125L249.85938 23.33125L247.5 29.55L246.51562 29.55ZM253.85938 28.784374Q253.26562 29.284374 252.71875 29.4875Q252.1875 29.690624 251.5625 29.690624Q250.53125 29.690624 249.98438 29.190624Q249.4375 28.690624 249.4375 27.909374Q249.4375 27.45625 249.64062 27.08125Q249.84375 26.690624 250.1875 26.471874Q250.53125 26.2375 250.95312 26.128124Q251.25 26.034374 251.89062 25.95625Q253.15625 25.815624 253.76562 25.596874Q253.76562 25.378124 253.76562 25.33125Q253.76562 24.675 253.46875 24.409374Q253.0625 24.065624 252.26562 24.065624Q251.53125 24.065624 251.17188 24.33125Q250.8125 24.58125 250.64062 25.2375L249.60938 25.096874Q249.75 24.440624 250.07812 24.034374Q250.40625 23.628124 251.01562 23.409374Q251.625 23.190624 252.42188 23.190624Q253.21875 23.190624 253.71875 23.378124Q254.21875 23.565624 254.45312 23.846874Q254.6875 24.128124 254.78125 24.565624Q254.82812 24.83125 254.82812 25.534374L254.82812 26.940624Q254.82812 28.409374 254.89062 28.8Q254.96875 29.190624 255.17188 29.55L254.0625 29.55Q253.90625 29.221874 253.85938 28.784374ZM253.76562 26.425Q253.1875 26.659374 252.04688 26.83125Q251.39062 26.925 251.125 27.05Q250.85938 27.159374 250.70312 27.378124Q250.5625 27.596874 250.5625 27.878124Q250.5625 28.3 250.875 28.58125Q251.20312 28.8625 251.8125 28.8625Q252.42188 28.8625 252.89062 28.596874Q253.375 28.33125 253.59375 27.8625Q253.76562 27.503124 253.76562 26.815624L253.76562 26.425ZM256.76562 29.55L256.76562 20.95625L257.82812 20.95625L257.82812 29.55L256.76562 29.55ZM259.79688 22.175L259.79688 20.95625L260.85938 20.95625L260.85938 22.175L259.79688 22.175ZM259.79688 29.55L259.79688 23.33125L260.85938 23.33125L260.85938 29.55L259.79688 29.55ZM266.82812 29.55L266.82812 28.76875Q266.23438 29.690624 265.09375 29.690624Q264.34375 29.690624 263.71875 29.284374Q263.09375 28.8625 262.75 28.128124Q262.40625 27.39375 262.40625 26.440624Q262.40625 25.51875 262.71875 24.753124Q263.03125 23.9875 263.65625 23.596874Q264.28125 23.190624 265.04688 23.190624Q265.60938 23.190624 266.04688 23.425Q266.48438 23.659374 266.76562 24.034374L266.76562 20.95625L267.8125 20.95625L267.8125 29.55L266.82812 29.55ZM263.5 26.440624Q263.5 27.64375 264.0 28.2375Q264.5 28.815624 265.1875 28.815624Q265.875 28.815624 266.35938 28.253124Q266.84375 27.690624 266.84375 26.534374Q266.84375 25.253124 266.34375 24.659374Q265.85938 24.065624 265.14062 24.065624Q264.4375 24.065624 263.96875 24.64375Q263.5 25.20625 263.5 26.440624ZM273.85938 28.784374Q273.26562 29.284374 272.71875 29.4875Q272.1875 29.690624 271.5625 29.690624Q270.53125 29.690624 269.98438 29.190624Q269.4375 28.690624 269.4375 27.909374Q269.4375 27.45625 269.64062 27.08125Q269.84375 26.690624 270.1875 26.471874Q270.53125 26.2375 270.95312 26.128124Q271.25 26.034374 271.89062 25.95625Q273.15625 25.815624 273.76562 25.596874Q273.76562 25.378124 273.76562 25.33125Q273.76562 24.675 273.46875 24.409374Q273.0625 24.065624 272.26562 24.065624Q271.53125 24.065624 271.17188 24.33125Q270.8125 24.58125 270.64062 25.2375L269.60938 25.096874Q269.75 24.440624 270.07812 24.034374Q270.40625 23.628124 271.01562 23.409374Q271.625 23.190624 272.42188 23.190624Q273.21875 23.190624 273.71875 23.378124Q274.21875 23.565624 274.45312 23.846874Q274.6875 24.128124 274.78125 24.565624Q274.82812 24.83125 274.82812 25.534374L274.82812 26.940624Q274.82812 28.409374 274.89062 28.8Q274.96875 29.190624 275.17188 29.55L274.0625 29.55Q273.90625 29.221874 273.85938 28.784374ZM273.76562 26.425Q273.1875 26.659374 272.04688 26.83125Q271.39062 26.925 271.125 27.05Q270.85938 27.159374 270.70312 27.378124Q270.5625 27.596874 270.5625 27.878124Q270.5625 28.3 270.875 28.58125Q271.20312 28.8625 271.8125 28.8625Q272.42188 28.8625 272.89062 28.596874Q273.375 28.33125 273.59375 27.8625Q273.76562 27.503124 273.76562 26.815624L273.76562 26.425ZM279.09375 28.6125L279.25 29.534374Q278.79688 29.628124 278.45312 29.628124Q277.875 29.628124 277.5625 29.45625Q277.25 29.26875 277.10938 28.971874Q276.98438 28.675 276.98438 27.721874L276.98438 24.14375L276.21875 24.14375L276.21875 23.33125L276.98438 23.33125L276.98438 21.784374L278.03125 21.159374L278.03125 23.33125L279.09375 23.33125L279.09375 24.14375L278.03125 24.14375L278.03125 27.784374Q278.03125 28.2375 278.07812 28.3625Q278.14062 28.4875 278.26562 28.565624Q278.39062 28.64375 278.625 28.64375Q278.8125 28.64375 279.09375 28.6125ZM279.79688 22.175L279.79688 20.95625L280.85938 20.95625L280.85938 22.175L279.79688 22.175ZM279.79688 29.55L279.79688 23.33125L280.85938 23.33125L280.85938 29.55L279.79688 29.55ZM282.40625 26.440624Q282.40625 24.70625 283.35938 23.878124Q284.15625 23.190624 285.3125 23.190624Q286.59375 23.190624 287.40625 24.034374Q288.23438 24.8625 288.23438 26.346874Q288.23438 27.55 287.875 28.2375Q287.51562 28.925 286.8125 29.315624Q286.125 29.690624 285.3125 29.690624Q284.01562 29.690624 283.20312 28.8625Q282.40625 28.01875 282.40625 26.440624ZM283.48438 26.440624Q283.48438 27.628124 284.0 28.221874Q284.53125 28.815624 285.3125 28.815624Q286.10938 28.815624 286.625 28.221874Q287.14062 27.628124 287.14062 26.409374Q287.14062 25.253124 286.60938 24.659374Q286.09375 24.065624 285.3125 24.065624Q284.53125 24.065624 284.0 24.659374Q283.48438 25.2375 283.48438 26.440624ZM289.79688 29.55L289.79688 23.33125L290.73438 23.33125L290.73438 24.20625Q291.42188 23.190624 292.71875 23.190624Q293.28125 23.190624 293.75 23.39375Q294.23438 23.596874 294.46875 23.925Q294.70312 24.253124 294.79688 24.690624Q294.84375 24.9875 294.84375 25.721874L294.84375 29.55L293.79688 29.55L293.79688 25.76875Q293.79688 25.1125 293.67188 24.8Q293.54688 24.4875 293.23438 24.3Q292.92188 24.096874 292.5 24.096874Q291.82812 24.096874 291.32812 24.534374Q290.84375 24.95625 290.84375 26.14375L290.84375 29.55L289.79688 29.55Z"
          fill-rule="nonzero"/>
    <path fill="#ea4335"
          d="M312.0 20.55C312.0 19.997715 312.44772 19.55 313.0 19.55L323.0 19.55C323.55228 19.55 324.0 19.997715 324.0 20.55L324.0 30.55C324.0 31.102285 323.55228 31.55 323.0 31.55L313.0 31.55C312.44772 31.55 312.0 31.102285 312.0 30.55Z"
          fill-rule="nonzero"/>
    <path fill="#1a1a1a"
          d="M332.54688 26.784374L333.60938 26.690624Q333.6875 27.346874 333.96875 27.753124Q334.25 28.159374 334.82812 28.425Q335.42188 28.675 336.15625 28.675Q336.79688 28.675 337.29688 28.4875Q337.79688 28.284374 338.03125 27.95625Q338.28125 27.6125 338.28125 27.221874Q338.28125 26.815624 338.04688 26.51875Q337.8125 26.20625 337.28125 26.003124Q336.92188 25.8625 335.73438 25.58125Q334.5625 25.3 334.09375 25.05Q333.46875 24.721874 333.17188 24.253124Q332.875 23.76875 332.875 23.175Q332.875 22.534374 333.23438 21.971874Q333.60938 21.39375 334.3125 21.1125Q335.03125 20.815624 335.89062 20.815624Q336.84375 20.815624 337.57812 21.128124Q338.3125 21.425 338.70312 22.034374Q339.09375 22.628124 339.125 23.378124L338.03125 23.45625Q337.9375 22.64375 337.42188 22.2375Q336.92188 21.815624 335.9375 21.815624Q334.90625 21.815624 334.4375 22.190624Q333.96875 22.565624 333.96875 23.096874Q333.96875 23.565624 334.29688 23.8625Q334.625 24.159374 336.0 24.471874Q337.39062 24.784374 337.90625 25.01875Q338.65625 25.378124 339.01562 25.909374Q339.375 26.425 339.375 27.128124Q339.375 27.815624 338.98438 28.425Q338.59375 29.01875 337.85938 29.3625Q337.125 29.690624 336.20312 29.690624Q335.03125 29.690624 334.23438 29.3625Q333.45312 29.01875 333.0 28.33125Q332.5625 27.64375 332.54688 26.784374ZM343.09375 28.6125L343.25 29.534374Q342.79688 29.628124 342.45312 29.628124Q341.875 29.628124 341.5625 29.45625Q341.25 29.26875 341.10938 28.971874Q340.98438 28.675 340.98438 27.721874L340.98438 24.14375L340.21875 24.14375L340.21875 23.33125L340.98438 23.33125L340.98438 21.784374L342.03125 21.159374L342.03125 23.33125L343.09375 23.33125L343.09375 24.14375L342.03125 24.14375L342.03125 27.784374Q342.03125 28.2375 342.07812 28.3625Q342.14062 28.4875 342.26562 28.565624Q342.39062 28.64375 342.625 28.64375Q342.8125 28.64375 343.09375 28.6125ZM343.78125 29.55L343.78125 23.33125L344.73438 23.33125L344.73438 24.26875Q345.09375 23.6125 345.39062 23.409374Q345.70312 23.190624 346.07812 23.190624Q346.60938 23.190624 347.15625 23.51875L346.79688 24.503124Q346.40625 24.26875 346.03125 24.26875Q345.67188 24.26875 345.39062 24.4875Q345.125 24.690624 345.01562 25.065624Q344.82812 25.628124 344.82812 26.284374L344.82812 29.55L343.78125 29.55ZM347.79688 22.175L347.79688 20.95625L348.85938 20.95625L348.85938 22.175L347.79688 22.175ZM347.79688 29.55L347.79688 23.33125L348.85938 23.33125L348.85938 29.55L347.79688 29.55ZM354.85938 27.26875L355.89062 27.409374Q355.71875 28.471874 355.01562 29.08125Q354.3125 29.690624 353.29688 29.690624Q352.01562 29.690624 351.23438 28.8625Q350.46875 28.01875 350.46875 26.45625Q350.46875 25.45625 350.79688 24.70625Q351.14062 23.940624 351.8125 23.565624Q352.5 23.190624 353.3125 23.190624Q354.3125 23.190624 354.95312 23.70625Q355.60938 24.20625 355.79688 25.159374L354.76562 25.315624Q354.625 24.690624 354.25 24.378124Q353.875 24.05 353.34375 24.05Q352.54688 24.05 352.04688 24.628124Q351.54688 25.190624 351.54688 26.425Q351.54688 27.690624 352.03125 28.253124Q352.51562 28.815624 353.28125 28.815624Q353.90625 28.815624 354.3125 28.440624Q354.73438 28.065624 354.85938 27.26875ZM359.09375 28.6125L359.25 29.534374Q358.79688 29.628124 358.45312 29.628124Q357.875 29.628124 357.5625 29.45625Q357.25 29.26875 357.10938 28.971874Q356.98438 28.675 356.98438 27.721874L356.98438 24.14375L356.21875 24.14375L356.21875 23.33125L356.98438 23.33125L356.98438 21.784374L358.03125 21.159374L358.03125 23.33125L359.09375 23.33125L359.09375 24.14375L358.03125 24.14375L358.03125 27.784374Q358.03125 28.2375 358.07812 28.3625Q358.14062 28.4875 358.26562 28.565624Q358.39062 28.64375 358.625 28.64375Q358.8125 28.64375 359.09375 28.6125ZM364.51562 29.55L362.15625 23.33125L363.26562 23.33125L364.60938 27.05Q364.8125 27.659374 365.0 28.3Q365.14062 27.815624 365.39062 27.128124L366.78125 23.33125L367.85938 23.33125L365.5 29.55L364.51562 29.55ZM371.85938 28.784374Q371.26562 29.284374 370.71875 29.4875Q370.1875 29.690624 369.5625 29.690624Q368.53125 29.690624 367.98438 29.190624Q367.4375 28.690624 367.4375 27.909374Q367.4375 27.45625 367.64062 27.08125Q367.84375 26.690624 368.1875 26.471874Q368.53125 26.2375 368.95312 26.128124Q369.25 26.034374 369.89062 25.95625Q371.15625 25.815624 371.76562 25.596874Q371.76562 25.378124 371.76562 25.33125Q371.76562 24.675 371.46875 24.409374Q371.0625 24.065624 370.26562 24.065624Q369.53125 24.065624 369.17188 24.33125Q368.8125 24.58125 368.64062 25.2375L367.60938 25.096874Q367.75 24.440624 368.07812 24.034374Q368.40625 23.628124 369.01562 23.409374Q369.625 23.190624 370.42188 23.190624Q371.21875 23.190624 371.71875 23.378124Q372.21875 23.565624 372.45312 23.846874Q372.6875 24.128124 372.78125 24.565624Q372.82812 24.83125 372.82812 25.534374L372.82812 26.940624Q372.82812 28.409374 372.89062 28.8Q372.96875 29.190624 373.17188 29.55L372.0625 29.55Q371.90625 29.221874 371.85938 28.784374ZM371.76562 26.425Q371.1875 26.659374 370.04688 26.83125Q369.39062 26.925 369.125 27.05Q368.85938 27.159374 368.70312 27.378124Q368.5625 27.596874 368.5625 27.878124Q368.5625 28.3 368.875 28.58125Q369.20312 28.8625 369.8125 28.8625Q370.42188 28.8625 370.89062 28.596874Q371.375 28.33125 371.59375 27.8625Q371.76562 27.503124 371.76562 26.815624L371.76562 26.425ZM374.76562 29.55L374.76562 20.95625L375.82812 20.95625L375.82812 29.55L374.76562 29.55ZM377.79688 22.175L377.79688 20.95625L378.85938 20.95625L378.85938 22.175L377.79688 22.175ZM377.79688 29.55L377.79688 23.33125L378.85938 23.33125L378.85938 29.55L377.79688 29.55ZM384.82812 29.55L384.82812 28.76875Q384.23438 29.690624 383.09375 29.690624Q382.34375 29.690624 381.71875 29.284374Q381.09375 28.8625 380.75 28.128124Q380.40625 27.39375 380.40625 26.440624Q380.40625 25.51875 380.71875 24.753124Q381.03125 23.9875 381.65625 23.596874Q382.28125 23.190624 383.04688 23.190624Q383.60938 23.190624 384.04688 23.425Q384.48438 23.659374 384.76562 24.034374L384.76562 20.95625L385.8125 20.95625L385.8125 29.55L384.82812 29.55ZM381.5 26.440624Q381.5 27.64375 382.0 28.2375Q382.5 28.815624 383.1875 28.815624Q383.875 28.815624 384.35938 28.253124Q384.84375 27.690624 384.84375 26.534374Q384.84375 25.253124 384.34375 24.659374Q383.85938 24.065624 383.14062 24.065624Q382.4375 24.065624 381.96875 24.64375Q381.5 25.20625 381.5 26.440624ZM391.85938 28.784374Q391.26562 29.284374 390.71875 29.4875Q390.1875 29.690624 389.5625 29.690624Q388.53125 29.690624 387.98438 29.190624Q387.4375 28.690624 387.4375 27.909374Q387.4375 27.45625 387.64062 27.08125Q387.84375 26.690624 388.1875 26.471874Q388.53125 26.2375 388.95312 26.128124Q389.25 26.034374 389.89062 25.95625Q391.15625 25.815624 391.76562 25.596874Q391.76562 25.378124 391.76562 25.33125Q391.76562 24.675 391.46875 24.409374Q391.0625 24.065624 390.26562 24.065624Q389.53125 24.065624 389.17188 24.33125Q388.8125 24.58125 388.64062 25.2375L387.60938 25.096874Q387.75 24.440624 388.07812 24.034374Q388.40625 23.628124 389.01562 23.409374Q389.625 23.190624 390.42188 23.190624Q391.21875 23.190624 391.71875 23.378124Q392.21875 23.565624 392.45312 23.846874Q392.6875 24.128124 392.78125 24.565624Q392.82812 24.83125 392.82812 25.534374L392.82812 26.940624Q392.82812 28.409374 392.89062 28.8Q392.96875 29.190624 393.17188 29.55L392.0625 29.55Q391.90625 29.221874 391.85938 28.784374ZM391.76562 26.425Q391.1875 26.659374 390.04688 26.83125Q389.39062 26.925 389.125 27.05Q388.85938 27.159374 388.70312 27.378124Q388.5625 27.596874 388.5625 27.878124Q388.5625 28.3 388.875 28.58125Q389.20312 28.8625 389.8125 28.8625Q390.42188 28.8625 390.89062 28.596874Q391.375 28.33125 391.59375 27.8625Q391.76562 27.503124 391.76562 26.815624L391.76562 26.425ZM397.09375 28.6125L397.25 29.534374Q396.79688 29.628124 396.45312 29.628124Q395.875 29.628124 395.5625 29.45625Q395.25 29.26875 395.10938 28.971874Q394.98438 28.675 394.98438 27.721874L394.98438 24.14375L394.21875 24.14375L394.21875 23.33125L394.98438 23.33125L394.98438 21.784374L396.03125 21.159374L396.03125 23.33125L397.09375 23.33125L397.09375 24.14375L396.03125 24.14375L396.03125 27.784374Q396.03125 28.2375 396.07812 28.3625Q396.14062 28.4875 396.26562 28.565624Q396.39062 28.64375 396.625 28.64375Q396.8125 28.64375 397.09375 28.6125ZM397.79688 22.175L397.79688 20.95625L398.85938 20.95625L398.85938 22.175L397.79688 22.175ZM397.79688 29.55L397.79688 23.33125L398.85938 23.33125L398.85938 29.55L397.79688 29.55ZM400.40625 26.440624Q400.40625 24.70625 401.35938 23.878124Q402.15625 23.190624 403.3125 23.190624Q404.59375 23.190624 405.40625 24.034374Q406.23438 24.8625 406.23438 26.346874Q406.23438 27.55 405.875 28.2375Q405.51562 28.925 404.8125 29.315624Q404.125 29.690624 403.3125 29.690624Q402.01562 29.690624 401.20312 28.8625Q400.40625 28.01875 400.40625 26.440624ZM401.48438 26.440624Q401.48438 27.628124 402.0 28.221874Q402.53125 28.815624 403.3125 28.815624Q404.10938 28.815624 404.625 28.221874Q405.14062 27.628124 405.14062 26.409374Q405.14062 25.253124 404.60938 24.659374Q404.09375 24.065624 403.3125 24.065624Q402.53125 24.065624 402.0 24.659374Q401.48438 25.2375 401.48438 26.440624ZM407.79688 29.55L407.79688 23.33125L408.73438 23.33125L408.73438 24.20625Q409.42188 23.190624 410.71875 23.190624Q411.28125 23.190624 411.75 23.39375Q412.23438 23.596874 412.46875 23.925Q412.70312 24.253124 412.79688 24.690624Q412.84375 24.9875 412.84375 25.721874L412.84375 29.55L411.79688 29.55L411.79688 25.76875Q411.79688 25.1125 411.67188 24.8Q411.54688 24.4875 411.23438 24.3Q410.92188 24.096874 410.5 24.096874Q409.82812 24.096874 409.32812 24.534374Q408.84375 24.95625 408.84375 26.14375L408.84375 29.55L407.79688 29.55Z"
          fill-rule="nonzero"/>
</svg>