<svg version="1.1" viewBox="0.0 0.0 600.0 371.0" fill="none" stroke="none" stroke-linecap="square" stroke-miterlimit="10" width="600" height="371" xmlns:xlink="http://www.w3.org/1999/xlink" xmlns="http://www.w3.org/2000/svg"><path fill="#ffffff" d="M0 0L600.0 0L600.0 371.0L0 371.0L0 0Z" fill-rule="nonzero"/><path stroke="#333333" stroke-width="1.0" stroke-linecap="butt" d="M105.5 44.5L105.5 294.5" fill-rule="nonzero"/><path stroke="#cccccc" stroke-width="1.0" stroke-linecap="butt" d="M165.5 44.5L165.5 294.5" fill-rule="nonzero"/><path stroke="#cccccc" stroke-width="1.0" stroke-linecap="butt" d="M224.5 44.5L224.5 294.5" fill-rule="nonzero"/><path stroke="#cccccc" stroke-width="1.0" stroke-linecap="butt" d="M284.5 44.5L284.5 294.5" fill-rule="nonzero"/><path stroke="#cccccc" stroke-width="1.0" stroke-linecap="butt" d="M343.5 44.5L343.5 294.5" fill-rule="nonzero"/><path stroke="#cccccc" stroke-width="1.0" stroke-linecap="butt" d="M402.5 44.5L402.5 294.5" fill-rule="nonzero"/><path stroke="#cccccc" stroke-width="1.0" stroke-linecap="butt" d="M462.5 44.5L462.5 294.5" fill-rule="nonzero"/><path stroke="#cccccc" stroke-width="1.0" stroke-linecap="butt" d="M521.5 44.5L521.5 294.5" fill-rule="nonzero"/><path stroke="#cccccc" stroke-width="1.0" stroke-linecap="butt" d="M581.5 44.5L581.5 294.5" fill-rule="nonzero"/><path stroke="#e6e6e6" stroke-width="1.0" stroke-linecap="butt" d="M120.5 44.5L120.5 294.5" fill-rule="nonzero"/><path stroke="#e6e6e6" stroke-width="1.0" stroke-linecap="butt" d="M135.5 44.5L135.5 294.5" fill-rule="nonzero"/><path stroke="#e6e6e6" stroke-width="1.0" stroke-linecap="butt" d="M150.5 44.5L150.5 294.5" fill-rule="nonzero"/><path stroke="#e6e6e6" stroke-width="1.0" stroke-linecap="butt" d="M179.5 44.5L179.5 294.5" fill-rule="nonzero"/><path stroke="#e6e6e6" stroke-width="1.0" stroke-linecap="butt" d="M194.5 44.5L194.5 294.5" fill-rule="nonzero"/><path stroke="#e6e6e6" stroke-width="1.0" stroke-linecap="butt" d="M209.5 44.5L209.5 294.5" fill-rule="nonzero"/><path stroke="#e6e6e6" stroke-width="1.0" stroke-linecap="butt" d="M239.5 44.5L239.5 294.5" fill-rule="nonzero"/><path stroke="#e6e6e6" stroke-width="1.0" stroke-linecap="butt" d="M254.5 44.5L254.5 294.5" fill-rule="nonzero"/><path stroke="#e6e6e6" stroke-width="1.0" stroke-linecap="butt" d="M269.5 44.5L269.5 294.5" fill-rule="nonzero"/><path stroke="#e6e6e6" stroke-width="1.0" stroke-linecap="butt" d="M298.5 44.5L298.5 294.5" fill-rule="nonzero"/><path stroke="#e6e6e6" stroke-width="1.0" stroke-linecap="butt" d="M313.5 44.5L313.5 294.5" fill-rule="nonzero"/><path stroke="#e6e6e6" stroke-width="1.0" stroke-linecap="butt" d="M328.5 44.5L328.5 294.5" fill-rule="nonzero"/><path stroke="#e6e6e6" stroke-width="1.0" stroke-linecap="butt" d="M358.5 44.5L358.5 294.5" fill-rule="nonzero"/><path stroke="#e6e6e6" stroke-width="1.0" stroke-linecap="butt" d="M373.5 44.5L373.5 294.5" fill-rule="nonzero"/><path stroke="#e6e6e6" stroke-width="1.0" stroke-linecap="butt" d="M388.5 44.5L388.5 294.5" fill-rule="nonzero"/><path stroke="#e6e6e6" stroke-width="1.0" stroke-linecap="butt" d="M417.5 44.5L417.5 294.5" fill-rule="nonzero"/><path stroke="#e6e6e6" stroke-width="1.0" stroke-linecap="butt" d="M432.5 44.5L432.5 294.5" fill-rule="nonzero"/><path stroke="#e6e6e6" stroke-width="1.0" stroke-linecap="butt" d="M447.5 44.5L447.5 294.5" fill-rule="nonzero"/><path stroke="#e6e6e6" stroke-width="1.0" stroke-linecap="butt" d="M477.5 44.5L477.5 294.5" fill-rule="nonzero"/><path stroke="#e6e6e6" stroke-width="1.0" stroke-linecap="butt" d="M492.5 44.5L492.5 294.5" fill-rule="nonzero"/><path stroke="#e6e6e6" stroke-width="1.0" stroke-linecap="butt" d="M507.5 44.5L507.5 294.5" fill-rule="nonzero"/><path stroke="#e6e6e6" stroke-width="1.0" stroke-linecap="butt" d="M536.5 44.5L536.5 294.5" fill-rule="nonzero"/><path stroke="#e6e6e6" stroke-width="1.0" stroke-linecap="butt" d="M551.5 44.5L551.5 294.5" fill-rule="nonzero"/><path stroke="#e6e6e6" stroke-width="1.0" stroke-linecap="butt" d="M566.5 44.5L566.5 294.5" fill-rule="nonzero"/><path stroke="#000000" stroke-width="1.0" stroke-linecap="butt" d="M581.5 294.5L105.5 294.5" fill-rule="nonzero"/><clipPath id="id_0"><path d="M105.55 44.916668L581.45 44.916668L581.45 294.45L105.55 294.45L105.55 44.916668Z" clip-rule="nonzero"/></clipPath><path stroke="#000000" stroke-width="2.0" stroke-linecap="butt" stroke-opacity="0.0" clip-path="url(#id_0)" d="M106.0 83.0L106.0 66.0L568.0 66.0C569.10455 66.0 570.0 66.89543 570.0 68.0L570.0 81.0C570.0 82.10457 569.10455 83.0 568.0 83.0Z" fill-rule="nonzero"/><path fill="#4285f4" clip-path="url(#id_0)" d="M106.0 83.0L106.0 66.0L568.0 66.0C569.10455 66.0 570.0 66.89543 570.0 68.0L570.0 81.0C570.0 82.10457 569.10455 83.0 568.0 83.0Z" fill-rule="nonzero"/><path stroke="#000000" stroke-width="2.0" stroke-linecap="butt" stroke-opacity="0.0" clip-path="url(#id_0)" d="M106.0 140.0L106.0 123.0L460.0 123.0C461.10458 123.0 462.0 123.89543 462.0 125.0L462.0 138.0C462.0 139.10457 461.10458 140.0 460.0 140.0Z" fill-rule="nonzero"/><path fill="#4285f4" clip-path="url(#id_0)" d="M106.0 140.0L106.0 123.0L460.0 123.0C461.10458 123.0 462.0 123.89543 462.0 125.0L462.0 138.0C462.0 139.10457 461.10458 140.0 460.0 140.0Z" fill-rule="nonzero"/><path stroke="#000000" stroke-width="2.0" stroke-linecap="butt" stroke-opacity="0.0" clip-path="url(#id_0)" d="M106.0 197.0L106.0 180.0L264.0 180.0C265.10458 180.0 266.0 180.89543 266.0 182.0L266.0 195.0C266.0 196.10457 265.10458 197.0 264.0 197.0Z" fill-rule="nonzero"/><path fill="#4285f4" clip-path="url(#id_0)" d="M106.0 197.0L106.0 180.0L264.0 180.0C265.10458 180.0 266.0 180.89543 266.0 182.0L266.0 195.0C266.0 196.10457 265.10458 197.0 264.0 197.0Z" fill-rule="nonzero"/><path stroke="#000000" stroke-width="2.0" stroke-linecap="butt" stroke-opacity="0.0" clip-path="url(#id_0)" d="M106.0 255.0L106.0 238.0L163.0 238.0C164.10457 238.0 165.0 238.89543 165.0 240.0L165.0 253.0C165.0 254.10457 164.10457 255.0 163.0 255.0Z" fill-rule="nonzero"/><path fill="#4285f4" clip-path="url(#id_0)" d="M106.0 255.0L106.0 238.0L163.0 238.0C164.10457 238.0 165.0 238.89543 165.0 240.0L165.0 253.0C165.0 254.10457 164.10457 255.0 163.0 255.0Z" fill-rule="nonzero"/><path stroke="#000000" stroke-width="2.0" stroke-linecap="butt" stroke-opacity="0.0" clip-path="url(#id_0)" d="M106.0 102.0L106.0 85.0L508.0 85.0C509.10458 85.0 510.0 85.89543 510.0 87.0L510.0 100.0C510.0 101.10457 509.10458 102.0 508.0 102.0Z" fill-rule="nonzero"/><path fill="#ea4335" clip-path="url(#id_0)" d="M106.0 102.0L106.0 85.0L508.0 85.0C509.10458 85.0 510.0 85.89543 510.0 87.0L510.0 100.0C510.0 101.10457 509.10458 102.0 508.0 102.0Z" fill-rule="nonzero"/><path stroke="#000000" stroke-width="2.0" stroke-linecap="butt" stroke-opacity="0.0" clip-path="url(#id_0)" d="M106.0 159.0L106.0 142.0L425.0 142.0C426.10458 142.0 427.0 142.89543 427.0 144.0L427.0 157.0C427.0 158.10457 426.10458 159.0 425.0 159.0Z" fill-rule="nonzero"/><path fill="#ea4335" clip-path="url(#id_0)" d="M106.0 159.0L106.0 142.0L425.0 142.0C426.10458 142.0 427.0 142.89543 427.0 144.0L427.0 157.0C427.0 158.10457 426.10458 159.0 425.0 159.0Z" fill-rule="nonzero"/><path stroke="#000000" stroke-width="2.0" stroke-linecap="butt" stroke-opacity="0.0" clip-path="url(#id_0)" d="M106.0 216.0L106.0 199.0L276.0 199.0C277.10458 199.0 278.0 199.89543 278.0 201.0L278.0 214.0C278.0 215.10457 277.10458 216.0 276.0 216.0Z" fill-rule="nonzero"/><path fill="#ea4335" clip-path="url(#id_0)" d="M106.0 216.0L106.0 199.0L276.0 199.0C277.10458 199.0 278.0 199.89543 278.0 201.0L278.0 214.0C278.0 215.10457 277.10458 216.0 276.0 216.0Z" fill-rule="nonzero"/><path stroke="#000000" stroke-width="2.0" stroke-linecap="butt" stroke-opacity="0.0" clip-path="url(#id_0)" d="M106.0 274.0L106.0 257.0L163.0 257.0C164.10457 257.0 165.0 257.89542 165.0 259.0L165.0 272.0C165.0 273.10458 164.10457 274.0 163.0 274.0Z" fill-rule="nonzero"/><path fill="#ea4335" clip-path="url(#id_0)" d="M106.0 274.0L106.0 257.0L163.0 257.0C164.10457 257.0 165.0 257.89542 165.0 259.0L165.0 272.0C165.0 273.10458 164.10457 274.0 163.0 274.0Z" fill-rule="nonzero"/><path stroke="#000000" stroke-width="1.0" stroke-linecap="butt" d="M105.5 300.5L105.5 288.5" fill-rule="nonzero"/><path stroke="#000000" stroke-width="1.0" stroke-linecap="butt" d="M165.5 300.5L165.5 288.5" fill-rule="nonzero"/><path stroke="#000000" stroke-width="1.0" stroke-linecap="butt" d="M224.5 300.5L224.5 288.5" fill-rule="nonzero"/><path stroke="#000000" stroke-width="1.0" stroke-linecap="butt" d="M284.5 300.5L284.5 288.5" fill-rule="nonzero"/><path stroke="#000000" stroke-width="1.0" stroke-linecap="butt" d="M343.5 300.5L343.5 288.5" fill-rule="nonzero"/><path stroke="#000000" stroke-width="1.0" stroke-linecap="butt" d="M402.5 300.5L402.5 288.5" fill-rule="nonzero"/><path stroke="#000000" stroke-width="1.0" stroke-linecap="butt" d="M462.5 300.5L462.5 288.5" fill-rule="nonzero"/><path stroke="#000000" stroke-width="1.0" stroke-linecap="butt" d="M521.5 300.5L521.5 288.5" fill-rule="nonzero"/><path stroke="#000000" stroke-width="1.0" stroke-linecap="butt" d="M581.5 300.5L581.5 288.5" fill-rule="nonzero"/><path fill="#000000" d="M260.89062 349.45L260.89062 340.85626L262.60938 340.85626L264.64062 346.9344Q264.92188 347.79376 265.04688 348.21564Q265.1875 347.7469 265.5 346.84064L267.5625 340.85626L269.09375 340.85626L269.09375 349.45L268.0 349.45L268.0 342.2625L265.5 349.45L264.46875 349.45L261.98438 342.1375L261.98438 349.45L260.89062 349.45ZM269.79688 342.075L269.79688 340.85626L270.85938 340.85626L270.85938 342.075L269.79688 342.075ZM269.79688 349.45L269.79688 343.23126L270.85938 343.23126L270.85938 349.45L269.79688 349.45ZM272.76562 349.45L272.76562 340.85626L273.82812 340.85626L273.82812 349.45L272.76562 349.45ZM275.76562 349.45L275.76562 340.85626L276.82812 340.85626L276.82812 349.45L275.76562 349.45ZM278.79688 342.075L278.79688 340.85626L279.85938 340.85626L279.85938 342.075L278.79688 342.075ZM278.79688 349.45L278.79688 343.23126L279.85938 343.23126L279.85938 349.45L278.79688 349.45ZM281.40625 346.34064Q281.40625 344.60626 282.35938 343.77814Q283.15625 343.09064 284.3125 343.09064Q285.59375 343.09064 286.40625 343.9344Q287.23438 344.7625 287.23438 346.2469Q287.23438 347.45 286.875 348.1375Q286.51562 348.825 285.8125 349.21564Q285.125 349.59064 284.3125 349.59064Q283.01562 349.59064 282.20312 348.7625Q281.40625 347.91876 281.40625 346.34064ZM282.48438 346.34064Q282.48438 347.52814 283.0 348.1219Q283.53125 348.71564 284.3125 348.71564Q285.10938 348.71564 285.625 348.1219Q286.14062 347.52814 286.14062 346.3094Q286.14062 345.15314 285.60938 344.5594Q285.09375 343.96564 284.3125 343.96564Q283.53125 343.96564 283.0 344.5594Q282.48438 345.1375 282.48438 346.34064ZM288.79688 349.45L288.79688 343.23126L289.73438 343.23126L289.73438 344.10626Q290.42188 343.09064 291.71875 343.09064Q292.28125 343.09064 292.75 343.29376Q293.23438 343.4969 293.46875 343.825Q293.70312 344.15314 293.79688 344.59064Q293.84375 344.8875 293.84375 345.6219L293.84375 349.45L292.79688 349.45L292.79688 345.66876Q292.79688 345.0125 292.67188 344.7Q292.54688 344.3875 292.23438 344.2Q291.92188 343.9969 291.5 343.9969Q290.82812 343.9969 290.32812 344.4344Q289.84375 344.85626 289.84375 346.04376L289.84375 349.45L288.79688 349.45ZM295.375 347.59064L296.40625 347.4344Q296.5 348.0594 296.89062 348.3875Q297.29688 348.71564 298.03125 348.71564Q298.75 348.71564 299.09375 348.4344Q299.45312 348.1375 299.45312 347.73126Q299.45312 347.3719 299.14062 347.16876Q298.92188 347.02814 298.0625 346.8094Q296.90625 346.5125 296.45312 346.3094Q296.01562 346.09064 295.78125 345.71564Q295.54688 345.34064 295.54688 344.8719Q295.54688 344.46564 295.73438 344.10626Q295.92188 343.7469 296.25 343.5125Q296.5 343.34064 296.92188 343.21564Q297.34375 343.09064 297.84375 343.09064Q298.5625 343.09064 299.10938 343.3094Q299.67188 343.5125 299.9375 343.8719Q300.20312 344.23126 300.29688 344.825L299.26562 344.96564Q299.20312 344.4969 298.85938 344.23126Q298.53125 343.95 297.90625 343.95Q297.1875 343.95 296.875 344.2Q296.5625 344.4344 296.5625 344.7625Q296.5625 344.96564 296.6875 345.1219Q296.82812 345.29376 297.09375 345.40314Q297.25 345.46564 298.03125 345.66876Q299.15625 345.98126 299.59375 346.16876Q300.03125 346.35626 300.28125 346.71564Q300.53125 347.075 300.53125 347.6219Q300.53125 348.15314 300.21875 348.6219Q299.92188 349.075 299.34375 349.34064Q298.76562 349.59064 298.03125 349.59064Q296.8125 349.59064 296.17188 349.09064Q295.54688 348.575 295.375 347.59064ZM305.40625 346.34064Q305.40625 344.60626 306.35938 343.77814Q307.15625 343.09064 308.3125 343.09064Q309.59375 343.09064 310.40625 343.9344Q311.23438 344.7625 311.23438 346.2469Q311.23438 347.45 310.875 348.1375Q310.51562 348.825 309.8125 349.21564Q309.125 349.59064 308.3125 349.59064Q307.01562 349.59064 306.20312 348.7625Q305.40625 347.91876 305.40625 346.34064ZM306.48438 346.34064Q306.48438 347.52814 307.0 348.1219Q307.53125 348.71564 308.3125 348.71564Q309.10938 348.71564 309.625 348.1219Q310.14062 347.52814 310.14062 346.3094Q310.14062 345.15314 309.60938 344.5594Q309.09375 343.96564 308.3125 343.96564Q307.53125 343.96564 307.0 344.5594Q306.48438 345.1375 306.48438 346.34064ZM313.04688 349.45L313.04688 344.04376L312.10938 344.04376L312.10938 343.23126L313.04688 343.23126L313.04688 342.5594Q313.04688 341.9344 313.15625 341.6375Q313.3125 341.21564 313.6875 340.96564Q314.07812 340.71564 314.76562 340.71564Q315.21875 340.71564 315.75 340.825L315.59375 341.73126Q315.26562 341.6844 314.96875 341.6844Q314.48438 341.6844 314.28125 341.8875Q314.09375 342.09064 314.09375 342.65314L314.09375 343.23126L315.3125 343.23126L315.3125 344.04376L314.09375 344.04376L314.09375 349.45L313.04688 349.45ZM318.40625 346.34064Q318.40625 344.60626 319.35938 343.77814Q320.15625 343.09064 321.3125 343.09064Q322.59375 343.09064 323.40625 343.9344Q324.23438 344.7625 324.23438 346.2469Q324.23438 347.45 323.875 348.1375Q323.51562 348.825 322.8125 349.21564Q322.125 349.59064 321.3125 349.59064Q320.01562 349.59064 319.20312 348.7625Q318.40625 347.91876 318.40625 346.34064ZM319.48438 346.34064Q319.48438 347.52814 320.0 348.1219Q320.53125 348.71564 321.3125 348.71564Q322.10938 348.71564 322.625 348.1219Q323.14062 347.52814 323.14062 346.3094Q323.14062 345.15314 322.60938 344.5594Q322.09375 343.96564 321.3125 343.96564Q320.53125 343.96564 320.0 344.5594Q319.48438 345.1375 319.48438 346.34064ZM325.79688 351.84064L325.79688 343.23126L326.75 343.23126L326.75 344.02814Q327.09375 343.5594 327.51562 343.325Q327.95312 343.09064 328.5625 343.09064Q329.35938 343.09064 329.96875 343.4969Q330.57812 343.90314 330.875 344.65314Q331.1875 345.40314 331.1875 346.29376Q331.1875 347.2469 330.84375 348.0125Q330.51562 348.77814 329.85938 349.1844Q329.20312 349.59064 328.48438 349.59064Q327.95312 349.59064 327.53125 349.3719Q327.10938 349.1375 326.84375 348.8094L326.84375 351.84064L325.79688 351.84064ZM326.75 346.3719Q326.75 347.575 327.23438 348.15314Q327.71875 348.71564 328.40625 348.71564Q329.10938 348.71564 329.60938 348.1219Q330.10938 347.52814 330.10938 346.27814Q330.10938 345.09064 329.625 344.5125Q329.14062 343.91876 328.45312 343.91876Q327.78125 343.91876 327.26562 344.54376Q326.75 345.16876 326.75 346.3719ZM337.04688 347.45L338.14062 347.575Q337.89062 348.52814 337.1875 349.0594Q336.48438 349.59064 335.40625 349.59064Q334.04688 349.59064 333.23438 348.7469Q332.4375 347.90314 332.4375 346.3875Q332.4375 344.825 333.25 343.96564Q334.0625 343.09064 335.34375 343.09064Q336.59375 343.09064 337.375 343.9344Q338.17188 344.77814 338.17188 346.325Q338.17188 346.41876 338.17188 346.60626L333.53125 346.60626Q333.59375 347.6375 334.10938 348.1844Q334.625 348.71564 335.40625 348.71564Q335.98438 348.71564 336.39062 348.41876Q336.8125 348.10626 337.04688 347.45ZM333.59375 345.7469L337.0625 345.7469Q337.0 344.95 336.67188 344.5594Q336.15625 343.95 335.35938 343.95Q334.625 343.95 334.125 344.4344Q333.64062 344.91876 333.59375 345.7469ZM339.78125 349.45L339.78125 343.23126L340.73438 343.23126L340.73438 344.16876Q341.09375 343.5125 341.39062 343.3094Q341.70312 343.09064 342.07812 343.09064Q342.60938 343.09064 343.15625 343.41876L342.79688 344.40314Q342.40625 344.16876 342.03125 344.16876Q341.67188 344.16876 341.39062 344.3875Q341.125 344.59064 341.01562 344.96564Q340.82812 345.52814 340.82812 346.1844L340.82812 349.45L339.78125 349.45ZM347.85938 348.6844Q347.26562 349.1844 346.71875 349.3875Q346.1875 349.59064 345.5625 349.59064Q344.53125 349.59064 343.98438 349.09064Q343.4375 348.59064 343.4375 347.8094Q343.4375 347.35626 343.64062 346.98126Q343.84375 346.59064 344.1875 346.3719Q344.53125 346.1375 344.95312 346.02814Q345.25 345.9344 345.89062 345.85626Q347.15625 345.71564 347.76562 345.4969Q347.76562 345.27814 347.76562 345.23126Q347.76562 344.575 347.46875 344.3094Q347.0625 343.96564 346.26562 343.96564Q345.53125 343.96564 345.17188 344.23126Q344.8125 344.48126 344.64062 345.1375L343.60938 344.9969Q343.75 344.34064 344.07812 343.9344Q344.40625 343.52814 345.01562 343.3094Q345.625 343.09064 346.42188 343.09064Q347.21875 343.09064 347.71875 343.27814Q348.21875 343.46564 348.45312 343.7469Q348.6875 344.02814 348.78125 344.46564Q348.82812 344.73126 348.82812 345.4344L348.82812 346.84064Q348.82812 348.3094 348.89062 348.7Q348.96875 349.09064 349.17188 349.45L348.0625 349.45Q347.90625 349.1219 347.85938 348.6844ZM347.76562 346.325Q347.1875 346.5594 346.04688 346.73126Q345.39062 346.825 345.125 346.95Q344.85938 347.0594 344.70312 347.27814Q344.5625 347.4969 344.5625 347.77814Q344.5625 348.2 344.875 348.48126Q345.20312 348.7625 345.8125 348.7625Q346.42188 348.7625 346.89062 348.4969Q347.375 348.23126 347.59375 347.7625Q347.76562 347.40314 347.76562 346.71564L347.76562 346.325ZM353.09375 348.5125L353.25 349.4344Q352.79688 349.52814 352.45312 349.52814Q351.875 349.52814 351.5625 349.35626Q351.25 349.16876 351.10938 348.8719Q350.98438 348.575 350.98438 347.6219L350.98438 344.04376L350.21875 344.04376L350.21875 343.23126L350.98438 343.23126L350.98438 341.6844L352.03125 341.0594L352.03125 343.23126L353.09375 343.23126L353.09375 344.04376L352.03125 344.04376L352.03125 347.6844Q352.03125 348.1375 352.07812 348.2625Q352.14062 348.3875 352.26562 348.46564Q352.39062 348.54376 352.625 348.54376Q352.8125 348.54376 353.09375 348.5125ZM353.79688 342.075L353.79688 340.85626L354.85938 340.85626L354.85938 342.075L353.79688 342.075ZM353.79688 349.45L353.79688 343.23126L354.85938 343.23126L354.85938 349.45L353.79688 349.45ZM356.40625 346.34064Q356.40625 344.60626 357.35938 343.77814Q358.15625 343.09064 359.3125 343.09064Q360.59375 343.09064 361.40625 343.9344Q362.23438 344.7625 362.23438 346.2469Q362.23438 347.45 361.875 348.1375Q361.51562 348.825 360.8125 349.21564Q360.125 349.59064 359.3125 349.59064Q358.01562 349.59064 357.20312 348.7625Q356.40625 347.91876 356.40625 346.34064ZM357.48438 346.34064Q357.48438 347.52814 358.0 348.1219Q358.53125 348.71564 359.3125 348.71564Q360.10938 348.71564 360.625 348.1219Q361.14062 347.52814 361.14062 346.3094Q361.14062 345.15314 360.60938 344.5594Q360.09375 343.96564 359.3125 343.96564Q358.53125 343.96564 358.0 344.5594Q357.48438 345.1375 357.48438 346.34064ZM363.79688 349.45L363.79688 343.23126L364.73438 343.23126L364.73438 344.10626Q365.42188 343.09064 366.71875 343.09064Q367.28125 343.09064 367.75 343.29376Q368.23438 343.4969 368.46875 343.825Q368.70312 344.15314 368.79688 344.59064Q368.84375 344.8875 368.84375 345.6219L368.84375 349.45L367.79688 349.45L367.79688 345.66876Q367.79688 345.0125 367.67188 344.7Q367.54688 344.3875 367.23438 344.2Q366.92188 343.9969 366.5 343.9969Q365.82812 343.9969 365.32812 344.4344Q364.84375 344.85626 364.84375 346.04376L364.84375 349.45L363.79688 349.45ZM370.375 347.59064L371.40625 347.4344Q371.5 348.0594 371.89062 348.3875Q372.29688 348.71564 373.03125 348.71564Q373.75 348.71564 374.09375 348.4344Q374.45312 348.1375 374.45312 347.73126Q374.45312 347.3719 374.14062 347.16876Q373.92188 347.02814 373.0625 346.8094Q371.90625 346.5125 371.45312 346.3094Q371.01562 346.09064 370.78125 345.71564Q370.54688 345.34064 370.54688 344.8719Q370.54688 344.46564 370.73438 344.10626Q370.92188 343.7469 371.25 343.5125Q371.5 343.34064 371.92188 343.21564Q372.34375 343.09064 372.84375 343.09064Q373.5625 343.09064 374.10938 343.3094Q374.67188 343.5125 374.9375 343.8719Q375.20312 344.23126 375.29688 344.825L374.26562 344.96564Q374.20312 344.4969 373.85938 344.23126Q373.53125 343.95 372.90625 343.95Q372.1875 343.95 371.875 344.2Q371.5625 344.4344 371.5625 344.7625Q371.5625 344.96564 371.6875 345.1219Q371.82812 345.29376 372.09375 345.40314Q372.25 345.46564 373.03125 345.66876Q374.15625 345.98126 374.59375 346.16876Q375.03125 346.35626 375.28125 346.71564Q375.53125 347.075 375.53125 347.6219Q375.53125 348.15314 375.21875 348.6219Q374.92188 349.075 374.34375 349.34064Q373.76562 349.59064 373.03125 349.59064Q371.8125 349.59064 371.17188 349.09064Q370.54688 348.575 370.375 347.59064ZM380.0 349.59064L382.48438 340.71564L383.32812 340.71564L380.84375 349.59064L380.0 349.59064ZM386.375 347.59064L387.40625 347.4344Q387.5 348.0594 387.89062 348.3875Q388.29688 348.71564 389.03125 348.71564Q389.75 348.71564 390.09375 348.4344Q390.45312 348.1375 390.45312 347.73126Q390.45312 347.3719 390.14062 347.16876Q389.92188 347.02814 389.0625 346.8094Q387.90625 346.5125 387.45312 346.3094Q387.01562 346.09064 386.78125 345.71564Q386.54688 345.34064 386.54688 344.8719Q386.54688 344.46564 386.73438 344.10626Q386.92188 343.7469 387.25 343.5125Q387.5 343.34064 387.92188 343.21564Q388.34375 343.09064 388.84375 343.09064Q389.5625 343.09064 390.10938 343.3094Q390.67188 343.5125 390.9375 343.8719Q391.20312 344.23126 391.29688 344.825L390.26562 344.96564Q390.20312 344.4969 389.85938 344.23126Q389.53125 343.95 388.90625 343.95Q388.1875 343.95 387.875 344.2Q387.5625 344.4344 387.5625 344.7625Q387.5625 344.96564 387.6875 345.1219Q387.82812 345.29376 388.09375 345.40314Q388.25 345.46564 389.03125 345.66876Q390.15625 345.98126 390.59375 346.16876Q391.03125 346.35626 391.28125 346.71564Q391.53125 347.075 391.53125 347.6219Q391.53125 348.15314 391.21875 348.6219Q390.92188 349.075 390.34375 349.34064Q389.76562 349.59064 389.03125 349.59064Q387.8125 349.59064 387.17188 349.09064Q386.54688 348.575 386.375 347.59064ZM398.04688 347.45L399.14062 347.575Q398.89062 348.52814 398.1875 349.0594Q397.48438 349.59064 396.40625 349.59064Q395.04688 349.59064 394.23438 348.7469Q393.4375 347.90314 393.4375 346.3875Q393.4375 344.825 394.25 343.96564Q395.0625 343.09064 396.34375 343.09064Q397.59375 343.09064 398.375 343.9344Q399.17188 344.77814 399.17188 346.325Q399.17188 346.41876 399.17188 346.60626L394.53125 346.60626Q394.59375 347.6375 395.10938 348.1844Q395.625 348.71564 396.40625 348.71564Q396.98438 348.71564 397.39062 348.41876Q397.8125 348.10626 398.04688 347.45ZM394.59375 345.7469L398.0625 345.7469Q398.0 344.95 397.67188 344.5594Q397.15625 343.95 396.35938 343.95Q395.625 343.95 395.125 344.4344Q394.64062 344.91876 394.59375 345.7469ZM404.85938 347.16876L405.89062 347.3094Q405.71875 348.3719 405.01562 348.98126Q404.3125 349.59064 403.29688 349.59064Q402.01562 349.59064 401.23438 348.7625Q400.46875 347.91876 400.46875 346.35626Q400.46875 345.35626 400.79688 344.60626Q401.14062 343.84064 401.8125 343.46564Q402.5 343.09064 403.3125 343.09064Q404.3125 343.09064 404.95312 343.60626Q405.60938 344.10626 405.79688 345.0594L404.76562 345.21564Q404.625 344.59064 404.25 344.27814Q403.875 343.95 403.34375 343.95Q402.54688 343.95 402.04688 344.52814Q401.54688 345.09064 401.54688 346.325Q401.54688 347.59064 402.03125 348.15314Q402.51562 348.71564 403.28125 348.71564Q403.90625 348.71564 404.3125 348.34064Q404.73438 347.96564 404.85938 347.16876ZM406.40625 346.34064Q406.40625 344.60626 407.35938 343.77814Q408.15625 343.09064 409.3125 343.09064Q410.59375 343.09064 411.40625 343.9344Q412.23438 344.7625 412.23438 346.2469Q412.23438 347.45 411.875 348.1375Q411.51562 348.825 410.8125 349.21564Q410.125 349.59064 409.3125 349.59064Q408.01562 349.59064 407.20312 348.7625Q406.40625 347.91876 406.40625 346.34064ZM407.48438 346.34064Q407.48438 347.52814 408.0 348.1219Q408.53125 348.71564 409.3125 348.71564Q410.10938 348.71564 410.625 348.1219Q411.14062 347.52814 411.14062 346.3094Q411.14062 345.15314 410.60938 344.5594Q410.09375 343.96564 409.3125 343.96564Q408.53125 343.96564 408.0 344.5594Q407.48438 345.1375 407.48438 346.34064ZM413.79688 349.45L413.79688 343.23126L414.73438 343.23126L414.73438 344.10626Q415.42188 343.09064 416.71875 343.09064Q417.28125 343.09064 417.75 343.29376Q418.23438 343.4969 418.46875 343.825Q418.70312 344.15314 418.79688 344.59064Q418.84375 344.8875 418.84375 345.6219L418.84375 349.45L417.79688 349.45L417.79688 345.66876Q417.79688 345.0125 417.67188 344.7Q417.54688 344.3875 417.23438 344.2Q416.92188 343.9969 416.5 343.9969Q415.82812 343.9969 415.32812 344.4344Q414.84375 344.85626 414.84375 346.04376L414.84375 349.45L413.79688 349.45ZM424.82812 349.45L424.82812 348.66876Q424.23438 349.59064 423.09375 349.59064Q422.34375 349.59064 421.71875 349.1844Q421.09375 348.7625 420.75 348.02814Q420.40625 347.29376 420.40625 346.34064Q420.40625 345.41876 420.71875 344.65314Q421.03125 343.8875 421.65625 343.4969Q422.28125 343.09064 423.04688 343.09064Q423.60938 343.09064 424.04688 343.325Q424.48438 343.5594 424.76562 343.9344L424.76562 340.85626L425.8125 340.85626L425.8125 349.45L424.82812 349.45ZM421.5 346.34064Q421.5 347.54376 422.0 348.1375Q422.5 348.71564 423.1875 348.71564Q423.875 348.71564 424.35938 348.15314Q424.84375 347.59064 424.84375 346.4344Q424.84375 345.15314 424.34375 344.5594Q423.85938 343.96564 423.14062 343.96564Q422.4375 343.96564 421.96875 344.54376Q421.5 345.10626 421.5 346.34064Z" fill-rule="nonzero"/><path fill="#000000" d="M23.378124 87.63736L23.378124 86.85611Q22.784374 87.777985 21.64375 87.777985Q20.89375 87.777985 20.26875 87.371735Q19.64375 86.94986 19.3 86.215485Q18.95625 85.48111 18.95625 84.527985Q18.95625 83.60611 19.26875 82.840485Q19.58125 82.07486 20.20625 81.684235Q20.83125 81.277985 21.596874 81.277985Q22.159374 81.277985 22.596874 81.51236Q23.034374 81.746735 23.315624 82.121735L23.315624 79.04361L24.3625 79.04361L24.3625 87.63736L23.378124 87.63736ZM20.05 84.527985Q20.05 85.73111 20.55 86.32486Q21.05 86.902985 21.7375 86.902985Q22.425 86.902985 22.909374 86.340485Q23.39375 85.777985 23.39375 84.621735Q23.39375 83.340485 22.89375 82.746735Q22.409374 82.152985 21.690624 82.152985Q20.9875 82.152985 20.51875 82.73111Q20.05 83.29361 20.05 84.527985ZM25.95625 84.527985Q25.95625 82.79361 26.909374 81.965485Q27.70625 81.277985 28.8625 81.277985Q30.14375 81.277985 30.95625 82.121735Q31.784374 82.94986 31.784374 84.434235Q31.784374 85.63736 31.425 86.32486Q31.065624 87.01236 30.3625 87.402985Q29.675 87.777985 28.8625 87.777985Q27.565624 87.777985 26.753124 86.94986Q25.95625 86.10611 25.95625 84.527985ZM27.034374 84.527985Q27.034374 85.715485 27.55 86.309235Q28.08125 86.902985 28.8625 86.902985Q29.659374 86.902985 30.175 86.309235Q30.690624 85.715485 30.690624 84.496735Q30.690624 83.340485 30.159374 82.746735Q29.64375 82.152985 28.8625 82.152985Q28.08125 82.152985 27.55 82.746735Q27.034374 83.32486 27.034374 84.527985ZM37.425 87.63736L37.425 86.715485Q36.690624 87.777985 35.440624 87.777985Q34.89375 87.777985 34.409374 87.57486Q33.940624 87.35611 33.70625 87.04361Q33.471874 86.715485 33.378124 86.246735Q33.315624 85.94986 33.315624 85.26236L33.315624 81.41861L34.378124 81.41861L34.378124 84.871735Q34.378124 85.684235 34.440624 85.98111Q34.534374 86.38736 34.846874 86.63736Q35.175 86.871735 35.659374 86.871735Q36.128124 86.871735 36.534374 86.63736Q36.95625 86.38736 37.128124 85.965485Q37.315624 85.54361 37.315624 84.746735L37.315624 81.41861L38.3625 81.41861L38.3625 87.63736L37.425 87.63736ZM41.315624 87.63736L40.33125 87.63736L40.33125 79.04361L41.39375 79.04361L41.39375 82.10611Q42.065624 81.277985 43.096874 81.277985Q43.675 81.277985 44.175 81.51236Q44.690624 81.73111 45.01875 82.152985Q45.3625 82.57486 45.55 83.16861Q45.7375 83.76236 45.7375 84.434235Q45.7375 86.027985 44.940624 86.902985Q44.14375 87.777985 43.05 87.777985Q41.940624 87.777985 41.315624 86.85611L41.315624 87.63736ZM41.3 84.48111Q41.3 85.590485 41.6125 86.090485Q42.1125 86.902985 42.95625 86.902985Q43.64375 86.902985 44.14375 86.309235Q44.659374 85.715485 44.659374 84.51236Q44.659374 83.29361 44.175 82.715485Q43.690624 82.13736 43.003124 82.13736Q42.315624 82.13736 41.8 82.746735Q41.3 83.340485 41.3 84.48111ZM49.64375 86.69986L49.8 87.621735Q49.346874 87.715485 49.003124 87.715485Q48.425 87.715485 48.1125 87.54361Q47.8 87.35611 47.659374 87.059235Q47.534374 86.76236 47.534374 85.809235L47.534374 82.23111L46.76875 82.23111L46.76875 81.41861L47.534374 81.41861L47.534374 79.871735L48.58125 79.246735L48.58125 81.41861L49.64375 81.41861L49.64375 82.23111L48.58125 82.23111L48.58125 85.871735Q48.58125 86.32486 48.628124 86.44986Q48.690624 86.57486 48.815624 86.652985Q48.940624 86.73111 49.175 86.73111Q49.3625 86.73111 49.64375 86.69986ZM54.596874 85.63736L55.690624 85.76236Q55.440624 86.715485 54.7375 87.246735Q54.034374 87.777985 52.95625 87.777985Q51.596874 87.777985 50.784374 86.934235Q49.9875 86.090485 49.9875 84.57486Q49.9875 83.01236 50.8 82.152985Q51.6125 81.277985 52.89375 81.277985Q54.14375 81.277985 54.925 82.121735Q55.721874 82.965485 55.721874 84.51236Q55.721874 84.60611 55.721874 84.79361L51.08125 84.79361Q51.14375 85.82486 51.659374 86.371735Q52.175 86.902985 52.95625 86.902985Q53.534374 86.902985 53.940624 86.60611Q54.3625 86.29361 54.596874 85.63736ZM51.14375 83.934235L54.6125 83.934235Q54.55 83.13736 54.221874 82.746735Q53.70625 82.13736 52.909374 82.13736Q52.175 82.13736 51.675 82.621735Q51.190624 83.10611 51.14375 83.934235ZM57.33125 87.63736L57.33125 81.41861L58.284374 81.41861L58.284374 82.35611Q58.64375 81.69986 58.940624 81.496735Q59.253124 81.277985 59.628124 81.277985Q60.159374 81.277985 60.70625 81.60611L60.346874 82.590485Q59.95625 82.35611 59.58125 82.35611Q59.221874 82.35611 58.940624 82.57486Q58.675 82.777985 58.565624 83.152985Q58.378124 83.715485 58.378124 84.371735L58.378124 87.63736L57.33125 87.63736ZM67.34688 86.684235Q66.97188 87.121735 66.50313 87.38736Q66.03438 87.652985 65.55 87.652985Q65.03438 87.652985 64.53438 87.35611Q64.05 87.04361 63.7375 86.41861Q63.440624 85.777985 63.440624 85.027985Q63.440624 84.090485 63.909374 83.152985Q64.39375 82.215485 65.09688 81.746735Q65.8 81.277985 66.47188 81.277985Q66.9875 81.277985 67.44063 81.559235Q67.90938 81.82486 68.2375 82.35611L68.44063 81.44986L69.4875 81.44986L68.64375 85.38736Q68.47188 86.19986 68.47188 86.29361Q68.47188 86.44986 68.58125 86.57486Q68.70625 86.684235 68.87813 86.684235Q69.19063 86.684235 69.69063 86.32486Q70.3625 85.85611 70.75313 85.07486Q71.14375 84.277985 71.14375 83.434235Q71.14375 82.465485 70.64375 81.621735Q70.14375 80.76236 69.14375 80.26236Q68.15938 79.746735 66.95625 79.746735Q65.58125 79.746735 64.44063 80.38736Q63.315624 81.027985 62.690624 82.23111Q62.065624 83.41861 62.065624 84.79361Q62.065624 86.23111 62.690624 87.277985Q63.315624 88.309235 64.4875 88.79361Q65.675 89.29361 67.1125 89.29361Q68.64375 89.29361 69.675 88.777985Q70.72188 88.26236 71.2375 87.527985L72.3 87.527985Q72.00313 88.13736 71.26875 88.777985Q70.55 89.41861 69.55 89.79361Q68.55 90.16861 67.12813 90.16861Q65.83125 90.16861 64.72188 89.82486Q63.628124 89.496735 62.846874 88.82486Q62.08125 88.152985 61.690624 87.277985Q61.20625 86.16861 61.20625 84.88736Q61.20625 83.465485 61.784374 82.16861Q62.503124 80.57486 63.815624 79.73111Q65.12813 78.88736 67.00313 78.88736Q68.45625 78.88736 69.6125 79.48111Q70.76875 80.07486 71.44063 81.26236Q72.01875 82.26236 72.01875 83.465485Q72.01875 85.152985 70.81563 86.48111Q69.75313 87.66861 68.4875 87.66861Q68.08125 87.66861 67.83125 87.54361Q67.58125 87.41861 67.47188 87.184235Q67.39375 87.04361 67.34688 86.684235ZM64.51875 85.090485Q64.51875 85.902985 64.89375 86.35611Q65.28438 86.79361 65.76875 86.79361Q66.09688 86.79361 66.45625 86.590485Q66.83125 86.38736 67.15938 86.01236Q67.4875 85.621735 67.69063 85.027985Q67.90938 84.434235 67.90938 83.840485Q67.90938 83.04361 67.50313 82.60611Q67.1125 82.152985 66.55 82.152985Q66.175 82.152985 65.84688 82.35611Q65.51875 82.54361 65.20625 82.965485Q64.89375 83.38736 64.70625 83.996735Q64.51875 84.590485 64.51875 85.090485ZM77.01875 87.63736L75.97188 87.63736L75.97188 80.91861Q75.58125 81.277985 74.95625 81.652985Q74.34688 82.01236 73.8625 82.184235L73.8625 81.16861Q74.7375 80.746735 75.39375 80.16861Q76.06563 79.57486 76.34688 79.01236L77.01875 79.01236L77.01875 87.63736ZM80.64375 87.63736L80.64375 86.434235L81.84688 86.434235L81.84688 87.63736L80.64375 87.63736ZM87.01875 87.63736L85.97188 87.63736L85.97188 80.91861Q85.58125 81.277985 84.95625 81.652985Q84.34688 82.01236 83.8625 82.184235L83.8625 81.16861Q84.7375 80.746735 85.39375 80.16861Q86.06563 79.57486 86.34688 79.01236L87.01875 79.01236L87.01875 87.63736ZM90.64375 87.63736L90.64375 86.434235L91.84688 86.434235L91.84688 87.63736L90.64375 87.63736ZM93.05 83.402985Q93.05 81.871735 93.3625 80.94986Q93.675 80.01236 94.28438 79.51236Q94.90938 79.01236 95.84688 79.01236Q96.53438 79.01236 97.05 79.29361Q97.58125 79.57486 97.925 80.10611Q98.26875 80.621735 98.45625 81.371735Q98.64375 82.121735 98.64375 83.402985Q98.64375 84.91861 98.33125 85.840485Q98.03438 86.76236 97.40938 87.277985Q96.8 87.777985 95.84688 87.777985Q94.6125 87.777985 93.89375 86.88736Q93.05 85.82486 93.05 83.402985ZM94.12813 83.402985Q94.12813 85.51236 94.62813 86.215485Q95.12813 86.91861 95.84688 86.91861Q96.58125 86.91861 97.06563 86.215485Q97.56563 85.51236 97.56563 83.402985Q97.56563 81.277985 97.06563 80.590485Q96.58125 79.88736 95.83125 79.88736Q95.1125 79.88736 94.675 80.496735Q94.12813 81.277985 94.12813 83.402985Z" fill-rule="nonzero"/><path fill="#000000" d="M35.065624 145.00134L32.70625 138.7826L33.815624 138.7826L35.159374 142.50134Q35.3625 143.11072 35.55 143.75134Q35.690624 143.26697 35.940624 142.57947L37.33125 138.7826L38.409374 138.7826L36.05 145.00134L35.065624 145.00134ZM42.409374 144.23572Q41.815624 144.73572 41.26875 144.93884Q40.7375 145.14197 40.1125 145.14197Q39.08125 145.14197 38.534374 144.64197Q37.9875 144.14197 37.9875 143.36072Q37.9875 142.9076 38.190624 142.5326Q38.39375 142.14197 38.7375 141.92322Q39.08125 141.68884 39.503124 141.57947Q39.8 141.48572 40.440624 141.4076Q41.70625 141.26697 42.315624 141.04822Q42.315624 140.82947 42.315624 140.7826Q42.315624 140.12634 42.01875 139.86072Q41.6125 139.51697 40.815624 139.51697Q40.08125 139.51697 39.721874 139.7826Q39.3625 140.0326 39.190624 140.68884L38.159374 140.54822Q38.3 139.89197 38.628124 139.48572Q38.95625 139.07947 39.565624 138.86072Q40.175 138.64197 40.971874 138.64197Q41.76875 138.64197 42.26875 138.82947Q42.76875 139.01697 43.003124 139.29822Q43.2375 139.57947 43.33125 140.01697Q43.378124 140.2826 43.378124 140.98572L43.378124 142.39197Q43.378124 143.86072 43.440624 144.25134Q43.51875 144.64197 43.721874 145.00134L42.6125 145.00134Q42.45625 144.67322 42.409374 144.23572ZM42.315624 141.87634Q41.7375 142.11072 40.596874 142.2826Q39.940624 142.37634 39.675 142.50134Q39.409374 142.61072 39.253124 142.82947Q39.1125 143.04822 39.1125 143.32947Q39.1125 143.75134 39.425 144.0326Q39.753124 144.31384 40.3625 144.31384Q40.971874 144.31384 41.440624 144.04822Q41.925 143.7826 42.14375 143.31384Q42.315624 142.95447 42.315624 142.26697L42.315624 141.87634ZM45.315624 145.00134L45.315624 136.4076L46.378124 136.4076L46.378124 145.00134L45.315624 145.00134ZM48.346874 137.62634L48.346874 136.4076L49.409374 136.4076L49.409374 137.62634L48.346874 137.62634ZM48.346874 145.00134L48.346874 138.7826L49.409374 138.7826L49.409374 145.00134L48.346874 145.00134ZM53.64375 144.06384L53.8 144.98572Q53.346874 145.07947 53.003124 145.07947Q52.425 145.07947 52.1125 144.9076Q51.8 144.7201 51.659374 144.42322Q51.534374 144.12634 51.534374 143.17322L51.534374 139.5951L50.76875 139.5951L50.76875 138.7826L51.534374 138.7826L51.534374 137.23572L52.58125 136.61072L52.58125 138.7826L53.64375 138.7826L53.64375 139.5951L52.58125 139.5951L52.58125 143.23572Q52.58125 143.68884 52.628124 143.81384Q52.690624 143.93884 52.815624 144.01697Q52.940624 144.0951 53.175 144.0951Q53.3625 144.0951 53.64375 144.06384ZM58.409374 144.23572Q57.815624 144.73572 57.26875 144.93884Q56.7375 145.14197 56.1125 145.14197Q55.08125 145.14197 54.534374 144.64197Q53.9875 144.14197 53.9875 143.36072Q53.9875 142.9076 54.190624 142.5326Q54.39375 142.14197 54.7375 141.92322Q55.08125 141.68884 55.503124 141.57947Q55.8 141.48572 56.440624 141.4076Q57.70625 141.26697 58.315624 141.04822Q58.315624 140.82947 58.315624 140.7826Q58.315624 140.12634 58.01875 139.86072Q57.6125 139.51697 56.815624 139.51697Q56.08125 139.51697 55.721874 139.7826Q55.3625 140.0326 55.190624 140.68884L54.159374 140.54822Q54.3 139.89197 54.628124 139.48572Q54.95625 139.07947 55.565624 138.86072Q56.175 138.64197 56.971874 138.64197Q57.76875 138.64197 58.26875 138.82947Q58.76875 139.01697 59.003124 139.29822Q59.2375 139.57947 59.33125 140.01697Q59.378124 140.2826 59.378124 140.98572L59.378124 142.39197Q59.378124 143.86072 59.440624 144.25134Q59.51875 144.64197 59.721874 145.00134L58.6125 145.00134Q58.45625 144.67322 58.409374 144.23572ZM58.315624 141.87634Q57.7375 142.11072 56.596874 142.2826Q55.940624 142.37634 55.675 142.50134Q55.409374 142.61072 55.253124 142.82947Q55.1125 143.04822 55.1125 143.32947Q55.1125 143.75134 55.425 144.0326Q55.753124 144.31384 56.3625 144.31384Q56.971874 144.31384 57.440624 144.04822Q57.925 143.7826 58.14375 143.31384Q58.315624 142.95447 58.315624 142.26697L58.315624 141.87634ZM67.34688 144.04822Q66.97188 144.48572 66.50313 144.75134Q66.03438 145.01697 65.55 145.01697Q65.03438 145.01697 64.53438 144.7201Q64.05 144.4076 63.7375 143.7826Q63.440624 143.14197 63.440624 142.39197Q63.440624 141.45447 63.909374 140.51697Q64.39375 139.57947 65.09688 139.11072Q65.8 138.64197 66.47188 138.64197Q66.9875 138.64197 67.44063 138.92322Q67.90938 139.18884 68.2375 139.7201L68.44063 138.81384L69.4875 138.81384L68.64375 142.75134Q68.47188 143.56384 68.47188 143.6576Q68.47188 143.81384 68.58125 143.93884Q68.70625 144.04822 68.87813 144.04822Q69.19063 144.04822 69.69063 143.68884Q70.3625 143.2201 70.75313 142.43884Q71.14375 141.64197 71.14375 140.79822Q71.14375 139.82947 70.64375 138.98572Q70.14375 138.12634 69.14375 137.62634Q68.15938 137.11072 66.95625 137.11072Q65.58125 137.11072 64.44063 137.75134Q63.315624 138.39197 62.690624 139.5951Q62.065624 140.7826 62.065624 142.1576Q62.065624 143.5951 62.690624 144.64197Q63.315624 145.67322 64.4875 146.1576Q65.675 146.6576 67.1125 146.6576Q68.64375 146.6576 69.675 146.14197Q70.72188 145.62634 71.2375 144.89197L72.3 144.89197Q72.00313 145.50134 71.26875 146.14197Q70.55 146.7826 69.55 147.1576Q68.55 147.5326 67.12813 147.5326Q65.83125 147.5326 64.72188 147.18884Q63.628124 146.86072 62.846874 146.18884Q62.08125 145.51697 61.690624 144.64197Q61.20625 143.5326 61.20625 142.25134Q61.20625 140.82947 61.784374 139.5326Q62.503124 137.93884 63.815624 137.0951Q65.12813 136.25134 67.00313 136.25134Q68.45625 136.25134 69.6125 136.8451Q70.76875 137.43884 71.44063 138.62634Q72.01875 139.62634 72.01875 140.82947Q72.01875 142.51697 70.81563 143.8451Q69.75313 145.0326 68.4875 145.0326Q68.08125 145.0326 67.83125 144.9076Q67.58125 144.7826 67.47188 144.54822Q67.39375 144.4076 67.34688 144.04822ZM64.51875 142.45447Q64.51875 143.26697 64.89375 143.7201Q65.28438 144.1576 65.76875 144.1576Q66.09688 144.1576 66.45625 143.95447Q66.83125 143.75134 67.15938 143.37634Q67.4875 142.98572 67.69063 142.39197Q67.90938 141.79822 67.90938 141.20447Q67.90938 140.4076 67.50313 139.9701Q67.1125 139.51697 66.55 139.51697Q66.175 139.51697 65.84688 139.7201Q65.51875 139.9076 65.20625 140.32947Q64.89375 140.75134 64.70625 141.36072Q64.51875 141.95447 64.51875 142.45447ZM73.05 140.76697Q73.05 139.23572 73.3625 138.31384Q73.675 137.37634 74.28438 136.87634Q74.90938 136.37634 75.84688 136.37634Q76.53438 136.37634 77.05 136.6576Q77.58125 136.93884 77.925 137.4701Q78.26875 137.98572 78.45625 138.73572Q78.64375 139.48572 78.64375 140.76697Q78.64375 142.2826 78.33125 143.20447Q78.03438 144.12634 77.40938 144.64197Q76.8 145.14197 75.84688 145.14197Q74.6125 145.14197 73.89375 144.25134Q73.05 143.18884 73.05 140.76697ZM74.12813 140.76697Q74.12813 142.87634 74.62813 143.57947Q75.12813 144.2826 75.84688 144.2826Q76.58125 144.2826 77.06563 143.57947Q77.56563 142.87634 77.56563 140.76697Q77.56563 138.64197 77.06563 137.95447Q76.58125 137.25134 75.83125 137.25134Q75.1125 137.25134 74.675 137.86072Q74.12813 138.64197 74.12813 140.76697ZM80.64375 145.00134L80.64375 143.79822L81.84688 143.79822L81.84688 145.00134L80.64375 145.00134ZM87.01875 145.00134L85.97188 145.00134L85.97188 138.2826Q85.58125 138.64197 84.95625 139.01697Q84.34688 139.37634 83.8625 139.54822L83.8625 138.5326Q84.7375 138.11072 85.39375 137.5326Q86.06563 136.93884 86.34688 136.37634L87.01875 136.37634L87.01875 145.00134ZM90.64375 145.00134L90.64375 143.79822L91.84688 143.79822L91.84688 145.00134L90.64375 145.00134ZM98.51875 138.51697L97.47188 138.5951Q97.33125 137.9701 97.08125 137.68884Q96.64375 137.23572 96.01875 137.23572Q95.51875 137.23572 95.12813 137.51697Q94.64375 137.89197 94.34688 138.5951Q94.06563 139.2826 94.05 140.56384Q94.425 139.98572 94.97188 139.70447Q95.53438 139.42322 96.14375 139.42322Q97.19063 139.42322 97.925 140.20447Q98.675 140.98572 98.675 142.20447Q98.675 143.01697 98.31563 143.7201Q97.97188 144.4076 97.3625 144.7826Q96.75313 145.14197 95.9875 145.14197Q94.65938 145.14197 93.83125 144.17322Q93.00313 143.20447 93.00313 140.98572Q93.00313 138.48572 93.925 137.36072Q94.72188 136.37634 96.08125 136.37634Q97.09688 136.37634 97.7375 136.95447Q98.39375 137.51697 98.51875 138.51697ZM94.22188 142.2201Q94.22188 142.76697 94.44063 143.26697Q94.675 143.75134 95.08125 144.01697Q95.50313 144.2826 95.97188 144.2826Q96.62813 144.2826 97.1125 143.75134Q97.59688 143.20447 97.59688 142.2826Q97.59688 141.39197 97.1125 140.87634Q96.64375 140.36072 95.925 140.36072Q95.20625 140.36072 94.70625 140.87634Q94.22188 141.39197 94.22188 142.2201Z" fill-rule="nonzero"/><path fill="#000000" d="M26.346874 202.36533L26.346874 196.14658L27.284374 196.14658L27.284374 197.02158Q27.58125 196.55283 28.065624 196.2872Q28.55 196.00595 29.175 196.00595Q29.8625 196.00595 30.3 196.2872Q30.753124 196.56845 30.925 197.08408Q31.675 196.00595 32.846874 196.00595Q33.784374 196.00595 34.26875 196.52158Q34.76875 197.02158 34.76875 198.0997L34.76875 202.36533L33.721874 202.36533L33.721874 198.44345Q33.721874 197.81845 33.6125 197.5372Q33.51875 197.25595 33.253124 197.08408Q32.9875 196.9122 32.6125 196.9122Q31.95625 196.9122 31.51875 197.3497Q31.096874 197.7872 31.096874 198.75595L31.096874 202.36533L30.034374 202.36533L30.034374 198.31845Q30.034374 197.61533 29.76875 197.27158Q29.51875 196.9122 28.940624 196.9122Q28.4875 196.9122 28.1125 197.14658Q27.7375 197.38095 27.565624 197.83408Q27.39375 198.2872 27.39375 199.13095L27.39375 202.36533L26.346874 202.36533ZM37.3 204.75595L37.175 203.77158Q37.51875 203.86533 37.784374 203.86533Q38.128124 203.86533 38.33125 203.74033Q38.55 203.63095 38.690624 203.42783Q38.784374 203.25595 39.01875 202.63095Q39.034374 202.55283 39.1125 202.38095L36.7375 196.14658L37.878124 196.14658L39.175 199.74033Q39.425 200.42783 39.628124 201.19345Q39.815624 200.45908 40.065624 199.77158L41.39375 196.14658L42.440624 196.14658L40.08125 202.4747Q39.690624 203.49033 39.4875 203.88095Q39.20625 204.4122 38.83125 204.64658Q38.471874 204.89658 37.971874 204.89658Q37.675 204.89658 37.3 204.75595ZM41.784374 202.36533L41.784374 201.50595L45.753124 196.95908Q45.065624 196.99033 44.55 196.99033L42.01875 196.99033L42.01875 196.14658L47.1125 196.14658L47.1125 196.83408L43.7375 200.7872L43.08125 201.50595Q43.8 201.45908 44.409374 201.45908L47.3 201.45908L47.3 202.36533L41.784374 202.36533ZM46.95625 199.25595Q46.95625 197.52158 47.909374 196.69345Q48.70625 196.00595 49.8625 196.00595Q51.14375 196.00595 51.95625 196.8497Q52.784374 197.67783 52.784374 199.1622Q52.784374 200.36533 52.425 201.05283Q52.065624 201.74033 51.3625 202.13095Q50.675 202.50595 49.8625 202.50595Q48.565624 202.50595 47.753124 201.67783Q46.95625 200.83408 46.95625 199.25595ZM48.034374 199.25595Q48.034374 200.44345 48.55 201.0372Q49.08125 201.63095 49.8625 201.63095Q50.659374 201.63095 51.175 201.0372Q51.690624 200.44345 51.690624 199.2247Q51.690624 198.06845 51.159374 197.4747Q50.64375 196.88095 49.8625 196.88095Q49.08125 196.88095 48.55 197.4747Q48.034374 198.05283 48.034374 199.25595ZM58.378124 202.36533L58.378124 201.58408Q57.784374 202.50595 56.64375 202.50595Q55.89375 202.50595 55.26875 202.0997Q54.64375 201.67783 54.3 200.94345Q53.95625 200.20908 53.95625 199.25595Q53.95625 198.33408 54.26875 197.56845Q54.58125 196.80283 55.20625 196.4122Q55.83125 196.00595 56.596874 196.00595Q57.159374 196.00595 57.596874 196.24033Q58.034374 196.4747 58.315624 196.8497L58.315624 193.77158L59.3625 193.77158L59.3625 202.36533L58.378124 202.36533ZM55.05 199.25595Q55.05 200.45908 55.55 201.05283Q56.05 201.63095 56.7375 201.63095Q57.425 201.63095 57.909374 201.06845Q58.39375 200.50595 58.39375 199.3497Q58.39375 198.06845 57.89375 197.4747Q57.409374 196.88095 56.690624 196.88095Q55.9875 196.88095 55.51875 197.45908Q55.05 198.02158 55.05 199.25595ZM67.34688 201.4122Q66.97188 201.8497 66.50313 202.11533Q66.03438 202.38095 65.55 202.38095Q65.03438 202.38095 64.53438 202.08408Q64.05 201.77158 63.7375 201.14658Q63.440624 200.50595 63.440624 199.75595Q63.440624 198.81845 63.909374 197.88095Q64.39375 196.94345 65.09688 196.4747Q65.8 196.00595 66.47188 196.00595Q66.9875 196.00595 67.44063 196.2872Q67.90938 196.55283 68.2375 197.08408L68.44063 196.17783L69.4875 196.17783L68.64375 200.11533Q68.47188 200.92783 68.47188 201.02158Q68.47188 201.17783 68.58125 201.30283Q68.70625 201.4122 68.87813 201.4122Q69.19063 201.4122 69.69063 201.05283Q70.3625 200.58408 70.75313 199.80283Q71.14375 199.00595 71.14375 198.1622Q71.14375 197.19345 70.64375 196.3497Q70.14375 195.49033 69.14375 194.99033Q68.15938 194.4747 66.95625 194.4747Q65.58125 194.4747 64.44063 195.11533Q63.315624 195.75595 62.690624 196.95908Q62.065624 198.14658 62.065624 199.52158Q62.065624 200.95908 62.690624 202.00595Q63.315624 203.0372 64.4875 203.52158Q65.675 204.02158 67.1125 204.02158Q68.64375 204.02158 69.675 203.50595Q70.72188 202.99033 71.2375 202.25595L72.3 202.25595Q72.00313 202.86533 71.26875 203.50595Q70.55 204.14658 69.55 204.52158Q68.55 204.89658 67.12813 204.89658Q65.83125 204.89658 64.72188 204.55283Q63.628124 204.2247 62.846874 203.55283Q62.08125 202.88095 61.690624 202.00595Q61.20625 200.89658 61.20625 199.61533Q61.20625 198.19345 61.784374 196.89658Q62.503124 195.30283 63.815624 194.45908Q65.12813 193.61533 67.00313 193.61533Q68.45625 193.61533 69.6125 194.20908Q70.76875 194.80283 71.44063 195.99033Q72.01875 196.99033 72.01875 198.19345Q72.01875 199.88095 70.81563 201.20908Q69.75313 202.39658 68.4875 202.39658Q68.08125 202.39658 67.83125 202.27158Q67.58125 202.14658 67.47188 201.9122Q67.39375 201.77158 67.34688 201.4122ZM64.51875 199.81845Q64.51875 200.63095 64.89375 201.08408Q65.28438 201.52158 65.76875 201.52158Q66.09688 201.52158 66.45625 201.31845Q66.83125 201.11533 67.15938 200.74033Q67.4875 200.3497 67.69063 199.75595Q67.90938 199.1622 67.90938 198.56845Q67.90938 197.77158 67.50313 197.33408Q67.1125 196.88095 66.55 196.88095Q66.175 196.88095 65.84688 197.08408Q65.51875 197.27158 65.20625 197.69345Q64.89375 198.11533 64.70625 198.7247Q64.51875 199.31845 64.51875 199.81845ZM77.01875 202.36533L75.97188 202.36533L75.97188 195.64658Q75.58125 196.00595 74.95625 196.38095Q74.34688 196.74033 73.8625 196.9122L73.8625 195.89658Q74.7375 195.4747 75.39375 194.89658Q76.06563 194.30283 76.34688 193.74033L77.01875 193.74033L77.01875 202.36533ZM80.64375 202.36533L80.64375 201.1622L81.84688 201.1622L81.84688 202.36533L80.64375 202.36533ZM84.675 197.70908Q84.01875 197.45908 83.69063 197.02158Q83.37813 196.56845 83.37813 195.95908Q83.37813 195.02158 84.05 194.38095Q84.7375 193.74033 85.84688 193.74033Q86.97188 193.74033 87.65938 194.39658Q88.34688 195.05283 88.34688 195.99033Q88.34688 196.58408 88.03438 197.02158Q87.72188 197.45908 87.08125 197.70908Q87.87813 197.95908 88.28438 198.5372Q88.69063 199.11533 88.69063 199.9122Q88.69063 201.00595 87.90938 201.75595Q87.14375 202.50595 85.8625 202.50595Q84.59688 202.50595 83.81563 201.75595Q83.03438 201.00595 83.03438 199.88095Q83.03438 199.0372 83.45625 198.4747Q83.89375 197.9122 84.675 197.70908ZM84.45625 195.9122Q84.45625 196.52158 84.84688 196.9122Q85.25313 197.30283 85.87813 197.30283Q86.4875 197.30283 86.87813 196.92783Q87.26875 196.5372 87.26875 195.9747Q87.26875 195.39658 86.8625 195.00595Q86.45625 194.5997 85.8625 194.5997Q85.25313 194.5997 84.84688 194.99033Q84.45625 195.38095 84.45625 195.9122ZM84.12813 199.88095Q84.12813 200.33408 84.33125 200.75595Q84.55 201.17783 84.97188 201.4122Q85.39375 201.64658 85.87813 201.64658Q86.62813 201.64658 87.1125 201.1622Q87.6125 200.67783 87.6125 199.92783Q87.6125 199.1622 87.1125 198.6622Q86.6125 198.1622 85.84688 198.1622Q85.09688 198.1622 84.6125 198.6622Q84.12813 199.14658 84.12813 199.88095ZM90.64375 202.36533L90.64375 201.1622L91.84688 201.1622L91.84688 202.36533L90.64375 202.36533ZM94.675 197.70908Q94.01875 197.45908 93.69063 197.02158Q93.37813 196.56845 93.37813 195.95908Q93.37813 195.02158 94.05 194.38095Q94.7375 193.74033 95.84688 193.74033Q96.97188 193.74033 97.65938 194.39658Q98.34688 195.05283 98.34688 195.99033Q98.34688 196.58408 98.03438 197.02158Q97.72188 197.45908 97.08125 197.70908Q97.87813 197.95908 98.28438 198.5372Q98.69063 199.11533 98.69063 199.9122Q98.69063 201.00595 97.90938 201.75595Q97.14375 202.50595 95.8625 202.50595Q94.59688 202.50595 93.81563 201.75595Q93.03438 201.00595 93.03438 199.88095Q93.03438 199.0372 93.45625 198.4747Q93.89375 197.9122 94.675 197.70908ZM94.45625 195.9122Q94.45625 196.52158 94.84688 196.9122Q95.25313 197.30283 95.87813 197.30283Q96.4875 197.30283 96.87813 196.92783Q97.26875 196.5372 97.26875 195.9747Q97.26875 195.39658 96.8625 195.00595Q96.45625 194.5997 95.8625 194.5997Q95.25313 194.5997 94.84688 194.99033Q94.45625 195.38095 94.45625 195.9122ZM94.12813 199.88095Q94.12813 200.33408 94.33125 200.75595Q94.55 201.17783 94.97188 201.4122Q95.39375 201.64658 95.87813 201.64658Q96.62813 201.64658 97.1125 201.1622Q97.6125 200.67783 97.6125 199.92783Q97.6125 199.1622 97.1125 198.6622Q96.6125 198.1622 95.84688 198.1622Q95.09688 198.1622 94.6125 198.6622Q94.12813 199.14658 94.12813 199.88095Z" fill-rule="nonzero"/><path fill="#000000" d="M34.784374 259.7293L34.784374 258.86993L38.753124 254.32306Q38.065624 254.35431 37.55 254.35431L35.01875 254.35431L35.01875 253.51056L40.1125 253.51056L40.1125 254.19806L36.7375 258.15118L36.08125 258.86993Q36.8 258.82306 37.409374 258.82306L40.3 258.82306L40.3 259.7293L34.784374 259.7293ZM39.95625 256.61993Q39.95625 254.88556 40.909374 254.05743Q41.70625 253.36993 42.8625 253.36993Q44.14375 253.36993 44.95625 254.21368Q45.784374 255.04181 45.784374 256.52618Q45.784374 257.7293 45.425 258.4168Q45.065624 259.1043 44.3625 259.49493Q43.675 259.86993 42.8625 259.86993Q41.565624 259.86993 40.753124 259.0418Q39.95625 258.19806 39.95625 256.61993ZM41.034374 256.61993Q41.034374 257.80743 41.55 258.40118Q42.08125 258.99493 42.8625 258.99493Q43.659374 258.99493 44.175 258.40118Q44.690624 257.80743 44.690624 256.58868Q44.690624 255.43243 44.159374 254.83868Q43.64375 254.24493 42.8625 254.24493Q42.08125 254.24493 41.55 254.83868Q41.034374 255.41681 41.034374 256.61993ZM51.378124 259.7293L51.378124 258.94806Q50.784374 259.86993 49.64375 259.86993Q48.89375 259.86993 48.26875 259.46368Q47.64375 259.0418 47.3 258.30743Q46.95625 257.57306 46.95625 256.61993Q46.95625 255.69806 47.26875 254.93243Q47.58125 254.16681 48.20625 253.77618Q48.83125 253.36993 49.596874 253.36993Q50.159374 253.36993 50.596874 253.60431Q51.034374 253.83868 51.315624 254.21368L51.315624 251.13556L52.3625 251.13556L52.3625 259.7293L51.378124 259.7293ZM48.05 256.61993Q48.05 257.82306 48.55 258.4168Q49.05 258.99493 49.7375 258.99493Q50.425 258.99493 50.909374 258.43243Q51.39375 257.86993 51.39375 256.71368Q51.39375 255.43243 50.89375 254.83868Q50.409374 254.24493 49.690624 254.24493Q48.9875 254.24493 48.51875 254.82306Q48.05 255.38556 48.05 256.61993ZM60.346874 258.77618Q59.971874 259.21368 59.503124 259.4793Q59.034374 259.74493 58.55 259.74493Q58.034374 259.74493 57.534374 259.44806Q57.05 259.13556 56.7375 258.51056Q56.440624 257.86993 56.440624 257.11993Q56.440624 256.18243 56.909374 255.24493Q57.39375 254.30743 58.096874 253.83868Q58.8 253.36993 59.471874 253.36993Q59.9875 253.36993 60.440624 253.65118Q60.909374 253.91681 61.2375 254.44806L61.440624 253.54181L62.4875 253.54181L61.64375 257.4793Q61.471874 258.2918 61.471874 258.38556Q61.471874 258.5418 61.58125 258.6668Q61.70625 258.77618 61.878124 258.77618Q62.190624 258.77618 62.690624 258.4168Q63.3625 257.94806 63.753124 257.1668Q64.14375 256.36993 64.14375 255.52618Q64.14375 254.55743 63.64375 253.71368Q63.14375 252.85431 62.14375 252.35431Q61.159374 251.83868 59.95625 251.83868Q58.58125 251.83868 57.440624 252.47931Q56.315624 253.11993 55.690624 254.32306Q55.065624 255.51056 55.065624 256.88556Q55.065624 258.32306 55.690624 259.36993Q56.315624 260.40118 57.4875 260.88556Q58.675 261.38556 60.1125 261.38556Q61.64375 261.38556 62.675 260.86993Q63.721874 260.3543 64.2375 259.61993L65.3 259.61993Q65.00313 260.2293 64.26875 260.86993Q63.55 261.51056 62.55 261.88556Q61.55 262.26056 60.128124 262.26056Q58.83125 262.26056 57.721874 261.9168Q56.628124 261.58868 55.846874 260.9168Q55.08125 260.24493 54.690624 259.36993Q54.20625 258.26056 54.20625 256.9793Q54.20625 255.55743 54.784374 254.26056Q55.503124 252.66681 56.815624 251.82306Q58.128124 250.97931 60.003124 250.97931Q61.45625 250.97931 62.6125 251.57306Q63.76875 252.16681 64.44063 253.35431Q65.01875 254.35431 65.01875 255.55743Q65.01875 257.24493 63.815624 258.57306Q62.753124 259.76056 61.4875 259.76056Q61.08125 259.76056 60.83125 259.63556Q60.58125 259.51056 60.471874 259.27618Q60.39375 259.13556 60.346874 258.77618ZM57.51875 257.18243Q57.51875 257.99493 57.89375 258.44806Q58.284374 258.88556 58.76875 258.88556Q59.096874 258.88556 59.45625 258.68243Q59.83125 258.4793 60.159374 258.1043Q60.4875 257.71368 60.690624 257.11993Q60.909374 256.52618 60.909374 255.93243Q60.909374 255.13556 60.503124 254.69806Q60.1125 254.24493 59.55 254.24493Q59.175 254.24493 58.846874 254.44806Q58.51875 254.63556 58.20625 255.05743Q57.89375 255.47931 57.70625 256.08868Q57.51875 256.68243 57.51875 257.18243ZM66.05 257.46368L67.1125 257.32306Q67.28438 258.21368 67.72188 258.61993Q68.15938 259.01056 68.78438 259.01056Q69.53438 259.01056 70.05 258.49493Q70.56563 257.9793 70.56563 257.21368Q70.56563 256.49493 70.08125 256.02618Q69.6125 255.54181 68.87813 255.54181Q68.58125 255.54181 68.12813 255.66681L68.25313 254.72931Q68.3625 254.74493 68.425 254.74493Q69.09688 254.74493 69.62813 254.40118Q70.175 254.04181 70.175 253.30743Q70.175 252.72931 69.78438 252.35431Q69.39375 251.96368 68.76875 251.96368Q68.15938 251.96368 67.7375 252.35431Q67.33125 252.74493 67.22188 253.51056L66.15938 253.32306Q66.34688 252.27618 67.03438 251.69806Q67.72188 251.10431 68.7375 251.10431Q69.44063 251.10431 70.03438 251.41681Q70.62813 251.71368 70.94063 252.22931Q71.25313 252.74493 71.25313 253.33868Q71.25313 253.88556 70.95625 254.35431Q70.65938 254.80743 70.08125 255.07306Q70.83125 255.24493 71.25313 255.80743Q71.675 256.3543 71.675 257.19806Q71.675 258.32306 70.84688 259.1043Q70.03438 259.88556 68.78438 259.88556Q67.65938 259.88556 66.90938 259.21368Q66.15938 258.52618 66.05 257.46368ZM73.64375 259.7293L73.64375 258.52618L74.84688 258.52618L74.84688 259.7293L73.64375 259.7293ZM81.59688 258.71368L81.59688 259.7293L75.90938 259.7293Q75.90938 259.3543 76.03438 258.99493Q76.25313 258.4168 76.72188 257.8543Q77.20625 257.2918 78.1125 256.55743Q79.51875 255.40118 80.00313 254.72931Q80.50313 254.05743 80.50313 253.46368Q80.50313 252.83868 80.05 252.41681Q79.59688 251.97931 78.87813 251.97931Q78.1125 251.97931 77.65938 252.43243Q77.20625 252.88556 77.19063 253.69806L76.1125 253.58868Q76.22188 252.36993 76.94063 251.74493Q77.675 251.10431 78.90938 251.10431Q80.14375 251.10431 80.8625 251.79181Q81.58125 252.47931 81.58125 253.49493Q81.58125 254.01056 81.3625 254.51056Q81.15938 254.99493 80.65938 255.55743Q80.175 256.1043 79.05 257.05743Q78.09688 257.8543 77.81563 258.15118Q77.55 258.43243 77.37813 258.71368L81.59688 258.71368ZM83.05 255.49493Q83.05 253.96368 83.3625 253.04181Q83.675 252.10431 84.28438 251.60431Q84.90938 251.10431 85.84688 251.10431Q86.53438 251.10431 87.05 251.38556Q87.58125 251.66681 87.925 252.19806Q88.26875 252.71368 88.45625 253.46368Q88.64375 254.21368 88.64375 255.49493Q88.64375 257.01056 88.33125 257.93243Q88.03438 258.8543 87.40938 259.36993Q86.8 259.86993 85.84688 259.86993Q84.6125 259.86993 83.89375 258.9793Q83.05 257.9168 83.05 255.49493ZM84.12813 255.49493Q84.12813 257.6043 84.62813 258.30743Q85.12813 259.01056 85.84688 259.01056Q86.58125 259.01056 87.06563 258.30743Q87.56563 257.6043 87.56563 255.49493Q87.56563 253.36993 87.06563 252.68243Q86.58125 251.97931 85.83125 251.97931Q85.1125 251.97931 84.675 252.58868Q84.12813 253.36993 84.12813 255.49493ZM90.64375 259.7293L90.64375 258.52618L91.84688 258.52618L91.84688 259.7293L90.64375 259.7293ZM98.59688 258.71368L98.59688 259.7293L92.90938 259.7293Q92.90938 259.3543 93.03438 258.99493Q93.25313 258.4168 93.72188 257.8543Q94.20625 257.2918 95.1125 256.55743Q96.51875 255.40118 97.00313 254.72931Q97.50313 254.05743 97.50313 253.46368Q97.50313 252.83868 97.05 252.41681Q96.59688 251.97931 95.87813 251.97931Q95.1125 251.97931 94.65938 252.43243Q94.20625 252.88556 94.19063 253.69806L93.1125 253.58868Q93.22188 252.36993 93.94063 251.74493Q94.675 251.10431 95.90938 251.10431Q97.14375 251.10431 97.8625 251.79181Q98.58125 252.47931 98.58125 253.49493Q98.58125 254.01056 98.3625 254.51056Q98.15938 254.99493 97.65938 255.55743Q97.175 256.1043 96.05 257.05743Q95.09688 257.8543 94.81563 258.15118Q94.55 258.43243 94.37813 258.71368L98.59688 258.71368Z" fill-rule="nonzero"/><path fill="#000000" d="M102.55 313.21564Q102.55 311.6844 102.8625 310.7625Q103.175 309.825 103.78438 309.325Q104.40938 308.825 105.34688 308.825Q106.03438 308.825 106.55 309.10626Q107.08125 309.3875 107.425 309.91876Q107.76875 310.4344 107.95625 311.1844Q108.14375 311.9344 108.14375 313.21564Q108.14375 314.73126 107.83125 315.65314Q107.53438 316.575 106.90938 317.09064Q106.3 317.59064 105.34688 317.59064Q104.1125 317.59064 103.39375 316.7Q102.55 315.6375 102.55 313.21564ZM103.62813 313.21564Q103.62813 315.325 104.12813 316.02814Q104.62813 316.73126 105.34688 316.73126Q106.08125 316.73126 106.56563 316.02814Q107.06563 315.325 107.06563 313.21564Q107.06563 311.09064 106.56563 310.40314Q106.08125 309.7 105.33125 309.7Q104.6125 309.7 104.175 310.3094Q103.62813 311.09064 103.62813 313.21564Z" fill-rule="nonzero"/><path fill="#000000" d="M166.00626 317.45L164.95938 317.45L164.95938 310.73126Q164.56876 311.09064 163.94376 311.46564Q163.33438 311.825 162.85 311.9969L162.85 310.98126Q163.725 310.5594 164.38126 309.98126Q165.05313 309.3875 165.33438 308.825L166.00626 308.825L166.00626 317.45Z" fill-rule="nonzero"/><path fill="#000000" d="M227.07187 316.4344L227.07187 317.45L221.38437 317.45Q221.38437 317.075 221.50937 316.71564Q221.72812 316.1375 222.19687 315.575Q222.68124 315.0125 223.5875 314.27814Q224.99374 313.1219 225.47812 312.45Q225.97812 311.77814 225.97812 311.1844Q225.97812 310.5594 225.525 310.1375Q225.07187 309.7 224.35312 309.7Q223.5875 309.7 223.13437 310.15314Q222.68124 310.60626 222.66562 311.41876L221.5875 311.3094Q221.69687 310.09064 222.41562 309.46564Q223.15 308.825 224.38437 308.825Q225.61874 308.825 226.3375 309.5125Q227.05624 310.2 227.05624 311.21564Q227.05624 311.73126 226.8375 312.23126Q226.63437 312.71564 226.13437 313.27814Q225.65 313.825 224.525 314.77814Q223.57187 315.575 223.29062 315.8719Q223.025 316.15314 222.85312 316.4344L227.07187 316.4344Z" fill-rule="nonzero"/><path fill="#000000" d="M281.0125 315.1844L282.075 315.04376Q282.2469 315.9344 282.6844 316.34064Q283.1219 316.73126 283.7469 316.73126Q284.4969 316.73126 285.0125 316.21564Q285.52814 315.7 285.52814 314.9344Q285.52814 314.21564 285.04376 313.7469Q284.575 313.2625 283.84064 313.2625Q283.54376 313.2625 283.09064 313.3875L283.21564 312.45Q283.325 312.46564 283.3875 312.46564Q284.0594 312.46564 284.59064 312.1219Q285.1375 311.7625 285.1375 311.02814Q285.1375 310.45 284.7469 310.075Q284.35626 309.6844 283.73126 309.6844Q283.1219 309.6844 282.7 310.075Q282.29376 310.46564 282.1844 311.23126L281.1219 311.04376Q281.3094 309.9969 281.9969 309.41876Q282.6844 308.825 283.7 308.825Q284.40314 308.825 284.9969 309.1375Q285.59064 309.4344 285.90314 309.95Q286.21564 310.46564 286.21564 311.0594Q286.21564 311.60626 285.91876 312.075Q285.6219 312.52814 285.04376 312.79376Q285.79376 312.96564 286.21564 313.52814Q286.6375 314.075 286.6375 314.91876Q286.6375 316.04376 285.8094 316.825Q284.9969 317.60626 283.7469 317.60626Q282.6219 317.60626 281.8719 316.9344Q281.1219 316.2469 281.0125 315.1844Z" fill-rule="nonzero"/><path fill="#000000" d="M343.875 317.45L343.875 315.3875L340.15625 315.3875L340.15625 314.41876L344.07812 308.85626L344.9375 308.85626L344.9375 314.41876L346.09375 314.41876L346.09375 315.3875L344.9375 315.3875L344.9375 317.45L343.875 317.45ZM343.875 314.41876L343.875 310.5594L341.1875 314.41876L343.875 314.41876Z" fill-rule="nonzero"/><path fill="#000000" d="M399.9875 315.2L401.09686 315.10626Q401.22186 315.91876 401.65936 316.325Q402.1125 316.73126 402.7531 316.73126Q403.5031 316.73126 404.03436 316.15314Q404.5656 315.575 404.5656 314.6375Q404.5656 313.73126 404.05 313.21564Q403.55 312.6844 402.72186 312.6844Q402.22186 312.6844 401.8 312.91876Q401.39374 313.15314 401.15936 313.5125L400.175 313.3875L401.0031 308.98126L405.28436 308.98126L405.28436 309.98126L401.84686 309.98126L401.39374 312.29376Q402.15936 311.7469 403.0031 311.7469Q404.1281 311.7469 404.89374 312.52814Q405.675 313.3094 405.675 314.54376Q405.675 315.7 405.0031 316.5594Q404.175 317.59064 402.7531 317.59064Q401.58124 317.59064 400.83124 316.9344Q400.09686 316.27814 399.9875 315.2Z" fill-rule="nonzero"/><path fill="#000000" d="M464.94376 310.96564L463.89688 311.04376Q463.75626 310.41876 463.50626 310.1375Q463.06876 309.6844 462.44376 309.6844Q461.94376 309.6844 461.55313 309.96564Q461.06876 310.34064 460.77188 311.04376Q460.49063 311.73126 460.475 313.0125Q460.85 312.4344 461.39688 312.15314Q461.95938 311.8719 462.56876 311.8719Q463.61563 311.8719 464.35 312.65314Q465.1 313.4344 465.1 314.65314Q465.1 315.46564 464.74063 316.16876Q464.39688 316.85626 463.7875 317.23126Q463.17813 317.59064 462.4125 317.59064Q461.08438 317.59064 460.25626 316.6219Q459.42813 315.65314 459.42813 313.4344Q459.42813 310.9344 460.35 309.8094Q461.14688 308.825 462.50626 308.825Q463.52188 308.825 464.1625 309.40314Q464.81876 309.96564 464.94376 310.96564ZM460.64688 314.66876Q460.64688 315.21564 460.86563 315.71564Q461.1 316.2 461.50626 316.46564Q461.92813 316.73126 462.39688 316.73126Q463.05313 316.73126 463.5375 316.2Q464.02188 315.65314 464.02188 314.73126Q464.02188 313.84064 463.5375 313.325Q463.06876 312.8094 462.35 312.8094Q461.63126 312.8094 461.13126 313.325Q460.64688 313.84064 460.64688 314.66876Z" fill-rule="nonzero"/><path fill="#000000" d="M519.025 309.98126L519.025 308.96564L524.5875 308.96564L524.5875 309.79376Q523.775 310.66876 522.9625 312.1219Q522.16565 313.5594 521.72815 315.09064Q521.4 316.16876 521.3219 317.45L520.22815 317.45Q520.2438 316.4344 520.6188 314.9969Q521.0094 313.5594 521.7125 312.23126Q522.4313 310.90314 523.2438 309.98126L519.025 309.98126Z" fill-rule="nonzero"/><path fill="#000000" d="M580.075 312.79376Q579.41876 312.54376 579.09064 312.10626Q578.77814 311.65314 578.77814 311.04376Q578.77814 310.10626 579.45 309.46564Q580.1375 308.825 581.2469 308.825Q582.3719 308.825 583.0594 309.48126Q583.7469 310.1375 583.7469 311.075Q583.7469 311.66876 583.4344 312.10626Q583.1219 312.54376 582.48126 312.79376Q583.27814 313.04376 583.6844 313.6219Q584.09064 314.2 584.09064 314.9969Q584.09064 316.09064 583.3094 316.84064Q582.54376 317.59064 581.2625 317.59064Q579.9969 317.59064 579.21564 316.84064Q578.4344 316.09064 578.4344 314.96564Q578.4344 314.1219 578.85626 313.5594Q579.29376 312.9969 580.075 312.79376ZM579.85626 310.9969Q579.85626 311.60626 580.2469 311.9969Q580.65314 312.3875 581.27814 312.3875Q581.8875 312.3875 582.27814 312.0125Q582.66876 311.6219 582.66876 311.0594Q582.66876 310.48126 582.2625 310.09064Q581.85626 309.6844 581.2625 309.6844Q580.65314 309.6844 580.2469 310.075Q579.85626 310.46564 579.85626 310.9969ZM579.52814 314.96564Q579.52814 315.41876 579.73126 315.84064Q579.95 316.2625 580.3719 316.4969Q580.79376 316.73126 581.27814 316.73126Q582.02814 316.73126 582.5125 316.2469Q583.0125 315.7625 583.0125 315.0125Q583.0125 314.2469 582.5125 313.7469Q582.0125 313.2469 581.2469 313.2469Q580.4969 313.2469 580.0125 313.7469Q579.52814 314.23126 579.52814 314.96564Z" fill-rule="nonzero"/><path fill="#4285f4" d="M186.0 20.55C186.0 19.997715 186.44771 19.55 187.0 19.55L197.0 19.55C197.55229 19.55 198.0 19.997715 198.0 20.55L198.0 30.55C198.0 31.102285 197.55229 31.55 197.0 31.55L187.0 31.55C186.44771 31.55 186.0 31.102285 186.0 30.55Z" fill-rule="nonzero"/><path fill="#1a1a1a" d="M206.875 29.55L206.875 20.95625L208.01562 20.95625L208.01562 28.534374L212.25 28.534374L212.25 29.55L206.875 29.55ZM213.40625 26.440624Q213.40625 24.70625 214.35938 23.878124Q215.15625 23.190624 216.3125 23.190624Q217.59375 23.190624 218.40625 24.034374Q219.23438 24.8625 219.23438 26.346874Q219.23438 27.55 218.875 28.2375Q218.51562 28.925 217.8125 29.315624Q217.125 29.690624 216.3125 29.690624Q215.01562 29.690624 214.20312 28.8625Q213.40625 28.01875 213.40625 26.440624ZM214.48438 26.440624Q214.48438 27.628124 215.0 28.221874Q215.53125 28.815624 216.3125 28.815624Q217.10938 28.815624 217.625 28.221874Q218.14062 27.628124 218.14062 26.409374Q218.14062 25.253124 217.60938 24.659374Q217.09375 24.065624 216.3125 24.065624Q215.53125 24.065624 215.0 24.659374Q214.48438 25.2375 214.48438 26.440624ZM220.40625 26.440624Q220.40625 24.70625 221.35938 23.878124Q222.15625 23.190624 223.3125 23.190624Q224.59375 23.190624 225.40625 24.034374Q226.23438 24.8625 226.23438 26.346874Q226.23438 27.55 225.875 28.2375Q225.51562 28.925 224.8125 29.315624Q224.125 29.690624 223.3125 29.690624Q222.01562 29.690624 221.20312 28.8625Q220.40625 28.01875 220.40625 26.440624ZM221.48438 26.440624Q221.48438 27.628124 222.0 28.221874Q222.53125 28.815624 223.3125 28.815624Q224.10938 28.815624 224.625 28.221874Q225.14062 27.628124 225.14062 26.409374Q225.14062 25.253124 224.60938 24.659374Q224.09375 24.065624 223.3125 24.065624Q222.53125 24.065624 222.0 24.659374Q221.48438 25.2375 221.48438 26.440624ZM227.375 27.690624L228.40625 27.534374Q228.5 28.159374 228.89062 28.4875Q229.29688 28.815624 230.03125 28.815624Q230.75 28.815624 231.09375 28.534374Q231.45312 28.2375 231.45312 27.83125Q231.45312 27.471874 231.14062 27.26875Q230.92188 27.128124 230.0625 26.909374Q228.90625 26.6125 228.45312 26.409374Q228.01562 26.190624 227.78125 25.815624Q227.54688 25.440624 227.54688 24.971874Q227.54688 24.565624 227.73438 24.20625Q227.92188 23.846874 228.25 23.6125Q228.5 23.440624 228.92188 23.315624Q229.34375 23.190624 229.84375 23.190624Q230.5625 23.190624 231.10938 23.409374Q231.67188 23.6125 231.9375 23.971874Q232.20312 24.33125 232.29688 24.925L231.26562 25.065624Q231.20312 24.596874 230.85938 24.33125Q230.53125 24.05 229.90625 24.05Q229.1875 24.05 228.875 24.3Q228.5625 24.534374 228.5625 24.8625Q228.5625 25.065624 228.6875 25.221874Q228.82812 25.39375 229.09375 25.503124Q229.25 25.565624 230.03125 25.76875Q231.15625 26.08125 231.59375 26.26875Q232.03125 26.45625 232.28125 26.815624Q232.53125 27.175 232.53125 27.721874Q232.53125 28.253124 232.21875 28.721874Q231.92188 29.175 231.34375 29.440624Q230.76562 29.690624 230.03125 29.690624Q228.8125 29.690624 228.17188 29.190624Q227.54688 28.675 227.375 27.690624ZM239.04688 27.55L240.14062 27.675Q239.89062 28.628124 239.1875 29.159374Q238.48438 29.690624 237.40625 29.690624Q236.04688 29.690624 235.23438 28.846874Q234.4375 28.003124 234.4375 26.4875Q234.4375 24.925 235.25 24.065624Q236.0625 23.190624 237.34375 23.190624Q238.59375 23.190624 239.375 24.034374Q240.17188 24.878124 240.17188 26.425Q240.17188 26.51875 240.17188 26.70625L235.53125 26.70625Q235.59375 27.7375 236.10938 28.284374Q236.625 28.815624 237.40625 28.815624Q237.98438 28.815624 238.39062 28.51875Q238.8125 28.20625 239.04688 27.55ZM235.59375 25.846874L239.0625 25.846874Q239.0 25.05 238.67188 24.659374Q238.15625 24.05 237.35938 24.05Q236.625 24.05 236.125 24.534374Q235.64062 25.01875 235.59375 25.846874ZM246.51562 29.55L244.15625 23.33125L245.26562 23.33125L246.60938 27.05Q246.8125 27.659374 247.0 28.3Q247.14062 27.815624 247.39062 27.128124L248.78125 23.33125L249.85938 23.33125L247.5 29.55L246.51562 29.55ZM253.85938 28.784374Q253.26562 29.284374 252.71875 29.4875Q252.1875 29.690624 251.5625 29.690624Q250.53125 29.690624 249.98438 29.190624Q249.4375 28.690624 249.4375 27.909374Q249.4375 27.45625 249.64062 27.08125Q249.84375 26.690624 250.1875 26.471874Q250.53125 26.2375 250.95312 26.128124Q251.25 26.034374 251.89062 25.95625Q253.15625 25.815624 253.76562 25.596874Q253.76562 25.378124 253.76562 25.33125Q253.76562 24.675 253.46875 24.409374Q253.0625 24.065624 252.26562 24.065624Q251.53125 24.065624 251.17188 24.33125Q250.8125 24.58125 250.64062 25.2375L249.60938 25.096874Q249.75 24.440624 250.07812 24.034374Q250.40625 23.628124 251.01562 23.409374Q251.625 23.190624 252.42188 23.190624Q253.21875 23.190624 253.71875 23.378124Q254.21875 23.565624 254.45312 23.846874Q254.6875 24.128124 254.78125 24.565624Q254.82812 24.83125 254.82812 25.534374L254.82812 26.940624Q254.82812 28.409374 254.89062 28.8Q254.96875 29.190624 255.17188 29.55L254.0625 29.55Q253.90625 29.221874 253.85938 28.784374ZM253.76562 26.425Q253.1875 26.659374 252.04688 26.83125Q251.39062 26.925 251.125 27.05Q250.85938 27.159374 250.70312 27.378124Q250.5625 27.596874 250.5625 27.878124Q250.5625 28.3 250.875 28.58125Q251.20312 28.8625 251.8125 28.8625Q252.42188 28.8625 252.89062 28.596874Q253.375 28.33125 253.59375 27.8625Q253.76562 27.503124 253.76562 26.815624L253.76562 26.425ZM256.76562 29.55L256.76562 20.95625L257.82812 20.95625L257.82812 29.55L256.76562 29.55ZM259.79688 22.175L259.79688 20.95625L260.85938 20.95625L260.85938 22.175L259.79688 22.175ZM259.79688 29.55L259.79688 23.33125L260.85938 23.33125L260.85938 29.55L259.79688 29.55ZM266.82812 29.55L266.82812 28.76875Q266.23438 29.690624 265.09375 29.690624Q264.34375 29.690624 263.71875 29.284374Q263.09375 28.8625 262.75 28.128124Q262.40625 27.39375 262.40625 26.440624Q262.40625 25.51875 262.71875 24.753124Q263.03125 23.9875 263.65625 23.596874Q264.28125 23.190624 265.04688 23.190624Q265.60938 23.190624 266.04688 23.425Q266.48438 23.659374 266.76562 24.034374L266.76562 20.95625L267.8125 20.95625L267.8125 29.55L266.82812 29.55ZM263.5 26.440624Q263.5 27.64375 264.0 28.2375Q264.5 28.815624 265.1875 28.815624Q265.875 28.815624 266.35938 28.253124Q266.84375 27.690624 266.84375 26.534374Q266.84375 25.253124 266.34375 24.659374Q265.85938 24.065624 265.14062 24.065624Q264.4375 24.065624 263.96875 24.64375Q263.5 25.20625 263.5 26.440624ZM273.85938 28.784374Q273.26562 29.284374 272.71875 29.4875Q272.1875 29.690624 271.5625 29.690624Q270.53125 29.690624 269.98438 29.190624Q269.4375 28.690624 269.4375 27.909374Q269.4375 27.45625 269.64062 27.08125Q269.84375 26.690624 270.1875 26.471874Q270.53125 26.2375 270.95312 26.128124Q271.25 26.034374 271.89062 25.95625Q273.15625 25.815624 273.76562 25.596874Q273.76562 25.378124 273.76562 25.33125Q273.76562 24.675 273.46875 24.409374Q273.0625 24.065624 272.26562 24.065624Q271.53125 24.065624 271.17188 24.33125Q270.8125 24.58125 270.64062 25.2375L269.60938 25.096874Q269.75 24.440624 270.07812 24.034374Q270.40625 23.628124 271.01562 23.409374Q271.625 23.190624 272.42188 23.190624Q273.21875 23.190624 273.71875 23.378124Q274.21875 23.565624 274.45312 23.846874Q274.6875 24.128124 274.78125 24.565624Q274.82812 24.83125 274.82812 25.534374L274.82812 26.940624Q274.82812 28.409374 274.89062 28.8Q274.96875 29.190624 275.17188 29.55L274.0625 29.55Q273.90625 29.221874 273.85938 28.784374ZM273.76562 26.425Q273.1875 26.659374 272.04688 26.83125Q271.39062 26.925 271.125 27.05Q270.85938 27.159374 270.70312 27.378124Q270.5625 27.596874 270.5625 27.878124Q270.5625 28.3 270.875 28.58125Q271.20312 28.8625 271.8125 28.8625Q272.42188 28.8625 272.89062 28.596874Q273.375 28.33125 273.59375 27.8625Q273.76562 27.503124 273.76562 26.815624L273.76562 26.425ZM279.09375 28.6125L279.25 29.534374Q278.79688 29.628124 278.45312 29.628124Q277.875 29.628124 277.5625 29.45625Q277.25 29.26875 277.10938 28.971874Q276.98438 28.675 276.98438 27.721874L276.98438 24.14375L276.21875 24.14375L276.21875 23.33125L276.98438 23.33125L276.98438 21.784374L278.03125 21.159374L278.03125 23.33125L279.09375 23.33125L279.09375 24.14375L278.03125 24.14375L278.03125 27.784374Q278.03125 28.2375 278.07812 28.3625Q278.14062 28.4875 278.26562 28.565624Q278.39062 28.64375 278.625 28.64375Q278.8125 28.64375 279.09375 28.6125ZM279.79688 22.175L279.79688 20.95625L280.85938 20.95625L280.85938 22.175L279.79688 22.175ZM279.79688 29.55L279.79688 23.33125L280.85938 23.33125L280.85938 29.55L279.79688 29.55ZM282.40625 26.440624Q282.40625 24.70625 283.35938 23.878124Q284.15625 23.190624 285.3125 23.190624Q286.59375 23.190624 287.40625 24.034374Q288.23438 24.8625 288.23438 26.346874Q288.23438 27.55 287.875 28.2375Q287.51562 28.925 286.8125 29.315624Q286.125 29.690624 285.3125 29.690624Q284.01562 29.690624 283.20312 28.8625Q282.40625 28.01875 282.40625 26.440624ZM283.48438 26.440624Q283.48438 27.628124 284.0 28.221874Q284.53125 28.815624 285.3125 28.815624Q286.10938 28.815624 286.625 28.221874Q287.14062 27.628124 287.14062 26.409374Q287.14062 25.253124 286.60938 24.659374Q286.09375 24.065624 285.3125 24.065624Q284.53125 24.065624 284.0 24.659374Q283.48438 25.2375 283.48438 26.440624ZM289.79688 29.55L289.79688 23.33125L290.73438 23.33125L290.73438 24.20625Q291.42188 23.190624 292.71875 23.190624Q293.28125 23.190624 293.75 23.39375Q294.23438 23.596874 294.46875 23.925Q294.70312 24.253124 294.79688 24.690624Q294.84375 24.9875 294.84375 25.721874L294.84375 29.55L293.79688 29.55L293.79688 25.76875Q293.79688 25.1125 293.67188 24.8Q293.54688 24.4875 293.23438 24.3Q292.92188 24.096874 292.5 24.096874Q291.82812 24.096874 291.32812 24.534374Q290.84375 24.95625 290.84375 26.14375L290.84375 29.55L289.79688 29.55Z" fill-rule="nonzero"/><path fill="#ea4335" d="M312.0 20.55C312.0 19.997715 312.44772 19.55 313.0 19.55L323.0 19.55C323.55228 19.55 324.0 19.997715 324.0 20.55L324.0 30.55C324.0 31.102285 323.55228 31.55 323.0 31.55L313.0 31.55C312.44772 31.55 312.0 31.102285 312.0 30.55Z" fill-rule="nonzero"/><path fill="#1a1a1a" d="M332.54688 26.784374L333.60938 26.690624Q333.6875 27.346874 333.96875 27.753124Q334.25 28.159374 334.82812 28.425Q335.42188 28.675 336.15625 28.675Q336.79688 28.675 337.29688 28.4875Q337.79688 28.284374 338.03125 27.95625Q338.28125 27.6125 338.28125 27.221874Q338.28125 26.815624 338.04688 26.51875Q337.8125 26.20625 337.28125 26.003124Q336.92188 25.8625 335.73438 25.58125Q334.5625 25.3 334.09375 25.05Q333.46875 24.721874 333.17188 24.253124Q332.875 23.76875 332.875 23.175Q332.875 22.534374 333.23438 21.971874Q333.60938 21.39375 334.3125 21.1125Q335.03125 20.815624 335.89062 20.815624Q336.84375 20.815624 337.57812 21.128124Q338.3125 21.425 338.70312 22.034374Q339.09375 22.628124 339.125 23.378124L338.03125 23.45625Q337.9375 22.64375 337.42188 22.2375Q336.92188 21.815624 335.9375 21.815624Q334.90625 21.815624 334.4375 22.190624Q333.96875 22.565624 333.96875 23.096874Q333.96875 23.565624 334.29688 23.8625Q334.625 24.159374 336.0 24.471874Q337.39062 24.784374 337.90625 25.01875Q338.65625 25.378124 339.01562 25.909374Q339.375 26.425 339.375 27.128124Q339.375 27.815624 338.98438 28.425Q338.59375 29.01875 337.85938 29.3625Q337.125 29.690624 336.20312 29.690624Q335.03125 29.690624 334.23438 29.3625Q333.45312 29.01875 333.0 28.33125Q332.5625 27.64375 332.54688 26.784374ZM343.09375 28.6125L343.25 29.534374Q342.79688 29.628124 342.45312 29.628124Q341.875 29.628124 341.5625 29.45625Q341.25 29.26875 341.10938 28.971874Q340.98438 28.675 340.98438 27.721874L340.98438 24.14375L340.21875 24.14375L340.21875 23.33125L340.98438 23.33125L340.98438 21.784374L342.03125 21.159374L342.03125 23.33125L343.09375 23.33125L343.09375 24.14375L342.03125 24.14375L342.03125 27.784374Q342.03125 28.2375 342.07812 28.3625Q342.14062 28.4875 342.26562 28.565624Q342.39062 28.64375 342.625 28.64375Q342.8125 28.64375 343.09375 28.6125ZM343.78125 29.55L343.78125 23.33125L344.73438 23.33125L344.73438 24.26875Q345.09375 23.6125 345.39062 23.409374Q345.70312 23.190624 346.07812 23.190624Q346.60938 23.190624 347.15625 23.51875L346.79688 24.503124Q346.40625 24.26875 346.03125 24.26875Q345.67188 24.26875 345.39062 24.4875Q345.125 24.690624 345.01562 25.065624Q344.82812 25.628124 344.82812 26.284374L344.82812 29.55L343.78125 29.55ZM347.79688 22.175L347.79688 20.95625L348.85938 20.95625L348.85938 22.175L347.79688 22.175ZM347.79688 29.55L347.79688 23.33125L348.85938 23.33125L348.85938 29.55L347.79688 29.55ZM354.85938 27.26875L355.89062 27.409374Q355.71875 28.471874 355.01562 29.08125Q354.3125 29.690624 353.29688 29.690624Q352.01562 29.690624 351.23438 28.8625Q350.46875 28.01875 350.46875 26.45625Q350.46875 25.45625 350.79688 24.70625Q351.14062 23.940624 351.8125 23.565624Q352.5 23.190624 353.3125 23.190624Q354.3125 23.190624 354.95312 23.70625Q355.60938 24.20625 355.79688 25.159374L354.76562 25.315624Q354.625 24.690624 354.25 24.378124Q353.875 24.05 353.34375 24.05Q352.54688 24.05 352.04688 24.628124Q351.54688 25.190624 351.54688 26.425Q351.54688 27.690624 352.03125 28.253124Q352.51562 28.815624 353.28125 28.815624Q353.90625 28.815624 354.3125 28.440624Q354.73438 28.065624 354.85938 27.26875ZM359.09375 28.6125L359.25 29.534374Q358.79688 29.628124 358.45312 29.628124Q357.875 29.628124 357.5625 29.45625Q357.25 29.26875 357.10938 28.971874Q356.98438 28.675 356.98438 27.721874L356.98438 24.14375L356.21875 24.14375L356.21875 23.33125L356.98438 23.33125L356.98438 21.784374L358.03125 21.159374L358.03125 23.33125L359.09375 23.33125L359.09375 24.14375L358.03125 24.14375L358.03125 27.784374Q358.03125 28.2375 358.07812 28.3625Q358.14062 28.4875 358.26562 28.565624Q358.39062 28.64375 358.625 28.64375Q358.8125 28.64375 359.09375 28.6125ZM364.51562 29.55L362.15625 23.33125L363.26562 23.33125L364.60938 27.05Q364.8125 27.659374 365.0 28.3Q365.14062 27.815624 365.39062 27.128124L366.78125 23.33125L367.85938 23.33125L365.5 29.55L364.51562 29.55ZM371.85938 28.784374Q371.26562 29.284374 370.71875 29.4875Q370.1875 29.690624 369.5625 29.690624Q368.53125 29.690624 367.98438 29.190624Q367.4375 28.690624 367.4375 27.909374Q367.4375 27.45625 367.64062 27.08125Q367.84375 26.690624 368.1875 26.471874Q368.53125 26.2375 368.95312 26.128124Q369.25 26.034374 369.89062 25.95625Q371.15625 25.815624 371.76562 25.596874Q371.76562 25.378124 371.76562 25.33125Q371.76562 24.675 371.46875 24.409374Q371.0625 24.065624 370.26562 24.065624Q369.53125 24.065624 369.17188 24.33125Q368.8125 24.58125 368.64062 25.2375L367.60938 25.096874Q367.75 24.440624 368.07812 24.034374Q368.40625 23.628124 369.01562 23.409374Q369.625 23.190624 370.42188 23.190624Q371.21875 23.190624 371.71875 23.378124Q372.21875 23.565624 372.45312 23.846874Q372.6875 24.128124 372.78125 24.565624Q372.82812 24.83125 372.82812 25.534374L372.82812 26.940624Q372.82812 28.409374 372.89062 28.8Q372.96875 29.190624 373.17188 29.55L372.0625 29.55Q371.90625 29.221874 371.85938 28.784374ZM371.76562 26.425Q371.1875 26.659374 370.04688 26.83125Q369.39062 26.925 369.125 27.05Q368.85938 27.159374 368.70312 27.378124Q368.5625 27.596874 368.5625 27.878124Q368.5625 28.3 368.875 28.58125Q369.20312 28.8625 369.8125 28.8625Q370.42188 28.8625 370.89062 28.596874Q371.375 28.33125 371.59375 27.8625Q371.76562 27.503124 371.76562 26.815624L371.76562 26.425ZM374.76562 29.55L374.76562 20.95625L375.82812 20.95625L375.82812 29.55L374.76562 29.55ZM377.79688 22.175L377.79688 20.95625L378.85938 20.95625L378.85938 22.175L377.79688 22.175ZM377.79688 29.55L377.79688 23.33125L378.85938 23.33125L378.85938 29.55L377.79688 29.55ZM384.82812 29.55L384.82812 28.76875Q384.23438 29.690624 383.09375 29.690624Q382.34375 29.690624 381.71875 29.284374Q381.09375 28.8625 380.75 28.128124Q380.40625 27.39375 380.40625 26.440624Q380.40625 25.51875 380.71875 24.753124Q381.03125 23.9875 381.65625 23.596874Q382.28125 23.190624 383.04688 23.190624Q383.60938 23.190624 384.04688 23.425Q384.48438 23.659374 384.76562 24.034374L384.76562 20.95625L385.8125 20.95625L385.8125 29.55L384.82812 29.55ZM381.5 26.440624Q381.5 27.64375 382.0 28.2375Q382.5 28.815624 383.1875 28.815624Q383.875 28.815624 384.35938 28.253124Q384.84375 27.690624 384.84375 26.534374Q384.84375 25.253124 384.34375 24.659374Q383.85938 24.065624 383.14062 24.065624Q382.4375 24.065624 381.96875 24.64375Q381.5 25.20625 381.5 26.440624ZM391.85938 28.784374Q391.26562 29.284374 390.71875 29.4875Q390.1875 29.690624 389.5625 29.690624Q388.53125 29.690624 387.98438 29.190624Q387.4375 28.690624 387.4375 27.909374Q387.4375 27.45625 387.64062 27.08125Q387.84375 26.690624 388.1875 26.471874Q388.53125 26.2375 388.95312 26.128124Q389.25 26.034374 389.89062 25.95625Q391.15625 25.815624 391.76562 25.596874Q391.76562 25.378124 391.76562 25.33125Q391.76562 24.675 391.46875 24.409374Q391.0625 24.065624 390.26562 24.065624Q389.53125 24.065624 389.17188 24.33125Q388.8125 24.58125 388.64062 25.2375L387.60938 25.096874Q387.75 24.440624 388.07812 24.034374Q388.40625 23.628124 389.01562 23.409374Q389.625 23.190624 390.42188 23.190624Q391.21875 23.190624 391.71875 23.378124Q392.21875 23.565624 392.45312 23.846874Q392.6875 24.128124 392.78125 24.565624Q392.82812 24.83125 392.82812 25.534374L392.82812 26.940624Q392.82812 28.409374 392.89062 28.8Q392.96875 29.190624 393.17188 29.55L392.0625 29.55Q391.90625 29.221874 391.85938 28.784374ZM391.76562 26.425Q391.1875 26.659374 390.04688 26.83125Q389.39062 26.925 389.125 27.05Q388.85938 27.159374 388.70312 27.378124Q388.5625 27.596874 388.5625 27.878124Q388.5625 28.3 388.875 28.58125Q389.20312 28.8625 389.8125 28.8625Q390.42188 28.8625 390.89062 28.596874Q391.375 28.33125 391.59375 27.8625Q391.76562 27.503124 391.76562 26.815624L391.76562 26.425ZM397.09375 28.6125L397.25 29.534374Q396.79688 29.628124 396.45312 29.628124Q395.875 29.628124 395.5625 29.45625Q395.25 29.26875 395.10938 28.971874Q394.98438 28.675 394.98438 27.721874L394.98438 24.14375L394.21875 24.14375L394.21875 23.33125L394.98438 23.33125L394.98438 21.784374L396.03125 21.159374L396.03125 23.33125L397.09375 23.33125L397.09375 24.14375L396.03125 24.14375L396.03125 27.784374Q396.03125 28.2375 396.07812 28.3625Q396.14062 28.4875 396.26562 28.565624Q396.39062 28.64375 396.625 28.64375Q396.8125 28.64375 397.09375 28.6125ZM397.79688 22.175L397.79688 20.95625L398.85938 20.95625L398.85938 22.175L397.79688 22.175ZM397.79688 29.55L397.79688 23.33125L398.85938 23.33125L398.85938 29.55L397.79688 29.55ZM400.40625 26.440624Q400.40625 24.70625 401.35938 23.878124Q402.15625 23.190624 403.3125 23.190624Q404.59375 23.190624 405.40625 24.034374Q406.23438 24.8625 406.23438 26.346874Q406.23438 27.55 405.875 28.2375Q405.51562 28.925 404.8125 29.315624Q404.125 29.690624 403.3125 29.690624Q402.01562 29.690624 401.20312 28.8625Q400.40625 28.01875 400.40625 26.440624ZM401.48438 26.440624Q401.48438 27.628124 402.0 28.221874Q402.53125 28.815624 403.3125 28.815624Q404.10938 28.815624 404.625 28.221874Q405.14062 27.628124 405.14062 26.409374Q405.14062 25.253124 404.60938 24.659374Q404.09375 24.065624 403.3125 24.065624Q402.53125 24.065624 402.0 24.659374Q401.48438 25.2375 401.48438 26.440624ZM407.79688 29.55L407.79688 23.33125L408.73438 23.33125L408.73438 24.20625Q409.42188 23.190624 410.71875 23.190624Q411.28125 23.190624 411.75 23.39375Q412.23438 23.596874 412.46875 23.925Q412.70312 24.253124 412.79688 24.690624Q412.84375 24.9875 412.84375 25.721874L412.84375 29.55L411.79688 29.55L411.79688 25.76875Q411.79688 25.1125 411.67188 24.8Q411.54688 24.4875 411.23438 24.3Q410.92188 24.096874 410.5 24.096874Q409.82812 24.096874 409.32812 24.534374Q408.84375 24.95625 408.84375 26.14375L408.84375 29.55L407.79688 29.55Z" fill-rule="nonzero"/></svg>